ISO-10303-21;
HEADER;
/* Generated by software containing ST-Developer
 * from STEP Tools, Inc. (www.steptools.com) 
 */
/* OPTION: using custom renumber hook */

FILE_DESCRIPTION(
/* description */ ('STEP AP242',
'CAx-IF Rec.Pracs.---Representation and Presentation of Product Manufa
cturing Information (PMI)---4.0---2014-10-13',
'CAx-IF Rec.Pracs.---3D Tessellated Geometry---0.4---2014-09-14','2;1'),

/* implementation_level */ '2;1');

FILE_NAME(
/* name */ '67efddc15a198075e262072c',
/* time_stamp */ '2025-04-04T13:25:21Z',
/* author */ (''),
/* organization */ (''),
/* preprocessor_version */ 'ST-DEVELOPER v20',
/* originating_system */ 'ONSHAPE BY PTC INC, 1.195',
/* authorisation */ '  ');

FILE_SCHEMA (('AP242_MANAGED_MODEL_BASED_3D_ENGINEERING_MIM_LF { 1 0 10303 442 1 1 4 }'));
ENDSEC;

DATA;
#10=SHAPE_REPRESENTATION_RELATIONSHIP('','',#1282,#11);
#11=ADVANCED_BREP_SHAPE_REPRESENTATION('',(#1280),#1928);
#12=CYLINDRICAL_SURFACE('',#1305,0.0004);
#13=CYLINDRICAL_SURFACE('',#1307,0.0004);
#14=CIRCLE('',#1291,0.0004);
#15=CIRCLE('',#1293,0.0004);
#16=CIRCLE('',#1306,0.0004);
#17=CIRCLE('',#1308,0.0004);
#18=ORIENTED_EDGE('',*,*,#314,.T.);
#19=ORIENTED_EDGE('',*,*,#315,.F.);
#20=ORIENTED_EDGE('',*,*,#316,.F.);
#21=ORIENTED_EDGE('',*,*,#317,.T.);
#22=ORIENTED_EDGE('',*,*,#318,.F.);
#23=ORIENTED_EDGE('',*,*,#319,.F.);
#24=ORIENTED_EDGE('',*,*,#320,.F.);
#25=ORIENTED_EDGE('',*,*,#321,.F.);
#26=ORIENTED_EDGE('',*,*,#322,.T.);
#27=ORIENTED_EDGE('',*,*,#316,.T.);
#28=ORIENTED_EDGE('',*,*,#323,.T.);
#29=ORIENTED_EDGE('',*,*,#320,.T.);
#30=ORIENTED_EDGE('',*,*,#324,.T.);
#31=ORIENTED_EDGE('',*,*,#325,.T.);
#32=ORIENTED_EDGE('',*,*,#326,.T.);
#33=ORIENTED_EDGE('',*,*,#327,.T.);
#34=ORIENTED_EDGE('',*,*,#328,.T.);
#35=ORIENTED_EDGE('',*,*,#329,.F.);
#36=ORIENTED_EDGE('',*,*,#325,.F.);
#37=ORIENTED_EDGE('',*,*,#330,.T.);
#38=ORIENTED_EDGE('',*,*,#331,.F.);
#39=ORIENTED_EDGE('',*,*,#332,.F.);
#40=ORIENTED_EDGE('',*,*,#327,.F.);
#41=ORIENTED_EDGE('',*,*,#333,.F.);
#42=ORIENTED_EDGE('',*,*,#334,.T.);
#43=ORIENTED_EDGE('',*,*,#335,.T.);
#44=ORIENTED_EDGE('',*,*,#336,.T.);
#45=ORIENTED_EDGE('',*,*,#337,.F.);
#46=ORIENTED_EDGE('',*,*,#338,.F.);
#47=ORIENTED_EDGE('',*,*,#339,.T.);
#48=ORIENTED_EDGE('',*,*,#340,.F.);
#49=ORIENTED_EDGE('',*,*,#341,.T.);
#50=ORIENTED_EDGE('',*,*,#318,.T.);
#51=ORIENTED_EDGE('',*,*,#342,.F.);
#52=ORIENTED_EDGE('',*,*,#314,.F.);
#53=ORIENTED_EDGE('',*,*,#343,.F.);
#54=ORIENTED_EDGE('',*,*,#344,.F.);
#55=ORIENTED_EDGE('',*,*,#345,.T.);
#56=ORIENTED_EDGE('',*,*,#328,.F.);
#57=ORIENTED_EDGE('',*,*,#346,.F.);
#58=ORIENTED_EDGE('',*,*,#347,.F.);
#59=ORIENTED_EDGE('',*,*,#348,.T.);
#60=ORIENTED_EDGE('',*,*,#349,.F.);
#61=ORIENTED_EDGE('',*,*,#343,.T.);
#62=ORIENTED_EDGE('',*,*,#317,.F.);
#63=ORIENTED_EDGE('',*,*,#322,.F.);
#64=ORIENTED_EDGE('',*,*,#319,.T.);
#65=ORIENTED_EDGE('',*,*,#341,.F.);
#66=ORIENTED_EDGE('',*,*,#350,.F.);
#67=ORIENTED_EDGE('',*,*,#346,.T.);
#68=ORIENTED_EDGE('',*,*,#330,.F.);
#69=ORIENTED_EDGE('',*,*,#324,.F.);
#70=ORIENTED_EDGE('',*,*,#332,.T.);
#71=ORIENTED_EDGE('',*,*,#351,.F.);
#72=ORIENTED_EDGE('',*,*,#352,.F.);
#73=ORIENTED_EDGE('',*,*,#342,.T.);
#74=ORIENTED_EDGE('',*,*,#321,.T.);
#75=ORIENTED_EDGE('',*,*,#323,.F.);
#76=ORIENTED_EDGE('',*,*,#315,.T.);
#77=ORIENTED_EDGE('',*,*,#345,.F.);
#78=ORIENTED_EDGE('',*,*,#353,.F.);
#79=ORIENTED_EDGE('',*,*,#354,.T.);
#80=ORIENTED_EDGE('',*,*,#333,.T.);
#81=ORIENTED_EDGE('',*,*,#326,.F.);
#82=ORIENTED_EDGE('',*,*,#329,.T.);
#83=ORIENTED_EDGE('',*,*,#348,.F.);
#84=ORIENTED_EDGE('',*,*,#355,.F.);
#85=ORIENTED_EDGE('',*,*,#351,.T.);
#86=ORIENTED_EDGE('',*,*,#331,.T.);
#87=ORIENTED_EDGE('',*,*,#354,.F.);
#88=ORIENTED_EDGE('',*,*,#356,.T.);
#89=ORIENTED_EDGE('',*,*,#357,.T.);
#90=ORIENTED_EDGE('',*,*,#358,.F.);
#91=ORIENTED_EDGE('',*,*,#359,.T.);
#92=ORIENTED_EDGE('',*,*,#360,.F.);
#93=ORIENTED_EDGE('',*,*,#361,.T.);
#94=ORIENTED_EDGE('',*,*,#362,.T.);
#95=ORIENTED_EDGE('',*,*,#363,.F.);
#96=ORIENTED_EDGE('',*,*,#364,.T.);
#97=ORIENTED_EDGE('',*,*,#334,.F.);
#98=ORIENTED_EDGE('',*,*,#365,.T.);
#99=ORIENTED_EDGE('',*,*,#335,.F.);
#100=ORIENTED_EDGE('',*,*,#366,.T.);
#101=ORIENTED_EDGE('',*,*,#367,.T.);
#102=ORIENTED_EDGE('',*,*,#368,.T.);
#103=ORIENTED_EDGE('',*,*,#362,.F.);
#104=ORIENTED_EDGE('',*,*,#369,.T.);
#105=ORIENTED_EDGE('',*,*,#366,.F.);
#106=ORIENTED_EDGE('',*,*,#361,.F.);
#107=ORIENTED_EDGE('',*,*,#370,.F.);
#108=ORIENTED_EDGE('',*,*,#371,.T.);
#109=ORIENTED_EDGE('',*,*,#372,.T.);
#110=ORIENTED_EDGE('',*,*,#338,.T.);
#111=ORIENTED_EDGE('',*,*,#373,.T.);
#112=ORIENTED_EDGE('',*,*,#374,.F.);
#113=ORIENTED_EDGE('',*,*,#375,.F.);
#114=ORIENTED_EDGE('',*,*,#336,.F.);
#115=ORIENTED_EDGE('',*,*,#376,.F.);
#116=ORIENTED_EDGE('',*,*,#376,.T.);
#117=ORIENTED_EDGE('',*,*,#339,.F.);
#118=ORIENTED_EDGE('',*,*,#372,.F.);
#119=ORIENTED_EDGE('',*,*,#377,.T.);
#120=ORIENTED_EDGE('',*,*,#375,.T.);
#121=ORIENTED_EDGE('',*,*,#378,.F.);
#122=ORIENTED_EDGE('',*,*,#373,.F.);
#123=ORIENTED_EDGE('',*,*,#337,.T.);
#124=ORIENTED_EDGE('',*,*,#379,.T.);
#125=ORIENTED_EDGE('',*,*,#380,.T.);
#126=ORIENTED_EDGE('',*,*,#381,.T.);
#127=ORIENTED_EDGE('',*,*,#382,.T.);
#128=ORIENTED_EDGE('',*,*,#383,.T.);
#129=ORIENTED_EDGE('',*,*,#384,.F.);
#130=ORIENTED_EDGE('',*,*,#357,.F.);
#131=ORIENTED_EDGE('',*,*,#385,.T.);
#132=ORIENTED_EDGE('',*,*,#386,.T.);
#133=ORIENTED_EDGE('',*,*,#387,.T.);
#134=ORIENTED_EDGE('',*,*,#388,.T.);
#135=ORIENTED_EDGE('',*,*,#389,.T.);
#136=ORIENTED_EDGE('',*,*,#349,.T.);
#137=ORIENTED_EDGE('',*,*,#340,.T.);
#138=ORIENTED_EDGE('',*,*,#352,.T.);
#139=ORIENTED_EDGE('',*,*,#344,.T.);
#140=ORIENTED_EDGE('',*,*,#350,.T.);
#141=ORIENTED_EDGE('',*,*,#355,.T.);
#142=ORIENTED_EDGE('',*,*,#353,.T.);
#143=ORIENTED_EDGE('',*,*,#347,.T.);
#144=ORIENTED_EDGE('',*,*,#390,.F.);
#145=ORIENTED_EDGE('',*,*,#391,.T.);
#146=ORIENTED_EDGE('',*,*,#392,.T.);
#147=ORIENTED_EDGE('',*,*,#370,.T.);
#148=ORIENTED_EDGE('',*,*,#360,.T.);
#149=ORIENTED_EDGE('',*,*,#393,.T.);
#150=ORIENTED_EDGE('',*,*,#358,.T.);
#151=ORIENTED_EDGE('',*,*,#384,.T.);
#152=ORIENTED_EDGE('',*,*,#385,.F.);
#153=ORIENTED_EDGE('',*,*,#356,.F.);
#154=ORIENTED_EDGE('',*,*,#394,.T.);
#155=ORIENTED_EDGE('',*,*,#395,.F.);
#156=ORIENTED_EDGE('',*,*,#364,.F.);
#157=ORIENTED_EDGE('',*,*,#363,.T.);
#158=ORIENTED_EDGE('',*,*,#368,.F.);
#159=ORIENTED_EDGE('',*,*,#396,.T.);
#160=ORIENTED_EDGE('',*,*,#397,.T.);
#161=ORIENTED_EDGE('',*,*,#398,.F.);
#162=ORIENTED_EDGE('',*,*,#394,.F.);
#163=ORIENTED_EDGE('',*,*,#359,.F.);
#164=ORIENTED_EDGE('',*,*,#393,.F.);
#165=ORIENTED_EDGE('',*,*,#365,.F.);
#166=ORIENTED_EDGE('',*,*,#399,.F.);
#167=ORIENTED_EDGE('',*,*,#380,.F.);
#168=ORIENTED_EDGE('',*,*,#400,.T.);
#169=ORIENTED_EDGE('',*,*,#401,.F.);
#170=ORIENTED_EDGE('',*,*,#388,.F.);
#171=ORIENTED_EDGE('',*,*,#402,.T.);
#172=ORIENTED_EDGE('',*,*,#403,.T.);
#173=ORIENTED_EDGE('',*,*,#404,.T.);
#174=ORIENTED_EDGE('',*,*,#392,.F.);
#175=ORIENTED_EDGE('',*,*,#405,.F.);
#176=ORIENTED_EDGE('',*,*,#382,.F.);
#177=ORIENTED_EDGE('',*,*,#406,.F.);
#178=ORIENTED_EDGE('',*,*,#407,.F.);
#179=ORIENTED_EDGE('',*,*,#408,.F.);
#180=ORIENTED_EDGE('',*,*,#409,.F.);
#181=ORIENTED_EDGE('',*,*,#396,.F.);
#182=ORIENTED_EDGE('',*,*,#367,.F.);
#183=ORIENTED_EDGE('',*,*,#369,.F.);
#184=ORIENTED_EDGE('',*,*,#410,.T.);
#185=ORIENTED_EDGE('',*,*,#400,.F.);
#186=ORIENTED_EDGE('',*,*,#379,.F.);
#187=ORIENTED_EDGE('',*,*,#405,.T.);
#188=ORIENTED_EDGE('',*,*,#391,.F.);
#189=ORIENTED_EDGE('',*,*,#411,.F.);
#190=ORIENTED_EDGE('',*,*,#386,.F.);
#191=ORIENTED_EDGE('',*,*,#412,.T.);
#192=ORIENTED_EDGE('',*,*,#377,.F.);
#193=ORIENTED_EDGE('',*,*,#371,.F.);
#194=ORIENTED_EDGE('',*,*,#378,.T.);
#195=ORIENTED_EDGE('',*,*,#374,.T.);
#196=ORIENTED_EDGE('',*,*,#389,.F.);
#197=ORIENTED_EDGE('',*,*,#404,.F.);
#198=ORIENTED_EDGE('',*,*,#413,.T.);
#199=ORIENTED_EDGE('',*,*,#412,.F.);
#200=ORIENTED_EDGE('',*,*,#406,.T.);
#201=ORIENTED_EDGE('',*,*,#381,.F.);
#202=ORIENTED_EDGE('',*,*,#399,.T.);
#203=ORIENTED_EDGE('',*,*,#414,.T.);
#204=ORIENTED_EDGE('',*,*,#411,.T.);
#205=ORIENTED_EDGE('',*,*,#390,.T.);
#206=ORIENTED_EDGE('',*,*,#383,.F.);
#207=ORIENTED_EDGE('',*,*,#395,.T.);
#208=ORIENTED_EDGE('',*,*,#398,.T.);
#209=ORIENTED_EDGE('',*,*,#415,.T.);
#210=ORIENTED_EDGE('',*,*,#416,.T.);
#211=ORIENTED_EDGE('',*,*,#417,.T.);
#212=ORIENTED_EDGE('',*,*,#402,.F.);
#213=ORIENTED_EDGE('',*,*,#387,.F.);
#214=ORIENTED_EDGE('',*,*,#418,.T.);
#215=ORIENTED_EDGE('',*,*,#419,.T.);
#216=ORIENTED_EDGE('',*,*,#420,.T.);
#217=ORIENTED_EDGE('',*,*,#421,.T.);
#218=ORIENTED_EDGE('',*,*,#422,.F.);
#219=ORIENTED_EDGE('',*,*,#423,.T.);
#220=ORIENTED_EDGE('',*,*,#416,.F.);
#221=ORIENTED_EDGE('',*,*,#424,.F.);
#222=ORIENTED_EDGE('',*,*,#425,.F.);
#223=ORIENTED_EDGE('',*,*,#424,.T.);
#224=ORIENTED_EDGE('',*,*,#415,.F.);
#225=ORIENTED_EDGE('',*,*,#397,.F.);
#226=ORIENTED_EDGE('',*,*,#409,.T.);
#227=ORIENTED_EDGE('',*,*,#426,.T.);
#228=ORIENTED_EDGE('',*,*,#427,.F.);
#229=ORIENTED_EDGE('',*,*,#428,.F.);
#230=ORIENTED_EDGE('',*,*,#429,.F.);
#231=ORIENTED_EDGE('',*,*,#426,.F.);
#232=ORIENTED_EDGE('',*,*,#408,.T.);
#233=ORIENTED_EDGE('',*,*,#430,.T.);
#234=ORIENTED_EDGE('',*,*,#401,.T.);
#235=ORIENTED_EDGE('',*,*,#410,.F.);
#236=ORIENTED_EDGE('',*,*,#413,.F.);
#237=ORIENTED_EDGE('',*,*,#403,.F.);
#238=ORIENTED_EDGE('',*,*,#417,.F.);
#239=ORIENTED_EDGE('',*,*,#423,.F.);
#240=ORIENTED_EDGE('',*,*,#431,.F.);
#241=ORIENTED_EDGE('',*,*,#432,.F.);
#242=ORIENTED_EDGE('',*,*,#433,.F.);
#243=ORIENTED_EDGE('',*,*,#430,.F.);
#244=ORIENTED_EDGE('',*,*,#407,.T.);
#245=ORIENTED_EDGE('',*,*,#414,.F.);
#246=ORIENTED_EDGE('',*,*,#428,.T.);
#247=ORIENTED_EDGE('',*,*,#434,.F.);
#248=ORIENTED_EDGE('',*,*,#435,.F.);
#249=ORIENTED_EDGE('',*,*,#436,.T.);
#250=ORIENTED_EDGE('',*,*,#437,.T.);
#251=ORIENTED_EDGE('',*,*,#438,.T.);
#252=ORIENTED_EDGE('',*,*,#439,.F.);
#253=ORIENTED_EDGE('',*,*,#419,.F.);
#254=ORIENTED_EDGE('',*,*,#440,.T.);
#255=ORIENTED_EDGE('',*,*,#441,.T.);
#256=ORIENTED_EDGE('',*,*,#442,.F.);
#257=ORIENTED_EDGE('',*,*,#421,.F.);
#258=ORIENTED_EDGE('',*,*,#442,.T.);
#259=ORIENTED_EDGE('',*,*,#443,.T.);
#260=ORIENTED_EDGE('',*,*,#437,.F.);
#261=ORIENTED_EDGE('',*,*,#418,.F.);
#262=ORIENTED_EDGE('',*,*,#439,.T.);
#263=ORIENTED_EDGE('',*,*,#444,.T.);
#264=ORIENTED_EDGE('',*,*,#440,.F.);
#265=ORIENTED_EDGE('',*,*,#420,.F.);
#266=ORIENTED_EDGE('',*,*,#431,.T.);
#267=ORIENTED_EDGE('',*,*,#422,.T.);
#268=ORIENTED_EDGE('',*,*,#425,.T.);
#269=ORIENTED_EDGE('',*,*,#436,.F.);
#270=ORIENTED_EDGE('',*,*,#445,.F.);
#271=ORIENTED_EDGE('',*,*,#446,.T.);
#272=ORIENTED_EDGE('',*,*,#433,.T.);
#273=ORIENTED_EDGE('',*,*,#447,.F.);
#274=ORIENTED_EDGE('',*,*,#448,.F.);
#275=ORIENTED_EDGE('',*,*,#434,.T.);
#276=ORIENTED_EDGE('',*,*,#427,.T.);
#277=ORIENTED_EDGE('',*,*,#429,.T.);
#278=ORIENTED_EDGE('',*,*,#432,.T.);
#279=ORIENTED_EDGE('',*,*,#446,.F.);
#280=ORIENTED_EDGE('',*,*,#449,.F.);
#281=ORIENTED_EDGE('',*,*,#447,.T.);
#282=ORIENTED_EDGE('',*,*,#450,.T.);
#283=ORIENTED_EDGE('',*,*,#451,.T.);
#284=ORIENTED_EDGE('',*,*,#452,.F.);
#285=ORIENTED_EDGE('',*,*,#453,.F.);
#286=ORIENTED_EDGE('',*,*,#454,.F.);
#287=ORIENTED_EDGE('',*,*,#455,.F.);
#288=ORIENTED_EDGE('',*,*,#451,.F.);
#289=ORIENTED_EDGE('',*,*,#456,.F.);
#290=ORIENTED_EDGE('',*,*,#435,.T.);
#291=ORIENTED_EDGE('',*,*,#448,.T.);
#292=ORIENTED_EDGE('',*,*,#449,.T.);
#293=ORIENTED_EDGE('',*,*,#445,.T.);
#294=ORIENTED_EDGE('',*,*,#443,.F.);
#295=ORIENTED_EDGE('',*,*,#441,.F.);
#296=ORIENTED_EDGE('',*,*,#444,.F.);
#297=ORIENTED_EDGE('',*,*,#438,.F.);
#298=ORIENTED_EDGE('',*,*,#457,.T.);
#299=ORIENTED_EDGE('',*,*,#456,.T.);
#300=ORIENTED_EDGE('',*,*,#450,.F.);
#301=ORIENTED_EDGE('',*,*,#458,.F.);
#302=ORIENTED_EDGE('',*,*,#452,.T.);
#303=ORIENTED_EDGE('',*,*,#455,.T.);
#304=ORIENTED_EDGE('',*,*,#459,.F.);
#305=ORIENTED_EDGE('',*,*,#460,.F.);
#306=ORIENTED_EDGE('',*,*,#461,.T.);
#307=ORIENTED_EDGE('',*,*,#458,.T.);
#308=ORIENTED_EDGE('',*,*,#453,.T.);
#309=ORIENTED_EDGE('',*,*,#460,.T.);
#310=ORIENTED_EDGE('',*,*,#459,.T.);
#311=ORIENTED_EDGE('',*,*,#454,.T.);
#312=ORIENTED_EDGE('',*,*,#457,.F.);
#313=ORIENTED_EDGE('',*,*,#461,.F.);
#314=EDGE_CURVE('',#462,#463,#562,.T.);
#315=EDGE_CURVE('',#464,#463,#563,.T.);
#316=EDGE_CURVE('',#465,#464,#564,.T.);
#317=EDGE_CURVE('',#465,#462,#565,.T.);
#318=EDGE_CURVE('',#466,#467,#566,.T.);
#319=EDGE_CURVE('',#468,#466,#567,.T.);
#320=EDGE_CURVE('',#469,#468,#568,.T.);
#321=EDGE_CURVE('',#467,#469,#569,.T.);
#322=EDGE_CURVE('',#468,#465,#570,.T.);
#323=EDGE_CURVE('',#464,#469,#571,.T.);
#324=EDGE_CURVE('',#470,#471,#572,.T.);
#325=EDGE_CURVE('',#471,#472,#573,.T.);
#326=EDGE_CURVE('',#472,#473,#574,.T.);
#327=EDGE_CURVE('',#473,#470,#575,.T.);
#328=EDGE_CURVE('',#474,#475,#576,.T.);
#329=EDGE_CURVE('',#472,#475,#577,.T.);
#330=EDGE_CURVE('',#471,#474,#578,.T.);
#331=EDGE_CURVE('',#476,#477,#579,.T.);
#332=EDGE_CURVE('',#470,#476,#580,.T.);
#333=EDGE_CURVE('',#477,#473,#581,.T.);
#334=EDGE_CURVE('',#478,#478,#14,.T.);
#335=EDGE_CURVE('',#479,#479,#15,.T.);
#336=EDGE_CURVE('',#480,#481,#582,.T.);
#337=EDGE_CURVE('',#482,#481,#583,.T.);
#338=EDGE_CURVE('',#483,#482,#584,.T.);
#339=EDGE_CURVE('',#483,#480,#585,.T.);
#340=EDGE_CURVE('',#484,#485,#586,.T.);
#341=EDGE_CURVE('',#484,#466,#587,.T.);
#342=EDGE_CURVE('',#485,#467,#588,.T.);
#343=EDGE_CURVE('',#486,#462,#589,.T.);
#344=EDGE_CURVE('',#487,#486,#590,.T.);
#345=EDGE_CURVE('',#487,#463,#591,.T.);
#346=EDGE_CURVE('',#488,#474,#592,.T.);
#347=EDGE_CURVE('',#489,#488,#593,.T.);
#348=EDGE_CURVE('',#489,#475,#594,.T.);
#349=EDGE_CURVE('',#486,#484,#595,.T.);
#350=EDGE_CURVE('',#488,#490,#596,.T.);
#351=EDGE_CURVE('',#490,#476,#597,.T.);
#352=EDGE_CURVE('',#485,#487,#598,.T.);
#353=EDGE_CURVE('',#491,#489,#599,.T.);
#354=EDGE_CURVE('',#491,#477,#600,.T.);
#355=EDGE_CURVE('',#490,#491,#601,.T.);
#356=EDGE_CURVE('',#492,#493,#602,.T.);
#357=EDGE_CURVE('',#493,#494,#603,.T.);
#358=EDGE_CURVE('',#495,#494,#604,.T.);
#359=EDGE_CURVE('',#495,#492,#605,.T.);
#360=EDGE_CURVE('',#496,#497,#606,.T.);
#361=EDGE_CURVE('',#496,#498,#607,.T.);
#362=EDGE_CURVE('',#498,#499,#608,.T.);
#363=EDGE_CURVE('',#497,#499,#609,.T.);
#364=EDGE_CURVE('',#500,#500,#16,.T.);
#365=EDGE_CURVE('',#501,#501,#17,.T.);
#366=EDGE_CURVE('',#498,#502,#610,.T.);
#367=EDGE_CURVE('',#502,#503,#611,.T.);
#368=EDGE_CURVE('',#503,#499,#612,.T.);
#369=EDGE_CURVE('',#504,#502,#613,.T.);
#370=EDGE_CURVE('',#504,#496,#614,.T.);
#371=EDGE_CURVE('',#505,#506,#615,.T.);
#372=EDGE_CURVE('',#506,#483,#616,.T.);
#373=EDGE_CURVE('',#482,#505,#617,.T.);
#374=EDGE_CURVE('',#507,#508,#618,.T.);
#375=EDGE_CURVE('',#481,#507,#619,.T.);
#376=EDGE_CURVE('',#508,#480,#620,.T.);
#377=EDGE_CURVE('',#506,#508,#621,.T.);
#378=EDGE_CURVE('',#505,#507,#622,.T.);
#379=EDGE_CURVE('',#509,#510,#623,.T.);
#380=EDGE_CURVE('',#510,#511,#624,.T.);
#381=EDGE_CURVE('',#511,#512,#625,.T.);
#382=EDGE_CURVE('',#512,#509,#626,.T.);
#383=EDGE_CURVE('',#513,#514,#627,.T.);
#384=EDGE_CURVE('',#494,#514,#628,.T.);
#385=EDGE_CURVE('',#493,#513,#629,.T.);
#386=EDGE_CURVE('',#515,#516,#630,.T.);
#387=EDGE_CURVE('',#516,#517,#631,.T.);
#388=EDGE_CURVE('',#517,#518,#632,.T.);
#389=EDGE_CURVE('',#518,#515,#633,.T.);
#390=EDGE_CURVE('',#519,#514,#634,.T.);
#391=EDGE_CURVE('',#519,#520,#635,.T.);
#392=EDGE_CURVE('',#520,#504,#636,.T.);
#393=EDGE_CURVE('',#497,#495,#637,.T.);
#394=EDGE_CURVE('',#492,#521,#638,.T.);
#395=EDGE_CURVE('',#513,#521,#639,.T.);
#396=EDGE_CURVE('',#503,#522,#640,.T.);
#397=EDGE_CURVE('',#522,#523,#641,.T.);
#398=EDGE_CURVE('',#521,#523,#642,.T.);
#399=EDGE_CURVE('',#511,#524,#643,.T.);
#400=EDGE_CURVE('',#510,#525,#644,.T.);
#401=EDGE_CURVE('',#524,#525,#645,.T.);
#402=EDGE_CURVE('',#517,#526,#646,.T.);
#403=EDGE_CURVE('',#526,#527,#647,.T.);
#404=EDGE_CURVE('',#527,#518,#648,.T.);
#405=EDGE_CURVE('',#509,#520,#649,.T.);
#406=EDGE_CURVE('',#528,#512,#650,.T.);
#407=EDGE_CURVE('',#529,#528,#651,.T.);
#408=EDGE_CURVE('',#530,#529,#652,.T.);
#409=EDGE_CURVE('',#522,#530,#653,.T.);
#410=EDGE_CURVE('',#531,#525,#654,.T.);
#411=EDGE_CURVE('',#516,#519,#655,.T.);
#412=EDGE_CURVE('',#515,#531,#656,.T.);
#413=EDGE_CURVE('',#527,#531,#657,.T.);
#414=EDGE_CURVE('',#524,#528,#658,.T.);
#415=EDGE_CURVE('',#523,#532,#659,.T.);
#416=EDGE_CURVE('',#532,#533,#660,.T.);
#417=EDGE_CURVE('',#533,#526,#661,.T.);
#418=EDGE_CURVE('',#534,#535,#662,.T.);
#419=EDGE_CURVE('',#535,#536,#663,.T.);
#420=EDGE_CURVE('',#536,#537,#664,.T.);
#421=EDGE_CURVE('',#537,#534,#665,.T.);
#422=EDGE_CURVE('',#538,#539,#666,.T.);
#423=EDGE_CURVE('',#538,#533,#667,.T.);
#424=EDGE_CURVE('',#539,#532,#668,.T.);
#425=EDGE_CURVE('',#539,#540,#669,.T.);
#426=EDGE_CURVE('',#530,#541,#670,.T.);
#427=EDGE_CURVE('',#542,#541,#671,.T.);
#428=EDGE_CURVE('',#540,#542,#672,.T.);
#429=EDGE_CURVE('',#541,#543,#673,.T.);
#430=EDGE_CURVE('',#529,#543,#674,.T.);
#431=EDGE_CURVE('',#544,#538,#675,.T.);
#432=EDGE_CURVE('',#545,#544,#676,.T.);
#433=EDGE_CURVE('',#543,#545,#677,.T.);
#434=EDGE_CURVE('',#546,#542,#678,.T.);
#435=EDGE_CURVE('',#547,#546,#679,.T.);
#436=EDGE_CURVE('',#547,#540,#680,.T.);
#437=EDGE_CURVE('',#535,#548,#681,.T.);
#438=EDGE_CURVE('',#548,#549,#682,.T.);
#439=EDGE_CURVE('',#536,#549,#683,.T.);
#440=EDGE_CURVE('',#537,#550,#684,.T.);
#441=EDGE_CURVE('',#550,#551,#685,.T.);
#442=EDGE_CURVE('',#534,#551,#686,.T.);
#443=EDGE_CURVE('',#551,#548,#687,.T.);
#444=EDGE_CURVE('',#549,#550,#688,.T.);
#445=EDGE_CURVE('',#552,#547,#689,.T.);
#446=EDGE_CURVE('',#552,#544,#690,.T.);
#447=EDGE_CURVE('',#553,#545,#691,.T.);
#448=EDGE_CURVE('',#546,#553,#692,.T.);
#449=EDGE_CURVE('',#553,#552,#693,.T.);
#450=EDGE_CURVE('',#554,#555,#694,.T.);
#451=EDGE_CURVE('',#555,#556,#695,.T.);
#452=EDGE_CURVE('',#557,#556,#696,.T.);
#453=EDGE_CURVE('',#554,#557,#697,.T.);
#454=EDGE_CURVE('',#558,#559,#698,.T.);
#455=EDGE_CURVE('',#556,#558,#699,.T.);
#456=EDGE_CURVE('',#559,#555,#700,.T.);
#457=EDGE_CURVE('',#560,#559,#701,.T.);
#458=EDGE_CURVE('',#560,#554,#702,.T.);
#459=EDGE_CURVE('',#561,#558,#703,.T.);
#460=EDGE_CURVE('',#557,#561,#704,.T.);
#461=EDGE_CURVE('',#561,#560,#705,.T.);
#462=VERTEX_POINT('',#1622);
#463=VERTEX_POINT('',#1623);
#464=VERTEX_POINT('',#1625);
#465=VERTEX_POINT('',#1627);
#466=VERTEX_POINT('',#1631);
#467=VERTEX_POINT('',#1632);
#468=VERTEX_POINT('',#1634);
#469=VERTEX_POINT('',#1636);
#470=VERTEX_POINT('',#1643);
#471=VERTEX_POINT('',#1644);
#472=VERTEX_POINT('',#1646);
#473=VERTEX_POINT('',#1648);
#474=VERTEX_POINT('',#1652);
#475=VERTEX_POINT('',#1653);
#476=VERTEX_POINT('',#1658);
#477=VERTEX_POINT('',#1659);
#478=VERTEX_POINT('',#1664);
#479=VERTEX_POINT('',#1667);
#480=VERTEX_POINT('',#1670);
#481=VERTEX_POINT('',#1671);
#482=VERTEX_POINT('',#1673);
#483=VERTEX_POINT('',#1675);
#484=VERTEX_POINT('',#1679);
#485=VERTEX_POINT('',#1680);
#486=VERTEX_POINT('',#1685);
#487=VERTEX_POINT('',#1687);
#488=VERTEX_POINT('',#1691);
#489=VERTEX_POINT('',#1693);
#490=VERTEX_POINT('',#1699);
#491=VERTEX_POINT('',#1705);
#492=VERTEX_POINT('',#1711);
#493=VERTEX_POINT('',#1712);
#494=VERTEX_POINT('',#1714);
#495=VERTEX_POINT('',#1716);
#496=VERTEX_POINT('',#1720);
#497=VERTEX_POINT('',#1721);
#498=VERTEX_POINT('',#1723);
#499=VERTEX_POINT('',#1725);
#500=VERTEX_POINT('',#1729);
#501=VERTEX_POINT('',#1732);
#502=VERTEX_POINT('',#1735);
#503=VERTEX_POINT('',#1737);
#504=VERTEX_POINT('',#1741);
#505=VERTEX_POINT('',#1745);
#506=VERTEX_POINT('',#1746);
#507=VERTEX_POINT('',#1751);
#508=VERTEX_POINT('',#1752);
#509=VERTEX_POINT('',#1761);
#510=VERTEX_POINT('',#1762);
#511=VERTEX_POINT('',#1764);
#512=VERTEX_POINT('',#1766);
#513=VERTEX_POINT('',#1770);
#514=VERTEX_POINT('',#1771);
#515=VERTEX_POINT('',#1776);
#516=VERTEX_POINT('',#1777);
#517=VERTEX_POINT('',#1779);
#518=VERTEX_POINT('',#1781);
#519=VERTEX_POINT('',#1785);
#520=VERTEX_POINT('',#1787);
#521=VERTEX_POINT('',#1792);
#522=VERTEX_POINT('',#1796);
#523=VERTEX_POINT('',#1798);
#524=VERTEX_POINT('',#1802);
#525=VERTEX_POINT('',#1804);
#526=VERTEX_POINT('',#1808);
#527=VERTEX_POINT('',#1810);
#528=VERTEX_POINT('',#1815);
#529=VERTEX_POINT('',#1817);
#530=VERTEX_POINT('',#1819);
#531=VERTEX_POINT('',#1823);
#532=VERTEX_POINT('',#1832);
#533=VERTEX_POINT('',#1834);
#534=VERTEX_POINT('',#1838);
#535=VERTEX_POINT('',#1839);
#536=VERTEX_POINT('',#1841);
#537=VERTEX_POINT('',#1843);
#538=VERTEX_POINT('',#1847);
#539=VERTEX_POINT('',#1848);
#540=VERTEX_POINT('',#1853);
#541=VERTEX_POINT('',#1855);
#542=VERTEX_POINT('',#1857);
#543=VERTEX_POINT('',#1861);
#544=VERTEX_POINT('',#1865);
#545=VERTEX_POINT('',#1867);
#546=VERTEX_POINT('',#1871);
#547=VERTEX_POINT('',#1873);
#548=VERTEX_POINT('',#1877);
#549=VERTEX_POINT('',#1879);
#550=VERTEX_POINT('',#1883);
#551=VERTEX_POINT('',#1885);
#552=VERTEX_POINT('',#1893);
#553=VERTEX_POINT('',#1897);
#554=VERTEX_POINT('',#1903);
#555=VERTEX_POINT('',#1904);
#556=VERTEX_POINT('',#1906);
#557=VERTEX_POINT('',#1908);
#558=VERTEX_POINT('',#1912);
#559=VERTEX_POINT('',#1913);
#560=VERTEX_POINT('',#1918);
#561=VERTEX_POINT('',#1922);
#562=LINE('',#1621,#706);
#563=LINE('',#1624,#707);
#564=LINE('',#1626,#708);
#565=LINE('',#1628,#709);
#566=LINE('',#1630,#710);
#567=LINE('',#1633,#711);
#568=LINE('',#1635,#712);
#569=LINE('',#1637,#713);
#570=LINE('',#1639,#714);
#571=LINE('',#1640,#715);
#572=LINE('',#1642,#716);
#573=LINE('',#1645,#717);
#574=LINE('',#1647,#718);
#575=LINE('',#1649,#719);
#576=LINE('',#1651,#720);
#577=LINE('',#1654,#721);
#578=LINE('',#1655,#722);
#579=LINE('',#1657,#723);
#580=LINE('',#1660,#724);
#581=LINE('',#1661,#725);
#582=LINE('',#1669,#726);
#583=LINE('',#1672,#727);
#584=LINE('',#1674,#728);
#585=LINE('',#1676,#729);
#586=LINE('',#1678,#730);
#587=LINE('',#1681,#731);
#588=LINE('',#1682,#732);
#589=LINE('',#1684,#733);
#590=LINE('',#1686,#734);
#591=LINE('',#1688,#735);
#592=LINE('',#1690,#736);
#593=LINE('',#1692,#737);
#594=LINE('',#1694,#738);
#595=LINE('',#1696,#739);
#596=LINE('',#1698,#740);
#597=LINE('',#1700,#741);
#598=LINE('',#1702,#742);
#599=LINE('',#1704,#743);
#600=LINE('',#1706,#744);
#601=LINE('',#1708,#745);
#602=LINE('',#1710,#746);
#603=LINE('',#1713,#747);
#604=LINE('',#1715,#748);
#605=LINE('',#1717,#749);
#606=LINE('',#1719,#750);
#607=LINE('',#1722,#751);
#608=LINE('',#1724,#752);
#609=LINE('',#1726,#753);
#610=LINE('',#1734,#754);
#611=LINE('',#1736,#755);
#612=LINE('',#1738,#756);
#613=LINE('',#1740,#757);
#614=LINE('',#1742,#758);
#615=LINE('',#1744,#759);
#616=LINE('',#1747,#760);
#617=LINE('',#1748,#761);
#618=LINE('',#1750,#762);
#619=LINE('',#1753,#763);
#620=LINE('',#1754,#764);
#621=LINE('',#1756,#765);
#622=LINE('',#1758,#766);
#623=LINE('',#1760,#767);
#624=LINE('',#1763,#768);
#625=LINE('',#1765,#769);
#626=LINE('',#1767,#770);
#627=LINE('',#1769,#771);
#628=LINE('',#1772,#772);
#629=LINE('',#1773,#773);
#630=LINE('',#1775,#774);
#631=LINE('',#1778,#775);
#632=LINE('',#1780,#776);
#633=LINE('',#1782,#777);
#634=LINE('',#1784,#778);
#635=LINE('',#1786,#779);
#636=LINE('',#1788,#780);
#637=LINE('',#1789,#781);
#638=LINE('',#1791,#782);
#639=LINE('',#1793,#783);
#640=LINE('',#1795,#784);
#641=LINE('',#1797,#785);
#642=LINE('',#1799,#786);
#643=LINE('',#1801,#787);
#644=LINE('',#1803,#788);
#645=LINE('',#1805,#789);
#646=LINE('',#1807,#790);
#647=LINE('',#1809,#791);
#648=LINE('',#1811,#792);
#649=LINE('',#1813,#793);
#650=LINE('',#1814,#794);
#651=LINE('',#1816,#795);
#652=LINE('',#1818,#796);
#653=LINE('',#1820,#797);
#654=LINE('',#1822,#798);
#655=LINE('',#1824,#799);
#656=LINE('',#1825,#800);
#657=LINE('',#1827,#801);
#658=LINE('',#1829,#802);
#659=LINE('',#1831,#803);
#660=LINE('',#1833,#804);
#661=LINE('',#1835,#805);
#662=LINE('',#1837,#806);
#663=LINE('',#1840,#807);
#664=LINE('',#1842,#808);
#665=LINE('',#1844,#809);
#666=LINE('',#1846,#810);
#667=LINE('',#1849,#811);
#668=LINE('',#1850,#812);
#669=LINE('',#1852,#813);
#670=LINE('',#1854,#814);
#671=LINE('',#1856,#815);
#672=LINE('',#1858,#816);
#673=LINE('',#1860,#817);
#674=LINE('',#1862,#818);
#675=LINE('',#1864,#819);
#676=LINE('',#1866,#820);
#677=LINE('',#1868,#821);
#678=LINE('',#1870,#822);
#679=LINE('',#1872,#823);
#680=LINE('',#1874,#824);
#681=LINE('',#1876,#825);
#682=LINE('',#1878,#826);
#683=LINE('',#1880,#827);
#684=LINE('',#1882,#828);
#685=LINE('',#1884,#829);
#686=LINE('',#1886,#830);
#687=LINE('',#1888,#831);
#688=LINE('',#1890,#832);
#689=LINE('',#1892,#833);
#690=LINE('',#1894,#834);
#691=LINE('',#1896,#835);
#692=LINE('',#1898,#836);
#693=LINE('',#1900,#837);
#694=LINE('',#1902,#838);
#695=LINE('',#1905,#839);
#696=LINE('',#1907,#840);
#697=LINE('',#1909,#841);
#698=LINE('',#1911,#842);
#699=LINE('',#1914,#843);
#700=LINE('',#1915,#844);
#701=LINE('',#1917,#845);
#702=LINE('',#1919,#846);
#703=LINE('',#1921,#847);
#704=LINE('',#1923,#848);
#705=LINE('',#1925,#849);
#706=VECTOR('',#1351,1.);
#707=VECTOR('',#1352,1.);
#708=VECTOR('',#1353,1.);
#709=VECTOR('',#1354,1.);
#710=VECTOR('',#1357,1.);
#711=VECTOR('',#1358,1.);
#712=VECTOR('',#1359,1.);
#713=VECTOR('',#1360,1.);
#714=VECTOR('',#1363,1.);
#715=VECTOR('',#1364,1.);
#716=VECTOR('',#1367,1.);
#717=VECTOR('',#1368,1.);
#718=VECTOR('',#1369,1.);
#719=VECTOR('',#1370,1.);
#720=VECTOR('',#1373,1.);
#721=VECTOR('',#1374,1.);
#722=VECTOR('',#1375,1.);
#723=VECTOR('',#1378,1.);
#724=VECTOR('',#1379,1.);
#725=VECTOR('',#1380,1.);
#726=VECTOR('',#1391,1.);
#727=VECTOR('',#1392,1.);
#728=VECTOR('',#1393,1.);
#729=VECTOR('',#1394,1.);
#730=VECTOR('',#1397,1.);
#731=VECTOR('',#1398,1.);
#732=VECTOR('',#1399,1.);
#733=VECTOR('',#1402,1.);
#734=VECTOR('',#1403,1.);
#735=VECTOR('',#1404,1.);
#736=VECTOR('',#1407,1.);
#737=VECTOR('',#1408,1.);
#738=VECTOR('',#1409,1.);
#739=VECTOR('',#1412,1.);
#740=VECTOR('',#1415,1.);
#741=VECTOR('',#1416,1.);
#742=VECTOR('',#1419,1.);
#743=VECTOR('',#1422,1.);
#744=VECTOR('',#1423,1.);
#745=VECTOR('',#1426,1.);
#746=VECTOR('',#1429,1.);
#747=VECTOR('',#1430,1.);
#748=VECTOR('',#1431,1.);
#749=VECTOR('',#1432,1.);
#750=VECTOR('',#1435,1.);
#751=VECTOR('',#1436,1.);
#752=VECTOR('',#1437,1.);
#753=VECTOR('',#1438,1.);
#754=VECTOR('',#1449,1.);
#755=VECTOR('',#1450,1.);
#756=VECTOR('',#1451,1.);
#757=VECTOR('',#1454,1.);
#758=VECTOR('',#1455,1.);
#759=VECTOR('',#1458,1.);
#760=VECTOR('',#1459,1.);
#761=VECTOR('',#1460,1.);
#762=VECTOR('',#1463,1.);
#763=VECTOR('',#1464,1.);
#764=VECTOR('',#1465,1.);
#765=VECTOR('',#1468,1.);
#766=VECTOR('',#1471,1.);
#767=VECTOR('',#1474,1.);
#768=VECTOR('',#1475,1.);
#769=VECTOR('',#1476,1.);
#770=VECTOR('',#1477,1.);
#771=VECTOR('',#1480,1.);
#772=VECTOR('',#1481,1.);
#773=VECTOR('',#1482,1.);
#774=VECTOR('',#1485,1.);
#775=VECTOR('',#1486,1.);
#776=VECTOR('',#1487,1.);
#777=VECTOR('',#1488,1.);
#778=VECTOR('',#1491,1.);
#779=VECTOR('',#1492,1.);
#780=VECTOR('',#1493,1.);
#781=VECTOR('',#1494,1.);
#782=VECTOR('',#1497,1.);
#783=VECTOR('',#1498,1.);
#784=VECTOR('',#1501,1.);
#785=VECTOR('',#1502,1.);
#786=VECTOR('',#1503,1.);
#787=VECTOR('',#1506,1.);
#788=VECTOR('',#1507,1.);
#789=VECTOR('',#1508,1.);
#790=VECTOR('',#1511,1.);
#791=VECTOR('',#1512,1.);
#792=VECTOR('',#1513,1.);
#793=VECTOR('',#1516,1.);
#794=VECTOR('',#1517,1.);
#795=VECTOR('',#1518,1.);
#796=VECTOR('',#1519,1.);
#797=VECTOR('',#1520,1.);
#798=VECTOR('',#1523,1.);
#799=VECTOR('',#1524,1.);
#800=VECTOR('',#1525,1.);
#801=VECTOR('',#1528,1.);
#802=VECTOR('',#1531,1.);
#803=VECTOR('',#1534,1.);
#804=VECTOR('',#1535,1.);
#805=VECTOR('',#1536,1.);
#806=VECTOR('',#1539,1.);
#807=VECTOR('',#1540,1.);
#808=VECTOR('',#1541,1.);
#809=VECTOR('',#1542,1.);
#810=VECTOR('',#1545,1.);
#811=VECTOR('',#1546,1.);
#812=VECTOR('',#1547,1.);
#813=VECTOR('',#1550,1.);
#814=VECTOR('',#1551,1.);
#815=VECTOR('',#1552,1.);
#816=VECTOR('',#1553,1.);
#817=VECTOR('',#1556,1.);
#818=VECTOR('',#1557,1.);
#819=VECTOR('',#1560,1.);
#820=VECTOR('',#1561,1.);
#821=VECTOR('',#1562,1.);
#822=VECTOR('',#1565,1.);
#823=VECTOR('',#1566,1.);
#824=VECTOR('',#1567,1.);
#825=VECTOR('',#1570,1.);
#826=VECTOR('',#1571,1.);
#827=VECTOR('',#1572,1.);
#828=VECTOR('',#1575,1.);
#829=VECTOR('',#1576,1.);
#830=VECTOR('',#1577,1.);
#831=VECTOR('',#1580,1.);
#832=VECTOR('',#1583,1.);
#833=VECTOR('',#1586,1.);
#834=VECTOR('',#1587,1.);
#835=VECTOR('',#1590,1.);
#836=VECTOR('',#1591,1.);
#837=VECTOR('',#1594,1.);
#838=VECTOR('',#1597,1.);
#839=VECTOR('',#1598,1.);
#840=VECTOR('',#1599,1.);
#841=VECTOR('',#1600,1.);
#842=VECTOR('',#1603,1.);
#843=VECTOR('',#1604,1.);
#844=VECTOR('',#1605,1.);
#845=VECTOR('',#1608,1.);
#846=VECTOR('',#1609,1.);
#847=VECTOR('',#1612,1.);
#848=VECTOR('',#1613,1.);
#849=VECTOR('',#1616,1.);
#850=EDGE_LOOP('',(#18,#19,#20,#21));
#851=EDGE_LOOP('',(#22,#23,#24,#25));
#852=EDGE_LOOP('',(#26,#27,#28,#29));
#853=EDGE_LOOP('',(#30,#31,#32,#33));
#854=EDGE_LOOP('',(#34,#35,#36,#37));
#855=EDGE_LOOP('',(#38,#39,#40,#41));
#856=EDGE_LOOP('',(#42));
#857=EDGE_LOOP('',(#43));
#858=EDGE_LOOP('',(#44,#45,#46,#47));
#859=EDGE_LOOP('',(#48,#49,#50,#51));
#860=EDGE_LOOP('',(#52,#53,#54,#55));
#861=EDGE_LOOP('',(#56,#57,#58,#59));
#862=EDGE_LOOP('',(#60,#61,#62,#63,#64,#65));
#863=EDGE_LOOP('',(#66,#67,#68,#69,#70,#71));
#864=EDGE_LOOP('',(#72,#73,#74,#75,#76,#77));
#865=EDGE_LOOP('',(#78,#79,#80,#81,#82,#83));
#866=EDGE_LOOP('',(#84,#85,#86,#87));
#867=EDGE_LOOP('',(#88,#89,#90,#91));
#868=EDGE_LOOP('',(#92,#93,#94,#95));
#869=EDGE_LOOP('',(#96));
#870=EDGE_LOOP('',(#97));
#871=EDGE_LOOP('',(#98));
#872=EDGE_LOOP('',(#99));
#873=EDGE_LOOP('',(#100,#101,#102,#103));
#874=EDGE_LOOP('',(#104,#105,#106,#107));
#875=EDGE_LOOP('',(#108,#109,#110,#111));
#876=EDGE_LOOP('',(#112,#113,#114,#115));
#877=EDGE_LOOP('',(#116,#117,#118,#119));
#878=EDGE_LOOP('',(#120,#121,#122,#123));
#879=EDGE_LOOP('',(#124,#125,#126,#127));
#880=EDGE_LOOP('',(#128,#129,#130,#131));
#881=EDGE_LOOP('',(#132,#133,#134,#135));
#882=EDGE_LOOP('',(#136,#137,#138,#139));
#883=EDGE_LOOP('',(#140,#141,#142,#143));
#884=EDGE_LOOP('',(#144,#145,#146,#147,#148,#149,#150,#151));
#885=EDGE_LOOP('',(#152,#153,#154,#155));
#886=EDGE_LOOP('',(#156));
#887=EDGE_LOOP('',(#157,#158,#159,#160,#161,#162,#163,#164));
#888=EDGE_LOOP('',(#165));
#889=EDGE_LOOP('',(#166,#167,#168,#169));
#890=EDGE_LOOP('',(#170,#171,#172,#173));
#891=EDGE_LOOP('',(#174,#175,#176,#177,#178,#179,#180,#181,#182,#183));
#892=EDGE_LOOP('',(#184,#185,#186,#187,#188,#189,#190,#191));
#893=EDGE_LOOP('',(#192,#193,#194,#195));
#894=EDGE_LOOP('',(#196,#197,#198,#199));
#895=EDGE_LOOP('',(#200,#201,#202,#203));
#896=EDGE_LOOP('',(#204,#205,#206,#207,#208,#209,#210,#211,#212,#213));
#897=EDGE_LOOP('',(#214,#215,#216,#217));
#898=EDGE_LOOP('',(#218,#219,#220,#221));
#899=EDGE_LOOP('',(#222,#223,#224,#225,#226,#227,#228,#229));
#900=EDGE_LOOP('',(#230,#231,#232,#233));
#901=EDGE_LOOP('',(#234,#235,#236,#237,#238,#239,#240,#241,#242,#243,#244,
#245));
#902=EDGE_LOOP('',(#246,#247,#248,#249));
#903=EDGE_LOOP('',(#250,#251,#252,#253));
#904=EDGE_LOOP('',(#254,#255,#256,#257));
#905=EDGE_LOOP('',(#258,#259,#260,#261));
#906=EDGE_LOOP('',(#262,#263,#264,#265));
#907=EDGE_LOOP('',(#266,#267,#268,#269,#270,#271));
#908=EDGE_LOOP('',(#272,#273,#274,#275,#276,#277));
#909=EDGE_LOOP('',(#278,#279,#280,#281));
#910=EDGE_LOOP('',(#282,#283,#284,#285));
#911=EDGE_LOOP('',(#286,#287,#288,#289));
#912=EDGE_LOOP('',(#290,#291,#292,#293));
#913=EDGE_LOOP('',(#294,#295,#296,#297));
#914=EDGE_LOOP('',(#298,#299,#300,#301));
#915=EDGE_LOOP('',(#302,#303,#304,#305));
#916=EDGE_LOOP('',(#306,#307,#308,#309));
#917=EDGE_LOOP('',(#310,#311,#312,#313));
#918=FACE_BOUND('',#850,.T.);
#919=FACE_BOUND('',#851,.T.);
#920=FACE_BOUND('',#852,.T.);
#921=FACE_BOUND('',#853,.T.);
#922=FACE_BOUND('',#854,.T.);
#923=FACE_BOUND('',#855,.T.);
#924=FACE_BOUND('',#856,.T.);
#925=FACE_BOUND('',#857,.T.);
#926=FACE_BOUND('',#858,.T.);
#927=FACE_BOUND('',#859,.T.);
#928=FACE_BOUND('',#860,.T.);
#929=FACE_BOUND('',#861,.T.);
#930=FACE_BOUND('',#862,.T.);
#931=FACE_BOUND('',#863,.T.);
#932=FACE_BOUND('',#864,.T.);
#933=FACE_BOUND('',#865,.T.);
#934=FACE_BOUND('',#866,.T.);
#935=FACE_BOUND('',#867,.T.);
#936=FACE_BOUND('',#868,.T.);
#937=FACE_BOUND('',#869,.T.);
#938=FACE_BOUND('',#870,.T.);
#939=FACE_BOUND('',#871,.T.);
#940=FACE_BOUND('',#872,.T.);
#941=FACE_BOUND('',#873,.T.);
#942=FACE_BOUND('',#874,.T.);
#943=FACE_BOUND('',#875,.T.);
#944=FACE_BOUND('',#876,.T.);
#945=FACE_BOUND('',#877,.T.);
#946=FACE_BOUND('',#878,.T.);
#947=FACE_BOUND('',#879,.T.);
#948=FACE_BOUND('',#880,.T.);
#949=FACE_BOUND('',#881,.T.);
#950=FACE_BOUND('',#882,.T.);
#951=FACE_BOUND('',#883,.T.);
#952=FACE_BOUND('',#884,.T.);
#953=FACE_BOUND('',#885,.T.);
#954=FACE_BOUND('',#886,.T.);
#955=FACE_BOUND('',#887,.T.);
#956=FACE_BOUND('',#888,.T.);
#957=FACE_BOUND('',#889,.T.);
#958=FACE_BOUND('',#890,.T.);
#959=FACE_BOUND('',#891,.T.);
#960=FACE_BOUND('',#892,.T.);
#961=FACE_BOUND('',#893,.T.);
#962=FACE_BOUND('',#894,.T.);
#963=FACE_BOUND('',#895,.T.);
#964=FACE_BOUND('',#896,.T.);
#965=FACE_BOUND('',#897,.T.);
#966=FACE_BOUND('',#898,.T.);
#967=FACE_BOUND('',#899,.T.);
#968=FACE_BOUND('',#900,.T.);
#969=FACE_BOUND('',#901,.T.);
#970=FACE_BOUND('',#902,.T.);
#971=FACE_BOUND('',#903,.T.);
#972=FACE_BOUND('',#904,.T.);
#973=FACE_BOUND('',#905,.T.);
#974=FACE_BOUND('',#906,.T.);
#975=FACE_BOUND('',#907,.T.);
#976=FACE_BOUND('',#908,.T.);
#977=FACE_BOUND('',#909,.T.);
#978=FACE_BOUND('',#910,.T.);
#979=FACE_BOUND('',#911,.T.);
#980=FACE_BOUND('',#912,.T.);
#981=FACE_BOUND('',#913,.T.);
#982=FACE_BOUND('',#914,.T.);
#983=FACE_BOUND('',#915,.T.);
#984=FACE_BOUND('',#916,.T.);
#985=FACE_BOUND('',#917,.T.);
#986=PLANE('',#1284);
#987=PLANE('',#1285);
#988=PLANE('',#1286);
#989=PLANE('',#1287);
#990=PLANE('',#1288);
#991=PLANE('',#1289);
#992=PLANE('',#1290);
#993=PLANE('',#1292);
#994=PLANE('',#1294);
#995=PLANE('',#1295);
#996=PLANE('',#1296);
#997=PLANE('',#1297);
#998=PLANE('',#1298);
#999=PLANE('',#1299);
#1000=PLANE('',#1300);
#1001=PLANE('',#1301);
#1002=PLANE('',#1302);
#1003=PLANE('',#1303);
#1004=PLANE('',#1304);
#1005=PLANE('',#1309);
#1006=PLANE('',#1310);
#1007=PLANE('',#1311);
#1008=PLANE('',#1312);
#1009=PLANE('',#1313);
#1010=PLANE('',#1314);
#1011=PLANE('',#1315);
#1012=PLANE('',#1316);
#1013=PLANE('',#1317);
#1014=PLANE('',#1318);
#1015=PLANE('',#1319);
#1016=PLANE('',#1320);
#1017=PLANE('',#1321);
#1018=PLANE('',#1322);
#1019=PLANE('',#1323);
#1020=PLANE('',#1324);
#1021=PLANE('',#1325);
#1022=PLANE('',#1326);
#1023=PLANE('',#1327);
#1024=PLANE('',#1328);
#1025=PLANE('',#1329);
#1026=PLANE('',#1330);
#1027=PLANE('',#1331);
#1028=PLANE('',#1332);
#1029=PLANE('',#1333);
#1030=PLANE('',#1334);
#1031=PLANE('',#1335);
#1032=PLANE('',#1336);
#1033=PLANE('',#1337);
#1034=PLANE('',#1338);
#1035=PLANE('',#1339);
#1036=PLANE('',#1340);
#1037=PLANE('',#1341);
#1038=PLANE('',#1342);
#1039=PLANE('',#1343);
#1040=PLANE('',#1344);
#1041=PLANE('',#1345);
#1042=PLANE('',#1346);
#1043=OVER_RIDING_STYLED_ITEM('',(#1130),#1068,#1128);
#1044=OVER_RIDING_STYLED_ITEM('',(#1131),#1069,#1128);
#1045=OVER_RIDING_STYLED_ITEM('',(#1132),#1070,#1128);
#1046=OVER_RIDING_STYLED_ITEM('',(#1133),#1071,#1128);
#1047=OVER_RIDING_STYLED_ITEM('',(#1134),#1072,#1128);
#1048=OVER_RIDING_STYLED_ITEM('',(#1135),#1073,#1128);
#1049=OVER_RIDING_STYLED_ITEM('',(#1136),#1077,#1128);
#1050=OVER_RIDING_STYLED_ITEM('',(#1137),#1078,#1128);
#1051=OVER_RIDING_STYLED_ITEM('',(#1138),#1079,#1128);
#1052=OVER_RIDING_STYLED_ITEM('',(#1139),#1080,#1128);
#1053=OVER_RIDING_STYLED_ITEM('',(#1140),#1081,#1128);
#1054=OVER_RIDING_STYLED_ITEM('',(#1141),#1082,#1128);
#1055=OVER_RIDING_STYLED_ITEM('',(#1142),#1083,#1128);
#1056=OVER_RIDING_STYLED_ITEM('',(#1143),#1084,#1128);
#1057=OVER_RIDING_STYLED_ITEM('',(#1144),#1108,#1128);
#1058=OVER_RIDING_STYLED_ITEM('',(#1145),#1114,#1128);
#1059=OVER_RIDING_STYLED_ITEM('',(#1146),#1115,#1128);
#1060=OVER_RIDING_STYLED_ITEM('',(#1147),#1116,#1128);
#1061=OVER_RIDING_STYLED_ITEM('',(#1148),#1117,#1128);
#1062=OVER_RIDING_STYLED_ITEM('',(#1149),#1121,#1128);
#1063=OVER_RIDING_STYLED_ITEM('',(#1150),#1123,#1128);
#1064=OVER_RIDING_STYLED_ITEM('',(#1151),#1124,#1128);
#1065=OVER_RIDING_STYLED_ITEM('',(#1152),#1125,#1128);
#1066=OVER_RIDING_STYLED_ITEM('',(#1153),#1126,#1128);
#1067=COLOUR_RGB('',0.752941176470588,0.752941176470588,0.752941176470588);
#1068=ADVANCED_FACE('',(#918),#986,.F.);
#1069=ADVANCED_FACE('',(#919),#987,.F.);
#1070=ADVANCED_FACE('',(#920),#988,.F.);
#1071=ADVANCED_FACE('',(#921),#989,.F.);
#1072=ADVANCED_FACE('',(#922),#990,.F.);
#1073=ADVANCED_FACE('',(#923),#991,.F.);
#1074=ADVANCED_FACE('',(#924),#992,.T.);
#1075=ADVANCED_FACE('',(#925),#993,.T.);
#1076=ADVANCED_FACE('',(#926),#994,.F.);
#1077=ADVANCED_FACE('',(#927),#995,.F.);
#1078=ADVANCED_FACE('',(#928),#996,.F.);
#1079=ADVANCED_FACE('',(#929),#997,.F.);
#1080=ADVANCED_FACE('',(#930),#998,.F.);
#1081=ADVANCED_FACE('',(#931),#999,.F.);
#1082=ADVANCED_FACE('',(#932),#1000,.F.);
#1083=ADVANCED_FACE('',(#933),#1001,.F.);
#1084=ADVANCED_FACE('',(#934),#1002,.F.);
#1085=ADVANCED_FACE('',(#935),#1003,.F.);
#1086=ADVANCED_FACE('',(#936),#1004,.F.);
#1087=ADVANCED_FACE('',(#937,#938),#12,.T.);
#1088=ADVANCED_FACE('',(#939,#940),#13,.T.);
#1089=ADVANCED_FACE('',(#941),#1005,.T.);
#1090=ADVANCED_FACE('',(#942),#1006,.F.);
#1091=ADVANCED_FACE('',(#943),#1007,.T.);
#1092=ADVANCED_FACE('',(#944),#1008,.F.);
#1093=ADVANCED_FACE('',(#945),#1009,.F.);
#1094=ADVANCED_FACE('',(#946),#1010,.F.);
#1095=ADVANCED_FACE('',(#947),#1011,.T.);
#1096=ADVANCED_FACE('',(#948),#1012,.F.);
#1097=ADVANCED_FACE('',(#949),#1013,.T.);
#1098=ADVANCED_FACE('',(#950,#951,#952),#1014,.T.);
#1099=ADVANCED_FACE('',(#953),#1015,.T.);
#1100=ADVANCED_FACE('',(#954,#955,#956),#1016,.T.);
#1101=ADVANCED_FACE('',(#957),#1017,.F.);
#1102=ADVANCED_FACE('',(#958),#1018,.F.);
#1103=ADVANCED_FACE('',(#959),#1019,.F.);
#1104=ADVANCED_FACE('',(#960,#961),#1020,.F.);
#1105=ADVANCED_FACE('',(#962),#1021,.F.);
#1106=ADVANCED_FACE('',(#963),#1022,.F.);
#1107=ADVANCED_FACE('',(#964),#1023,.T.);
#1108=ADVANCED_FACE('',(#965),#1024,.T.);
#1109=ADVANCED_FACE('',(#966),#1025,.T.);
#1110=ADVANCED_FACE('',(#967),#1026,.T.);
#1111=ADVANCED_FACE('',(#968),#1027,.T.);
#1112=ADVANCED_FACE('',(#969),#1028,.T.);
#1113=ADVANCED_FACE('',(#970),#1029,.F.);
#1114=ADVANCED_FACE('',(#971),#1030,.F.);
#1115=ADVANCED_FACE('',(#972),#1031,.F.);
#1116=ADVANCED_FACE('',(#973),#1032,.F.);
#1117=ADVANCED_FACE('',(#974),#1033,.F.);
#1118=ADVANCED_FACE('',(#975),#1034,.F.);
#1119=ADVANCED_FACE('',(#976),#1035,.F.);
#1120=ADVANCED_FACE('',(#977),#1036,.F.);
#1121=ADVANCED_FACE('',(#978),#1037,.F.);
#1122=ADVANCED_FACE('',(#979,#980,#981),#1038,.F.);
#1123=ADVANCED_FACE('',(#982),#1039,.F.);
#1124=ADVANCED_FACE('',(#983),#1040,.F.);
#1125=ADVANCED_FACE('',(#984),#1041,.T.);
#1126=ADVANCED_FACE('',(#985),#1042,.F.);
#1127=CLOSED_SHELL('',(#1068,#1069,#1070,#1071,#1072,#1073,#1074,#1075,
#1076,#1077,#1078,#1079,#1080,#1081,#1082,#1083,#1084,#1085,#1086,#1087,
#1088,#1089,#1090,#1091,#1092,#1093,#1094,#1095,#1096,#1097,#1098,#1099,
#1100,#1101,#1102,#1103,#1104,#1105,#1106,#1107,#1108,#1109,#1110,#1111,
#1112,#1113,#1114,#1115,#1116,#1117,#1118,#1119,#1120,#1121,#1122,#1123,
#1124,#1125,#1126));
#1128=STYLED_ITEM('',(#1129),#1280);
#1129=PRESENTATION_STYLE_ASSIGNMENT((#1154));
#1130=PRESENTATION_STYLE_ASSIGNMENT((#1155));
#1131=PRESENTATION_STYLE_ASSIGNMENT((#1156));
#1132=PRESENTATION_STYLE_ASSIGNMENT((#1157));
#1133=PRESENTATION_STYLE_ASSIGNMENT((#1158));
#1134=PRESENTATION_STYLE_ASSIGNMENT((#1159));
#1135=PRESENTATION_STYLE_ASSIGNMENT((#1160));
#1136=PRESENTATION_STYLE_ASSIGNMENT((#1161));
#1137=PRESENTATION_STYLE_ASSIGNMENT((#1162));
#1138=PRESENTATION_STYLE_ASSIGNMENT((#1163));
#1139=PRESENTATION_STYLE_ASSIGNMENT((#1164));
#1140=PRESENTATION_STYLE_ASSIGNMENT((#1165));
#1141=PRESENTATION_STYLE_ASSIGNMENT((#1166));
#1142=PRESENTATION_STYLE_ASSIGNMENT((#1167));
#1143=PRESENTATION_STYLE_ASSIGNMENT((#1168));
#1144=PRESENTATION_STYLE_ASSIGNMENT((#1169));
#1145=PRESENTATION_STYLE_ASSIGNMENT((#1170));
#1146=PRESENTATION_STYLE_ASSIGNMENT((#1171));
#1147=PRESENTATION_STYLE_ASSIGNMENT((#1172));
#1148=PRESENTATION_STYLE_ASSIGNMENT((#1173));
#1149=PRESENTATION_STYLE_ASSIGNMENT((#1174));
#1150=PRESENTATION_STYLE_ASSIGNMENT((#1175));
#1151=PRESENTATION_STYLE_ASSIGNMENT((#1176));
#1152=PRESENTATION_STYLE_ASSIGNMENT((#1177));
#1153=PRESENTATION_STYLE_ASSIGNMENT((#1178));
#1154=SURFACE_STYLE_USAGE(.BOTH.,#1179);
#1155=SURFACE_STYLE_USAGE(.BOTH.,#1180);
#1156=SURFACE_STYLE_USAGE(.BOTH.,#1181);
#1157=SURFACE_STYLE_USAGE(.BOTH.,#1182);
#1158=SURFACE_STYLE_USAGE(.BOTH.,#1183);
#1159=SURFACE_STYLE_USAGE(.BOTH.,#1184);
#1160=SURFACE_STYLE_USAGE(.BOTH.,#1185);
#1161=SURFACE_STYLE_USAGE(.BOTH.,#1186);
#1162=SURFACE_STYLE_USAGE(.BOTH.,#1187);
#1163=SURFACE_STYLE_USAGE(.BOTH.,#1188);
#1164=SURFACE_STYLE_USAGE(.BOTH.,#1189);
#1165=SURFACE_STYLE_USAGE(.BOTH.,#1190);
#1166=SURFACE_STYLE_USAGE(.BOTH.,#1191);
#1167=SURFACE_STYLE_USAGE(.BOTH.,#1192);
#1168=SURFACE_STYLE_USAGE(.BOTH.,#1193);
#1169=SURFACE_STYLE_USAGE(.BOTH.,#1194);
#1170=SURFACE_STYLE_USAGE(.BOTH.,#1195);
#1171=SURFACE_STYLE_USAGE(.BOTH.,#1196);
#1172=SURFACE_STYLE_USAGE(.BOTH.,#1197);
#1173=SURFACE_STYLE_USAGE(.BOTH.,#1198);
#1174=SURFACE_STYLE_USAGE(.BOTH.,#1199);
#1175=SURFACE_STYLE_USAGE(.BOTH.,#1200);
#1176=SURFACE_STYLE_USAGE(.BOTH.,#1201);
#1177=SURFACE_STYLE_USAGE(.BOTH.,#1202);
#1178=SURFACE_STYLE_USAGE(.BOTH.,#1203);
#1179=SURFACE_SIDE_STYLE('',(#1204));
#1180=SURFACE_SIDE_STYLE('',(#1205));
#1181=SURFACE_SIDE_STYLE('',(#1206));
#1182=SURFACE_SIDE_STYLE('',(#1207));
#1183=SURFACE_SIDE_STYLE('',(#1208));
#1184=SURFACE_SIDE_STYLE('',(#1209));
#1185=SURFACE_SIDE_STYLE('',(#1210));
#1186=SURFACE_SIDE_STYLE('',(#1211));
#1187=SURFACE_SIDE_STYLE('',(#1212));
#1188=SURFACE_SIDE_STYLE('',(#1213));
#1189=SURFACE_SIDE_STYLE('',(#1214));
#1190=SURFACE_SIDE_STYLE('',(#1215));
#1191=SURFACE_SIDE_STYLE('',(#1216));
#1192=SURFACE_SIDE_STYLE('',(#1217));
#1193=SURFACE_SIDE_STYLE('',(#1218));
#1194=SURFACE_SIDE_STYLE('',(#1219));
#1195=SURFACE_SIDE_STYLE('',(#1220));
#1196=SURFACE_SIDE_STYLE('',(#1221));
#1197=SURFACE_SIDE_STYLE('',(#1222));
#1198=SURFACE_SIDE_STYLE('',(#1223));
#1199=SURFACE_SIDE_STYLE('',(#1224));
#1200=SURFACE_SIDE_STYLE('',(#1225));
#1201=SURFACE_SIDE_STYLE('',(#1226));
#1202=SURFACE_SIDE_STYLE('',(#1227));
#1203=SURFACE_SIDE_STYLE('',(#1228));
#1204=SURFACE_STYLE_FILL_AREA(#1229);
#1205=SURFACE_STYLE_FILL_AREA(#1230);
#1206=SURFACE_STYLE_FILL_AREA(#1231);
#1207=SURFACE_STYLE_FILL_AREA(#1232);
#1208=SURFACE_STYLE_FILL_AREA(#1233);
#1209=SURFACE_STYLE_FILL_AREA(#1234);
#1210=SURFACE_STYLE_FILL_AREA(#1235);
#1211=SURFACE_STYLE_FILL_AREA(#1236);
#1212=SURFACE_STYLE_FILL_AREA(#1237);
#1213=SURFACE_STYLE_FILL_AREA(#1238);
#1214=SURFACE_STYLE_FILL_AREA(#1239);
#1215=SURFACE_STYLE_FILL_AREA(#1240);
#1216=SURFACE_STYLE_FILL_AREA(#1241);
#1217=SURFACE_STYLE_FILL_AREA(#1242);
#1218=SURFACE_STYLE_FILL_AREA(#1243);
#1219=SURFACE_STYLE_FILL_AREA(#1244);
#1220=SURFACE_STYLE_FILL_AREA(#1245);
#1221=SURFACE_STYLE_FILL_AREA(#1246);
#1222=SURFACE_STYLE_FILL_AREA(#1247);
#1223=SURFACE_STYLE_FILL_AREA(#1248);
#1224=SURFACE_STYLE_FILL_AREA(#1249);
#1225=SURFACE_STYLE_FILL_AREA(#1250);
#1226=SURFACE_STYLE_FILL_AREA(#1251);
#1227=SURFACE_STYLE_FILL_AREA(#1252);
#1228=SURFACE_STYLE_FILL_AREA(#1253);
#1229=FILL_AREA_STYLE('',(#1254));
#1230=FILL_AREA_STYLE('',(#1255));
#1231=FILL_AREA_STYLE('',(#1256));
#1232=FILL_AREA_STYLE('',(#1257));
#1233=FILL_AREA_STYLE('',(#1258));
#1234=FILL_AREA_STYLE('',(#1259));
#1235=FILL_AREA_STYLE('',(#1260));
#1236=FILL_AREA_STYLE('',(#1261));
#1237=FILL_AREA_STYLE('',(#1262));
#1238=FILL_AREA_STYLE('',(#1263));
#1239=FILL_AREA_STYLE('',(#1264));
#1240=FILL_AREA_STYLE('',(#1265));
#1241=FILL_AREA_STYLE('',(#1266));
#1242=FILL_AREA_STYLE('',(#1267));
#1243=FILL_AREA_STYLE('',(#1268));
#1244=FILL_AREA_STYLE('',(#1269));
#1245=FILL_AREA_STYLE('',(#1270));
#1246=FILL_AREA_STYLE('',(#1271));
#1247=FILL_AREA_STYLE('',(#1272));
#1248=FILL_AREA_STYLE('',(#1273));
#1249=FILL_AREA_STYLE('',(#1274));
#1250=FILL_AREA_STYLE('',(#1275));
#1251=FILL_AREA_STYLE('',(#1276));
#1252=FILL_AREA_STYLE('',(#1277));
#1253=FILL_AREA_STYLE('',(#1278));
#1254=FILL_AREA_STYLE_COLOUR('',#1279);
#1255=FILL_AREA_STYLE_COLOUR('',#1067);
#1256=FILL_AREA_STYLE_COLOUR('',#1067);
#1257=FILL_AREA_STYLE_COLOUR('',#1067);
#1258=FILL_AREA_STYLE_COLOUR('',#1067);
#1259=FILL_AREA_STYLE_COLOUR('',#1067);
#1260=FILL_AREA_STYLE_COLOUR('',#1067);
#1261=FILL_AREA_STYLE_COLOUR('',#1067);
#1262=FILL_AREA_STYLE_COLOUR('',#1067);
#1263=FILL_AREA_STYLE_COLOUR('',#1067);
#1264=FILL_AREA_STYLE_COLOUR('',#1067);
#1265=FILL_AREA_STYLE_COLOUR('',#1067);
#1266=FILL_AREA_STYLE_COLOUR('',#1067);
#1267=FILL_AREA_STYLE_COLOUR('',#1067);
#1268=FILL_AREA_STYLE_COLOUR('',#1067);
#1269=FILL_AREA_STYLE_COLOUR('',#1067);
#1270=FILL_AREA_STYLE_COLOUR('',#1067);
#1271=FILL_AREA_STYLE_COLOUR('',#1067);
#1272=FILL_AREA_STYLE_COLOUR('',#1067);
#1273=FILL_AREA_STYLE_COLOUR('',#1067);
#1274=FILL_AREA_STYLE_COLOUR('',#1067);
#1275=FILL_AREA_STYLE_COLOUR('',#1067);
#1276=FILL_AREA_STYLE_COLOUR('',#1067);
#1277=FILL_AREA_STYLE_COLOUR('',#1067);
#1278=FILL_AREA_STYLE_COLOUR('',#1067);
#1279=DRAUGHTING_PRE_DEFINED_COLOUR('white');
#1280=MANIFOLD_SOLID_BREP('S02B-PASK-2',#1127);
#1281=SHAPE_DEFINITION_REPRESENTATION(#1933,#1282);
#1282=SHAPE_REPRESENTATION('S02B-PASK-2',(#1283),#1928);
#1283=AXIS2_PLACEMENT_3D('',#1619,#1347,#1348);
#1284=AXIS2_PLACEMENT_3D('',#1620,#1349,#1350);
#1285=AXIS2_PLACEMENT_3D('',#1629,#1355,#1356);
#1286=AXIS2_PLACEMENT_3D('',#1638,#1361,#1362);
#1287=AXIS2_PLACEMENT_3D('',#1641,#1365,#1366);
#1288=AXIS2_PLACEMENT_3D('',#1650,#1371,#1372);
#1289=AXIS2_PLACEMENT_3D('',#1656,#1376,#1377);
#1290=AXIS2_PLACEMENT_3D('',#1662,#1381,#1382);
#1291=AXIS2_PLACEMENT_3D('',#1663,#1383,#1384);
#1292=AXIS2_PLACEMENT_3D('',#1665,#1385,#1386);
#1293=AXIS2_PLACEMENT_3D('',#1666,#1387,#1388);
#1294=AXIS2_PLACEMENT_3D('',#1668,#1389,#1390);
#1295=AXIS2_PLACEMENT_3D('',#1677,#1395,#1396);
#1296=AXIS2_PLACEMENT_3D('',#1683,#1400,#1401);
#1297=AXIS2_PLACEMENT_3D('',#1689,#1405,#1406);
#1298=AXIS2_PLACEMENT_3D('',#1695,#1410,#1411);
#1299=AXIS2_PLACEMENT_3D('',#1697,#1413,#1414);
#1300=AXIS2_PLACEMENT_3D('',#1701,#1417,#1418);
#1301=AXIS2_PLACEMENT_3D('',#1703,#1420,#1421);
#1302=AXIS2_PLACEMENT_3D('',#1707,#1424,#1425);
#1303=AXIS2_PLACEMENT_3D('',#1709,#1427,#1428);
#1304=AXIS2_PLACEMENT_3D('',#1718,#1433,#1434);
#1305=AXIS2_PLACEMENT_3D('',#1727,#1439,#1440);
#1306=AXIS2_PLACEMENT_3D('',#1728,#1441,#1442);
#1307=AXIS2_PLACEMENT_3D('',#1730,#1443,#1444);
#1308=AXIS2_PLACEMENT_3D('',#1731,#1445,#1446);
#1309=AXIS2_PLACEMENT_3D('',#1733,#1447,#1448);
#1310=AXIS2_PLACEMENT_3D('',#1739,#1452,#1453);
#1311=AXIS2_PLACEMENT_3D('',#1743,#1456,#1457);
#1312=AXIS2_PLACEMENT_3D('',#1749,#1461,#1462);
#1313=AXIS2_PLACEMENT_3D('',#1755,#1466,#1467);
#1314=AXIS2_PLACEMENT_3D('',#1757,#1469,#1470);
#1315=AXIS2_PLACEMENT_3D('',#1759,#1472,#1473);
#1316=AXIS2_PLACEMENT_3D('',#1768,#1478,#1479);
#1317=AXIS2_PLACEMENT_3D('',#1774,#1483,#1484);
#1318=AXIS2_PLACEMENT_3D('',#1783,#1489,#1490);
#1319=AXIS2_PLACEMENT_3D('',#1790,#1495,#1496);
#1320=AXIS2_PLACEMENT_3D('',#1794,#1499,#1500);
#1321=AXIS2_PLACEMENT_3D('',#1800,#1504,#1505);
#1322=AXIS2_PLACEMENT_3D('',#1806,#1509,#1510);
#1323=AXIS2_PLACEMENT_3D('',#1812,#1514,#1515);
#1324=AXIS2_PLACEMENT_3D('',#1821,#1521,#1522);
#1325=AXIS2_PLACEMENT_3D('',#1826,#1526,#1527);
#1326=AXIS2_PLACEMENT_3D('',#1828,#1529,#1530);
#1327=AXIS2_PLACEMENT_3D('',#1830,#1532,#1533);
#1328=AXIS2_PLACEMENT_3D('',#1836,#1537,#1538);
#1329=AXIS2_PLACEMENT_3D('',#1845,#1543,#1544);
#1330=AXIS2_PLACEMENT_3D('',#1851,#1548,#1549);
#1331=AXIS2_PLACEMENT_3D('',#1859,#1554,#1555);
#1332=AXIS2_PLACEMENT_3D('',#1863,#1558,#1559);
#1333=AXIS2_PLACEMENT_3D('',#1869,#1563,#1564);
#1334=AXIS2_PLACEMENT_3D('',#1875,#1568,#1569);
#1335=AXIS2_PLACEMENT_3D('',#1881,#1573,#1574);
#1336=AXIS2_PLACEMENT_3D('',#1887,#1578,#1579);
#1337=AXIS2_PLACEMENT_3D('',#1889,#1581,#1582);
#1338=AXIS2_PLACEMENT_3D('',#1891,#1584,#1585);
#1339=AXIS2_PLACEMENT_3D('',#1895,#1588,#1589);
#1340=AXIS2_PLACEMENT_3D('',#1899,#1592,#1593);
#1341=AXIS2_PLACEMENT_3D('',#1901,#1595,#1596);
#1342=AXIS2_PLACEMENT_3D('',#1910,#1601,#1602);
#1343=AXIS2_PLACEMENT_3D('',#1916,#1606,#1607);
#1344=AXIS2_PLACEMENT_3D('',#1920,#1610,#1611);
#1345=AXIS2_PLACEMENT_3D('',#1924,#1614,#1615);
#1346=AXIS2_PLACEMENT_3D('',#1926,#1617,#1618);
#1347=DIRECTION('',(0.,0.,1.));
#1348=DIRECTION('',(1.,0.,0.));
#1349=DIRECTION('',(3.49148336110938E-15,-2.05468309005135E-16,-1.));
#1350=DIRECTION('',(1.,-3.6969516701145E-15,3.49148336110938E-15));
#1351=DIRECTION('',(-1.,3.80537188736306E-15,-3.49148336110938E-15));
#1352=DIRECTION('',(3.80537188736306E-15,1.,-2.05468309005121E-16));
#1353=DIRECTION('',(-1.,3.80537188736306E-15,-3.49148336110938E-15));
#1354=DIRECTION('',(3.80537188736306E-15,1.,-2.05468309005121E-16));
#1355=DIRECTION('',(-3.49148336110938E-15,2.05468309005135E-16,1.));
#1356=DIRECTION('',(-1.,3.6969516701145E-15,-3.49148336110938E-15));
#1357=DIRECTION('',(-1.,3.6969516701145E-15,-3.49148336110938E-15));
#1358=DIRECTION('',(3.6969516701145E-15,1.,-2.05468309005122E-16));
#1359=DIRECTION('',(1.,-3.80537188736306E-15,3.49148336110938E-15));
#1360=DIRECTION('',(-3.6969516701145E-15,-1.,2.05468309005122E-16));
#1361=DIRECTION('',(3.80537188736306E-15,1.,-2.05468309005121E-16));
#1362=DIRECTION('',(-1.,3.80537188736306E-15,-3.49148336110938E-15));
#1363=DIRECTION('',(-3.49148336110938E-15,2.05468309005135E-16,1.));
#1364=DIRECTION('',(3.49148336110938E-15,-2.05468309005135E-16,-1.));
#1365=DIRECTION('',(3.80537188736306E-15,1.,-2.05468309005121E-16));
#1366=DIRECTION('',(-1.,3.80537188736306E-15,-3.49148336110938E-15));
#1367=DIRECTION('',(-3.49148336110938E-15,2.05468309005135E-16,1.));
#1368=DIRECTION('',(-1.,3.80537188736306E-15,-3.49148336110938E-15));
#1369=DIRECTION('',(3.49148336110938E-15,-2.05468309005135E-16,-1.));
#1370=DIRECTION('',(1.,-3.80537188736306E-15,3.49148336110938E-15));
#1371=DIRECTION('',(3.49148336110938E-15,-2.05468309005135E-16,-1.));
#1372=DIRECTION('',(1.,-3.6969516701145E-15,3.49148336110938E-15));
#1373=DIRECTION('',(-1.,3.58853145286596E-15,-3.49148336110938E-15));
#1374=DIRECTION('',(3.6969516701145E-15,1.,-2.05468309005122E-16));
#1375=DIRECTION('',(3.6969516701145E-15,1.,-2.05468309005122E-16));
#1376=DIRECTION('',(-3.49148336110938E-15,2.05468309005135E-16,1.));
#1377=DIRECTION('',(-1.,3.6969516701145E-15,-3.49148336110938E-15));
#1378=DIRECTION('',(-1.,3.6969516701145E-15,-3.49148336110938E-15));
#1379=DIRECTION('',(3.6969516701145E-15,1.,-2.05468309005122E-16));
#1380=DIRECTION('',(-3.6969516701145E-15,-1.,2.05468309005122E-16));
#1381=DIRECTION('',(-3.6969516701145E-15,-1.,3.16668531824148E-16));
#1382=DIRECTION('',(-3.49148336110938E-15,3.16668531824162E-16,1.));
#1383=DIRECTION('',(-3.6969516701145E-15,-1.,3.16668531824148E-16));
#1384=DIRECTION('',(1.,-3.6969516701145E-15,0.));
#1385=DIRECTION('',(-3.6969516701145E-15,-1.,3.16668531824148E-16));
#1386=DIRECTION('',(-3.49148336110938E-15,3.16668531824162E-16,1.));
#1387=DIRECTION('',(-3.6969516701145E-15,-1.,3.16668531824148E-16));
#1388=DIRECTION('',(-4.33680868994202E-15,2.71050543121376E-16,1.));
#1389=DIRECTION('',(-3.6969516701145E-15,-1.,4.41263046918666E-16));
#1390=DIRECTION('',(-3.49148336110938E-15,4.41263046918679E-16,1.));
#1391=DIRECTION('',(3.49148336110938E-15,-4.41263046918679E-16,-1.));
#1392=DIRECTION('',(1.,-3.6969516701145E-15,3.49148336110938E-15));
#1393=DIRECTION('',(3.49148336110938E-15,-4.41263046918679E-16,-1.));
#1394=DIRECTION('',(1.,-3.6969516701145E-15,3.49148336110938E-15));
#1395=DIRECTION('',(-3.6969516701145E-15,-1.,2.05468309005122E-16));
#1396=DIRECTION('',(1.,-3.6969516701145E-15,3.49148336110938E-15));
#1397=DIRECTION('',(-1.,3.6969516701145E-15,-3.49148336110938E-15));
#1398=DIRECTION('',(3.49148336110938E-15,-2.05468309005135E-16,-1.));
#1399=DIRECTION('',(3.49148336110938E-15,-2.05468309005135E-16,-1.));
#1400=DIRECTION('',(3.58853145286596E-15,1.,-2.05468309005122E-16));
#1401=DIRECTION('',(-1.,3.58853145286596E-15,-3.49148336110938E-15));
#1402=DIRECTION('',(3.49148336110938E-15,-2.05468309005135E-16,-1.));
#1403=DIRECTION('',(1.,-3.58853145286596E-15,3.49148336110938E-15));
#1404=DIRECTION('',(3.49148336110938E-15,-2.05468309005135E-16,-1.));
#1405=DIRECTION('',(3.58853145286596E-15,1.,-2.05468309005122E-16));
#1406=DIRECTION('',(-1.,3.58853145286596E-15,-3.49148336110938E-15));
#1407=DIRECTION('',(3.49148336110938E-15,-2.05468309005134E-16,-1.));
#1408=DIRECTION('',(1.,-3.58853145286596E-15,3.49148336110938E-15));
#1409=DIRECTION('',(3.49148336110938E-15,-2.05468309005134E-16,-1.));
#1410=DIRECTION('',(-1.,3.6969516701145E-15,-3.49148336110938E-15));
#1411=DIRECTION('',(-3.6969516701145E-15,-1.,2.05468309005122E-16));
#1412=DIRECTION('',(3.6969516701145E-15,1.,-2.05468309005122E-16));
#1413=DIRECTION('',(-1.,3.6969516701145E-15,-3.49148336110938E-15));
#1414=DIRECTION('',(-3.6969516701145E-15,-1.,2.05468309005122E-16));
#1415=DIRECTION('',(3.6969516701145E-15,1.,-2.05468309005122E-16));
#1416=DIRECTION('',(3.49148336110938E-15,-2.05468309005135E-16,-1.));
#1417=DIRECTION('',(1.,-3.6969516701145E-15,3.49148336110938E-15));
#1418=DIRECTION('',(3.6969516701145E-15,1.,-2.05468309005122E-16));
#1419=DIRECTION('',(-3.6969516701145E-15,-1.,2.05468309005122E-16));
#1420=DIRECTION('',(1.,-3.6969516701145E-15,3.49148336110938E-15));
#1421=DIRECTION('',(3.6969516701145E-15,1.,-2.05468309005122E-16));
#1422=DIRECTION('',(-3.6969516701145E-15,-1.,2.05468309005122E-16));
#1423=DIRECTION('',(3.49148336110938E-15,-2.05468309005135E-16,-1.));
#1424=DIRECTION('',(-3.6969516701145E-15,-1.,2.05468309005122E-16));
#1425=DIRECTION('',(1.,-3.6969516701145E-15,3.49148336110938E-15));
#1426=DIRECTION('',(-1.,3.6969516701145E-15,-3.49148336110938E-15));
#1427=DIRECTION('',(-1.,3.6969516701145E-15,-3.49148336110938E-15));
#1428=DIRECTION('',(-3.6969516701145E-15,-1.,2.05468309005122E-16));
#1429=DIRECTION('',(3.6969516701145E-15,1.,-6.50269200281227E-16));
#1430=DIRECTION('',(-1.17523745255421E-15,0.49999999999999,0.866025403784445));
#1431=DIRECTION('',(3.6969516701145E-15,1.,-6.50269200281227E-16));
#1432=DIRECTION('',(3.49148336110938E-15,-6.50269200281236E-16,-1.));
#1433=DIRECTION('',(1.,-3.6969516701145E-15,3.49148336110938E-15));
#1434=DIRECTION('',(3.6969516701145E-15,1.,-2.05468309005122E-16));
#1435=DIRECTION('',(-3.6969516701145E-15,-1.,6.50269200281227E-16));
#1436=DIRECTION('',(1.17523745255421E-15,-0.49999999999999,-0.866025403784445));
#1437=DIRECTION('',(-3.6969516701145E-15,-1.,6.50269200281227E-16));
#1438=DIRECTION('',(3.49148336110938E-15,-6.50269200281236E-16,-1.));
#1439=DIRECTION('',(3.6969516701145E-15,1.,-3.16668531824148E-16));
#1440=DIRECTION('',(3.5236570605779E-15,-2.71050543121377E-16,-1.));
#1441=DIRECTION('',(-3.6969516701145E-15,-1.,3.16668531824148E-16));
#1442=DIRECTION('',(-3.5236570605779E-15,3.16668531824162E-16,1.));
#1443=DIRECTION('',(3.6969516701145E-15,1.,-3.16668531824148E-16));
#1444=DIRECTION('',(4.33680868994202E-15,-2.71050543121376E-16,-1.));
#1445=DIRECTION('',(-3.6969516701145E-15,-1.,3.16668531824148E-16));
#1446=DIRECTION('',(-4.33680868994202E-15,3.16668531824164E-16,1.));
#1447=DIRECTION('',(3.49148336110938E-15,-6.50269200281236E-16,-1.));
#1448=DIRECTION('',(-3.6969516701145E-15,-1.,6.50269200281223E-16));
#1449=DIRECTION('',(1.,-3.6969516701145E-15,3.49148336110938E-15));
#1450=DIRECTION('',(-3.6969516701145E-15,-1.,6.50269200281223E-16));
#1451=DIRECTION('',(-1.,3.6969516701145E-15,-3.49148336110938E-15));
#1452=DIRECTION('',(-4.94739574343715E-15,-0.866025403784445,0.49999999999999));
#1453=DIRECTION('',(-1.17523745255421E-15,0.49999999999999,0.866025403784445));
#1454=DIRECTION('',(1.17523745255421E-15,-0.49999999999999,-0.866025403784445));
#1455=DIRECTION('',(-1.,3.6969516701145E-15,-3.49148336110939E-15));
#1456=DIRECTION('',(-1.,3.6969516701145E-15,-3.49148336110938E-15));
#1457=DIRECTION('',(-3.6969516701145E-15,-1.,2.05468309005122E-16));
#1458=DIRECTION('',(-3.49148336110938E-15,2.05468309005135E-16,1.));
#1459=DIRECTION('',(3.6969516701145E-15,1.,-2.05468309005122E-16));
#1460=DIRECTION('',(-3.6969516701145E-15,-1.,2.05468309005122E-16));
#1461=DIRECTION('',(-1.,3.6969516701145E-15,-3.49148336110938E-15));
#1462=DIRECTION('',(-3.6969516701145E-15,-1.,2.05468309005122E-16));
#1463=DIRECTION('',(-3.49148336110938E-15,2.05468309005135E-16,1.));
#1464=DIRECTION('',(-3.6969516701145E-15,-1.,2.05468309005122E-16));
#1465=DIRECTION('',(3.6969516701145E-15,1.,-2.05468309005122E-16));
#1466=DIRECTION('',(3.49148336110938E-15,-2.05468309005135E-16,-1.));
#1467=DIRECTION('',(1.,-3.6969516701145E-15,3.49148336110938E-15));
#1468=DIRECTION('',(1.,-3.6969516701145E-15,3.49148336110938E-15));
#1469=DIRECTION('',(-3.49148336110938E-15,2.05468309005135E-16,1.));
#1470=DIRECTION('',(-1.,3.6969516701145E-15,-3.49148336110938E-15));
#1471=DIRECTION('',(1.,-3.6969516701145E-15,3.49148336110938E-15));
#1472=DIRECTION('',(3.49148336110938E-15,-2.05468309005135E-16,-1.));
#1473=DIRECTION('',(1.,-3.6969516701145E-15,3.49148336110938E-15));
#1474=DIRECTION('',(-1.,3.6969516701145E-15,-3.49148336110938E-15));
#1475=DIRECTION('',(3.6969516701145E-15,1.,-2.05468309005122E-16));
#1476=DIRECTION('',(1.,-3.6969516701145E-15,3.49148336110938E-15));
#1477=DIRECTION('',(-3.6969516701145E-15,-1.,2.05468309005122E-16));
#1478=DIRECTION('',(-4.94739574343715E-15,-0.866025403784445,0.49999999999999));
#1479=DIRECTION('',(-1.17523745255421E-15,0.49999999999999,0.866025403784445));
#1480=DIRECTION('',(-1.17523745255421E-15,0.49999999999999,0.866025403784445));
#1481=DIRECTION('',(-1.,3.6969516701145E-15,-3.49148336110938E-15));
#1482=DIRECTION('',(-1.,3.6969516701145E-15,-3.49148336110938E-15));
#1483=DIRECTION('',(3.49148336110938E-15,-2.05468309005135E-16,-1.));
#1484=DIRECTION('',(1.,-3.6969516701145E-15,3.49148336110938E-15));
#1485=DIRECTION('',(-1.,3.6969516701145E-15,-3.49148336110938E-15));
#1486=DIRECTION('',(3.6969516701145E-15,1.,-2.05468309005122E-16));
#1487=DIRECTION('',(1.,-3.6969516701145E-15,3.49148336110938E-15));
#1488=DIRECTION('',(-3.6969516701145E-15,-1.,2.05468309005122E-16));
#1489=DIRECTION('',(3.49148336110938E-15,-2.05468309005135E-16,-1.));
#1490=DIRECTION('',(1.,-3.6969516701145E-15,3.49148336110938E-15));
#1491=DIRECTION('',(-3.6969516701145E-15,-1.,2.05468309005122E-16));
#1492=DIRECTION('',(1.,-3.6969516701145E-15,3.49148336110938E-15));
#1493=DIRECTION('',(-3.6969516701145E-15,-1.,2.05468309005122E-16));
#1494=DIRECTION('',(-1.,3.37200160362234E-15,-3.49148336110938E-15));
#1495=DIRECTION('',(3.49148336110938E-15,-6.50269200281236E-16,-1.));
#1496=DIRECTION('',(-3.6969516701145E-15,-1.,6.50269200281223E-16));
#1497=DIRECTION('',(-1.,3.6969516701145E-15,-3.49148336110938E-15));
#1498=DIRECTION('',(-3.6969516701145E-15,-1.,6.50269200281223E-16));
#1499=DIRECTION('',(-3.6969516701145E-15,-1.,3.16668531824148E-16));
#1500=DIRECTION('',(-3.49148336110938E-15,3.16668531824162E-16,1.));
#1501=DIRECTION('',(-3.49148336110938E-15,3.16668531824162E-16,1.));
#1502=DIRECTION('',(-1.,3.6969516701145E-15,-3.49148336110938E-15));
#1503=DIRECTION('',(-3.49148336110938E-15,3.16668531824162E-16,1.));
#1504=DIRECTION('',(1.,-3.6969516701145E-15,3.34447289704355E-15));
#1505=DIRECTION('',(-3.34447289704355E-15,2.05468309005134E-16,1.));
#1506=DIRECTION('',(-3.34447289704355E-15,3.52478773070966E-16,1.));
#1507=DIRECTION('',(-3.49148336110938E-15,2.05468309005135E-16,1.));
#1508=DIRECTION('',(-3.6969516701145E-15,-1.,3.52478773070953E-16));
#1509=DIRECTION('',(-3.6969516701145E-15,-1.,3.52478773070953E-16));
#1510=DIRECTION('',(-3.49148336110938E-15,3.52478773070967E-16,1.));
#1511=DIRECTION('',(-3.49148336110938E-15,3.52478773070966E-16,1.));
#1512=DIRECTION('',(1.,-3.6969516701145E-15,3.49148336110938E-15));
#1513=DIRECTION('',(3.34447289704355E-15,-3.52478773070966E-16,-1.));
#1514=DIRECTION('',(-1.,3.6969516701145E-15,-3.49148336110938E-15));
#1515=DIRECTION('',(-3.6969516701145E-15,-1.,2.05468309005122E-16));
#1516=DIRECTION('',(3.49148336110938E-15,-2.05468309005135E-16,-1.));
#1517=DIRECTION('',(3.49148336110938E-15,-3.52478773070967E-16,-1.));
#1518=DIRECTION('',(3.6969516701145E-15,1.,-2.05468309005122E-16));
#1519=DIRECTION('',(3.49148336110938E-15,-3.2593521705908E-16,-1.));
#1520=DIRECTION('',(3.6969516701145E-15,1.,-2.05468309005122E-16));
#1521=DIRECTION('',(-3.6969516701145E-15,-1.,2.05468309005122E-16));
#1522=DIRECTION('',(1.,-3.6969516701145E-15,3.49148336110938E-15));
#1523=DIRECTION('',(1.,-3.6969516701145E-15,3.49148336110938E-15));
#1524=DIRECTION('',(3.49148336110938E-15,-2.05468309005135E-16,-1.));
#1525=DIRECTION('',(-3.49148336110938E-15,2.05468309005135E-16,1.));
#1526=DIRECTION('',(-1.,3.6969516701145E-15,-3.34447289704355E-15));
#1527=DIRECTION('',(3.34447289704355E-15,-2.05468309005134E-16,-1.));
#1528=DIRECTION('',(-3.6969516701145E-15,-1.,3.52478773070953E-16));
#1529=DIRECTION('',(-3.6969516701145E-15,-1.,3.52478773070953E-16));
#1530=DIRECTION('',(-3.49148336110938E-15,3.52478773070967E-16,1.));
#1531=DIRECTION('',(1.,-3.6969516701145E-15,3.49148336110938E-15));
#1532=DIRECTION('',(-1.,3.6969516701145E-15,-3.49148336110938E-15));
#1533=DIRECTION('',(-3.6969516701145E-15,-1.,2.05468309005122E-16));
#1534=DIRECTION('',(3.6969516701145E-15,1.,-2.05468309005122E-16));
#1535=DIRECTION('',(3.49148336110938E-15,-3.2593521705908E-16,-1.));
#1536=DIRECTION('',(3.6969516701145E-15,1.,-2.05468309005122E-16));
#1537=DIRECTION('',(-3.49148336110938E-15,2.05468309005135E-16,1.));
#1538=DIRECTION('',(-1.,3.6969516701145E-15,-3.49148336110938E-15));
#1539=DIRECTION('',(-1.,3.6969516701145E-15,-3.49148336110938E-15));
#1540=DIRECTION('',(-3.6969516701145E-15,-1.,2.05468309005122E-16));
#1541=DIRECTION('',(1.,-3.58853145286596E-15,3.49148336110938E-15));
#1542=DIRECTION('',(3.6969516701145E-15,1.,-2.05468309005122E-16));
#1543=DIRECTION('',(3.6969516701145E-15,1.,-3.25935217059067E-16));
#1544=DIRECTION('',(3.49148336110938E-15,-3.2593521705908E-16,-1.));
#1545=DIRECTION('',(-3.49148336110938E-15,3.2593521705908E-16,1.));
#1546=DIRECTION('',(-1.,3.6969516701145E-15,-3.49148336110938E-15));
#1547=DIRECTION('',(-1.,3.6969516701145E-15,-3.49148336110938E-15));
#1548=DIRECTION('',(-3.49148336110938E-15,2.05468309005135E-16,1.));
#1549=DIRECTION('',(-1.,3.6969516701145E-15,-3.49148336110938E-15));
#1550=DIRECTION('',(-3.6969516701145E-15,-1.,2.05468309005122E-16));
#1551=DIRECTION('',(-1.,3.6969516701145E-15,-3.49148336110938E-15));
#1552=DIRECTION('',(3.6969516701145E-15,1.,-2.05468309005122E-16));
#1553=DIRECTION('',(1.,-3.6969516701145E-15,3.49148336110938E-15));
#1554=DIRECTION('',(3.6969516701145E-15,1.,-3.25935217059067E-16));
#1555=DIRECTION('',(3.49148336110938E-15,-3.2593521705908E-16,-1.));
#1556=DIRECTION('',(3.49148336110938E-15,-3.2593521705908E-16,-1.));
#1557=DIRECTION('',(-1.,3.6969516701145E-15,-3.49148336110938E-15));
#1558=DIRECTION('',(-3.49148336110938E-15,2.05468309005135E-16,1.));
#1559=DIRECTION('',(-1.,3.6969516701145E-15,-3.49148336110938E-15));
#1560=DIRECTION('',(-3.6969516701145E-15,-1.,2.05468309005122E-16));
#1561=DIRECTION('',(-1.,3.6969516701145E-15,-3.49148336110938E-15));
#1562=DIRECTION('',(3.6969516701145E-15,1.,-2.05468309005122E-16));
#1563=DIRECTION('',(-3.6969516701145E-15,-1.,2.05468309005122E-16));
#1564=DIRECTION('',(1.,-3.6969516701145E-15,3.49148336110938E-15));
#1565=DIRECTION('',(-3.49148336110938E-15,2.05468309005135E-16,1.));
#1566=DIRECTION('',(1.,-3.6969516701145E-15,3.49148336110938E-15));
#1567=DIRECTION('',(-3.49148336110938E-15,2.05468309005135E-16,1.));
#1568=DIRECTION('',(1.,-3.6969516701145E-15,3.49148336110938E-15));
#1569=DIRECTION('',(3.6969516701145E-15,1.,-2.05468309005122E-16));
#1570=DIRECTION('',(3.49148336110938E-15,-2.05468309005135E-16,-1.));
#1571=DIRECTION('',(-3.6969516701145E-15,-1.,2.05468309005122E-16));
#1572=DIRECTION('',(3.49148336110938E-15,-2.05468309005134E-16,-1.));
#1573=DIRECTION('',(-1.,3.6969516701145E-15,-3.49148336110938E-15));
#1574=DIRECTION('',(-3.6969516701145E-15,-1.,2.05468309005122E-16));
#1575=DIRECTION('',(3.49148336110938E-15,-2.05468309005134E-16,-1.));
#1576=DIRECTION('',(3.6969516701145E-15,1.,-2.05468309005122E-16));
#1577=DIRECTION('',(3.49148336110938E-15,-2.05468309005135E-16,-1.));
#1578=DIRECTION('',(-3.6969516701145E-15,-1.,2.05468309005122E-16));
#1579=DIRECTION('',(1.,-3.6969516701145E-15,3.49148336110938E-15));
#1580=DIRECTION('',(-1.,3.6969516701145E-15,-3.49148336110938E-15));
#1581=DIRECTION('',(3.58853145286596E-15,1.,-2.05468309005122E-16));
#1582=DIRECTION('',(-1.,3.58853145286596E-15,-3.49148336110938E-15));
#1583=DIRECTION('',(1.,-3.58853145286596E-15,3.49148336110938E-15));
#1584=DIRECTION('',(-1.,3.6969516701145E-15,-3.49148336110938E-15));
#1585=DIRECTION('',(-3.6969516701145E-15,-1.,2.05468309005122E-16));
#1586=DIRECTION('',(-3.6969516701145E-15,-1.,2.05468309005122E-16));
#1587=DIRECTION('',(-3.49148336110938E-15,2.05468309005135E-16,1.));
#1588=DIRECTION('',(1.,-3.6969516701145E-15,3.49148336110938E-15));
#1589=DIRECTION('',(3.6969516701145E-15,1.,-2.05468309005122E-16));
#1590=DIRECTION('',(-3.49148336110938E-15,2.05468309005135E-16,1.));
#1591=DIRECTION('',(3.6969516701145E-15,1.,-2.05468309005122E-16));
#1592=DIRECTION('',(3.6969516701145E-15,1.,-2.05468309005122E-16));
#1593=DIRECTION('',(-1.,3.6969516701145E-15,-3.49148336110938E-15));
#1594=DIRECTION('',(-1.,3.6969516701145E-15,-3.49148336110938E-15));
#1595=DIRECTION('',(3.58853145286596E-15,1.,-2.05468309005122E-16));
#1596=DIRECTION('',(-1.,3.58853145286596E-15,-3.49148336110938E-15));
#1597=DIRECTION('',(3.49148336110938E-15,-2.05468309005135E-16,-1.));
#1598=DIRECTION('',(1.,-3.58853145286596E-15,3.49148336110938E-15));
#1599=DIRECTION('',(3.49148336110938E-15,-2.05468309005135E-16,-1.));
#1600=DIRECTION('',(1.,-3.58853145286596E-15,3.49148336110938E-15));
#1601=DIRECTION('',(3.49148336110938E-15,-2.05468309005135E-16,-1.));
#1602=DIRECTION('',(1.,-3.6969516701145E-15,3.49148336110938E-15));
#1603=DIRECTION('',(-1.,3.6969516701145E-15,-3.49148336110938E-15));
#1604=DIRECTION('',(3.6969516701145E-15,1.,-2.05468309005122E-16));
#1605=DIRECTION('',(-3.6969516701145E-15,-1.,2.05468309005122E-16));
#1606=DIRECTION('',(1.,-3.6969516701145E-15,3.49148336110938E-15));
#1607=DIRECTION('',(3.6969516701145E-15,1.,-2.05468309005122E-16));
#1608=DIRECTION('',(3.49148336110938E-15,-2.05468309005135E-16,-1.));
#1609=DIRECTION('',(-3.6969516701145E-15,-1.,2.05468309005122E-16));
#1610=DIRECTION('',(-1.,3.6969516701145E-15,-3.49148336110938E-15));
#1611=DIRECTION('',(-3.6969516701145E-15,-1.,2.05468309005122E-16));
#1612=DIRECTION('',(3.49148336110938E-15,-2.05468309005135E-16,-1.));
#1613=DIRECTION('',(3.6969516701145E-15,1.,-2.05468309005122E-16));
#1614=DIRECTION('',(-3.49148336110938E-15,2.05468309005135E-16,1.));
#1615=DIRECTION('',(-1.,3.6969516701145E-15,-3.49148336110938E-15));
#1616=DIRECTION('',(-1.,3.6969516701145E-15,-3.49148336110938E-15));
#1617=DIRECTION('',(-3.6969516701145E-15,-1.,2.05468309005122E-16));
#1618=DIRECTION('',(1.,-3.6969516701145E-15,3.49148336110938E-15));
#1619=CARTESIAN_POINT('',(0.,0.,0.));
#1620=CARTESIAN_POINT('',(-0.00425,-0.0034,-0.00795));
#1621=CARTESIAN_POINT('',(-0.00425,0.00315,-0.00795));
#1622=CARTESIAN_POINT('',(-0.00375,0.00315,-0.00795));
#1623=CARTESIAN_POINT('',(-0.00425,0.00315,-0.00795));
#1624=CARTESIAN_POINT('',(-0.00425,-0.0034,-0.00795));
#1625=CARTESIAN_POINT('',(-0.00425,-0.0034,-0.00795));
#1626=CARTESIAN_POINT('',(-0.00425,-0.0034,-0.00795));
#1627=CARTESIAN_POINT('',(-0.00375,-0.0034,-0.00795));
#1628=CARTESIAN_POINT('',(-0.00375,-0.0034,-0.00795));
#1629=CARTESIAN_POINT('',(-0.00424999999999996,0.00365,-0.00845));
#1630=CARTESIAN_POINT('',(-0.00374999999999995,0.00365,-0.00845));
#1631=CARTESIAN_POINT('',(-0.00374999999999995,0.00365,-0.00845));
#1632=CARTESIAN_POINT('',(-0.00424999999999996,0.00365,-0.00845));
#1633=CARTESIAN_POINT('',(-0.00374999999999995,0.00365,-0.00845));
#1634=CARTESIAN_POINT('',(-0.00375,-0.0034,-0.00845));
#1635=CARTESIAN_POINT('',(-0.00425,-0.0034,-0.00845));
#1636=CARTESIAN_POINT('',(-0.00425,-0.0034,-0.00845));
#1637=CARTESIAN_POINT('',(-0.00424999999999996,0.00365,-0.00845));
#1638=CARTESIAN_POINT('',(-0.00375,-0.0034,-0.00795));
#1639=CARTESIAN_POINT('',(-0.00375,-0.0034,-0.00845));
#1640=CARTESIAN_POINT('',(-0.00425,-0.0034,-0.00845));
#1641=CARTESIAN_POINT('',(-0.00375,-0.0034,-0.00795));
#1642=CARTESIAN_POINT('',(-0.00175,-0.0034,-0.00795));
#1643=CARTESIAN_POINT('',(-0.00175,-0.0034,-0.00845));
#1644=CARTESIAN_POINT('',(-0.00175,-0.0034,-0.00795));
#1645=CARTESIAN_POINT('',(-0.00375,-0.0034,-0.00795));
#1646=CARTESIAN_POINT('',(-0.00225,-0.0034,-0.00795));
#1647=CARTESIAN_POINT('',(-0.00225,-0.0034,-0.00795));
#1648=CARTESIAN_POINT('',(-0.00225,-0.0034,-0.00845));
#1649=CARTESIAN_POINT('',(-0.00375,-0.0034,-0.00845));
#1650=CARTESIAN_POINT('',(-0.00425,-0.0034,-0.00795));
#1651=CARTESIAN_POINT('',(-0.00425,0.00315,-0.00795));
#1652=CARTESIAN_POINT('',(-0.00174999999999996,0.00315,-0.00795));
#1653=CARTESIAN_POINT('',(-0.00224999999999996,0.00315,-0.00795));
#1654=CARTESIAN_POINT('',(-0.00224999999999996,0.00365,-0.00795));
#1655=CARTESIAN_POINT('',(-0.00175,-0.0034,-0.00795));
#1656=CARTESIAN_POINT('',(-0.00424999999999996,0.00365,-0.00845));
#1657=CARTESIAN_POINT('',(-0.00374999999999995,0.00365,-0.00845));
#1658=CARTESIAN_POINT('',(-0.00174999999999995,0.00365,-0.00845));
#1659=CARTESIAN_POINT('',(-0.00224999999999995,0.00365,-0.00845));
#1660=CARTESIAN_POINT('',(-0.00174999999999995,0.00365,-0.00845));
#1661=CARTESIAN_POINT('',(-0.00224999999999995,0.00365,-0.00845));
#1662=CARTESIAN_POINT('',(-0.0055,-0.000799999999999981,-0.0061));
#1663=CARTESIAN_POINT('',(-0.000499999999999981,-0.0008,-0.0061));
#1664=CARTESIAN_POINT('',(-9.9999999999981E-5,-0.000800000000000002,-0.0061));
#1665=CARTESIAN_POINT('',(-0.0055,-0.000799999999999981,-0.0061));
#1666=CARTESIAN_POINT('',(-0.0055,-0.000799999999999981,-0.0061));
#1667=CARTESIAN_POINT('',(-0.0055,-0.000799999999999981,-0.0057));
#1668=CARTESIAN_POINT('',(-0.0034,0.0058,-0.00276076952000001));
#1669=CARTESIAN_POINT('',(-0.0026,0.0058,-0.00276076952000001));
#1670=CARTESIAN_POINT('',(-0.0026,0.0058,-0.00276076952000001));
#1671=CARTESIAN_POINT('',(-0.00259999999999996,0.0058,-0.0046));
#1672=CARTESIAN_POINT('',(-0.00339999999999996,0.0058,-0.0046));
#1673=CARTESIAN_POINT('',(-0.00339999999999996,0.0058,-0.0046));
#1674=CARTESIAN_POINT('',(-0.0034,0.0058,-0.00276076952000001));
#1675=CARTESIAN_POINT('',(-0.0034,0.0058,-0.00276076952000001));
#1676=CARTESIAN_POINT('',(-0.0034,0.0058,-0.00276076952000001));
#1677=CARTESIAN_POINT('',(-0.00375,0.00365,-0.0026));
#1678=CARTESIAN_POINT('',(3.98986399474665E-17,0.00365,-0.0077));
#1679=CARTESIAN_POINT('',(-0.00375,0.00365,-0.0077));
#1680=CARTESIAN_POINT('',(-0.00425,0.00365,-0.0077));
#1681=CARTESIAN_POINT('',(-0.00375,0.00365,-0.0026));
#1682=CARTESIAN_POINT('',(-0.00425,0.00365,-0.0026));
#1683=CARTESIAN_POINT('',(-0.00375,0.00315,-0.0026));
#1684=CARTESIAN_POINT('',(-0.00375,0.00315,-0.0026));
#1685=CARTESIAN_POINT('',(-0.00375,0.00315,-0.0077));
#1686=CARTESIAN_POINT('',(3.98986399474665E-17,0.00315,-0.0077));
#1687=CARTESIAN_POINT('',(-0.00425,0.00315,-0.0077));
#1688=CARTESIAN_POINT('',(-0.00425,0.00315,-0.0026));
#1689=CARTESIAN_POINT('',(-0.00375,0.00315,-0.0026));
#1690=CARTESIAN_POINT('',(-0.00175,0.00315,-0.0026));
#1691=CARTESIAN_POINT('',(-0.00174999999999996,0.00315,-0.0077));
#1692=CARTESIAN_POINT('',(3.87633380824254E-17,0.00315,-0.0077));
#1693=CARTESIAN_POINT('',(-0.00224999999999996,0.00315,-0.0077));
#1694=CARTESIAN_POINT('',(-0.00225,0.00315,-0.0026));
#1695=CARTESIAN_POINT('',(-0.00375,0.00365,-0.0026));
#1696=CARTESIAN_POINT('',(-0.00374999999999995,0.0054,-0.0077));
#1697=CARTESIAN_POINT('',(-0.00174999999999998,0.00365,-0.0026));
#1698=CARTESIAN_POINT('',(-0.00174999999999995,0.0054,-0.0077));
#1699=CARTESIAN_POINT('',(-0.00174999999999996,0.00365,-0.0077));
#1700=CARTESIAN_POINT('',(-0.00174999999999998,0.00365,-0.0026));
#1701=CARTESIAN_POINT('',(-0.00425,0.00365,-0.0026));
#1702=CARTESIAN_POINT('',(-0.00424999999999996,0.0054,-0.0077));
#1703=CARTESIAN_POINT('',(-0.00225,0.00365,-0.0026));
#1704=CARTESIAN_POINT('',(-0.00224999999999995,0.0054,-0.0077));
#1705=CARTESIAN_POINT('',(-0.00224999999999996,0.00365,-0.0077));
#1706=CARTESIAN_POINT('',(-0.00225,0.00365,-0.0026));
#1707=CARTESIAN_POINT('',(-0.00375,0.00365,-0.0026));
#1708=CARTESIAN_POINT('',(4.03678684286734E-17,0.00365,-0.0077));
#1709=CARTESIAN_POINT('',(-0.00500382317513374,1.64798730217796E-17,-0.0077));
#1710=CARTESIAN_POINT('',(-0.00500382317513373,1.38777878078145E-17,-0.0117));
#1711=CARTESIAN_POINT('',(-0.00500382317513373,1.38777878078145E-17,-0.0117));
#1712=CARTESIAN_POINT('',(-0.00500382317513372,0.00159059892324158,-0.0117));
#1713=CARTESIAN_POINT('',(-0.00500382317513372,0.00159059892324158,-0.0117));
#1714=CARTESIAN_POINT('',(-0.00500382317513372,0.0039,-0.0077));
#1715=CARTESIAN_POINT('',(-0.00500382317513374,1.64798730217796E-17,-0.0077));
#1716=CARTESIAN_POINT('',(-0.00500382317513374,1.64798730217796E-17,-0.0077));
#1717=CARTESIAN_POINT('',(-0.00500382317513374,1.64798730217796E-17,-0.0077));
#1718=CARTESIAN_POINT('',(-0.000999999999999958,0.0039,-0.0077));
#1719=CARTESIAN_POINT('',(-0.000999999999999958,0.0039,-0.0077));
#1720=CARTESIAN_POINT('',(-0.000999999999999958,0.0039,-0.0077));
#1721=CARTESIAN_POINT('',(-0.000999999999999973,2.60208521396521E-18,-0.0077));
#1722=CARTESIAN_POINT('',(-0.000999999999999958,0.0039,-0.0077));
#1723=CARTESIAN_POINT('',(-0.000999999999999952,0.00159059892324152,-0.0117));
#1724=CARTESIAN_POINT('',(-0.000999999999999944,0.0039,-0.0117));
#1725=CARTESIAN_POINT('',(-0.000999999999999959,0.,-0.0117));
#1726=CARTESIAN_POINT('',(-0.000999999999999973,2.60208521396521E-18,-0.0077));
#1727=CARTESIAN_POINT('',(-0.000499999999999981,-0.0008,-0.0061));
#1728=CARTESIAN_POINT('',(-0.000499999999999978,0.,-0.0061));
#1729=CARTESIAN_POINT('',(-0.000499999999999979,1.26667412729665E-19,-0.0057));
#1730=CARTESIAN_POINT('',(-0.0055,-0.000799999999999981,-0.0061));
#1731=CARTESIAN_POINT('',(-0.0055,1.82145964977565E-17,-0.0061));
#1732=CARTESIAN_POINT('',(-0.0055,1.83412639104862E-17,-0.0057));
#1733=CARTESIAN_POINT('',(5.55111512312578E-17,0.0039,-0.0117));
#1734=CARTESIAN_POINT('',(4.69734070635714E-17,0.00159059892324156,-0.0117));
#1735=CARTESIAN_POINT('',(4.69574978717132E-17,0.00159059892324152,-0.0117));
#1736=CARTESIAN_POINT('',(5.55111512312578E-17,0.0039,-0.0117));
#1737=CARTESIAN_POINT('',(3.98986399474665E-17,-3.46944695195361E-18,-0.0117));
#1738=CARTESIAN_POINT('',(3.98986399474665E-17,-3.46944695195361E-18,-0.0117));
#1739=CARTESIAN_POINT('',(-0.00500382317513372,0.00159059892324158,-0.0117));
#1740=CARTESIAN_POINT('',(4.68375338513738E-17,0.00159059892324156,-0.0117));
#1741=CARTESIAN_POINT('',(4.15196110643629E-17,0.0039,-0.0077));
#1742=CARTESIAN_POINT('',(4.1292106346202E-17,0.0039,-0.0077));
#1743=CARTESIAN_POINT('',(-0.0034,0.0052,-0.00276076952000001));
#1744=CARTESIAN_POINT('',(-0.00339999999999996,0.0052,-0.0046));
#1745=CARTESIAN_POINT('',(-0.00339999999999996,0.0052,-0.0046));
#1746=CARTESIAN_POINT('',(-0.0034,0.0052,-0.00276076952000001));
#1747=CARTESIAN_POINT('',(-0.0034,0.0052,-0.00276076952000001));
#1748=CARTESIAN_POINT('',(-0.00339999999999996,0.0058,-0.0046));
#1749=CARTESIAN_POINT('',(-0.0026,0.0052,-0.00276076952000001));
#1750=CARTESIAN_POINT('',(-0.00259999999999996,0.0052,-0.0046));
#1751=CARTESIAN_POINT('',(-0.00259999999999996,0.0052,-0.0046));
#1752=CARTESIAN_POINT('',(-0.0026,0.0052,-0.00276076952000001));
#1753=CARTESIAN_POINT('',(-0.00259999999999996,0.0058,-0.0046));
#1754=CARTESIAN_POINT('',(-0.0026,0.0052,-0.00276076952000001));
#1755=CARTESIAN_POINT('',(-0.0034,0.0052,-0.00276076952000001));
#1756=CARTESIAN_POINT('',(-0.0034,0.0052,-0.00276076952000001));
#1757=CARTESIAN_POINT('',(-0.00339999999999996,0.0058,-0.0046));
#1758=CARTESIAN_POINT('',(-0.00339999999999996,0.0052,-0.0046));
#1759=CARTESIAN_POINT('',(-0.006,0.0052,-0.0061));
#1760=CARTESIAN_POINT('',(-0.006,0.0052,-0.0061));
#1761=CARTESIAN_POINT('',(3.98986399474665E-17,0.0052,-0.0061));
#1762=CARTESIAN_POINT('',(-0.00184999999999996,0.0052,-0.0061));
#1763=CARTESIAN_POINT('',(-0.00184999999999996,0.0052,-0.0061));
#1764=CARTESIAN_POINT('',(-0.00184999999999995,0.0065,-0.0061));
#1765=CARTESIAN_POINT('',(-0.006,0.0065,-0.0061));
#1766=CARTESIAN_POINT('',(4.39814321889762E-17,0.0065,-0.0061));
#1767=CARTESIAN_POINT('',(4.07660016854549E-17,0.0052,-0.0061));
#1768=CARTESIAN_POINT('',(-0.00500382317513372,0.00159059892324158,-0.0117));
#1769=CARTESIAN_POINT('',(-0.006,0.00159059892324158,-0.0117));
#1770=CARTESIAN_POINT('',(-0.006,0.00159059892324158,-0.0117));
#1771=CARTESIAN_POINT('',(-0.006,0.0039,-0.0077));
#1772=CARTESIAN_POINT('',(4.16333634234433E-17,0.0039,-0.0077));
#1773=CARTESIAN_POINT('',(-0.00500382317513372,0.00159059892324158,-0.0117));
#1774=CARTESIAN_POINT('',(-0.006,0.0052,-0.0061));
#1775=CARTESIAN_POINT('',(-0.00415,0.0052,-0.0061));
#1776=CARTESIAN_POINT('',(-0.00415,0.0052,-0.0061));
#1777=CARTESIAN_POINT('',(-0.006,0.0052,-0.0061));
#1778=CARTESIAN_POINT('',(-0.006,0.0052,-0.0061));
#1779=CARTESIAN_POINT('',(-0.006,0.0065,-0.0061));
#1780=CARTESIAN_POINT('',(-0.00414999999999995,0.0065,-0.0061));
#1781=CARTESIAN_POINT('',(-0.00414999999999995,0.0065,-0.0061));
#1782=CARTESIAN_POINT('',(-0.00415,0.0052,-0.0061));
#1783=CARTESIAN_POINT('',(4.68375338513738E-17,0.0054,-0.0077));
#1784=CARTESIAN_POINT('',(-0.006,0.0054,-0.0077));
#1785=CARTESIAN_POINT('',(-0.006,0.0052,-0.0077));
#1786=CARTESIAN_POINT('',(-0.00184999999999995,0.0052,-0.0077));
#1787=CARTESIAN_POINT('',(4.5102810375397E-17,0.0052,-0.0077));
#1788=CARTESIAN_POINT('',(4.68375338513738E-17,0.0054,-0.0077));
#1789=CARTESIAN_POINT('',(-0.00500382317513374,1.64798730217796E-17,-0.0077));
#1790=CARTESIAN_POINT('',(5.55111512312578E-17,0.0039,-0.0117));
#1791=CARTESIAN_POINT('',(3.98986399474665E-17,-3.46944695195361E-18,-0.0117));
#1792=CARTESIAN_POINT('',(-0.006,1.90819582357449E-17,-0.0117));
#1793=CARTESIAN_POINT('',(-0.006,0.00390000000000004,-0.0117));
#1794=CARTESIAN_POINT('',(0.,0.,0.));
#1795=CARTESIAN_POINT('',(0.,0.,0.));
#1796=CARTESIAN_POINT('',(0.,0.,0.));
#1797=CARTESIAN_POINT('',(0.,0.,0.));
#1798=CARTESIAN_POINT('',(-0.006,2.25514051876985E-17,-2.08166817117217E-17));
#1799=CARTESIAN_POINT('',(-0.006,2.25514051876985E-17,-2.08166817117217E-17));
#1800=CARTESIAN_POINT('',(-0.00184999999999997,0.0065,-0.0018));
#1801=CARTESIAN_POINT('',(-0.00184999999999997,0.0065,-0.0018));
#1802=CARTESIAN_POINT('',(-0.00184999999999997,0.0065,-0.0018));
#1803=CARTESIAN_POINT('',(-0.00184999999999995,0.0052,-0.0077));
#1804=CARTESIAN_POINT('',(-0.00184999999999998,0.0052,-0.0018));
#1805=CARTESIAN_POINT('',(-0.00184999999999997,0.0065,-0.0018));
#1806=CARTESIAN_POINT('',(-0.006,0.0065,-0.0018));
#1807=CARTESIAN_POINT('',(-0.006,0.0065,-0.0018));
#1808=CARTESIAN_POINT('',(-0.006,0.0065,-0.0018));
#1809=CARTESIAN_POINT('',(-0.006,0.0065,-0.0018));
#1810=CARTESIAN_POINT('',(-0.00415,0.0065,-0.0018));
#1811=CARTESIAN_POINT('',(-0.00415,0.0065,-0.0018));
#1812=CARTESIAN_POINT('',(0.,0.,0.));
#1813=CARTESIAN_POINT('',(3.98986399474665E-17,0.0052,-0.0061));
#1814=CARTESIAN_POINT('',(3.03576608295941E-17,0.0065,-0.0018));
#1815=CARTESIAN_POINT('',(2.96941054016248E-17,0.0065,-0.0018));
#1816=CARTESIAN_POINT('',(1.7347234759768E-17,0.00305,-0.0018));
#1817=CARTESIAN_POINT('',(1.7347234759768E-17,0.00305,-0.0018));
#1818=CARTESIAN_POINT('',(1.21430643318376E-17,0.00305,0.));
#1819=CARTESIAN_POINT('',(1.21430643318376E-17,0.00305,0.));
#1820=CARTESIAN_POINT('',(0.,0.,0.));
#1821=CARTESIAN_POINT('',(-0.00184999999999995,0.0052,-0.0077));
#1822=CARTESIAN_POINT('',(-0.00184999999999998,0.0052,-0.0018));
#1823=CARTESIAN_POINT('',(-0.00415,0.0052,-0.0018));
#1824=CARTESIAN_POINT('',(-0.006,0.0052,-0.0061));
#1825=CARTESIAN_POINT('',(-0.00414999999999995,0.0052,-0.0077));
#1826=CARTESIAN_POINT('',(-0.00415,0.0065,-0.0018));
#1827=CARTESIAN_POINT('',(-0.00415,0.0065,-0.0018));
#1828=CARTESIAN_POINT('',(-0.006,0.0065,-0.0018));
#1829=CARTESIAN_POINT('',(-0.006,0.0065,-0.0018));
#1830=CARTESIAN_POINT('',(-0.006,2.25514051876985E-17,-2.08166817117217E-17));
#1831=CARTESIAN_POINT('',(-0.006,2.25514051876985E-17,-2.08166817117217E-17));
#1832=CARTESIAN_POINT('',(-0.006,0.00305,-2.08166817117217E-17));
#1833=CARTESIAN_POINT('',(-0.006,0.00305,-2.08166817117217E-17));
#1834=CARTESIAN_POINT('',(-0.006,0.00305,-0.0018));
#1835=CARTESIAN_POINT('',(-0.006,0.00305,-0.0018));
#1836=CARTESIAN_POINT('',(-0.00425,0.00365,-0.0026));
#1837=CARTESIAN_POINT('',(-0.00425,0.00365,-0.0026));
#1838=CARTESIAN_POINT('',(-0.00174999999999998,0.00365,-0.0026));
#1839=CARTESIAN_POINT('',(-0.00225,0.00365,-0.0026));
#1840=CARTESIAN_POINT('',(-0.00225,0.00365,-0.0026));
#1841=CARTESIAN_POINT('',(-0.00225,0.00315,-0.0026));
#1842=CARTESIAN_POINT('',(-0.00425,0.00315,-0.0026));
#1843=CARTESIAN_POINT('',(-0.00175,0.00315,-0.0026));
#1844=CARTESIAN_POINT('',(-0.00174999999999998,0.00365,-0.0026));
#1845=CARTESIAN_POINT('',(1.21430643318376E-17,0.00305,0.));
#1846=CARTESIAN_POINT('',(-0.0052,0.00305,-1.82145964977565E-17));
#1847=CARTESIAN_POINT('',(-0.0052,0.00305,-0.0018));
#1848=CARTESIAN_POINT('',(-0.0052,0.00305,-1.82145964977565E-17));
#1849=CARTESIAN_POINT('',(1.7347234759768E-17,0.00305,-0.0018));
#1850=CARTESIAN_POINT('',(1.21430643318376E-17,0.00305,0.));
#1851=CARTESIAN_POINT('',(0.,0.,0.));
#1852=CARTESIAN_POINT('',(-0.0052,0.0019,-1.82145964977565E-17));
#1853=CARTESIAN_POINT('',(-0.0052,0.0019,-1.82145964977565E-17));
#1854=CARTESIAN_POINT('',(1.21430643318376E-17,0.00305,0.));
#1855=CARTESIAN_POINT('',(-0.00079999999999999,0.00305,-2.60208521396521E-18));
#1856=CARTESIAN_POINT('',(-0.0008,0.0019,-2.60208521396521E-18));
#1857=CARTESIAN_POINT('',(-0.0008,0.0019,-2.60208521396521E-18));
#1858=CARTESIAN_POINT('',(-0.0008,0.0019,-2.60208521396521E-18));
#1859=CARTESIAN_POINT('',(1.21430643318376E-17,0.00305,0.));
#1860=CARTESIAN_POINT('',(-0.00079999999999999,0.00305,-2.60208521396521E-18));
#1861=CARTESIAN_POINT('',(-0.000799999999999983,0.00305,-0.0018));
#1862=CARTESIAN_POINT('',(1.7347234759768E-17,0.00305,-0.0018));
#1863=CARTESIAN_POINT('',(1.7347234759768E-17,0.00305,-0.0018));
#1864=CARTESIAN_POINT('',(-0.0052,0.00305,-0.0018));
#1865=CARTESIAN_POINT('',(-0.0052,0.0047,-0.0018));
#1866=CARTESIAN_POINT('',(2.25514051876985E-17,0.0047,-0.0018));
#1867=CARTESIAN_POINT('',(-0.000799999999999976,0.0047,-0.0018));
#1868=CARTESIAN_POINT('',(-0.000799999999999983,0.00305,-0.0018));
#1869=CARTESIAN_POINT('',(-0.000799999999999973,0.0019,-0.0058));
#1870=CARTESIAN_POINT('',(-0.000799999999999973,0.0019,-0.0058));
#1871=CARTESIAN_POINT('',(-0.000799999999999973,0.0019,-0.0058));
#1872=CARTESIAN_POINT('',(-0.000799999999999973,0.0019,-0.0058));
#1873=CARTESIAN_POINT('',(-0.0052,0.0019,-0.0058));
#1874=CARTESIAN_POINT('',(-0.0052,0.0019,-0.0058));
#1875=CARTESIAN_POINT('',(-0.00225,0.00365,-0.0026));
#1876=CARTESIAN_POINT('',(-0.00225,0.00365,-0.0026));
#1877=CARTESIAN_POINT('',(-0.00224999999999996,0.00365,-0.0058));
#1878=CARTESIAN_POINT('',(-0.00224999999999997,0.0019,-0.0058));
#1879=CARTESIAN_POINT('',(-0.00224999999999997,0.00315,-0.0058));
#1880=CARTESIAN_POINT('',(-0.00225,0.00315,-0.0026));
#1881=CARTESIAN_POINT('',(-0.00174999999999998,0.00365,-0.0026));
#1882=CARTESIAN_POINT('',(-0.00175,0.00315,-0.0026));
#1883=CARTESIAN_POINT('',(-0.00174999999999997,0.00315,-0.0058));
#1884=CARTESIAN_POINT('',(-0.00174999999999997,0.0019,-0.0058));
#1885=CARTESIAN_POINT('',(-0.00174999999999997,0.00365,-0.0058));
#1886=CARTESIAN_POINT('',(-0.00174999999999998,0.00365,-0.0026));
#1887=CARTESIAN_POINT('',(-0.00375,0.00365,-0.0026));
#1888=CARTESIAN_POINT('',(-0.00375,0.00365,-0.0058));
#1889=CARTESIAN_POINT('',(-0.00375,0.00315,-0.0026));
#1890=CARTESIAN_POINT('',(-0.00375,0.00315,-0.0058));
#1891=CARTESIAN_POINT('',(-0.0052,0.0019,-0.0058));
#1892=CARTESIAN_POINT('',(-0.0052,0.0019,-0.0058));
#1893=CARTESIAN_POINT('',(-0.0052,0.0047,-0.0058));
#1894=CARTESIAN_POINT('',(-0.0052,0.0047,-0.0058));
#1895=CARTESIAN_POINT('',(-0.000799999999999973,0.0019,-0.0058));
#1896=CARTESIAN_POINT('',(-0.000799999999999962,0.0047,-0.0058));
#1897=CARTESIAN_POINT('',(-0.000799999999999962,0.0047,-0.0058));
#1898=CARTESIAN_POINT('',(-0.000799999999999973,0.0019,-0.0058));
#1899=CARTESIAN_POINT('',(-0.000799999999999962,0.0047,-0.0058));
#1900=CARTESIAN_POINT('',(-0.000799999999999962,0.0047,-0.0058));
#1901=CARTESIAN_POINT('',(-0.00375,0.00315,-0.0026));
#1902=CARTESIAN_POINT('',(-0.00425,0.00315,-0.0026));
#1903=CARTESIAN_POINT('',(-0.00425,0.00315,-0.0026));
#1904=CARTESIAN_POINT('',(-0.00425,0.00315,-0.0058));
#1905=CARTESIAN_POINT('',(-0.0052,0.00315,-0.0058));
#1906=CARTESIAN_POINT('',(-0.00375,0.00315,-0.0058));
#1907=CARTESIAN_POINT('',(-0.00375,0.00315,-0.0026));
#1908=CARTESIAN_POINT('',(-0.00375,0.00315,-0.0026));
#1909=CARTESIAN_POINT('',(-0.00375,0.00315,-0.0026));
#1910=CARTESIAN_POINT('',(-0.0052,0.0019,-0.0058));
#1911=CARTESIAN_POINT('',(-0.0052,0.00365,-0.0058));
#1912=CARTESIAN_POINT('',(-0.00375,0.00365,-0.0058));
#1913=CARTESIAN_POINT('',(-0.00425,0.00365,-0.0058));
#1914=CARTESIAN_POINT('',(-0.00375,0.0019,-0.0058));
#1915=CARTESIAN_POINT('',(-0.00425,0.0019,-0.0058));
#1916=CARTESIAN_POINT('',(-0.00425,0.00365,-0.0026));
#1917=CARTESIAN_POINT('',(-0.00425,0.00365,-0.0026));
#1918=CARTESIAN_POINT('',(-0.00425,0.00365,-0.0026));
#1919=CARTESIAN_POINT('',(-0.00425,0.00365,-0.0026));
#1920=CARTESIAN_POINT('',(-0.00375,0.00365,-0.0026));
#1921=CARTESIAN_POINT('',(-0.00375,0.00365,-0.0026));
#1922=CARTESIAN_POINT('',(-0.00375,0.00365,-0.0026));
#1923=CARTESIAN_POINT('',(-0.00375,0.00365,-0.0026));
#1924=CARTESIAN_POINT('',(-0.00425,0.00365,-0.0026));
#1925=CARTESIAN_POINT('',(-0.00375,0.00365,-0.0026));
#1926=CARTESIAN_POINT('',(-0.00375,0.00365,-0.0026));
#1927=MECHANICAL_DESIGN_GEOMETRIC_PRESENTATION_REPRESENTATION('',(#1128,
#1043,#1044,#1045,#1046,#1047,#1048,#1049,#1050,#1051,#1052,#1053,#1054,
#1055,#1056,#1057,#1058,#1059,#1060,#1061,#1062,#1063,#1064,#1065,#1066),
#1928);
#1928=(
GEOMETRIC_REPRESENTATION_CONTEXT(3)
GLOBAL_UNCERTAINTY_ASSIGNED_CONTEXT((#1929))
GLOBAL_UNIT_ASSIGNED_CONTEXT((#1932,#1931,#1930))
REPRESENTATION_CONTEXT('S02B-PASK-2','TOP_LEVEL_ASSEMBLY_PART')
);
#1929=UNCERTAINTY_MEASURE_WITH_UNIT(LENGTH_MEASURE(1.E-6),#1932,
'DISTANCE_ACCURACY_VALUE','Maximum Tolerance applied to model');
#1930=(
NAMED_UNIT(*)
SI_UNIT($,.STERADIAN.)
SOLID_ANGLE_UNIT()
);
#1931=(
NAMED_UNIT(*)
PLANE_ANGLE_UNIT()
SI_UNIT($,.RADIAN.)
);
#1932=(
LENGTH_UNIT()
NAMED_UNIT(*)
SI_UNIT($,.METRE.)
);
#1933=PRODUCT_DEFINITION_SHAPE('','',#1934);
#1934=PRODUCT_DEFINITION('','',#1936,#1935);
#1935=PRODUCT_DEFINITION_CONTEXT('',#1942,'design');
#1936=PRODUCT_DEFINITION_FORMATION_WITH_SPECIFIED_SOURCE('','',#1938,
 .NOT_KNOWN.);
#1937=PRODUCT_RELATED_PRODUCT_CATEGORY('','',(#1938));
#1938=PRODUCT('S02B-PASK-2','S02B-PASK-2','S02B-PASK-2',(#1940));
#1939=PRODUCT_CATEGORY('','');
#1940=PRODUCT_CONTEXT('',#1942,'mechanical');
#1941=APPLICATION_PROTOCOL_DEFINITION('international standard',
'ap242_managed_model_based_3d_engineering',2011,#1942);
#1942=APPLICATION_CONTEXT('managed model based 3d engineering');
ENDSEC;
END-ISO-10303-21;
