%TF.GenerationSoftware,KiCad,Pcbnew,8.0.7*%
%TF.CreationDate,2025-03-21T10:23:19-04:00*%
%TF.ProjectId,weiland-esp32,7765696c-616e-4642-9d65-737033322e6b,rev?*%
%TF.SameCoordinates,Original*%
%TF.FileFunction,Drillmap*%
%TF.FilePolarity,Positive*%
%FSLAX45Y45*%
G04 Gerber Fmt 4.5, Leading zero omitted, Abs format (unit mm)*
G04 Created by KiCad (PCBNEW 8.0.7) date 2025-03-21 10:23:19*
%MOMM*%
%LPD*%
G01*
G04 APERTURE LIST*
%ADD10C,0.050000*%
%ADD11C,0.200000*%
%ADD12C,0.100000*%
G04 APERTURE END LIST*
D10*
X12990000Y-8820000D02*
X18140000Y-8820000D01*
X18140000Y-11240000D01*
X12990000Y-11240000D01*
X12990000Y-8820000D01*
D11*
D12*
X14494800Y-10424412D02*
X14524800Y-10454412D01*
X14524800Y-10424412D02*
X14494800Y-10454412D01*
X14545000Y-10345000D02*
X14575000Y-10375000D01*
X14575000Y-10345000D02*
X14545000Y-10375000D01*
X14549800Y-10635000D02*
X14579800Y-10665000D01*
X14579800Y-10635000D02*
X14549800Y-10665000D01*
X14549800Y-10765000D02*
X14579800Y-10795000D01*
X14579800Y-10765000D02*
X14549800Y-10795000D01*
X14640200Y-10635000D02*
X14670200Y-10665000D01*
X14670200Y-10635000D02*
X14640200Y-10665000D01*
X14765000Y-10295000D02*
X14795000Y-10325000D01*
X14795000Y-10295000D02*
X14765000Y-10325000D01*
X14795000Y-9335000D02*
X14825000Y-9365000D01*
X14825000Y-9335000D02*
X14795000Y-9365000D01*
X14875000Y-10405000D02*
X14905000Y-10435000D01*
X14905000Y-10405000D02*
X14875000Y-10435000D01*
X14895000Y-10085000D02*
X14925000Y-10115000D01*
X14925000Y-10085000D02*
X14895000Y-10115000D01*
X15020000Y-10036000D02*
X15050000Y-10066000D01*
X15050000Y-10036000D02*
X15020000Y-10066000D01*
X16615000Y-9155000D02*
X16645000Y-9185000D01*
X16645000Y-9155000D02*
X16615000Y-9185000D01*
X16965000Y-9145000D02*
X16995000Y-9175000D01*
X16995000Y-9145000D02*
X16965000Y-9175000D01*
X16985000Y-9575000D02*
X17015000Y-9605000D01*
X17015000Y-9575000D02*
X16985000Y-9605000D01*
X17095000Y-9715000D02*
X17125000Y-9745000D01*
X17125000Y-9715000D02*
X17095000Y-9745000D01*
X17365000Y-10305000D02*
X17395000Y-10335000D01*
X17395000Y-10305000D02*
X17365000Y-10335000D01*
X17427500Y-10235000D02*
X17457500Y-10265000D01*
X17457500Y-10235000D02*
X17427500Y-10265000D01*
X17435000Y-10075000D02*
X17465000Y-10105000D01*
X17465000Y-10075000D02*
X17435000Y-10105000D01*
X17506514Y-10161468D02*
X17536514Y-10191468D01*
X17536514Y-10161468D02*
X17506514Y-10191468D01*
X17601000Y-10405000D02*
X17631000Y-10435000D01*
X17631000Y-10405000D02*
X17601000Y-10435000D01*
X17605000Y-10635000D02*
X17635000Y-10665000D01*
X17635000Y-10635000D02*
X17605000Y-10665000D01*
X13880000Y-9690000D02*
G75*
G02*
X13800000Y-9690000I-40000J0D01*
G01*
X13800000Y-9690000D02*
G75*
G02*
X13880000Y-9690000I40000J0D01*
G01*
X13880000Y-9890000D02*
G75*
G02*
X13800000Y-9890000I-40000J0D01*
G01*
X13800000Y-9890000D02*
G75*
G02*
X13880000Y-9890000I40000J0D01*
G01*
X13880000Y-10090000D02*
G75*
G02*
X13800000Y-10090000I-40000J0D01*
G01*
X13800000Y-10090000D02*
G75*
G02*
X13880000Y-10090000I40000J0D01*
G01*
X13880000Y-10290000D02*
G75*
G02*
X13800000Y-10290000I-40000J0D01*
G01*
X13800000Y-10290000D02*
G75*
G02*
X13880000Y-10290000I40000J0D01*
G01*
X17322500Y-9050000D02*
G75*
G02*
X17242500Y-9050000I-40000J0D01*
G01*
X17242500Y-9050000D02*
G75*
G02*
X17322500Y-9050000I40000J0D01*
G01*
X17322500Y-9250000D02*
G75*
G02*
X17242500Y-9250000I-40000J0D01*
G01*
X17242500Y-9250000D02*
G75*
G02*
X17322500Y-9250000I40000J0D01*
G01*
X17322500Y-9450000D02*
G75*
G02*
X17242500Y-9450000I-40000J0D01*
G01*
X17242500Y-9450000D02*
G75*
G02*
X17322500Y-9450000I40000J0D01*
G01*
X17322500Y-9650000D02*
G75*
G02*
X17242500Y-9650000I-40000J0D01*
G01*
X17242500Y-9650000D02*
G75*
G02*
X17322500Y-9650000I40000J0D01*
G01*
X13840000Y-8989360D02*
X13840000Y-9070640D01*
X13799360Y-9030000D02*
X13880640Y-9030000D01*
X13840000Y-9189360D02*
X13840000Y-9270640D01*
X13799360Y-9230000D02*
X13880640Y-9230000D01*
X13844530Y-10699360D02*
X13844530Y-10780640D01*
X13803890Y-10740000D02*
X13885170Y-10740000D01*
X13844530Y-10899360D02*
X13844530Y-10980640D01*
X13803890Y-10940000D02*
X13885170Y-10940000D01*
X17295470Y-10769850D02*
X17295470Y-10851130D01*
X17254830Y-10810490D02*
X17336110Y-10810490D01*
X17295470Y-10969850D02*
X17295470Y-11051130D01*
X17254830Y-11010490D02*
X17336110Y-11010490D01*
D11*
X13248277Y-11553984D02*
X13248277Y-11353984D01*
X13248277Y-11353984D02*
X13295896Y-11353984D01*
X13295896Y-11353984D02*
X13324467Y-11363508D01*
X13324467Y-11363508D02*
X13343515Y-11382555D01*
X13343515Y-11382555D02*
X13353039Y-11401603D01*
X13353039Y-11401603D02*
X13362562Y-11439698D01*
X13362562Y-11439698D02*
X13362562Y-11468269D01*
X13362562Y-11468269D02*
X13353039Y-11506365D01*
X13353039Y-11506365D02*
X13343515Y-11525412D01*
X13343515Y-11525412D02*
X13324467Y-11544460D01*
X13324467Y-11544460D02*
X13295896Y-11553984D01*
X13295896Y-11553984D02*
X13248277Y-11553984D01*
X13448277Y-11553984D02*
X13448277Y-11420650D01*
X13448277Y-11458746D02*
X13457801Y-11439698D01*
X13457801Y-11439698D02*
X13467324Y-11430174D01*
X13467324Y-11430174D02*
X13486372Y-11420650D01*
X13486372Y-11420650D02*
X13505420Y-11420650D01*
X13572086Y-11553984D02*
X13572086Y-11420650D01*
X13572086Y-11353984D02*
X13562562Y-11363508D01*
X13562562Y-11363508D02*
X13572086Y-11373031D01*
X13572086Y-11373031D02*
X13581610Y-11363508D01*
X13581610Y-11363508D02*
X13572086Y-11353984D01*
X13572086Y-11353984D02*
X13572086Y-11373031D01*
X13695896Y-11553984D02*
X13676848Y-11544460D01*
X13676848Y-11544460D02*
X13667324Y-11525412D01*
X13667324Y-11525412D02*
X13667324Y-11353984D01*
X13800658Y-11553984D02*
X13781610Y-11544460D01*
X13781610Y-11544460D02*
X13772086Y-11525412D01*
X13772086Y-11525412D02*
X13772086Y-11353984D01*
X14029229Y-11553984D02*
X14029229Y-11353984D01*
X14029229Y-11353984D02*
X14095896Y-11496841D01*
X14095896Y-11496841D02*
X14162562Y-11353984D01*
X14162562Y-11353984D02*
X14162562Y-11553984D01*
X14343515Y-11553984D02*
X14343515Y-11449222D01*
X14343515Y-11449222D02*
X14333991Y-11430174D01*
X14333991Y-11430174D02*
X14314943Y-11420650D01*
X14314943Y-11420650D02*
X14276848Y-11420650D01*
X14276848Y-11420650D02*
X14257801Y-11430174D01*
X14343515Y-11544460D02*
X14324467Y-11553984D01*
X14324467Y-11553984D02*
X14276848Y-11553984D01*
X14276848Y-11553984D02*
X14257801Y-11544460D01*
X14257801Y-11544460D02*
X14248277Y-11525412D01*
X14248277Y-11525412D02*
X14248277Y-11506365D01*
X14248277Y-11506365D02*
X14257801Y-11487317D01*
X14257801Y-11487317D02*
X14276848Y-11477793D01*
X14276848Y-11477793D02*
X14324467Y-11477793D01*
X14324467Y-11477793D02*
X14343515Y-11468269D01*
X14438753Y-11420650D02*
X14438753Y-11620650D01*
X14438753Y-11430174D02*
X14457801Y-11420650D01*
X14457801Y-11420650D02*
X14495896Y-11420650D01*
X14495896Y-11420650D02*
X14514943Y-11430174D01*
X14514943Y-11430174D02*
X14524467Y-11439698D01*
X14524467Y-11439698D02*
X14533991Y-11458746D01*
X14533991Y-11458746D02*
X14533991Y-11515888D01*
X14533991Y-11515888D02*
X14524467Y-11534936D01*
X14524467Y-11534936D02*
X14514943Y-11544460D01*
X14514943Y-11544460D02*
X14495896Y-11553984D01*
X14495896Y-11553984D02*
X14457801Y-11553984D01*
X14457801Y-11553984D02*
X14438753Y-11544460D01*
X14619705Y-11534936D02*
X14629229Y-11544460D01*
X14629229Y-11544460D02*
X14619705Y-11553984D01*
X14619705Y-11553984D02*
X14610182Y-11544460D01*
X14610182Y-11544460D02*
X14619705Y-11534936D01*
X14619705Y-11534936D02*
X14619705Y-11553984D01*
X14619705Y-11430174D02*
X14629229Y-11439698D01*
X14629229Y-11439698D02*
X14619705Y-11449222D01*
X14619705Y-11449222D02*
X14610182Y-11439698D01*
X14610182Y-11439698D02*
X14619705Y-11430174D01*
X14619705Y-11430174D02*
X14619705Y-11449222D01*
D12*
X12957500Y-11867500D02*
X12987500Y-11897500D01*
X12987500Y-11867500D02*
X12957500Y-11897500D01*
D11*
X13286372Y-11773984D02*
X13305420Y-11773984D01*
X13305420Y-11773984D02*
X13324467Y-11783508D01*
X13324467Y-11783508D02*
X13333991Y-11793031D01*
X13333991Y-11793031D02*
X13343515Y-11812079D01*
X13343515Y-11812079D02*
X13353039Y-11850174D01*
X13353039Y-11850174D02*
X13353039Y-11897793D01*
X13353039Y-11897793D02*
X13343515Y-11935888D01*
X13343515Y-11935888D02*
X13333991Y-11954936D01*
X13333991Y-11954936D02*
X13324467Y-11964460D01*
X13324467Y-11964460D02*
X13305420Y-11973984D01*
X13305420Y-11973984D02*
X13286372Y-11973984D01*
X13286372Y-11973984D02*
X13267324Y-11964460D01*
X13267324Y-11964460D02*
X13257801Y-11954936D01*
X13257801Y-11954936D02*
X13248277Y-11935888D01*
X13248277Y-11935888D02*
X13238753Y-11897793D01*
X13238753Y-11897793D02*
X13238753Y-11850174D01*
X13238753Y-11850174D02*
X13248277Y-11812079D01*
X13248277Y-11812079D02*
X13257801Y-11793031D01*
X13257801Y-11793031D02*
X13267324Y-11783508D01*
X13267324Y-11783508D02*
X13286372Y-11773984D01*
X13438753Y-11954936D02*
X13448277Y-11964460D01*
X13448277Y-11964460D02*
X13438753Y-11973984D01*
X13438753Y-11973984D02*
X13429229Y-11964460D01*
X13429229Y-11964460D02*
X13438753Y-11954936D01*
X13438753Y-11954936D02*
X13438753Y-11973984D01*
X13514943Y-11773984D02*
X13638753Y-11773984D01*
X13638753Y-11773984D02*
X13572086Y-11850174D01*
X13572086Y-11850174D02*
X13600658Y-11850174D01*
X13600658Y-11850174D02*
X13619705Y-11859698D01*
X13619705Y-11859698D02*
X13629229Y-11869222D01*
X13629229Y-11869222D02*
X13638753Y-11888269D01*
X13638753Y-11888269D02*
X13638753Y-11935888D01*
X13638753Y-11935888D02*
X13629229Y-11954936D01*
X13629229Y-11954936D02*
X13619705Y-11964460D01*
X13619705Y-11964460D02*
X13600658Y-11973984D01*
X13600658Y-11973984D02*
X13543515Y-11973984D01*
X13543515Y-11973984D02*
X13524467Y-11964460D01*
X13524467Y-11964460D02*
X13514943Y-11954936D01*
X13762562Y-11773984D02*
X13781610Y-11773984D01*
X13781610Y-11773984D02*
X13800658Y-11783508D01*
X13800658Y-11783508D02*
X13810182Y-11793031D01*
X13810182Y-11793031D02*
X13819705Y-11812079D01*
X13819705Y-11812079D02*
X13829229Y-11850174D01*
X13829229Y-11850174D02*
X13829229Y-11897793D01*
X13829229Y-11897793D02*
X13819705Y-11935888D01*
X13819705Y-11935888D02*
X13810182Y-11954936D01*
X13810182Y-11954936D02*
X13800658Y-11964460D01*
X13800658Y-11964460D02*
X13781610Y-11973984D01*
X13781610Y-11973984D02*
X13762562Y-11973984D01*
X13762562Y-11973984D02*
X13743515Y-11964460D01*
X13743515Y-11964460D02*
X13733991Y-11954936D01*
X13733991Y-11954936D02*
X13724467Y-11935888D01*
X13724467Y-11935888D02*
X13714943Y-11897793D01*
X13714943Y-11897793D02*
X13714943Y-11850174D01*
X13714943Y-11850174D02*
X13724467Y-11812079D01*
X13724467Y-11812079D02*
X13733991Y-11793031D01*
X13733991Y-11793031D02*
X13743515Y-11783508D01*
X13743515Y-11783508D02*
X13762562Y-11773984D01*
X13953039Y-11773984D02*
X13972086Y-11773984D01*
X13972086Y-11773984D02*
X13991134Y-11783508D01*
X13991134Y-11783508D02*
X14000658Y-11793031D01*
X14000658Y-11793031D02*
X14010182Y-11812079D01*
X14010182Y-11812079D02*
X14019705Y-11850174D01*
X14019705Y-11850174D02*
X14019705Y-11897793D01*
X14019705Y-11897793D02*
X14010182Y-11935888D01*
X14010182Y-11935888D02*
X14000658Y-11954936D01*
X14000658Y-11954936D02*
X13991134Y-11964460D01*
X13991134Y-11964460D02*
X13972086Y-11973984D01*
X13972086Y-11973984D02*
X13953039Y-11973984D01*
X13953039Y-11973984D02*
X13933991Y-11964460D01*
X13933991Y-11964460D02*
X13924467Y-11954936D01*
X13924467Y-11954936D02*
X13914943Y-11935888D01*
X13914943Y-11935888D02*
X13905420Y-11897793D01*
X13905420Y-11897793D02*
X13905420Y-11850174D01*
X13905420Y-11850174D02*
X13914943Y-11812079D01*
X13914943Y-11812079D02*
X13924467Y-11793031D01*
X13924467Y-11793031D02*
X13933991Y-11783508D01*
X13933991Y-11783508D02*
X13953039Y-11773984D01*
X14105420Y-11973984D02*
X14105420Y-11840650D01*
X14105420Y-11859698D02*
X14114943Y-11850174D01*
X14114943Y-11850174D02*
X14133991Y-11840650D01*
X14133991Y-11840650D02*
X14162563Y-11840650D01*
X14162563Y-11840650D02*
X14181610Y-11850174D01*
X14181610Y-11850174D02*
X14191134Y-11869222D01*
X14191134Y-11869222D02*
X14191134Y-11973984D01*
X14191134Y-11869222D02*
X14200658Y-11850174D01*
X14200658Y-11850174D02*
X14219705Y-11840650D01*
X14219705Y-11840650D02*
X14248277Y-11840650D01*
X14248277Y-11840650D02*
X14267324Y-11850174D01*
X14267324Y-11850174D02*
X14276848Y-11869222D01*
X14276848Y-11869222D02*
X14276848Y-11973984D01*
X14372086Y-11973984D02*
X14372086Y-11840650D01*
X14372086Y-11859698D02*
X14381610Y-11850174D01*
X14381610Y-11850174D02*
X14400658Y-11840650D01*
X14400658Y-11840650D02*
X14429229Y-11840650D01*
X14429229Y-11840650D02*
X14448277Y-11850174D01*
X14448277Y-11850174D02*
X14457801Y-11869222D01*
X14457801Y-11869222D02*
X14457801Y-11973984D01*
X14457801Y-11869222D02*
X14467324Y-11850174D01*
X14467324Y-11850174D02*
X14486372Y-11840650D01*
X14486372Y-11840650D02*
X14514943Y-11840650D01*
X14514943Y-11840650D02*
X14533991Y-11850174D01*
X14533991Y-11850174D02*
X14543515Y-11869222D01*
X14543515Y-11869222D02*
X14543515Y-11973984D01*
X14933991Y-11764460D02*
X14762563Y-12021603D01*
X15191134Y-11773984D02*
X15210182Y-11773984D01*
X15210182Y-11773984D02*
X15229229Y-11783508D01*
X15229229Y-11783508D02*
X15238753Y-11793031D01*
X15238753Y-11793031D02*
X15248277Y-11812079D01*
X15248277Y-11812079D02*
X15257801Y-11850174D01*
X15257801Y-11850174D02*
X15257801Y-11897793D01*
X15257801Y-11897793D02*
X15248277Y-11935888D01*
X15248277Y-11935888D02*
X15238753Y-11954936D01*
X15238753Y-11954936D02*
X15229229Y-11964460D01*
X15229229Y-11964460D02*
X15210182Y-11973984D01*
X15210182Y-11973984D02*
X15191134Y-11973984D01*
X15191134Y-11973984D02*
X15172086Y-11964460D01*
X15172086Y-11964460D02*
X15162563Y-11954936D01*
X15162563Y-11954936D02*
X15153039Y-11935888D01*
X15153039Y-11935888D02*
X15143515Y-11897793D01*
X15143515Y-11897793D02*
X15143515Y-11850174D01*
X15143515Y-11850174D02*
X15153039Y-11812079D01*
X15153039Y-11812079D02*
X15162563Y-11793031D01*
X15162563Y-11793031D02*
X15172086Y-11783508D01*
X15172086Y-11783508D02*
X15191134Y-11773984D01*
X15343515Y-11954936D02*
X15353039Y-11964460D01*
X15353039Y-11964460D02*
X15343515Y-11973984D01*
X15343515Y-11973984D02*
X15333991Y-11964460D01*
X15333991Y-11964460D02*
X15343515Y-11954936D01*
X15343515Y-11954936D02*
X15343515Y-11973984D01*
X15476848Y-11773984D02*
X15495896Y-11773984D01*
X15495896Y-11773984D02*
X15514944Y-11783508D01*
X15514944Y-11783508D02*
X15524467Y-11793031D01*
X15524467Y-11793031D02*
X15533991Y-11812079D01*
X15533991Y-11812079D02*
X15543515Y-11850174D01*
X15543515Y-11850174D02*
X15543515Y-11897793D01*
X15543515Y-11897793D02*
X15533991Y-11935888D01*
X15533991Y-11935888D02*
X15524467Y-11954936D01*
X15524467Y-11954936D02*
X15514944Y-11964460D01*
X15514944Y-11964460D02*
X15495896Y-11973984D01*
X15495896Y-11973984D02*
X15476848Y-11973984D01*
X15476848Y-11973984D02*
X15457801Y-11964460D01*
X15457801Y-11964460D02*
X15448277Y-11954936D01*
X15448277Y-11954936D02*
X15438753Y-11935888D01*
X15438753Y-11935888D02*
X15429229Y-11897793D01*
X15429229Y-11897793D02*
X15429229Y-11850174D01*
X15429229Y-11850174D02*
X15438753Y-11812079D01*
X15438753Y-11812079D02*
X15448277Y-11793031D01*
X15448277Y-11793031D02*
X15457801Y-11783508D01*
X15457801Y-11783508D02*
X15476848Y-11773984D01*
X15733991Y-11973984D02*
X15619706Y-11973984D01*
X15676848Y-11973984D02*
X15676848Y-11773984D01*
X15676848Y-11773984D02*
X15657801Y-11802555D01*
X15657801Y-11802555D02*
X15638753Y-11821603D01*
X15638753Y-11821603D02*
X15619706Y-11831127D01*
X15924467Y-11973984D02*
X15810182Y-11973984D01*
X15867325Y-11973984D02*
X15867325Y-11773984D01*
X15867325Y-11773984D02*
X15848277Y-11802555D01*
X15848277Y-11802555D02*
X15829229Y-11821603D01*
X15829229Y-11821603D02*
X15810182Y-11831127D01*
X16038753Y-11859698D02*
X16019706Y-11850174D01*
X16019706Y-11850174D02*
X16010182Y-11840650D01*
X16010182Y-11840650D02*
X16000658Y-11821603D01*
X16000658Y-11821603D02*
X16000658Y-11812079D01*
X16000658Y-11812079D02*
X16010182Y-11793031D01*
X16010182Y-11793031D02*
X16019706Y-11783508D01*
X16019706Y-11783508D02*
X16038753Y-11773984D01*
X16038753Y-11773984D02*
X16076848Y-11773984D01*
X16076848Y-11773984D02*
X16095896Y-11783508D01*
X16095896Y-11783508D02*
X16105420Y-11793031D01*
X16105420Y-11793031D02*
X16114944Y-11812079D01*
X16114944Y-11812079D02*
X16114944Y-11821603D01*
X16114944Y-11821603D02*
X16105420Y-11840650D01*
X16105420Y-11840650D02*
X16095896Y-11850174D01*
X16095896Y-11850174D02*
X16076848Y-11859698D01*
X16076848Y-11859698D02*
X16038753Y-11859698D01*
X16038753Y-11859698D02*
X16019706Y-11869222D01*
X16019706Y-11869222D02*
X16010182Y-11878746D01*
X16010182Y-11878746D02*
X16000658Y-11897793D01*
X16000658Y-11897793D02*
X16000658Y-11935888D01*
X16000658Y-11935888D02*
X16010182Y-11954936D01*
X16010182Y-11954936D02*
X16019706Y-11964460D01*
X16019706Y-11964460D02*
X16038753Y-11973984D01*
X16038753Y-11973984D02*
X16076848Y-11973984D01*
X16076848Y-11973984D02*
X16095896Y-11964460D01*
X16095896Y-11964460D02*
X16105420Y-11954936D01*
X16105420Y-11954936D02*
X16114944Y-11935888D01*
X16114944Y-11935888D02*
X16114944Y-11897793D01*
X16114944Y-11897793D02*
X16105420Y-11878746D01*
X16105420Y-11878746D02*
X16095896Y-11869222D01*
X16095896Y-11869222D02*
X16076848Y-11859698D01*
X16191134Y-11773984D02*
X16191134Y-11812079D01*
X16267325Y-11773984D02*
X16267325Y-11812079D01*
X16562563Y-12050174D02*
X16553039Y-12040650D01*
X16553039Y-12040650D02*
X16533991Y-12012079D01*
X16533991Y-12012079D02*
X16524468Y-11993031D01*
X16524468Y-11993031D02*
X16514944Y-11964460D01*
X16514944Y-11964460D02*
X16505420Y-11916841D01*
X16505420Y-11916841D02*
X16505420Y-11878746D01*
X16505420Y-11878746D02*
X16514944Y-11831127D01*
X16514944Y-11831127D02*
X16524468Y-11802555D01*
X16524468Y-11802555D02*
X16533991Y-11783508D01*
X16533991Y-11783508D02*
X16553039Y-11754936D01*
X16553039Y-11754936D02*
X16562563Y-11745412D01*
X16629229Y-11793031D02*
X16638753Y-11783508D01*
X16638753Y-11783508D02*
X16657801Y-11773984D01*
X16657801Y-11773984D02*
X16705420Y-11773984D01*
X16705420Y-11773984D02*
X16724468Y-11783508D01*
X16724468Y-11783508D02*
X16733991Y-11793031D01*
X16733991Y-11793031D02*
X16743515Y-11812079D01*
X16743515Y-11812079D02*
X16743515Y-11831127D01*
X16743515Y-11831127D02*
X16733991Y-11859698D01*
X16733991Y-11859698D02*
X16619706Y-11973984D01*
X16619706Y-11973984D02*
X16743515Y-11973984D01*
X16867325Y-11773984D02*
X16886372Y-11773984D01*
X16886372Y-11773984D02*
X16905420Y-11783508D01*
X16905420Y-11783508D02*
X16914944Y-11793031D01*
X16914944Y-11793031D02*
X16924468Y-11812079D01*
X16924468Y-11812079D02*
X16933991Y-11850174D01*
X16933991Y-11850174D02*
X16933991Y-11897793D01*
X16933991Y-11897793D02*
X16924468Y-11935888D01*
X16924468Y-11935888D02*
X16914944Y-11954936D01*
X16914944Y-11954936D02*
X16905420Y-11964460D01*
X16905420Y-11964460D02*
X16886372Y-11973984D01*
X16886372Y-11973984D02*
X16867325Y-11973984D01*
X16867325Y-11973984D02*
X16848277Y-11964460D01*
X16848277Y-11964460D02*
X16838753Y-11954936D01*
X16838753Y-11954936D02*
X16829230Y-11935888D01*
X16829230Y-11935888D02*
X16819706Y-11897793D01*
X16819706Y-11897793D02*
X16819706Y-11850174D01*
X16819706Y-11850174D02*
X16829230Y-11812079D01*
X16829230Y-11812079D02*
X16838753Y-11793031D01*
X16838753Y-11793031D02*
X16848277Y-11783508D01*
X16848277Y-11783508D02*
X16867325Y-11773984D01*
X17172087Y-11973984D02*
X17172087Y-11773984D01*
X17257801Y-11973984D02*
X17257801Y-11869222D01*
X17257801Y-11869222D02*
X17248277Y-11850174D01*
X17248277Y-11850174D02*
X17229230Y-11840650D01*
X17229230Y-11840650D02*
X17200658Y-11840650D01*
X17200658Y-11840650D02*
X17181611Y-11850174D01*
X17181611Y-11850174D02*
X17172087Y-11859698D01*
X17381611Y-11973984D02*
X17362563Y-11964460D01*
X17362563Y-11964460D02*
X17353039Y-11954936D01*
X17353039Y-11954936D02*
X17343515Y-11935888D01*
X17343515Y-11935888D02*
X17343515Y-11878746D01*
X17343515Y-11878746D02*
X17353039Y-11859698D01*
X17353039Y-11859698D02*
X17362563Y-11850174D01*
X17362563Y-11850174D02*
X17381611Y-11840650D01*
X17381611Y-11840650D02*
X17410182Y-11840650D01*
X17410182Y-11840650D02*
X17429230Y-11850174D01*
X17429230Y-11850174D02*
X17438753Y-11859698D01*
X17438753Y-11859698D02*
X17448277Y-11878746D01*
X17448277Y-11878746D02*
X17448277Y-11935888D01*
X17448277Y-11935888D02*
X17438753Y-11954936D01*
X17438753Y-11954936D02*
X17429230Y-11964460D01*
X17429230Y-11964460D02*
X17410182Y-11973984D01*
X17410182Y-11973984D02*
X17381611Y-11973984D01*
X17562563Y-11973984D02*
X17543515Y-11964460D01*
X17543515Y-11964460D02*
X17533992Y-11945412D01*
X17533992Y-11945412D02*
X17533992Y-11773984D01*
X17714944Y-11964460D02*
X17695896Y-11973984D01*
X17695896Y-11973984D02*
X17657801Y-11973984D01*
X17657801Y-11973984D02*
X17638753Y-11964460D01*
X17638753Y-11964460D02*
X17629230Y-11945412D01*
X17629230Y-11945412D02*
X17629230Y-11869222D01*
X17629230Y-11869222D02*
X17638753Y-11850174D01*
X17638753Y-11850174D02*
X17657801Y-11840650D01*
X17657801Y-11840650D02*
X17695896Y-11840650D01*
X17695896Y-11840650D02*
X17714944Y-11850174D01*
X17714944Y-11850174D02*
X17724468Y-11869222D01*
X17724468Y-11869222D02*
X17724468Y-11888269D01*
X17724468Y-11888269D02*
X17629230Y-11907317D01*
X17800658Y-11964460D02*
X17819706Y-11973984D01*
X17819706Y-11973984D02*
X17857801Y-11973984D01*
X17857801Y-11973984D02*
X17876849Y-11964460D01*
X17876849Y-11964460D02*
X17886373Y-11945412D01*
X17886373Y-11945412D02*
X17886373Y-11935888D01*
X17886373Y-11935888D02*
X17876849Y-11916841D01*
X17876849Y-11916841D02*
X17857801Y-11907317D01*
X17857801Y-11907317D02*
X17829230Y-11907317D01*
X17829230Y-11907317D02*
X17810182Y-11897793D01*
X17810182Y-11897793D02*
X17800658Y-11878746D01*
X17800658Y-11878746D02*
X17800658Y-11869222D01*
X17800658Y-11869222D02*
X17810182Y-11850174D01*
X17810182Y-11850174D02*
X17829230Y-11840650D01*
X17829230Y-11840650D02*
X17857801Y-11840650D01*
X17857801Y-11840650D02*
X17876849Y-11850174D01*
X17953039Y-12050174D02*
X17962563Y-12040650D01*
X17962563Y-12040650D02*
X17981611Y-12012079D01*
X17981611Y-12012079D02*
X17991134Y-11993031D01*
X17991134Y-11993031D02*
X18000658Y-11964460D01*
X18000658Y-11964460D02*
X18010182Y-11916841D01*
X18010182Y-11916841D02*
X18010182Y-11878746D01*
X18010182Y-11878746D02*
X18000658Y-11831127D01*
X18000658Y-11831127D02*
X17991134Y-11802555D01*
X17991134Y-11802555D02*
X17981611Y-11783508D01*
X17981611Y-11783508D02*
X17962563Y-11754936D01*
X17962563Y-11754936D02*
X17953039Y-11745412D01*
D12*
X12987500Y-12146500D02*
G75*
G02*
X12907500Y-12146500I-40000J0D01*
G01*
X12907500Y-12146500D02*
G75*
G02*
X12987500Y-12146500I40000J0D01*
G01*
D11*
X13286372Y-12037984D02*
X13305420Y-12037984D01*
X13305420Y-12037984D02*
X13324467Y-12047508D01*
X13324467Y-12047508D02*
X13333991Y-12057031D01*
X13333991Y-12057031D02*
X13343515Y-12076079D01*
X13343515Y-12076079D02*
X13353039Y-12114174D01*
X13353039Y-12114174D02*
X13353039Y-12161793D01*
X13353039Y-12161793D02*
X13343515Y-12199888D01*
X13343515Y-12199888D02*
X13333991Y-12218936D01*
X13333991Y-12218936D02*
X13324467Y-12228460D01*
X13324467Y-12228460D02*
X13305420Y-12237984D01*
X13305420Y-12237984D02*
X13286372Y-12237984D01*
X13286372Y-12237984D02*
X13267324Y-12228460D01*
X13267324Y-12228460D02*
X13257801Y-12218936D01*
X13257801Y-12218936D02*
X13248277Y-12199888D01*
X13248277Y-12199888D02*
X13238753Y-12161793D01*
X13238753Y-12161793D02*
X13238753Y-12114174D01*
X13238753Y-12114174D02*
X13248277Y-12076079D01*
X13248277Y-12076079D02*
X13257801Y-12057031D01*
X13257801Y-12057031D02*
X13267324Y-12047508D01*
X13267324Y-12047508D02*
X13286372Y-12037984D01*
X13438753Y-12218936D02*
X13448277Y-12228460D01*
X13448277Y-12228460D02*
X13438753Y-12237984D01*
X13438753Y-12237984D02*
X13429229Y-12228460D01*
X13429229Y-12228460D02*
X13438753Y-12218936D01*
X13438753Y-12218936D02*
X13438753Y-12237984D01*
X13562562Y-12123698D02*
X13543515Y-12114174D01*
X13543515Y-12114174D02*
X13533991Y-12104650D01*
X13533991Y-12104650D02*
X13524467Y-12085603D01*
X13524467Y-12085603D02*
X13524467Y-12076079D01*
X13524467Y-12076079D02*
X13533991Y-12057031D01*
X13533991Y-12057031D02*
X13543515Y-12047508D01*
X13543515Y-12047508D02*
X13562562Y-12037984D01*
X13562562Y-12037984D02*
X13600658Y-12037984D01*
X13600658Y-12037984D02*
X13619705Y-12047508D01*
X13619705Y-12047508D02*
X13629229Y-12057031D01*
X13629229Y-12057031D02*
X13638753Y-12076079D01*
X13638753Y-12076079D02*
X13638753Y-12085603D01*
X13638753Y-12085603D02*
X13629229Y-12104650D01*
X13629229Y-12104650D02*
X13619705Y-12114174D01*
X13619705Y-12114174D02*
X13600658Y-12123698D01*
X13600658Y-12123698D02*
X13562562Y-12123698D01*
X13562562Y-12123698D02*
X13543515Y-12133222D01*
X13543515Y-12133222D02*
X13533991Y-12142746D01*
X13533991Y-12142746D02*
X13524467Y-12161793D01*
X13524467Y-12161793D02*
X13524467Y-12199888D01*
X13524467Y-12199888D02*
X13533991Y-12218936D01*
X13533991Y-12218936D02*
X13543515Y-12228460D01*
X13543515Y-12228460D02*
X13562562Y-12237984D01*
X13562562Y-12237984D02*
X13600658Y-12237984D01*
X13600658Y-12237984D02*
X13619705Y-12228460D01*
X13619705Y-12228460D02*
X13629229Y-12218936D01*
X13629229Y-12218936D02*
X13638753Y-12199888D01*
X13638753Y-12199888D02*
X13638753Y-12161793D01*
X13638753Y-12161793D02*
X13629229Y-12142746D01*
X13629229Y-12142746D02*
X13619705Y-12133222D01*
X13619705Y-12133222D02*
X13600658Y-12123698D01*
X13762562Y-12037984D02*
X13781610Y-12037984D01*
X13781610Y-12037984D02*
X13800658Y-12047508D01*
X13800658Y-12047508D02*
X13810182Y-12057031D01*
X13810182Y-12057031D02*
X13819705Y-12076079D01*
X13819705Y-12076079D02*
X13829229Y-12114174D01*
X13829229Y-12114174D02*
X13829229Y-12161793D01*
X13829229Y-12161793D02*
X13819705Y-12199888D01*
X13819705Y-12199888D02*
X13810182Y-12218936D01*
X13810182Y-12218936D02*
X13800658Y-12228460D01*
X13800658Y-12228460D02*
X13781610Y-12237984D01*
X13781610Y-12237984D02*
X13762562Y-12237984D01*
X13762562Y-12237984D02*
X13743515Y-12228460D01*
X13743515Y-12228460D02*
X13733991Y-12218936D01*
X13733991Y-12218936D02*
X13724467Y-12199888D01*
X13724467Y-12199888D02*
X13714943Y-12161793D01*
X13714943Y-12161793D02*
X13714943Y-12114174D01*
X13714943Y-12114174D02*
X13724467Y-12076079D01*
X13724467Y-12076079D02*
X13733991Y-12057031D01*
X13733991Y-12057031D02*
X13743515Y-12047508D01*
X13743515Y-12047508D02*
X13762562Y-12037984D01*
X13953039Y-12037984D02*
X13972086Y-12037984D01*
X13972086Y-12037984D02*
X13991134Y-12047508D01*
X13991134Y-12047508D02*
X14000658Y-12057031D01*
X14000658Y-12057031D02*
X14010182Y-12076079D01*
X14010182Y-12076079D02*
X14019705Y-12114174D01*
X14019705Y-12114174D02*
X14019705Y-12161793D01*
X14019705Y-12161793D02*
X14010182Y-12199888D01*
X14010182Y-12199888D02*
X14000658Y-12218936D01*
X14000658Y-12218936D02*
X13991134Y-12228460D01*
X13991134Y-12228460D02*
X13972086Y-12237984D01*
X13972086Y-12237984D02*
X13953039Y-12237984D01*
X13953039Y-12237984D02*
X13933991Y-12228460D01*
X13933991Y-12228460D02*
X13924467Y-12218936D01*
X13924467Y-12218936D02*
X13914943Y-12199888D01*
X13914943Y-12199888D02*
X13905420Y-12161793D01*
X13905420Y-12161793D02*
X13905420Y-12114174D01*
X13905420Y-12114174D02*
X13914943Y-12076079D01*
X13914943Y-12076079D02*
X13924467Y-12057031D01*
X13924467Y-12057031D02*
X13933991Y-12047508D01*
X13933991Y-12047508D02*
X13953039Y-12037984D01*
X14105420Y-12237984D02*
X14105420Y-12104650D01*
X14105420Y-12123698D02*
X14114943Y-12114174D01*
X14114943Y-12114174D02*
X14133991Y-12104650D01*
X14133991Y-12104650D02*
X14162563Y-12104650D01*
X14162563Y-12104650D02*
X14181610Y-12114174D01*
X14181610Y-12114174D02*
X14191134Y-12133222D01*
X14191134Y-12133222D02*
X14191134Y-12237984D01*
X14191134Y-12133222D02*
X14200658Y-12114174D01*
X14200658Y-12114174D02*
X14219705Y-12104650D01*
X14219705Y-12104650D02*
X14248277Y-12104650D01*
X14248277Y-12104650D02*
X14267324Y-12114174D01*
X14267324Y-12114174D02*
X14276848Y-12133222D01*
X14276848Y-12133222D02*
X14276848Y-12237984D01*
X14372086Y-12237984D02*
X14372086Y-12104650D01*
X14372086Y-12123698D02*
X14381610Y-12114174D01*
X14381610Y-12114174D02*
X14400658Y-12104650D01*
X14400658Y-12104650D02*
X14429229Y-12104650D01*
X14429229Y-12104650D02*
X14448277Y-12114174D01*
X14448277Y-12114174D02*
X14457801Y-12133222D01*
X14457801Y-12133222D02*
X14457801Y-12237984D01*
X14457801Y-12133222D02*
X14467324Y-12114174D01*
X14467324Y-12114174D02*
X14486372Y-12104650D01*
X14486372Y-12104650D02*
X14514943Y-12104650D01*
X14514943Y-12104650D02*
X14533991Y-12114174D01*
X14533991Y-12114174D02*
X14543515Y-12133222D01*
X14543515Y-12133222D02*
X14543515Y-12237984D01*
X14933991Y-12028460D02*
X14762563Y-12285603D01*
X15191134Y-12037984D02*
X15210182Y-12037984D01*
X15210182Y-12037984D02*
X15229229Y-12047508D01*
X15229229Y-12047508D02*
X15238753Y-12057031D01*
X15238753Y-12057031D02*
X15248277Y-12076079D01*
X15248277Y-12076079D02*
X15257801Y-12114174D01*
X15257801Y-12114174D02*
X15257801Y-12161793D01*
X15257801Y-12161793D02*
X15248277Y-12199888D01*
X15248277Y-12199888D02*
X15238753Y-12218936D01*
X15238753Y-12218936D02*
X15229229Y-12228460D01*
X15229229Y-12228460D02*
X15210182Y-12237984D01*
X15210182Y-12237984D02*
X15191134Y-12237984D01*
X15191134Y-12237984D02*
X15172086Y-12228460D01*
X15172086Y-12228460D02*
X15162563Y-12218936D01*
X15162563Y-12218936D02*
X15153039Y-12199888D01*
X15153039Y-12199888D02*
X15143515Y-12161793D01*
X15143515Y-12161793D02*
X15143515Y-12114174D01*
X15143515Y-12114174D02*
X15153039Y-12076079D01*
X15153039Y-12076079D02*
X15162563Y-12057031D01*
X15162563Y-12057031D02*
X15172086Y-12047508D01*
X15172086Y-12047508D02*
X15191134Y-12037984D01*
X15343515Y-12218936D02*
X15353039Y-12228460D01*
X15353039Y-12228460D02*
X15343515Y-12237984D01*
X15343515Y-12237984D02*
X15333991Y-12228460D01*
X15333991Y-12228460D02*
X15343515Y-12218936D01*
X15343515Y-12218936D02*
X15343515Y-12237984D01*
X15476848Y-12037984D02*
X15495896Y-12037984D01*
X15495896Y-12037984D02*
X15514944Y-12047508D01*
X15514944Y-12047508D02*
X15524467Y-12057031D01*
X15524467Y-12057031D02*
X15533991Y-12076079D01*
X15533991Y-12076079D02*
X15543515Y-12114174D01*
X15543515Y-12114174D02*
X15543515Y-12161793D01*
X15543515Y-12161793D02*
X15533991Y-12199888D01*
X15533991Y-12199888D02*
X15524467Y-12218936D01*
X15524467Y-12218936D02*
X15514944Y-12228460D01*
X15514944Y-12228460D02*
X15495896Y-12237984D01*
X15495896Y-12237984D02*
X15476848Y-12237984D01*
X15476848Y-12237984D02*
X15457801Y-12228460D01*
X15457801Y-12228460D02*
X15448277Y-12218936D01*
X15448277Y-12218936D02*
X15438753Y-12199888D01*
X15438753Y-12199888D02*
X15429229Y-12161793D01*
X15429229Y-12161793D02*
X15429229Y-12114174D01*
X15429229Y-12114174D02*
X15438753Y-12076079D01*
X15438753Y-12076079D02*
X15448277Y-12057031D01*
X15448277Y-12057031D02*
X15457801Y-12047508D01*
X15457801Y-12047508D02*
X15476848Y-12037984D01*
X15610182Y-12037984D02*
X15733991Y-12037984D01*
X15733991Y-12037984D02*
X15667325Y-12114174D01*
X15667325Y-12114174D02*
X15695896Y-12114174D01*
X15695896Y-12114174D02*
X15714944Y-12123698D01*
X15714944Y-12123698D02*
X15724467Y-12133222D01*
X15724467Y-12133222D02*
X15733991Y-12152269D01*
X15733991Y-12152269D02*
X15733991Y-12199888D01*
X15733991Y-12199888D02*
X15724467Y-12218936D01*
X15724467Y-12218936D02*
X15714944Y-12228460D01*
X15714944Y-12228460D02*
X15695896Y-12237984D01*
X15695896Y-12237984D02*
X15638753Y-12237984D01*
X15638753Y-12237984D02*
X15619706Y-12228460D01*
X15619706Y-12228460D02*
X15610182Y-12218936D01*
X15924467Y-12237984D02*
X15810182Y-12237984D01*
X15867325Y-12237984D02*
X15867325Y-12037984D01*
X15867325Y-12037984D02*
X15848277Y-12066555D01*
X15848277Y-12066555D02*
X15829229Y-12085603D01*
X15829229Y-12085603D02*
X15810182Y-12095127D01*
X16105420Y-12037984D02*
X16010182Y-12037984D01*
X16010182Y-12037984D02*
X16000658Y-12133222D01*
X16000658Y-12133222D02*
X16010182Y-12123698D01*
X16010182Y-12123698D02*
X16029229Y-12114174D01*
X16029229Y-12114174D02*
X16076848Y-12114174D01*
X16076848Y-12114174D02*
X16095896Y-12123698D01*
X16095896Y-12123698D02*
X16105420Y-12133222D01*
X16105420Y-12133222D02*
X16114944Y-12152269D01*
X16114944Y-12152269D02*
X16114944Y-12199888D01*
X16114944Y-12199888D02*
X16105420Y-12218936D01*
X16105420Y-12218936D02*
X16095896Y-12228460D01*
X16095896Y-12228460D02*
X16076848Y-12237984D01*
X16076848Y-12237984D02*
X16029229Y-12237984D01*
X16029229Y-12237984D02*
X16010182Y-12228460D01*
X16010182Y-12228460D02*
X16000658Y-12218936D01*
X16191134Y-12037984D02*
X16191134Y-12076079D01*
X16267325Y-12037984D02*
X16267325Y-12076079D01*
X16562563Y-12314174D02*
X16553039Y-12304650D01*
X16553039Y-12304650D02*
X16533991Y-12276079D01*
X16533991Y-12276079D02*
X16524468Y-12257031D01*
X16524468Y-12257031D02*
X16514944Y-12228460D01*
X16514944Y-12228460D02*
X16505420Y-12180841D01*
X16505420Y-12180841D02*
X16505420Y-12142746D01*
X16505420Y-12142746D02*
X16514944Y-12095127D01*
X16514944Y-12095127D02*
X16524468Y-12066555D01*
X16524468Y-12066555D02*
X16533991Y-12047508D01*
X16533991Y-12047508D02*
X16553039Y-12018936D01*
X16553039Y-12018936D02*
X16562563Y-12009412D01*
X16667325Y-12123698D02*
X16648277Y-12114174D01*
X16648277Y-12114174D02*
X16638753Y-12104650D01*
X16638753Y-12104650D02*
X16629229Y-12085603D01*
X16629229Y-12085603D02*
X16629229Y-12076079D01*
X16629229Y-12076079D02*
X16638753Y-12057031D01*
X16638753Y-12057031D02*
X16648277Y-12047508D01*
X16648277Y-12047508D02*
X16667325Y-12037984D01*
X16667325Y-12037984D02*
X16705420Y-12037984D01*
X16705420Y-12037984D02*
X16724468Y-12047508D01*
X16724468Y-12047508D02*
X16733991Y-12057031D01*
X16733991Y-12057031D02*
X16743515Y-12076079D01*
X16743515Y-12076079D02*
X16743515Y-12085603D01*
X16743515Y-12085603D02*
X16733991Y-12104650D01*
X16733991Y-12104650D02*
X16724468Y-12114174D01*
X16724468Y-12114174D02*
X16705420Y-12123698D01*
X16705420Y-12123698D02*
X16667325Y-12123698D01*
X16667325Y-12123698D02*
X16648277Y-12133222D01*
X16648277Y-12133222D02*
X16638753Y-12142746D01*
X16638753Y-12142746D02*
X16629229Y-12161793D01*
X16629229Y-12161793D02*
X16629229Y-12199888D01*
X16629229Y-12199888D02*
X16638753Y-12218936D01*
X16638753Y-12218936D02*
X16648277Y-12228460D01*
X16648277Y-12228460D02*
X16667325Y-12237984D01*
X16667325Y-12237984D02*
X16705420Y-12237984D01*
X16705420Y-12237984D02*
X16724468Y-12228460D01*
X16724468Y-12228460D02*
X16733991Y-12218936D01*
X16733991Y-12218936D02*
X16743515Y-12199888D01*
X16743515Y-12199888D02*
X16743515Y-12161793D01*
X16743515Y-12161793D02*
X16733991Y-12142746D01*
X16733991Y-12142746D02*
X16724468Y-12133222D01*
X16724468Y-12133222D02*
X16705420Y-12123698D01*
X16981611Y-12237984D02*
X16981611Y-12037984D01*
X17067325Y-12237984D02*
X17067325Y-12133222D01*
X17067325Y-12133222D02*
X17057801Y-12114174D01*
X17057801Y-12114174D02*
X17038753Y-12104650D01*
X17038753Y-12104650D02*
X17010182Y-12104650D01*
X17010182Y-12104650D02*
X16991134Y-12114174D01*
X16991134Y-12114174D02*
X16981611Y-12123698D01*
X17191134Y-12237984D02*
X17172087Y-12228460D01*
X17172087Y-12228460D02*
X17162563Y-12218936D01*
X17162563Y-12218936D02*
X17153039Y-12199888D01*
X17153039Y-12199888D02*
X17153039Y-12142746D01*
X17153039Y-12142746D02*
X17162563Y-12123698D01*
X17162563Y-12123698D02*
X17172087Y-12114174D01*
X17172087Y-12114174D02*
X17191134Y-12104650D01*
X17191134Y-12104650D02*
X17219706Y-12104650D01*
X17219706Y-12104650D02*
X17238753Y-12114174D01*
X17238753Y-12114174D02*
X17248277Y-12123698D01*
X17248277Y-12123698D02*
X17257801Y-12142746D01*
X17257801Y-12142746D02*
X17257801Y-12199888D01*
X17257801Y-12199888D02*
X17248277Y-12218936D01*
X17248277Y-12218936D02*
X17238753Y-12228460D01*
X17238753Y-12228460D02*
X17219706Y-12237984D01*
X17219706Y-12237984D02*
X17191134Y-12237984D01*
X17372087Y-12237984D02*
X17353039Y-12228460D01*
X17353039Y-12228460D02*
X17343515Y-12209412D01*
X17343515Y-12209412D02*
X17343515Y-12037984D01*
X17524468Y-12228460D02*
X17505420Y-12237984D01*
X17505420Y-12237984D02*
X17467325Y-12237984D01*
X17467325Y-12237984D02*
X17448277Y-12228460D01*
X17448277Y-12228460D02*
X17438753Y-12209412D01*
X17438753Y-12209412D02*
X17438753Y-12133222D01*
X17438753Y-12133222D02*
X17448277Y-12114174D01*
X17448277Y-12114174D02*
X17467325Y-12104650D01*
X17467325Y-12104650D02*
X17505420Y-12104650D01*
X17505420Y-12104650D02*
X17524468Y-12114174D01*
X17524468Y-12114174D02*
X17533992Y-12133222D01*
X17533992Y-12133222D02*
X17533992Y-12152269D01*
X17533992Y-12152269D02*
X17438753Y-12171317D01*
X17610182Y-12228460D02*
X17629230Y-12237984D01*
X17629230Y-12237984D02*
X17667325Y-12237984D01*
X17667325Y-12237984D02*
X17686373Y-12228460D01*
X17686373Y-12228460D02*
X17695896Y-12209412D01*
X17695896Y-12209412D02*
X17695896Y-12199888D01*
X17695896Y-12199888D02*
X17686373Y-12180841D01*
X17686373Y-12180841D02*
X17667325Y-12171317D01*
X17667325Y-12171317D02*
X17638753Y-12171317D01*
X17638753Y-12171317D02*
X17619706Y-12161793D01*
X17619706Y-12161793D02*
X17610182Y-12142746D01*
X17610182Y-12142746D02*
X17610182Y-12133222D01*
X17610182Y-12133222D02*
X17619706Y-12114174D01*
X17619706Y-12114174D02*
X17638753Y-12104650D01*
X17638753Y-12104650D02*
X17667325Y-12104650D01*
X17667325Y-12104650D02*
X17686373Y-12114174D01*
X17762563Y-12314174D02*
X17772087Y-12304650D01*
X17772087Y-12304650D02*
X17791134Y-12276079D01*
X17791134Y-12276079D02*
X17800658Y-12257031D01*
X17800658Y-12257031D02*
X17810182Y-12228460D01*
X17810182Y-12228460D02*
X17819706Y-12180841D01*
X17819706Y-12180841D02*
X17819706Y-12142746D01*
X17819706Y-12142746D02*
X17810182Y-12095127D01*
X17810182Y-12095127D02*
X17800658Y-12066555D01*
X17800658Y-12066555D02*
X17791134Y-12047508D01*
X17791134Y-12047508D02*
X17772087Y-12018936D01*
X17772087Y-12018936D02*
X17762563Y-12009412D01*
D12*
X12946860Y-12369860D02*
X12946860Y-12451140D01*
X12906220Y-12410500D02*
X12987500Y-12410500D01*
D11*
X13286372Y-12301984D02*
X13305420Y-12301984D01*
X13305420Y-12301984D02*
X13324467Y-12311508D01*
X13324467Y-12311508D02*
X13333991Y-12321031D01*
X13333991Y-12321031D02*
X13343515Y-12340079D01*
X13343515Y-12340079D02*
X13353039Y-12378174D01*
X13353039Y-12378174D02*
X13353039Y-12425793D01*
X13353039Y-12425793D02*
X13343515Y-12463888D01*
X13343515Y-12463888D02*
X13333991Y-12482936D01*
X13333991Y-12482936D02*
X13324467Y-12492460D01*
X13324467Y-12492460D02*
X13305420Y-12501984D01*
X13305420Y-12501984D02*
X13286372Y-12501984D01*
X13286372Y-12501984D02*
X13267324Y-12492460D01*
X13267324Y-12492460D02*
X13257801Y-12482936D01*
X13257801Y-12482936D02*
X13248277Y-12463888D01*
X13248277Y-12463888D02*
X13238753Y-12425793D01*
X13238753Y-12425793D02*
X13238753Y-12378174D01*
X13238753Y-12378174D02*
X13248277Y-12340079D01*
X13248277Y-12340079D02*
X13257801Y-12321031D01*
X13257801Y-12321031D02*
X13267324Y-12311508D01*
X13267324Y-12311508D02*
X13286372Y-12301984D01*
X13438753Y-12482936D02*
X13448277Y-12492460D01*
X13448277Y-12492460D02*
X13438753Y-12501984D01*
X13438753Y-12501984D02*
X13429229Y-12492460D01*
X13429229Y-12492460D02*
X13438753Y-12482936D01*
X13438753Y-12482936D02*
X13438753Y-12501984D01*
X13562562Y-12387698D02*
X13543515Y-12378174D01*
X13543515Y-12378174D02*
X13533991Y-12368650D01*
X13533991Y-12368650D02*
X13524467Y-12349603D01*
X13524467Y-12349603D02*
X13524467Y-12340079D01*
X13524467Y-12340079D02*
X13533991Y-12321031D01*
X13533991Y-12321031D02*
X13543515Y-12311508D01*
X13543515Y-12311508D02*
X13562562Y-12301984D01*
X13562562Y-12301984D02*
X13600658Y-12301984D01*
X13600658Y-12301984D02*
X13619705Y-12311508D01*
X13619705Y-12311508D02*
X13629229Y-12321031D01*
X13629229Y-12321031D02*
X13638753Y-12340079D01*
X13638753Y-12340079D02*
X13638753Y-12349603D01*
X13638753Y-12349603D02*
X13629229Y-12368650D01*
X13629229Y-12368650D02*
X13619705Y-12378174D01*
X13619705Y-12378174D02*
X13600658Y-12387698D01*
X13600658Y-12387698D02*
X13562562Y-12387698D01*
X13562562Y-12387698D02*
X13543515Y-12397222D01*
X13543515Y-12397222D02*
X13533991Y-12406746D01*
X13533991Y-12406746D02*
X13524467Y-12425793D01*
X13524467Y-12425793D02*
X13524467Y-12463888D01*
X13524467Y-12463888D02*
X13533991Y-12482936D01*
X13533991Y-12482936D02*
X13543515Y-12492460D01*
X13543515Y-12492460D02*
X13562562Y-12501984D01*
X13562562Y-12501984D02*
X13600658Y-12501984D01*
X13600658Y-12501984D02*
X13619705Y-12492460D01*
X13619705Y-12492460D02*
X13629229Y-12482936D01*
X13629229Y-12482936D02*
X13638753Y-12463888D01*
X13638753Y-12463888D02*
X13638753Y-12425793D01*
X13638753Y-12425793D02*
X13629229Y-12406746D01*
X13629229Y-12406746D02*
X13619705Y-12397222D01*
X13619705Y-12397222D02*
X13600658Y-12387698D01*
X13829229Y-12501984D02*
X13714943Y-12501984D01*
X13772086Y-12501984D02*
X13772086Y-12301984D01*
X13772086Y-12301984D02*
X13753039Y-12330555D01*
X13753039Y-12330555D02*
X13733991Y-12349603D01*
X13733991Y-12349603D02*
X13714943Y-12359127D01*
X13895896Y-12301984D02*
X14019705Y-12301984D01*
X14019705Y-12301984D02*
X13953039Y-12378174D01*
X13953039Y-12378174D02*
X13981610Y-12378174D01*
X13981610Y-12378174D02*
X14000658Y-12387698D01*
X14000658Y-12387698D02*
X14010182Y-12397222D01*
X14010182Y-12397222D02*
X14019705Y-12416269D01*
X14019705Y-12416269D02*
X14019705Y-12463888D01*
X14019705Y-12463888D02*
X14010182Y-12482936D01*
X14010182Y-12482936D02*
X14000658Y-12492460D01*
X14000658Y-12492460D02*
X13981610Y-12501984D01*
X13981610Y-12501984D02*
X13924467Y-12501984D01*
X13924467Y-12501984D02*
X13905420Y-12492460D01*
X13905420Y-12492460D02*
X13895896Y-12482936D01*
X14105420Y-12501984D02*
X14105420Y-12368650D01*
X14105420Y-12387698D02*
X14114943Y-12378174D01*
X14114943Y-12378174D02*
X14133991Y-12368650D01*
X14133991Y-12368650D02*
X14162563Y-12368650D01*
X14162563Y-12368650D02*
X14181610Y-12378174D01*
X14181610Y-12378174D02*
X14191134Y-12397222D01*
X14191134Y-12397222D02*
X14191134Y-12501984D01*
X14191134Y-12397222D02*
X14200658Y-12378174D01*
X14200658Y-12378174D02*
X14219705Y-12368650D01*
X14219705Y-12368650D02*
X14248277Y-12368650D01*
X14248277Y-12368650D02*
X14267324Y-12378174D01*
X14267324Y-12378174D02*
X14276848Y-12397222D01*
X14276848Y-12397222D02*
X14276848Y-12501984D01*
X14372086Y-12501984D02*
X14372086Y-12368650D01*
X14372086Y-12387698D02*
X14381610Y-12378174D01*
X14381610Y-12378174D02*
X14400658Y-12368650D01*
X14400658Y-12368650D02*
X14429229Y-12368650D01*
X14429229Y-12368650D02*
X14448277Y-12378174D01*
X14448277Y-12378174D02*
X14457801Y-12397222D01*
X14457801Y-12397222D02*
X14457801Y-12501984D01*
X14457801Y-12397222D02*
X14467324Y-12378174D01*
X14467324Y-12378174D02*
X14486372Y-12368650D01*
X14486372Y-12368650D02*
X14514943Y-12368650D01*
X14514943Y-12368650D02*
X14533991Y-12378174D01*
X14533991Y-12378174D02*
X14543515Y-12397222D01*
X14543515Y-12397222D02*
X14543515Y-12501984D01*
X14933991Y-12292460D02*
X14762563Y-12549603D01*
X15191134Y-12301984D02*
X15210182Y-12301984D01*
X15210182Y-12301984D02*
X15229229Y-12311508D01*
X15229229Y-12311508D02*
X15238753Y-12321031D01*
X15238753Y-12321031D02*
X15248277Y-12340079D01*
X15248277Y-12340079D02*
X15257801Y-12378174D01*
X15257801Y-12378174D02*
X15257801Y-12425793D01*
X15257801Y-12425793D02*
X15248277Y-12463888D01*
X15248277Y-12463888D02*
X15238753Y-12482936D01*
X15238753Y-12482936D02*
X15229229Y-12492460D01*
X15229229Y-12492460D02*
X15210182Y-12501984D01*
X15210182Y-12501984D02*
X15191134Y-12501984D01*
X15191134Y-12501984D02*
X15172086Y-12492460D01*
X15172086Y-12492460D02*
X15162563Y-12482936D01*
X15162563Y-12482936D02*
X15153039Y-12463888D01*
X15153039Y-12463888D02*
X15143515Y-12425793D01*
X15143515Y-12425793D02*
X15143515Y-12378174D01*
X15143515Y-12378174D02*
X15153039Y-12340079D01*
X15153039Y-12340079D02*
X15162563Y-12321031D01*
X15162563Y-12321031D02*
X15172086Y-12311508D01*
X15172086Y-12311508D02*
X15191134Y-12301984D01*
X15343515Y-12482936D02*
X15353039Y-12492460D01*
X15353039Y-12492460D02*
X15343515Y-12501984D01*
X15343515Y-12501984D02*
X15333991Y-12492460D01*
X15333991Y-12492460D02*
X15343515Y-12482936D01*
X15343515Y-12482936D02*
X15343515Y-12501984D01*
X15476848Y-12301984D02*
X15495896Y-12301984D01*
X15495896Y-12301984D02*
X15514944Y-12311508D01*
X15514944Y-12311508D02*
X15524467Y-12321031D01*
X15524467Y-12321031D02*
X15533991Y-12340079D01*
X15533991Y-12340079D02*
X15543515Y-12378174D01*
X15543515Y-12378174D02*
X15543515Y-12425793D01*
X15543515Y-12425793D02*
X15533991Y-12463888D01*
X15533991Y-12463888D02*
X15524467Y-12482936D01*
X15524467Y-12482936D02*
X15514944Y-12492460D01*
X15514944Y-12492460D02*
X15495896Y-12501984D01*
X15495896Y-12501984D02*
X15476848Y-12501984D01*
X15476848Y-12501984D02*
X15457801Y-12492460D01*
X15457801Y-12492460D02*
X15448277Y-12482936D01*
X15448277Y-12482936D02*
X15438753Y-12463888D01*
X15438753Y-12463888D02*
X15429229Y-12425793D01*
X15429229Y-12425793D02*
X15429229Y-12378174D01*
X15429229Y-12378174D02*
X15438753Y-12340079D01*
X15438753Y-12340079D02*
X15448277Y-12321031D01*
X15448277Y-12321031D02*
X15457801Y-12311508D01*
X15457801Y-12311508D02*
X15476848Y-12301984D01*
X15610182Y-12301984D02*
X15733991Y-12301984D01*
X15733991Y-12301984D02*
X15667325Y-12378174D01*
X15667325Y-12378174D02*
X15695896Y-12378174D01*
X15695896Y-12378174D02*
X15714944Y-12387698D01*
X15714944Y-12387698D02*
X15724467Y-12397222D01*
X15724467Y-12397222D02*
X15733991Y-12416269D01*
X15733991Y-12416269D02*
X15733991Y-12463888D01*
X15733991Y-12463888D02*
X15724467Y-12482936D01*
X15724467Y-12482936D02*
X15714944Y-12492460D01*
X15714944Y-12492460D02*
X15695896Y-12501984D01*
X15695896Y-12501984D02*
X15638753Y-12501984D01*
X15638753Y-12501984D02*
X15619706Y-12492460D01*
X15619706Y-12492460D02*
X15610182Y-12482936D01*
X15810182Y-12321031D02*
X15819706Y-12311508D01*
X15819706Y-12311508D02*
X15838753Y-12301984D01*
X15838753Y-12301984D02*
X15886372Y-12301984D01*
X15886372Y-12301984D02*
X15905420Y-12311508D01*
X15905420Y-12311508D02*
X15914944Y-12321031D01*
X15914944Y-12321031D02*
X15924467Y-12340079D01*
X15924467Y-12340079D02*
X15924467Y-12359127D01*
X15924467Y-12359127D02*
X15914944Y-12387698D01*
X15914944Y-12387698D02*
X15800658Y-12501984D01*
X15800658Y-12501984D02*
X15924467Y-12501984D01*
X16048277Y-12301984D02*
X16067325Y-12301984D01*
X16067325Y-12301984D02*
X16086372Y-12311508D01*
X16086372Y-12311508D02*
X16095896Y-12321031D01*
X16095896Y-12321031D02*
X16105420Y-12340079D01*
X16105420Y-12340079D02*
X16114944Y-12378174D01*
X16114944Y-12378174D02*
X16114944Y-12425793D01*
X16114944Y-12425793D02*
X16105420Y-12463888D01*
X16105420Y-12463888D02*
X16095896Y-12482936D01*
X16095896Y-12482936D02*
X16086372Y-12492460D01*
X16086372Y-12492460D02*
X16067325Y-12501984D01*
X16067325Y-12501984D02*
X16048277Y-12501984D01*
X16048277Y-12501984D02*
X16029229Y-12492460D01*
X16029229Y-12492460D02*
X16019706Y-12482936D01*
X16019706Y-12482936D02*
X16010182Y-12463888D01*
X16010182Y-12463888D02*
X16000658Y-12425793D01*
X16000658Y-12425793D02*
X16000658Y-12378174D01*
X16000658Y-12378174D02*
X16010182Y-12340079D01*
X16010182Y-12340079D02*
X16019706Y-12321031D01*
X16019706Y-12321031D02*
X16029229Y-12311508D01*
X16029229Y-12311508D02*
X16048277Y-12301984D01*
X16191134Y-12301984D02*
X16191134Y-12340079D01*
X16267325Y-12301984D02*
X16267325Y-12340079D01*
X16562563Y-12578174D02*
X16553039Y-12568650D01*
X16553039Y-12568650D02*
X16533991Y-12540079D01*
X16533991Y-12540079D02*
X16524468Y-12521031D01*
X16524468Y-12521031D02*
X16514944Y-12492460D01*
X16514944Y-12492460D02*
X16505420Y-12444841D01*
X16505420Y-12444841D02*
X16505420Y-12406746D01*
X16505420Y-12406746D02*
X16514944Y-12359127D01*
X16514944Y-12359127D02*
X16524468Y-12330555D01*
X16524468Y-12330555D02*
X16533991Y-12311508D01*
X16533991Y-12311508D02*
X16553039Y-12282936D01*
X16553039Y-12282936D02*
X16562563Y-12273412D01*
X16724468Y-12301984D02*
X16686372Y-12301984D01*
X16686372Y-12301984D02*
X16667325Y-12311508D01*
X16667325Y-12311508D02*
X16657801Y-12321031D01*
X16657801Y-12321031D02*
X16638753Y-12349603D01*
X16638753Y-12349603D02*
X16629229Y-12387698D01*
X16629229Y-12387698D02*
X16629229Y-12463888D01*
X16629229Y-12463888D02*
X16638753Y-12482936D01*
X16638753Y-12482936D02*
X16648277Y-12492460D01*
X16648277Y-12492460D02*
X16667325Y-12501984D01*
X16667325Y-12501984D02*
X16705420Y-12501984D01*
X16705420Y-12501984D02*
X16724468Y-12492460D01*
X16724468Y-12492460D02*
X16733991Y-12482936D01*
X16733991Y-12482936D02*
X16743515Y-12463888D01*
X16743515Y-12463888D02*
X16743515Y-12416269D01*
X16743515Y-12416269D02*
X16733991Y-12397222D01*
X16733991Y-12397222D02*
X16724468Y-12387698D01*
X16724468Y-12387698D02*
X16705420Y-12378174D01*
X16705420Y-12378174D02*
X16667325Y-12378174D01*
X16667325Y-12378174D02*
X16648277Y-12387698D01*
X16648277Y-12387698D02*
X16638753Y-12397222D01*
X16638753Y-12397222D02*
X16629229Y-12416269D01*
X16981611Y-12501984D02*
X16981611Y-12301984D01*
X17067325Y-12501984D02*
X17067325Y-12397222D01*
X17067325Y-12397222D02*
X17057801Y-12378174D01*
X17057801Y-12378174D02*
X17038753Y-12368650D01*
X17038753Y-12368650D02*
X17010182Y-12368650D01*
X17010182Y-12368650D02*
X16991134Y-12378174D01*
X16991134Y-12378174D02*
X16981611Y-12387698D01*
X17191134Y-12501984D02*
X17172087Y-12492460D01*
X17172087Y-12492460D02*
X17162563Y-12482936D01*
X17162563Y-12482936D02*
X17153039Y-12463888D01*
X17153039Y-12463888D02*
X17153039Y-12406746D01*
X17153039Y-12406746D02*
X17162563Y-12387698D01*
X17162563Y-12387698D02*
X17172087Y-12378174D01*
X17172087Y-12378174D02*
X17191134Y-12368650D01*
X17191134Y-12368650D02*
X17219706Y-12368650D01*
X17219706Y-12368650D02*
X17238753Y-12378174D01*
X17238753Y-12378174D02*
X17248277Y-12387698D01*
X17248277Y-12387698D02*
X17257801Y-12406746D01*
X17257801Y-12406746D02*
X17257801Y-12463888D01*
X17257801Y-12463888D02*
X17248277Y-12482936D01*
X17248277Y-12482936D02*
X17238753Y-12492460D01*
X17238753Y-12492460D02*
X17219706Y-12501984D01*
X17219706Y-12501984D02*
X17191134Y-12501984D01*
X17372087Y-12501984D02*
X17353039Y-12492460D01*
X17353039Y-12492460D02*
X17343515Y-12473412D01*
X17343515Y-12473412D02*
X17343515Y-12301984D01*
X17524468Y-12492460D02*
X17505420Y-12501984D01*
X17505420Y-12501984D02*
X17467325Y-12501984D01*
X17467325Y-12501984D02*
X17448277Y-12492460D01*
X17448277Y-12492460D02*
X17438753Y-12473412D01*
X17438753Y-12473412D02*
X17438753Y-12397222D01*
X17438753Y-12397222D02*
X17448277Y-12378174D01*
X17448277Y-12378174D02*
X17467325Y-12368650D01*
X17467325Y-12368650D02*
X17505420Y-12368650D01*
X17505420Y-12368650D02*
X17524468Y-12378174D01*
X17524468Y-12378174D02*
X17533992Y-12397222D01*
X17533992Y-12397222D02*
X17533992Y-12416269D01*
X17533992Y-12416269D02*
X17438753Y-12435317D01*
X17610182Y-12492460D02*
X17629230Y-12501984D01*
X17629230Y-12501984D02*
X17667325Y-12501984D01*
X17667325Y-12501984D02*
X17686373Y-12492460D01*
X17686373Y-12492460D02*
X17695896Y-12473412D01*
X17695896Y-12473412D02*
X17695896Y-12463888D01*
X17695896Y-12463888D02*
X17686373Y-12444841D01*
X17686373Y-12444841D02*
X17667325Y-12435317D01*
X17667325Y-12435317D02*
X17638753Y-12435317D01*
X17638753Y-12435317D02*
X17619706Y-12425793D01*
X17619706Y-12425793D02*
X17610182Y-12406746D01*
X17610182Y-12406746D02*
X17610182Y-12397222D01*
X17610182Y-12397222D02*
X17619706Y-12378174D01*
X17619706Y-12378174D02*
X17638753Y-12368650D01*
X17638753Y-12368650D02*
X17667325Y-12368650D01*
X17667325Y-12368650D02*
X17686373Y-12378174D01*
X17762563Y-12578174D02*
X17772087Y-12568650D01*
X17772087Y-12568650D02*
X17791134Y-12540079D01*
X17791134Y-12540079D02*
X17800658Y-12521031D01*
X17800658Y-12521031D02*
X17810182Y-12492460D01*
X17810182Y-12492460D02*
X17819706Y-12444841D01*
X17819706Y-12444841D02*
X17819706Y-12406746D01*
X17819706Y-12406746D02*
X17810182Y-12359127D01*
X17810182Y-12359127D02*
X17800658Y-12330555D01*
X17800658Y-12330555D02*
X17791134Y-12311508D01*
X17791134Y-12311508D02*
X17772087Y-12282936D01*
X17772087Y-12282936D02*
X17762563Y-12273412D01*
M02*
