G04 #@! TF.GenerationSoftware,KiCad,Pcbnew,8.0.7*
G04 #@! TF.CreationDate,2025-03-21T10:21:58-04:00*
G04 #@! TF.ProjectId,weiland-esp32,7765696c-616e-4642-9d65-737033322e6b,rev?*
G04 #@! TF.SameCoordinates,Original*
G04 #@! TF.FileFunction,Paste,Top*
G04 #@! TF.FilePolarity,Positive*
%FSLAX46Y46*%
G04 Gerber Fmt 4.6, Leading zero omitted, Abs format (unit mm)*
G04 Created by KiCad (PCBNEW 8.0.7) date 2025-03-21 10:21:58*
%MOMM*%
%LPD*%
G01*
G04 APERTURE LIST*
G04 Aperture macros list*
%AMRoundRect*
0 Rectangle with rounded corners*
0 $1 Rounding radius*
0 $2 $3 $4 $5 $6 $7 $8 $9 X,Y pos of 4 corners*
0 Add a 4 corners polygon primitive as box body*
4,1,4,$2,$3,$4,$5,$6,$7,$8,$9,$2,$3,0*
0 Add four circle primitives for the rounded corners*
1,1,$1+$1,$2,$3*
1,1,$1+$1,$4,$5*
1,1,$1+$1,$6,$7*
1,1,$1+$1,$8,$9*
0 Add four rect primitives between the rounded corners*
20,1,$1+$1,$2,$3,$4,$5,0*
20,1,$1+$1,$4,$5,$6,$7,0*
20,1,$1+$1,$6,$7,$8,$9,0*
20,1,$1+$1,$8,$9,$2,$3,0*%
G04 Aperture macros list end*
%ADD10R,0.870000X0.930000*%
%ADD11RoundRect,0.143100X-0.126900X-0.156900X0.126900X-0.156900X0.126900X0.156900X-0.126900X0.156900X0*%
%ADD12R,0.475000X0.500000*%
%ADD13R,0.760000X2.400000*%
%ADD14C,0.250000*%
%ADD15RoundRect,0.069750X-0.395250X0.585250X-0.395250X-0.585250X0.395250X-0.585250X0.395250X0.585250X0*%
%ADD16RoundRect,0.098250X-1.521750X0.556750X-1.521750X-0.556750X1.521750X-0.556750X1.521750X0.556750X0*%
%ADD17R,0.540000X0.600000*%
%ADD18R,0.500000X0.600000*%
%ADD19R,1.500000X0.900000*%
%ADD20R,0.900000X1.500000*%
%ADD21R,0.900000X0.900000*%
%ADD22R,0.800000X0.800000*%
%ADD23R,0.863600X0.254000*%
%ADD24R,1.701800X2.489200*%
G04 APERTURE END LIST*
D10*
X144580000Y-103200000D03*
X143020000Y-103200000D03*
D11*
X172070000Y-105100000D03*
X172930000Y-105100000D03*
D10*
X146820000Y-99800000D03*
X148380000Y-99800000D03*
D12*
X147275000Y-101845000D03*
X148299000Y-101845000D03*
D13*
X178700000Y-100300000D03*
X178700000Y-104200000D03*
X177430000Y-100300000D03*
X177430000Y-104200000D03*
X176160000Y-100300000D03*
X176160000Y-104200000D03*
D14*
X146900000Y-103800000D03*
X147300000Y-103800000D03*
X147700000Y-103800000D03*
X146900000Y-104200000D03*
X147300000Y-104200000D03*
X147700000Y-104200000D03*
X146900000Y-104600000D03*
X147300000Y-104600000D03*
X147700000Y-104600000D03*
D15*
X147990000Y-91300000D03*
X145700000Y-91300000D03*
X143410000Y-91300000D03*
D16*
X145700000Y-97990000D03*
D10*
X143020000Y-89545000D03*
X144580000Y-89545000D03*
D17*
X147670000Y-106500000D03*
X148530000Y-106500000D03*
D18*
X146552000Y-106500000D03*
X145648000Y-106500000D03*
D19*
X150350000Y-89080000D03*
X150350000Y-90350000D03*
X150350000Y-91620000D03*
X150350000Y-92890000D03*
X150350000Y-94160000D03*
X150350000Y-95430000D03*
X150350000Y-96700000D03*
X150350000Y-97970000D03*
X150350000Y-99240000D03*
X150350000Y-100510000D03*
X150350000Y-101780000D03*
X150350000Y-103050000D03*
X150350000Y-104320000D03*
X150350000Y-105590000D03*
D20*
X153380000Y-106840000D03*
X154650000Y-106840000D03*
X155920000Y-106840000D03*
X157190000Y-106840000D03*
X158460000Y-106840000D03*
X159730000Y-106840000D03*
X161000000Y-106840000D03*
X162270000Y-106840000D03*
X163540000Y-106840000D03*
X164810000Y-106840000D03*
D19*
X167850000Y-105590000D03*
X167850000Y-104320000D03*
X167850000Y-103050000D03*
X167850000Y-101780000D03*
X167850000Y-100510000D03*
X167850000Y-99240000D03*
X167850000Y-97970000D03*
X167850000Y-96700000D03*
X167850000Y-95430000D03*
X167850000Y-94160000D03*
X167850000Y-92890000D03*
X167850000Y-91620000D03*
X167850000Y-90350000D03*
X167850000Y-89080000D03*
D21*
X156200000Y-95400000D03*
X156200000Y-95400000D03*
X156200000Y-96800000D03*
X156200000Y-98200000D03*
X156200000Y-98200000D03*
X157600000Y-95400000D03*
X157600000Y-96800000D03*
X157600000Y-98200000D03*
X157600000Y-98200000D03*
X159000000Y-95400000D03*
X159000000Y-96800000D03*
X159000000Y-98200000D03*
D11*
X146070000Y-89545000D03*
X146930000Y-89545000D03*
D17*
X147670000Y-107800000D03*
X148530000Y-107800000D03*
D22*
X144250000Y-101745000D03*
X145900000Y-101745000D03*
D10*
X144880000Y-99800000D03*
X143320000Y-99800000D03*
D23*
X170077600Y-100399999D03*
X170077600Y-100900001D03*
X170077600Y-101400000D03*
X170077600Y-101899999D03*
X170077600Y-102400001D03*
X172922400Y-102400001D03*
X172922400Y-101899999D03*
X172922400Y-101400000D03*
X172922400Y-100900001D03*
X172922400Y-100399999D03*
D24*
X171500000Y-101400000D03*
D18*
X145648000Y-107800000D03*
X146552000Y-107800000D03*
M02*
