G04 #@! TF.GenerationSoftware,KiCad,Pcbnew,8.0.7*
G04 #@! TF.CreationDate,2025-03-21T10:21:58-04:00*
G04 #@! TF.ProjectId,weiland-esp32,7765696c-616e-4642-9d65-737033322e6b,rev?*
G04 #@! TF.SameCoordinates,Original*
G04 #@! TF.FileFunction,Copper,L2,Bot*
G04 #@! TF.FilePolarity,Positive*
%FSLAX46Y46*%
G04 Gerber Fmt 4.6, Leading zero omitted, Abs format (unit mm)*
G04 Created by KiCad (PCBNEW 8.0.7) date 2025-03-21 10:21:58*
%MOMM*%
%LPD*%
G01*
G04 APERTURE LIST*
G04 #@! TA.AperFunction,ComponentPad*
%ADD10C,1.308000*%
G04 #@! TD*
G04 #@! TA.AperFunction,ComponentPad*
%ADD11R,1.308000X1.308000*%
G04 #@! TD*
G04 #@! TA.AperFunction,ComponentPad*
%ADD12C,1.320800*%
G04 #@! TD*
G04 #@! TA.AperFunction,ViaPad*
%ADD13C,0.600000*%
G04 #@! TD*
G04 #@! TA.AperFunction,Conductor*
%ADD14C,0.100000*%
G04 #@! TD*
G04 #@! TA.AperFunction,Conductor*
%ADD15C,0.200000*%
G04 #@! TD*
G04 #@! TA.AperFunction,Conductor*
%ADD16C,0.250000*%
G04 #@! TD*
G04 #@! TA.AperFunction,Conductor*
%ADD17C,0.120000*%
G04 #@! TD*
G04 APERTURE END LIST*
D10*
X172825000Y-90500000D03*
X172825000Y-92500000D03*
X172825000Y-94500000D03*
D11*
X172825000Y-96500000D03*
X138400000Y-96900000D03*
D10*
X138400000Y-98900000D03*
X138400000Y-100900000D03*
X138400000Y-102900000D03*
D12*
X138445301Y-109400000D03*
X138445301Y-107399999D03*
X172954699Y-108104900D03*
X172954699Y-110104901D03*
X138400000Y-92300000D03*
X138400000Y-90299999D03*
D13*
X147800000Y-103100000D03*
X149100000Y-101000000D03*
X170000000Y-95900000D03*
X148100000Y-93500000D03*
X174425000Y-102500000D03*
X175215136Y-101764682D03*
X174500000Y-100900000D03*
X171100000Y-97300000D03*
X173800000Y-103200000D03*
X176160000Y-104200000D03*
X176200000Y-106500000D03*
X169800000Y-91600000D03*
X166300000Y-91700000D03*
X146552000Y-106500000D03*
X150350000Y-100510000D03*
X148900000Y-104200000D03*
X145648000Y-107800000D03*
X145098000Y-104394117D03*
X145600000Y-103600000D03*
X145648000Y-106500000D03*
D14*
X149100000Y-101800000D02*
X149100000Y-101000000D01*
X147800000Y-103100000D02*
X149100000Y-101800000D01*
D15*
X146300000Y-102900000D02*
X138400000Y-102900000D01*
X173614215Y-104800000D02*
X148200000Y-104800000D01*
X175215136Y-103199079D02*
X173614215Y-104800000D01*
X175215136Y-101764682D02*
X175215136Y-103199079D01*
X148200000Y-104800000D02*
X146300000Y-102900000D01*
X156000000Y-104000000D02*
X150900000Y-98900000D01*
X173848529Y-104000000D02*
X156000000Y-104000000D01*
X174425000Y-103423529D02*
X173848529Y-104000000D01*
X174425000Y-102500000D02*
X174425000Y-103423529D01*
X150900000Y-98900000D02*
X138400000Y-98900000D01*
D16*
X173800000Y-97475000D02*
X172825000Y-96500000D01*
X173800000Y-103200000D02*
X173800000Y-97475000D01*
D15*
X175825000Y-93500000D02*
X172825000Y-90500000D01*
X175825000Y-98372792D02*
X175825000Y-93500000D01*
X174500000Y-99697792D02*
X175825000Y-98372792D01*
X174500000Y-100900000D02*
X174500000Y-99697792D01*
X171100000Y-97300000D02*
X171200000Y-97200000D01*
X171200000Y-97200000D02*
X171200000Y-96125000D01*
X171200000Y-96125000D02*
X172825000Y-94500000D01*
X176200000Y-104240000D02*
X176160000Y-104200000D01*
X176200000Y-106500000D02*
X176200000Y-104240000D01*
X166300000Y-91700000D02*
X169700000Y-91700000D01*
X169700000Y-91700000D02*
X169800000Y-91600000D01*
X171249798Y-108400000D02*
X172954699Y-110104901D01*
X145896529Y-108400000D02*
X171249798Y-108400000D01*
X145896529Y-108400000D02*
X146552000Y-107744529D01*
X139445302Y-108400000D02*
X145896529Y-108400000D01*
X138445301Y-107399999D02*
X139445302Y-108400000D01*
X146552000Y-107744529D02*
X146552000Y-106500000D01*
D14*
X151900000Y-100500000D02*
X150360000Y-100500000D01*
X151900000Y-104200000D02*
X151900000Y-100500000D01*
X148900000Y-104200000D02*
X151900000Y-104200000D01*
X150360000Y-100500000D02*
X150350000Y-100510000D01*
D17*
X145600000Y-107800000D02*
X145648000Y-107800000D01*
X145098000Y-107298000D02*
X145600000Y-107800000D01*
X145098000Y-104394117D02*
X145098000Y-107298000D01*
D14*
X145600000Y-103600000D02*
X145648000Y-103648000D01*
D17*
X145648000Y-103648000D02*
X145648000Y-106500000D01*
D16*
X137421000Y-99921000D02*
X138400000Y-100900000D01*
X137421000Y-97879000D02*
X137421000Y-99921000D01*
X138400000Y-96900000D02*
X137421000Y-97879000D01*
X137414600Y-95914600D02*
X138400000Y-96900000D01*
X138400000Y-90299999D02*
X137414600Y-91285399D01*
X137414600Y-91285399D02*
X137414600Y-95914600D01*
X173804000Y-93479000D02*
X173804000Y-95521000D01*
X172825000Y-92500000D02*
X173804000Y-93479000D01*
X173804000Y-95521000D02*
X172825000Y-96500000D01*
X170624999Y-90299999D02*
X172825000Y-92500000D01*
X138400000Y-90299999D02*
X170624999Y-90299999D01*
G04 #@! TA.AperFunction,Conductor*
G36*
X170507355Y-90644406D02*
G01*
X170519168Y-90654495D01*
X171991077Y-92126404D01*
X172018854Y-92180921D01*
X172015227Y-92227000D01*
X171984569Y-92321361D01*
X171970327Y-92456865D01*
X171965793Y-92500000D01*
X171984569Y-92678640D01*
X171984590Y-92678705D01*
X172040075Y-92849471D01*
X172040076Y-92849473D01*
X172040077Y-92849475D01*
X172040077Y-92849476D01*
X172116545Y-92981920D01*
X172129887Y-93005029D01*
X172250078Y-93138515D01*
X172395396Y-93244095D01*
X172395401Y-93244097D01*
X172395406Y-93244100D01*
X172558477Y-93316703D01*
X172559490Y-93317154D01*
X172735188Y-93354500D01*
X172735191Y-93354500D01*
X172914809Y-93354500D01*
X172914812Y-93354500D01*
X173090510Y-93317154D01*
X173091524Y-93316702D01*
X173092076Y-93316644D01*
X173095441Y-93315551D01*
X173095673Y-93316265D01*
X173152368Y-93310297D01*
X173201806Y-93337133D01*
X173449504Y-93584831D01*
X173477281Y-93639348D01*
X173478500Y-93654835D01*
X173478500Y-93724277D01*
X173459593Y-93782468D01*
X173410093Y-93818432D01*
X173348907Y-93818432D01*
X173321312Y-93804371D01*
X173254604Y-93755905D01*
X173254600Y-93755903D01*
X173254593Y-93755899D01*
X173090516Y-93682848D01*
X173090511Y-93682846D01*
X173090510Y-93682846D01*
X173090507Y-93682845D01*
X173090506Y-93682845D01*
X173057089Y-93675742D01*
X172914812Y-93645500D01*
X172735188Y-93645500D01*
X172641195Y-93665479D01*
X172559493Y-93682845D01*
X172559487Y-93682847D01*
X172395403Y-93755901D01*
X172395395Y-93755906D01*
X172250078Y-93861484D01*
X172129886Y-93994972D01*
X172040077Y-94150523D01*
X172040077Y-94150524D01*
X171984569Y-94321359D01*
X171984569Y-94321361D01*
X171965793Y-94500000D01*
X171984569Y-94678639D01*
X172002411Y-94733552D01*
X172023898Y-94799684D01*
X172023897Y-94860869D01*
X171999747Y-94900280D01*
X171015489Y-95884540D01*
X171015488Y-95884539D01*
X170959539Y-95940489D01*
X170919980Y-96009007D01*
X170919978Y-96009011D01*
X170899500Y-96085435D01*
X170899500Y-96779849D01*
X170880593Y-96838040D01*
X170854024Y-96863133D01*
X170768872Y-96917857D01*
X170674622Y-97026628D01*
X170614834Y-97157543D01*
X170594353Y-97299997D01*
X170594353Y-97300002D01*
X170614834Y-97442456D01*
X170674622Y-97573371D01*
X170674623Y-97573373D01*
X170741744Y-97650835D01*
X170768873Y-97682144D01*
X170889942Y-97759950D01*
X170889947Y-97759953D01*
X170996403Y-97791211D01*
X171028035Y-97800499D01*
X171028036Y-97800499D01*
X171028039Y-97800500D01*
X171028041Y-97800500D01*
X171171959Y-97800500D01*
X171171961Y-97800500D01*
X171310053Y-97759953D01*
X171431128Y-97682143D01*
X171525377Y-97573373D01*
X171585165Y-97442457D01*
X171597811Y-97354500D01*
X171605647Y-97300002D01*
X171605647Y-97299997D01*
X171585165Y-97157543D01*
X171525377Y-97026628D01*
X171525377Y-97026627D01*
X171524679Y-97025821D01*
X171524332Y-97025001D01*
X171521549Y-97020670D01*
X171522298Y-97020188D01*
X171500863Y-96969461D01*
X171500500Y-96960992D01*
X171500500Y-96290477D01*
X171519407Y-96232286D01*
X171529484Y-96220486D01*
X171801498Y-95948471D01*
X171856013Y-95920696D01*
X171916445Y-95930267D01*
X171959710Y-95973532D01*
X171970500Y-96018477D01*
X171970500Y-97173746D01*
X171970501Y-97173758D01*
X171982132Y-97232227D01*
X171982134Y-97232233D01*
X172023522Y-97294173D01*
X172026448Y-97298552D01*
X172092769Y-97342867D01*
X172125417Y-97349361D01*
X172151241Y-97354498D01*
X172151246Y-97354498D01*
X172151252Y-97354500D01*
X173178165Y-97354500D01*
X173236356Y-97373407D01*
X173248169Y-97383496D01*
X173445504Y-97580831D01*
X173473281Y-97635348D01*
X173474500Y-97650835D01*
X173474500Y-102774436D01*
X173455593Y-102832627D01*
X173450320Y-102839267D01*
X173374622Y-102926628D01*
X173314834Y-103057543D01*
X173294353Y-103199997D01*
X173294353Y-103200002D01*
X173314834Y-103342456D01*
X173374623Y-103473373D01*
X173428602Y-103535669D01*
X173452420Y-103592028D01*
X173438561Y-103651624D01*
X173392320Y-103691691D01*
X173353783Y-103699500D01*
X156165479Y-103699500D01*
X156107288Y-103680593D01*
X156095475Y-103670504D01*
X153598344Y-101173373D01*
X151084511Y-98659540D01*
X151072859Y-98652813D01*
X151036802Y-98631996D01*
X151015988Y-98619978D01*
X150939564Y-98599500D01*
X150939562Y-98599500D01*
X139270357Y-98599500D01*
X139212166Y-98580593D01*
X139184621Y-98550001D01*
X139105149Y-98412354D01*
X139095113Y-98394971D01*
X138974922Y-98261485D01*
X138829604Y-98155905D01*
X138829600Y-98155903D01*
X138829593Y-98155899D01*
X138665516Y-98082848D01*
X138665511Y-98082846D01*
X138665510Y-98082846D01*
X138665507Y-98082845D01*
X138665506Y-98082845D01*
X138632089Y-98075742D01*
X138489812Y-98045500D01*
X138310188Y-98045500D01*
X138198153Y-98069313D01*
X138134493Y-98082845D01*
X138134487Y-98082847D01*
X137970403Y-98155901D01*
X137970395Y-98155906D01*
X137903690Y-98204370D01*
X137845499Y-98223277D01*
X137787309Y-98204369D01*
X137751345Y-98154869D01*
X137746500Y-98124277D01*
X137746500Y-98054835D01*
X137765407Y-97996644D01*
X137775496Y-97984831D01*
X137976831Y-97783496D01*
X138031348Y-97755719D01*
X138046835Y-97754500D01*
X139073747Y-97754500D01*
X139073748Y-97754500D01*
X139132231Y-97742867D01*
X139198552Y-97698552D01*
X139242867Y-97632231D01*
X139254500Y-97573748D01*
X139254500Y-96226252D01*
X139253350Y-96220473D01*
X139251711Y-96212231D01*
X139242867Y-96167769D01*
X139198552Y-96101448D01*
X139198548Y-96101445D01*
X139132233Y-96057134D01*
X139132231Y-96057133D01*
X139132228Y-96057132D01*
X139132227Y-96057132D01*
X139073758Y-96045501D01*
X139073748Y-96045500D01*
X139073747Y-96045500D01*
X138046835Y-96045500D01*
X137988644Y-96026593D01*
X137976831Y-96016504D01*
X137769096Y-95808769D01*
X137741319Y-95754252D01*
X137740100Y-95738765D01*
X137740100Y-93433152D01*
X137759007Y-93374961D01*
X137808507Y-93338997D01*
X137869693Y-93338997D01*
X137876231Y-93341670D01*
X137876281Y-93341543D01*
X138081083Y-93420884D01*
X138292473Y-93460400D01*
X138507527Y-93460400D01*
X138718916Y-93420884D01*
X138919449Y-93343196D01*
X139102293Y-93229985D01*
X139147421Y-93188844D01*
X138607847Y-92649269D01*
X138649536Y-92625201D01*
X138725201Y-92549536D01*
X138749270Y-92507847D01*
X139289318Y-93047895D01*
X139390816Y-92913490D01*
X139390821Y-92913481D01*
X139486675Y-92720981D01*
X139545527Y-92514137D01*
X139565370Y-92300000D01*
X139545527Y-92085862D01*
X139486675Y-91879018D01*
X139397533Y-91699997D01*
X165794353Y-91699997D01*
X165794353Y-91700002D01*
X165814834Y-91842456D01*
X165874622Y-91973371D01*
X165874623Y-91973373D01*
X165968870Y-92082141D01*
X165968873Y-92082144D01*
X166089942Y-92159950D01*
X166089947Y-92159953D01*
X166173122Y-92184375D01*
X166228035Y-92200499D01*
X166228036Y-92200499D01*
X166228039Y-92200500D01*
X166228041Y-92200500D01*
X166371959Y-92200500D01*
X166371961Y-92200500D01*
X166510053Y-92159953D01*
X166631128Y-92082143D01*
X166672264Y-92034668D01*
X166724660Y-92003073D01*
X166747083Y-92000500D01*
X169468368Y-92000500D01*
X169521889Y-92016215D01*
X169589947Y-92059953D01*
X169665527Y-92082145D01*
X169728035Y-92100499D01*
X169728036Y-92100499D01*
X169728039Y-92100500D01*
X169728041Y-92100500D01*
X169871959Y-92100500D01*
X169871961Y-92100500D01*
X170010053Y-92059953D01*
X170131128Y-91982143D01*
X170225377Y-91873373D01*
X170285165Y-91742457D01*
X170293736Y-91682845D01*
X170305647Y-91600002D01*
X170305647Y-91599997D01*
X170285165Y-91457543D01*
X170268123Y-91420226D01*
X170225377Y-91326627D01*
X170131128Y-91217857D01*
X170131127Y-91217856D01*
X170131126Y-91217855D01*
X170010057Y-91140049D01*
X170010054Y-91140047D01*
X170010053Y-91140047D01*
X170010050Y-91140046D01*
X169871964Y-91099500D01*
X169871961Y-91099500D01*
X169728039Y-91099500D01*
X169728035Y-91099500D01*
X169589949Y-91140046D01*
X169589942Y-91140049D01*
X169468873Y-91217855D01*
X169374622Y-91326628D01*
X169367774Y-91341625D01*
X169326403Y-91386703D01*
X169277720Y-91399500D01*
X166747083Y-91399500D01*
X166688892Y-91380593D01*
X166672264Y-91365331D01*
X166662879Y-91354500D01*
X166631128Y-91317857D01*
X166598182Y-91296684D01*
X166510057Y-91240049D01*
X166510054Y-91240047D01*
X166510053Y-91240047D01*
X166510050Y-91240046D01*
X166371964Y-91199500D01*
X166371961Y-91199500D01*
X166228039Y-91199500D01*
X166228035Y-91199500D01*
X166089949Y-91240046D01*
X166089942Y-91240049D01*
X165968873Y-91317855D01*
X165874622Y-91426628D01*
X165814834Y-91557543D01*
X165794353Y-91699997D01*
X139397533Y-91699997D01*
X139390821Y-91686518D01*
X139390816Y-91686509D01*
X139289317Y-91552104D01*
X138749269Y-92092151D01*
X138725201Y-92050464D01*
X138649536Y-91974799D01*
X138607846Y-91950729D01*
X139147421Y-91411154D01*
X139102292Y-91370013D01*
X139102291Y-91370012D01*
X138919456Y-91256806D01*
X138919445Y-91256800D01*
X138845680Y-91228223D01*
X138798249Y-91189571D01*
X138782596Y-91130422D01*
X138804699Y-91073369D01*
X138828750Y-91052891D01*
X138828623Y-91052716D01*
X138830904Y-91051058D01*
X138831948Y-91050170D01*
X138832809Y-91049672D01*
X138832821Y-91049667D01*
X138979228Y-90943296D01*
X139100319Y-90808811D01*
X139141363Y-90737719D01*
X139177576Y-90674999D01*
X139223045Y-90634058D01*
X139263312Y-90625499D01*
X170449164Y-90625499D01*
X170507355Y-90644406D01*
G37*
G04 #@! TD.AperFunction*
G04 #@! TA.AperFunction,Conductor*
G36*
X174105951Y-88719407D02*
G01*
X174141915Y-88768907D01*
X174144857Y-88818812D01*
X174129738Y-88894820D01*
X174124500Y-88921157D01*
X174124500Y-89078844D01*
X174155263Y-89233496D01*
X174155263Y-89233498D01*
X174215603Y-89379174D01*
X174215609Y-89379185D01*
X174255643Y-89439099D01*
X174303211Y-89510289D01*
X174414711Y-89621789D01*
X174492876Y-89674017D01*
X174545814Y-89709390D01*
X174545825Y-89709396D01*
X174599638Y-89731685D01*
X174691503Y-89769737D01*
X174846158Y-89800500D01*
X174846159Y-89800500D01*
X175003841Y-89800500D01*
X175003842Y-89800500D01*
X175158497Y-89769737D01*
X175304179Y-89709394D01*
X175435289Y-89621789D01*
X175546789Y-89510289D01*
X175634394Y-89379179D01*
X175694737Y-89233497D01*
X175725500Y-89078842D01*
X175725500Y-88921158D01*
X175705142Y-88818813D01*
X175712334Y-88758053D01*
X175753866Y-88713123D01*
X175802240Y-88700500D01*
X180800500Y-88700500D01*
X180858691Y-88719407D01*
X180894655Y-88768907D01*
X180899500Y-88799500D01*
X180899500Y-111800500D01*
X180880593Y-111858691D01*
X180831093Y-111894655D01*
X180800500Y-111899500D01*
X130499500Y-111899500D01*
X130441309Y-111880593D01*
X130405345Y-111831093D01*
X130400500Y-111800500D01*
X130400500Y-109400000D01*
X137579659Y-109400000D01*
X137598576Y-109579982D01*
X137654496Y-109752083D01*
X137654502Y-109752097D01*
X137682239Y-109800138D01*
X137744982Y-109908812D01*
X137866073Y-110043297D01*
X138012480Y-110149668D01*
X138012485Y-110149670D01*
X138012490Y-110149673D01*
X138177796Y-110223271D01*
X138177803Y-110223274D01*
X138354817Y-110260900D01*
X138354820Y-110260900D01*
X138535782Y-110260900D01*
X138535785Y-110260900D01*
X138712799Y-110223274D01*
X138878122Y-110149668D01*
X139024529Y-110043297D01*
X139145620Y-109908812D01*
X139235683Y-109752817D01*
X139236099Y-109752097D01*
X139236099Y-109752095D01*
X139236104Y-109752088D01*
X139292027Y-109579977D01*
X139310943Y-109400000D01*
X139292027Y-109220023D01*
X139236104Y-109047912D01*
X139236101Y-109047907D01*
X139236099Y-109047902D01*
X139188697Y-108965800D01*
X139145620Y-108891188D01*
X139024529Y-108756703D01*
X138878122Y-108650332D01*
X138878118Y-108650330D01*
X138878111Y-108650326D01*
X138712805Y-108576728D01*
X138712800Y-108576726D01*
X138712799Y-108576726D01*
X138712796Y-108576725D01*
X138712795Y-108576725D01*
X138679129Y-108569569D01*
X138535785Y-108539100D01*
X138354817Y-108539100D01*
X138241942Y-108563092D01*
X138177806Y-108576725D01*
X138177796Y-108576728D01*
X138012490Y-108650326D01*
X138012483Y-108650330D01*
X137866071Y-108756704D01*
X137792131Y-108838823D01*
X137744982Y-108891188D01*
X137744980Y-108891190D01*
X137744980Y-108891191D01*
X137654502Y-109047902D01*
X137654496Y-109047916D01*
X137598576Y-109220017D01*
X137598575Y-109220021D01*
X137598575Y-109220023D01*
X137592100Y-109281629D01*
X137579659Y-109400000D01*
X130400500Y-109400000D01*
X130400500Y-104321155D01*
X135499500Y-104321155D01*
X135499500Y-104478844D01*
X135520008Y-104581945D01*
X135529076Y-104627532D01*
X135530263Y-104633496D01*
X135530263Y-104633498D01*
X135590603Y-104779174D01*
X135590609Y-104779185D01*
X135631103Y-104839787D01*
X135678211Y-104910289D01*
X135789711Y-105021789D01*
X135867876Y-105074017D01*
X135920814Y-105109390D01*
X135920825Y-105109396D01*
X135974638Y-105131685D01*
X136066503Y-105169737D01*
X136221158Y-105200500D01*
X136221159Y-105200500D01*
X136378841Y-105200500D01*
X136378842Y-105200500D01*
X136533497Y-105169737D01*
X136679179Y-105109394D01*
X136810289Y-105021789D01*
X136921789Y-104910289D01*
X137009394Y-104779179D01*
X137069737Y-104633497D01*
X137100500Y-104478842D01*
X137100500Y-104321158D01*
X137069737Y-104166503D01*
X137009394Y-104020821D01*
X137009393Y-104020819D01*
X137009390Y-104020814D01*
X136958501Y-103944655D01*
X136921789Y-103889711D01*
X136810289Y-103778211D01*
X136753171Y-103740046D01*
X136679185Y-103690609D01*
X136679174Y-103690603D01*
X136533497Y-103630263D01*
X136378844Y-103599500D01*
X136378842Y-103599500D01*
X136221158Y-103599500D01*
X136221155Y-103599500D01*
X136066503Y-103630263D01*
X136066501Y-103630263D01*
X135920825Y-103690603D01*
X135920814Y-103690609D01*
X135789711Y-103778211D01*
X135789707Y-103778214D01*
X135678214Y-103889707D01*
X135678211Y-103889711D01*
X135590609Y-104020814D01*
X135590603Y-104020825D01*
X135530263Y-104166501D01*
X135530263Y-104166503D01*
X135499500Y-104321155D01*
X130400500Y-104321155D01*
X130400500Y-95321155D01*
X135499500Y-95321155D01*
X135499500Y-95478844D01*
X135530263Y-95633496D01*
X135530263Y-95633498D01*
X135590603Y-95779174D01*
X135590609Y-95779185D01*
X135610377Y-95808769D01*
X135678211Y-95910289D01*
X135789711Y-96021789D01*
X135867876Y-96074017D01*
X135920814Y-96109390D01*
X135920825Y-96109396D01*
X135933044Y-96114457D01*
X136066503Y-96169737D01*
X136221158Y-96200500D01*
X136221159Y-96200500D01*
X136378841Y-96200500D01*
X136378842Y-96200500D01*
X136533497Y-96169737D01*
X136679179Y-96109394D01*
X136810289Y-96021789D01*
X136921789Y-95910289D01*
X136921790Y-95910288D01*
X136922526Y-95909552D01*
X136977043Y-95881774D01*
X137037475Y-95891345D01*
X137080739Y-95934610D01*
X137088157Y-95953932D01*
X137089100Y-95957451D01*
X137089100Y-95957453D01*
X137102914Y-96009007D01*
X137111283Y-96040243D01*
X137154131Y-96114457D01*
X137154133Y-96114459D01*
X137154135Y-96114462D01*
X137516505Y-96476832D01*
X137544281Y-96531347D01*
X137545500Y-96546834D01*
X137545500Y-97253165D01*
X137526593Y-97311356D01*
X137516504Y-97323168D01*
X137160535Y-97679137D01*
X137160531Y-97679142D01*
X137117683Y-97753356D01*
X137105281Y-97799641D01*
X137095500Y-97836147D01*
X137095500Y-99878147D01*
X137095500Y-99963853D01*
X137107731Y-100009500D01*
X137117683Y-100046643D01*
X137160531Y-100120857D01*
X137160535Y-100120862D01*
X137566077Y-100526405D01*
X137593854Y-100580921D01*
X137590227Y-100627000D01*
X137559569Y-100721361D01*
X137540793Y-100900000D01*
X137559569Y-101078639D01*
X137615075Y-101249471D01*
X137615076Y-101249473D01*
X137615077Y-101249475D01*
X137615077Y-101249476D01*
X137678862Y-101359953D01*
X137704887Y-101405029D01*
X137825078Y-101538515D01*
X137970396Y-101644095D01*
X137970401Y-101644097D01*
X137970406Y-101644100D01*
X138134483Y-101717151D01*
X138134490Y-101717154D01*
X138310188Y-101754500D01*
X138310191Y-101754500D01*
X138489809Y-101754500D01*
X138489812Y-101754500D01*
X138665510Y-101717154D01*
X138829604Y-101644095D01*
X138974922Y-101538515D01*
X139095113Y-101405029D01*
X139184925Y-101249471D01*
X139240431Y-101078639D01*
X139259207Y-100900000D01*
X139240431Y-100721361D01*
X139184925Y-100550529D01*
X139161954Y-100510743D01*
X139124635Y-100446105D01*
X139095113Y-100394971D01*
X138974922Y-100261485D01*
X138829604Y-100155905D01*
X138829600Y-100155903D01*
X138829593Y-100155899D01*
X138665516Y-100082848D01*
X138665511Y-100082846D01*
X138665510Y-100082846D01*
X138665507Y-100082845D01*
X138665506Y-100082845D01*
X138632089Y-100075742D01*
X138489812Y-100045500D01*
X138310188Y-100045500D01*
X138228493Y-100062865D01*
X138134483Y-100082847D01*
X138133449Y-100083308D01*
X138132883Y-100083367D01*
X138129554Y-100084449D01*
X138129323Y-100083740D01*
X138072598Y-100089694D01*
X138023192Y-100062865D01*
X137775496Y-99815169D01*
X137747719Y-99760652D01*
X137746500Y-99745165D01*
X137746500Y-99675722D01*
X137765407Y-99617531D01*
X137814907Y-99581567D01*
X137876093Y-99581567D01*
X137903687Y-99595628D01*
X137970396Y-99644095D01*
X137970401Y-99644097D01*
X137970406Y-99644100D01*
X138134483Y-99717151D01*
X138134490Y-99717154D01*
X138310188Y-99754500D01*
X138310191Y-99754500D01*
X138489809Y-99754500D01*
X138489812Y-99754500D01*
X138665510Y-99717154D01*
X138829604Y-99644095D01*
X138974922Y-99538515D01*
X139095113Y-99405029D01*
X139146855Y-99315409D01*
X139184621Y-99249999D01*
X139230091Y-99209059D01*
X139270357Y-99200500D01*
X150734521Y-99200500D01*
X150792712Y-99219407D01*
X150804525Y-99229496D01*
X151655525Y-100080496D01*
X151683302Y-100135013D01*
X151673731Y-100195445D01*
X151630466Y-100238710D01*
X151585521Y-100249500D01*
X150831743Y-100249500D01*
X150773552Y-100230593D01*
X150756928Y-100215335D01*
X150681128Y-100127857D01*
X150681127Y-100127856D01*
X150681126Y-100127855D01*
X150560057Y-100050049D01*
X150560054Y-100050047D01*
X150560053Y-100050047D01*
X150560050Y-100050046D01*
X150421964Y-100009500D01*
X150421961Y-100009500D01*
X150278039Y-100009500D01*
X150278035Y-100009500D01*
X150139949Y-100050046D01*
X150139942Y-100050049D01*
X150018873Y-100127855D01*
X149924622Y-100236628D01*
X149864834Y-100367543D01*
X149844353Y-100509997D01*
X149844353Y-100510002D01*
X149864834Y-100652456D01*
X149912827Y-100757543D01*
X149924623Y-100783373D01*
X149981922Y-100849500D01*
X150018873Y-100892144D01*
X150139942Y-100969950D01*
X150139947Y-100969953D01*
X150246403Y-101001211D01*
X150278035Y-101010499D01*
X150278036Y-101010499D01*
X150278039Y-101010500D01*
X150278041Y-101010500D01*
X150421959Y-101010500D01*
X150421961Y-101010500D01*
X150560053Y-100969953D01*
X150681128Y-100892143D01*
X150774255Y-100784667D01*
X150826649Y-100753073D01*
X150849073Y-100750500D01*
X151550500Y-100750500D01*
X151608691Y-100769407D01*
X151644655Y-100818907D01*
X151649500Y-100849500D01*
X151649500Y-103850500D01*
X151630593Y-103908691D01*
X151581093Y-103944655D01*
X151550500Y-103949500D01*
X149390408Y-103949500D01*
X149332217Y-103930593D01*
X149315593Y-103915335D01*
X149231128Y-103817857D01*
X149231127Y-103817856D01*
X149231126Y-103817855D01*
X149110057Y-103740049D01*
X149110054Y-103740047D01*
X149110053Y-103740047D01*
X149110050Y-103740046D01*
X148971964Y-103699500D01*
X148971961Y-103699500D01*
X148828039Y-103699500D01*
X148828035Y-103699500D01*
X148689949Y-103740046D01*
X148689942Y-103740049D01*
X148568873Y-103817855D01*
X148474622Y-103926628D01*
X148414834Y-104057543D01*
X148394353Y-104199997D01*
X148394353Y-104200004D01*
X148414047Y-104336989D01*
X148403613Y-104397278D01*
X148359735Y-104439920D01*
X148299172Y-104448627D01*
X148246053Y-104421082D01*
X146484511Y-102659540D01*
X146476581Y-102654962D01*
X146454921Y-102642456D01*
X146454920Y-102642456D01*
X146415988Y-102619978D01*
X146339564Y-102599500D01*
X146339562Y-102599500D01*
X139270357Y-102599500D01*
X139212166Y-102580593D01*
X139184621Y-102550001D01*
X139131501Y-102457998D01*
X139095113Y-102394971D01*
X138974922Y-102261485D01*
X138829604Y-102155905D01*
X138829600Y-102155903D01*
X138829593Y-102155899D01*
X138665516Y-102082848D01*
X138665511Y-102082846D01*
X138665510Y-102082846D01*
X138665507Y-102082845D01*
X138665506Y-102082845D01*
X138632089Y-102075742D01*
X138489812Y-102045500D01*
X138310188Y-102045500D01*
X138198153Y-102069313D01*
X138134493Y-102082845D01*
X138134487Y-102082847D01*
X137970403Y-102155901D01*
X137970395Y-102155906D01*
X137825078Y-102261484D01*
X137704886Y-102394972D01*
X137615077Y-102550523D01*
X137615077Y-102550524D01*
X137559569Y-102721359D01*
X137549807Y-102814240D01*
X137540793Y-102900000D01*
X137559569Y-103078639D01*
X137615075Y-103249471D01*
X137615076Y-103249473D01*
X137615077Y-103249475D01*
X137615077Y-103249476D01*
X137679878Y-103361712D01*
X137704887Y-103405029D01*
X137825078Y-103538515D01*
X137970396Y-103644095D01*
X137970401Y-103644097D01*
X137970406Y-103644100D01*
X138094544Y-103699369D01*
X138134490Y-103717154D01*
X138310188Y-103754500D01*
X138310191Y-103754500D01*
X138489809Y-103754500D01*
X138489812Y-103754500D01*
X138665510Y-103717154D01*
X138829604Y-103644095D01*
X138974922Y-103538515D01*
X139095113Y-103405029D01*
X139147053Y-103315066D01*
X139184621Y-103249999D01*
X139230091Y-103209059D01*
X139270357Y-103200500D01*
X145078176Y-103200500D01*
X145136367Y-103219407D01*
X145172331Y-103268907D01*
X145172331Y-103330093D01*
X145168229Y-103340627D01*
X145114834Y-103457543D01*
X145094353Y-103599997D01*
X145094353Y-103600002D01*
X145114833Y-103742454D01*
X145119874Y-103753491D01*
X145126848Y-103814278D01*
X145096761Y-103867555D01*
X145041105Y-103892972D01*
X145029820Y-103893617D01*
X145026035Y-103893617D01*
X144887949Y-103934163D01*
X144887942Y-103934166D01*
X144766873Y-104011972D01*
X144672622Y-104120745D01*
X144612834Y-104251660D01*
X144592353Y-104394114D01*
X144592353Y-104394119D01*
X144612834Y-104536573D01*
X144657098Y-104633496D01*
X144672623Y-104667490D01*
X144766872Y-104776260D01*
X144792023Y-104792423D01*
X144830754Y-104839787D01*
X144837500Y-104875707D01*
X144837500Y-107246183D01*
X144837500Y-107349817D01*
X144877159Y-107445561D01*
X144877162Y-107445564D01*
X145118530Y-107686933D01*
X145146307Y-107741449D01*
X145146519Y-107771023D01*
X145142353Y-107800002D01*
X145162834Y-107942456D01*
X145170560Y-107959373D01*
X145177535Y-108020160D01*
X145147449Y-108073437D01*
X145091793Y-108098855D01*
X145080507Y-108099500D01*
X139610781Y-108099500D01*
X139552590Y-108080593D01*
X139540777Y-108070504D01*
X139275631Y-107805358D01*
X139247854Y-107750841D01*
X139251480Y-107704762D01*
X139292027Y-107579976D01*
X139310943Y-107399999D01*
X139292027Y-107220022D01*
X139236104Y-107047911D01*
X139236101Y-107047906D01*
X139236099Y-107047901D01*
X139168870Y-106931458D01*
X139145620Y-106891187D01*
X139024529Y-106756702D01*
X138878122Y-106650331D01*
X138878118Y-106650329D01*
X138878111Y-106650325D01*
X138712805Y-106576727D01*
X138712800Y-106576725D01*
X138712799Y-106576725D01*
X138712796Y-106576724D01*
X138712795Y-106576724D01*
X138679129Y-106569568D01*
X138535785Y-106539099D01*
X138354817Y-106539099D01*
X138241942Y-106563091D01*
X138177806Y-106576724D01*
X138177796Y-106576727D01*
X138012490Y-106650325D01*
X138012483Y-106650329D01*
X137866071Y-106756703D01*
X137829430Y-106797398D01*
X137744982Y-106891187D01*
X137744980Y-106891189D01*
X137744980Y-106891190D01*
X137654502Y-107047901D01*
X137654496Y-107047915D01*
X137598576Y-107220016D01*
X137598575Y-107220020D01*
X137598575Y-107220022D01*
X137579659Y-107399999D01*
X137584447Y-107445559D01*
X137598576Y-107579981D01*
X137654496Y-107752082D01*
X137654502Y-107752096D01*
X137717100Y-107860518D01*
X137744982Y-107908811D01*
X137866073Y-108043296D01*
X138012480Y-108149667D01*
X138012485Y-108149669D01*
X138012490Y-108149672D01*
X138135085Y-108204254D01*
X138177803Y-108223273D01*
X138354817Y-108260899D01*
X138354820Y-108260899D01*
X138535782Y-108260899D01*
X138535785Y-108260899D01*
X138712799Y-108223273D01*
X138741149Y-108210650D01*
X138801994Y-108204254D01*
X138851418Y-108231087D01*
X139204842Y-108584511D01*
X139204841Y-108584511D01*
X139260791Y-108640460D01*
X139329309Y-108680019D01*
X139329313Y-108680021D01*
X139405737Y-108700499D01*
X139405739Y-108700500D01*
X139405740Y-108700500D01*
X139484864Y-108700500D01*
X145856967Y-108700500D01*
X145936091Y-108700500D01*
X171084319Y-108700500D01*
X171142510Y-108719407D01*
X171154323Y-108729496D01*
X172124368Y-109699541D01*
X172152145Y-109754058D01*
X172148519Y-109800137D01*
X172107973Y-109924924D01*
X172089057Y-110104901D01*
X172101498Y-110223274D01*
X172107974Y-110284883D01*
X172163894Y-110456984D01*
X172163900Y-110456998D01*
X172235784Y-110581504D01*
X172254380Y-110613713D01*
X172375471Y-110748198D01*
X172521878Y-110854569D01*
X172521883Y-110854571D01*
X172521888Y-110854574D01*
X172687194Y-110928172D01*
X172687201Y-110928175D01*
X172864215Y-110965801D01*
X172864218Y-110965801D01*
X173045180Y-110965801D01*
X173045183Y-110965801D01*
X173222197Y-110928175D01*
X173387520Y-110854569D01*
X173533927Y-110748198D01*
X173655018Y-110613713D01*
X173745502Y-110456989D01*
X173801425Y-110284878D01*
X173820341Y-110104901D01*
X173801425Y-109924924D01*
X173745502Y-109752813D01*
X173745499Y-109752808D01*
X173745497Y-109752803D01*
X173699013Y-109672291D01*
X173655018Y-109596089D01*
X173533927Y-109461604D01*
X173387520Y-109355233D01*
X173387516Y-109355231D01*
X173387509Y-109355227D01*
X173222203Y-109281629D01*
X173222198Y-109281627D01*
X173222197Y-109281627D01*
X173222194Y-109281626D01*
X173222193Y-109281626D01*
X173185426Y-109273811D01*
X173045183Y-109244001D01*
X172864215Y-109244001D01*
X172775708Y-109262814D01*
X172687198Y-109281627D01*
X172658849Y-109294249D01*
X172597998Y-109300643D01*
X172548580Y-109273811D01*
X171994176Y-108719407D01*
X171434309Y-108159540D01*
X171434306Y-108159538D01*
X171379769Y-108128050D01*
X171379766Y-108128050D01*
X171365787Y-108119979D01*
X171365783Y-108119978D01*
X171365779Y-108119976D01*
X171309515Y-108104900D01*
X172089057Y-108104900D01*
X172101498Y-108223273D01*
X172107974Y-108284882D01*
X172163894Y-108456983D01*
X172163900Y-108456997D01*
X172211303Y-108539100D01*
X172254380Y-108613712D01*
X172375471Y-108748197D01*
X172521878Y-108854568D01*
X172521883Y-108854570D01*
X172521888Y-108854573D01*
X172687194Y-108928171D01*
X172687201Y-108928174D01*
X172864215Y-108965800D01*
X172864218Y-108965800D01*
X173045180Y-108965800D01*
X173045183Y-108965800D01*
X173222197Y-108928174D01*
X173387520Y-108854568D01*
X173533927Y-108748197D01*
X173655018Y-108613712D01*
X173745502Y-108456988D01*
X173801425Y-108284877D01*
X173820341Y-108104900D01*
X173801425Y-107924923D01*
X173745502Y-107752812D01*
X173745499Y-107752807D01*
X173745497Y-107752802D01*
X173690499Y-107657543D01*
X173655018Y-107596088D01*
X173533927Y-107461603D01*
X173387520Y-107355232D01*
X173387516Y-107355230D01*
X173387509Y-107355226D01*
X173222203Y-107281628D01*
X173222198Y-107281626D01*
X173222197Y-107281626D01*
X173222194Y-107281625D01*
X173222193Y-107281625D01*
X173188527Y-107274469D01*
X173045183Y-107244000D01*
X172864215Y-107244000D01*
X172751340Y-107267992D01*
X172687204Y-107281625D01*
X172687194Y-107281628D01*
X172521888Y-107355226D01*
X172521881Y-107355230D01*
X172375469Y-107461604D01*
X172301529Y-107543723D01*
X172254380Y-107596088D01*
X172254378Y-107596090D01*
X172254378Y-107596091D01*
X172163900Y-107752802D01*
X172163894Y-107752816D01*
X172107974Y-107924917D01*
X172107973Y-107924921D01*
X172107973Y-107924923D01*
X172089057Y-108104900D01*
X171309515Y-108104900D01*
X171289362Y-108099500D01*
X171289360Y-108099500D01*
X146861007Y-108099500D01*
X146802816Y-108080593D01*
X146766852Y-108031093D01*
X146766852Y-107969907D01*
X146788665Y-107934310D01*
X146788509Y-107934190D01*
X146789652Y-107932699D01*
X146791001Y-107930498D01*
X146792460Y-107929040D01*
X146804139Y-107908811D01*
X146832021Y-107860518D01*
X146852500Y-107784091D01*
X146852500Y-106953893D01*
X146871407Y-106895702D01*
X146878741Y-106887711D01*
X146878491Y-106887494D01*
X146883128Y-106882143D01*
X146977377Y-106773373D01*
X147037165Y-106642457D01*
X147046616Y-106576724D01*
X147057647Y-106500002D01*
X147057647Y-106499997D01*
X147037165Y-106357543D01*
X146977377Y-106226627D01*
X146883128Y-106117857D01*
X146883127Y-106117856D01*
X146883126Y-106117855D01*
X146762057Y-106040049D01*
X146762054Y-106040047D01*
X146762053Y-106040047D01*
X146762050Y-106040046D01*
X146623964Y-105999500D01*
X146623961Y-105999500D01*
X146480039Y-105999500D01*
X146480035Y-105999500D01*
X146341949Y-106040046D01*
X146341942Y-106040049D01*
X146220872Y-106117856D01*
X146220870Y-106117858D01*
X146174819Y-106171004D01*
X146122423Y-106202600D01*
X146061462Y-106197364D01*
X146025181Y-106171004D01*
X145979130Y-106117858D01*
X145953974Y-106101691D01*
X145915245Y-106054324D01*
X145908500Y-106018408D01*
X145908500Y-104045182D01*
X145927407Y-103986991D01*
X145932681Y-103980351D01*
X145972700Y-103934166D01*
X146025377Y-103873373D01*
X146085165Y-103742457D01*
X146098225Y-103651624D01*
X146105647Y-103600002D01*
X146105647Y-103599997D01*
X146085165Y-103457543D01*
X146031771Y-103340627D01*
X146024796Y-103279840D01*
X146054882Y-103226563D01*
X146110538Y-103201145D01*
X146121824Y-103200500D01*
X146134521Y-103200500D01*
X146192712Y-103219407D01*
X146204525Y-103229496D01*
X148015489Y-105040460D01*
X148015491Y-105040461D01*
X148015492Y-105040462D01*
X148015493Y-105040463D01*
X148084008Y-105080020D01*
X148084006Y-105080020D01*
X148084010Y-105080021D01*
X148084012Y-105080022D01*
X148160438Y-105100500D01*
X148160440Y-105100500D01*
X173653778Y-105100500D01*
X173653778Y-105100499D01*
X173730204Y-105080021D01*
X173798726Y-105040460D01*
X173854675Y-104984511D01*
X174639189Y-104199997D01*
X175654353Y-104199997D01*
X175654353Y-104200002D01*
X175674834Y-104342456D01*
X175699871Y-104397278D01*
X175734623Y-104473373D01*
X175828872Y-104582143D01*
X175854023Y-104598306D01*
X175892754Y-104645670D01*
X175899500Y-104681590D01*
X175899500Y-106046105D01*
X175880593Y-106104296D01*
X175873258Y-106112289D01*
X175873509Y-106112506D01*
X175774622Y-106226628D01*
X175714834Y-106357543D01*
X175694353Y-106499997D01*
X175694353Y-106500002D01*
X175714834Y-106642456D01*
X175767010Y-106756703D01*
X175774623Y-106773373D01*
X175868871Y-106882142D01*
X175868873Y-106882144D01*
X175980517Y-106953893D01*
X175989947Y-106959953D01*
X176096403Y-106991211D01*
X176128035Y-107000499D01*
X176128036Y-107000499D01*
X176128039Y-107000500D01*
X176128041Y-107000500D01*
X176271959Y-107000500D01*
X176271961Y-107000500D01*
X176410053Y-106959953D01*
X176531128Y-106882143D01*
X176625377Y-106773373D01*
X176685165Y-106642457D01*
X176694616Y-106576724D01*
X176705647Y-106500002D01*
X176705647Y-106499997D01*
X176685165Y-106357543D01*
X176625377Y-106226627D01*
X176531128Y-106117857D01*
X176531127Y-106117856D01*
X176526491Y-106112506D01*
X176528524Y-106110743D01*
X176503067Y-106068505D01*
X176500500Y-106046105D01*
X176500500Y-104608251D01*
X176519407Y-104550060D01*
X176524681Y-104543420D01*
X176530614Y-104536573D01*
X176585377Y-104473373D01*
X176645165Y-104342457D01*
X176654142Y-104280019D01*
X176665647Y-104200002D01*
X176665647Y-104199997D01*
X176645165Y-104057543D01*
X176617372Y-103996685D01*
X176585377Y-103926627D01*
X176491128Y-103817857D01*
X176491127Y-103817856D01*
X176491126Y-103817855D01*
X176370057Y-103740049D01*
X176370054Y-103740047D01*
X176370053Y-103740047D01*
X176370050Y-103740046D01*
X176231964Y-103699500D01*
X176231961Y-103699500D01*
X176088039Y-103699500D01*
X176088035Y-103699500D01*
X175949949Y-103740046D01*
X175949942Y-103740049D01*
X175828873Y-103817855D01*
X175734622Y-103926628D01*
X175674834Y-104057543D01*
X175654353Y-104199997D01*
X174639189Y-104199997D01*
X175455596Y-103383590D01*
X175468258Y-103361658D01*
X175495157Y-103315068D01*
X175515636Y-103238641D01*
X175515636Y-102218575D01*
X175534543Y-102160384D01*
X175541877Y-102152393D01*
X175541627Y-102152176D01*
X175546264Y-102146825D01*
X175640513Y-102038055D01*
X175700301Y-101907139D01*
X175720783Y-101764682D01*
X175700301Y-101622225D01*
X175640513Y-101491309D01*
X175546264Y-101382539D01*
X175546263Y-101382538D01*
X175546262Y-101382537D01*
X175425193Y-101304731D01*
X175425190Y-101304729D01*
X175425189Y-101304729D01*
X175425186Y-101304728D01*
X175287100Y-101264182D01*
X175287097Y-101264182D01*
X175143175Y-101264182D01*
X175143171Y-101264182D01*
X175051753Y-101291025D01*
X174990592Y-101289277D01*
X174942140Y-101251914D01*
X174924902Y-101193207D01*
X174933808Y-101154911D01*
X174985165Y-101042457D01*
X175005647Y-100900000D01*
X175004517Y-100892144D01*
X174985165Y-100757543D01*
X174937173Y-100652457D01*
X174925377Y-100626627D01*
X174831128Y-100517857D01*
X174831127Y-100517856D01*
X174826491Y-100512506D01*
X174828524Y-100510743D01*
X174803067Y-100468505D01*
X174800500Y-100446105D01*
X174800500Y-99863270D01*
X174819407Y-99805079D01*
X174829490Y-99793272D01*
X176065460Y-98557303D01*
X176092603Y-98510289D01*
X176105021Y-98488781D01*
X176125500Y-98412354D01*
X176125500Y-93460438D01*
X176118991Y-93436147D01*
X176105022Y-93384012D01*
X176065460Y-93315489D01*
X173650252Y-90900281D01*
X173622475Y-90845764D01*
X173626101Y-90799685D01*
X173665431Y-90678639D01*
X173684207Y-90500000D01*
X173665431Y-90321361D01*
X173609925Y-90150529D01*
X173520113Y-89994971D01*
X173399922Y-89861485D01*
X173254604Y-89755905D01*
X173254600Y-89755903D01*
X173254593Y-89755899D01*
X173090516Y-89682848D01*
X173090511Y-89682846D01*
X173090510Y-89682846D01*
X173090507Y-89682845D01*
X173090506Y-89682845D01*
X173057089Y-89675742D01*
X172914812Y-89645500D01*
X172735188Y-89645500D01*
X172623153Y-89669313D01*
X172559493Y-89682845D01*
X172559487Y-89682847D01*
X172395403Y-89755901D01*
X172395395Y-89755906D01*
X172250078Y-89861484D01*
X172129886Y-89994972D01*
X172040077Y-90150523D01*
X172040077Y-90150524D01*
X171984569Y-90321359D01*
X171965793Y-90500000D01*
X171984569Y-90678640D01*
X171984580Y-90678673D01*
X172040075Y-90849471D01*
X172040076Y-90849473D01*
X172040077Y-90849475D01*
X172040077Y-90849476D01*
X172069410Y-90900281D01*
X172129887Y-91005029D01*
X172250078Y-91138515D01*
X172395396Y-91244095D01*
X172395401Y-91244097D01*
X172395406Y-91244100D01*
X172559483Y-91317151D01*
X172559490Y-91317154D01*
X172735188Y-91354500D01*
X172735191Y-91354500D01*
X172914809Y-91354500D01*
X172914812Y-91354500D01*
X173090510Y-91317154D01*
X173116001Y-91305804D01*
X173176846Y-91299408D01*
X173226270Y-91326241D01*
X175495504Y-93595475D01*
X175523281Y-93649992D01*
X175524500Y-93665479D01*
X175524500Y-97252603D01*
X175505593Y-97310794D01*
X175456093Y-97346758D01*
X175394907Y-97346758D01*
X175370499Y-97334919D01*
X175304183Y-97290608D01*
X175304174Y-97290603D01*
X175158497Y-97230263D01*
X175003844Y-97199500D01*
X175003842Y-97199500D01*
X174846158Y-97199500D01*
X174846155Y-97199500D01*
X174691503Y-97230263D01*
X174691501Y-97230263D01*
X174545825Y-97290603D01*
X174545814Y-97290609D01*
X174414711Y-97378211D01*
X174414707Y-97378214D01*
X174303208Y-97489713D01*
X174301032Y-97492366D01*
X174249503Y-97525357D01*
X174188424Y-97521759D01*
X174141124Y-97482947D01*
X174128072Y-97438353D01*
X174126347Y-97438581D01*
X174125500Y-97432154D01*
X174125500Y-97432147D01*
X174103318Y-97349362D01*
X174103318Y-97349361D01*
X174103318Y-97349360D01*
X174060468Y-97275142D01*
X174060464Y-97275137D01*
X173708496Y-96923168D01*
X173680719Y-96868652D01*
X173679500Y-96853165D01*
X173679500Y-96146834D01*
X173698407Y-96088643D01*
X173708490Y-96076836D01*
X174064465Y-95720862D01*
X174107318Y-95646639D01*
X174129500Y-95563853D01*
X174129500Y-95478147D01*
X174129500Y-93436147D01*
X174129499Y-93436145D01*
X174107318Y-93353361D01*
X174107318Y-93353360D01*
X174064468Y-93279142D01*
X174064464Y-93279137D01*
X173658922Y-92873594D01*
X173631145Y-92819078D01*
X173634772Y-92772998D01*
X173656411Y-92706400D01*
X173665431Y-92678639D01*
X173684207Y-92500000D01*
X173665431Y-92321361D01*
X173609925Y-92150529D01*
X173595996Y-92126404D01*
X173569899Y-92081203D01*
X173520113Y-91994971D01*
X173399922Y-91861485D01*
X173254604Y-91755905D01*
X173254600Y-91755903D01*
X173254593Y-91755899D01*
X173090516Y-91682848D01*
X173090511Y-91682846D01*
X173090510Y-91682846D01*
X173090507Y-91682845D01*
X173090506Y-91682845D01*
X173057089Y-91675742D01*
X172914812Y-91645500D01*
X172735188Y-91645500D01*
X172653493Y-91662865D01*
X172559483Y-91682847D01*
X172558449Y-91683308D01*
X172557883Y-91683367D01*
X172554554Y-91684449D01*
X172554323Y-91683740D01*
X172497598Y-91689694D01*
X172448192Y-91662865D01*
X171641443Y-90856116D01*
X170824861Y-90039534D01*
X170824858Y-90039532D01*
X170824857Y-90039531D01*
X170824856Y-90039530D01*
X170750641Y-89996682D01*
X170750643Y-89996682D01*
X170718520Y-89988075D01*
X170667852Y-89974499D01*
X170667850Y-89974499D01*
X139263312Y-89974499D01*
X139205121Y-89955592D01*
X139177576Y-89924999D01*
X139130285Y-89843090D01*
X139100319Y-89791187D01*
X138979228Y-89656702D01*
X138832821Y-89550331D01*
X138832817Y-89550329D01*
X138832810Y-89550325D01*
X138667504Y-89476727D01*
X138667499Y-89476725D01*
X138667498Y-89476725D01*
X138667495Y-89476724D01*
X138667494Y-89476724D01*
X138633828Y-89469568D01*
X138490484Y-89439099D01*
X138309516Y-89439099D01*
X138196641Y-89463091D01*
X138132505Y-89476724D01*
X138132495Y-89476727D01*
X137967189Y-89550325D01*
X137967182Y-89550329D01*
X137820770Y-89656703D01*
X137773326Y-89709396D01*
X137699681Y-89791187D01*
X137699679Y-89791189D01*
X137699679Y-89791190D01*
X137609201Y-89947901D01*
X137609195Y-89947915D01*
X137553275Y-90120016D01*
X137553274Y-90120020D01*
X137553274Y-90120022D01*
X137550068Y-90150524D01*
X137534358Y-90299999D01*
X137553274Y-90479978D01*
X137585149Y-90578078D01*
X137585148Y-90639263D01*
X137560998Y-90678673D01*
X137154135Y-91085536D01*
X137154131Y-91085541D01*
X137111283Y-91159756D01*
X137111282Y-91159758D01*
X137100633Y-91199498D01*
X137100634Y-91199499D01*
X137089100Y-91242546D01*
X137089100Y-94818014D01*
X137070193Y-94876205D01*
X137020693Y-94912169D01*
X136959507Y-94912169D01*
X136920096Y-94888018D01*
X136810292Y-94778214D01*
X136810289Y-94778211D01*
X136758059Y-94743312D01*
X136679185Y-94690609D01*
X136679174Y-94690603D01*
X136533497Y-94630263D01*
X136378844Y-94599500D01*
X136378842Y-94599500D01*
X136221158Y-94599500D01*
X136221155Y-94599500D01*
X136066503Y-94630263D01*
X136066501Y-94630263D01*
X135920825Y-94690603D01*
X135920814Y-94690609D01*
X135789711Y-94778211D01*
X135789707Y-94778214D01*
X135678214Y-94889707D01*
X135678211Y-94889711D01*
X135590609Y-95020814D01*
X135590603Y-95020825D01*
X135530263Y-95166501D01*
X135530263Y-95166503D01*
X135499500Y-95321155D01*
X130400500Y-95321155D01*
X130400500Y-88799500D01*
X130419407Y-88741309D01*
X130468907Y-88705345D01*
X130499500Y-88700500D01*
X174047760Y-88700500D01*
X174105951Y-88719407D01*
G37*
G04 #@! TD.AperFunction*
M02*
