M48
; DRILL file {KiCad 8.0.7} date 2025-03-21T10:23:02-0400
; FORMAT={-:-/ absolute / metric / decimal}
; #@! TF.CreationDate,2025-03-21T10:23:02-04:00
; #@! TF.GenerationSoftware,Kicad,Pcbnew,8.0.7
; #@! TF.FileFunction,Plated,1,2,PTH
FMAT,2
METRIC
; #@! TA.AperFunction,Plated,PTH,ViaDrill
T1C0.300
; #@! TA.AperFunction,Plated,PTH,ComponentDrill
T2C0.800
; #@! TA.AperFunction,Plated,PTH,ComponentDrill
T3C0.813
%
G90
G05
T1
X145.098Y-104.394
X145.6Y-103.6
X145.648Y-106.5
X145.648Y-107.8
X146.552Y-106.5
X147.8Y-103.1
X148.1Y-93.5
X148.9Y-104.2
X149.1Y-101.0
X150.35Y-100.51
X166.3Y-91.7
X169.8Y-91.6
X170.0Y-95.9
X171.1Y-97.3
X173.8Y-103.2
X174.425Y-102.5
X174.5Y-100.9
X175.215Y-101.765
X176.16Y-104.2
X176.2Y-106.5
T2
X138.4Y-96.9
X138.4Y-98.9
X138.4Y-100.9
X138.4Y-102.9
X172.825Y-90.5
X172.825Y-92.5
X172.825Y-94.5
X172.825Y-96.5
T3
X138.4Y-90.3
X138.4Y-92.3
X138.445Y-107.4
X138.445Y-109.4
X172.955Y-108.105
X172.955Y-110.105
M30
