M48
; DRILL file {KiCad 8.0.7} date 2025-03-21T12:25:33-0400
; FORMAT={-:-/ absolute / inch / decimal}
; #@! TF.CreationDate,2025-03-21T12:25:33-04:00
; #@! TF.GenerationSoftware,Kicad,Pcbnew,8.0.7
; #@! TF.FileFunction,Plated,1,2,PTH
FMAT,2
INCH
; #@! TA.AperFunction,Plated,PTH,ViaDrill
T1C0.0118
; #@! TA.AperFunction,Plated,PTH,ComponentDrill
T2C0.0315
; #@! TA.AperFunction,Plated,PTH,ComponentDrill
T3C0.0320
%
G90
G05
T1
X5.7125Y-4.11
X5.7323Y-4.0787
X5.7342Y-4.1929
X5.7342Y-4.2441
X5.7698Y-4.1929
X5.8189Y-4.0591
X5.8307Y-3.6811
X5.8622Y-4.1024
X5.8701Y-3.9764
X5.9193Y-3.9571
X6.5472Y-3.6102
X6.685Y-3.6063
X6.6929Y-3.7756
X6.7362Y-3.8307
X6.8425Y-4.063
X6.8671Y-4.0354
X6.8701Y-3.9724
X6.8982Y-4.0065
X6.9354Y-4.1024
X6.937Y-4.1929
T2
X5.4488Y-3.815
X5.4488Y-3.8937
X5.4488Y-3.9724
X5.4488Y-4.0512
X6.8041Y-3.563
X6.8041Y-3.6417
X6.8041Y-3.7205
X6.8041Y-3.7992
T3
X5.4488Y-3.5551
X5.4488Y-3.6339
X5.4506Y-4.2283
X5.4506Y-4.3071
X6.8092Y-4.2561
X6.8092Y-4.3348
M30
