%TF.GenerationSoftware,KiCad,Pcbnew,8.0.7*%
%TF.CreationDate,2025-03-21T12:25:33-04:00*%
%TF.ProjectId,weiland-esp32,7765696c-616e-4642-9d65-737033322e6b,rev?*%
%TF.SameCoordinates,Original*%
%TF.FileFunction,Soldermask,Top*%
%TF.FilePolarity,Negative*%
%FSLAX46Y46*%
G04 Gerber Fmt 4.6, Leading zero omitted, Abs format (unit mm)*
G04 Created by KiCad (PCBNEW 8.0.7) date 2025-03-21 12:25:33*
%MOMM*%
%LPD*%
G01*
G04 APERTURE LIST*
G04 Aperture macros list*
%AMRoundRect*
0 Rectangle with rounded corners*
0 $1 Rounding radius*
0 $2 $3 $4 $5 $6 $7 $8 $9 X,Y pos of 4 corners*
0 Add a 4 corners polygon primitive as box body*
4,1,4,$2,$3,$4,$5,$6,$7,$8,$9,$2,$3,0*
0 Add four circle primitives for the rounded corners*
1,1,$1+$1,$2,$3*
1,1,$1+$1,$4,$5*
1,1,$1+$1,$6,$7*
1,1,$1+$1,$8,$9*
0 Add four rect primitives between the rounded corners*
20,1,$1+$1,$2,$3,$4,$5,0*
20,1,$1+$1,$4,$5,$6,$7,0*
20,1,$1+$1,$6,$7,$8,$9,0*
20,1,$1+$1,$8,$9,$2,$3,0*%
G04 Aperture macros list end*
%ADD10RoundRect,0.102000X-0.435000X-0.465000X0.435000X-0.465000X0.435000X0.465000X-0.435000X0.465000X0*%
%ADD11RoundRect,0.197160X-0.174840X-0.204840X0.174840X-0.204840X0.174840X0.204840X-0.174840X0.204840X0*%
%ADD12RoundRect,0.102000X-0.237500X-0.250000X0.237500X-0.250000X0.237500X0.250000X-0.237500X0.250000X0*%
%ADD13RoundRect,0.102000X-0.380000X-1.200000X0.380000X-1.200000X0.380000X1.200000X-0.380000X1.200000X0*%
%ADD14C,0.454000*%
%ADD15C,1.320800*%
%ADD16RoundRect,0.085050X-0.481950X0.671950X-0.481950X-0.671950X0.481950X-0.671950X0.481950X0.671950X0*%
%ADD17RoundRect,0.113550X-1.608450X0.643450X-1.608450X-0.643450X1.608450X-0.643450X1.608450X0.643450X0*%
%ADD18RoundRect,0.102000X-0.270000X-0.300000X0.270000X-0.300000X0.270000X0.300000X-0.270000X0.300000X0*%
%ADD19C,1.100000*%
%ADD20RoundRect,0.102000X0.654000X-0.654000X0.654000X0.654000X-0.654000X0.654000X-0.654000X-0.654000X0*%
%ADD21C,1.512000*%
%ADD22RoundRect,0.102000X-0.250000X-0.300000X0.250000X-0.300000X0.250000X0.300000X-0.250000X0.300000X0*%
%ADD23R,1.500000X0.900000*%
%ADD24R,0.900000X1.500000*%
%ADD25R,0.900000X0.900000*%
%ADD26RoundRect,0.102000X-0.654000X0.654000X-0.654000X-0.654000X0.654000X-0.654000X0.654000X0.654000X0*%
%ADD27RoundRect,0.102000X0.400000X0.400000X-0.400000X0.400000X-0.400000X-0.400000X0.400000X-0.400000X0*%
%ADD28RoundRect,0.102000X0.435000X0.465000X-0.435000X0.465000X-0.435000X-0.465000X0.435000X-0.465000X0*%
%ADD29R,0.863600X0.254000*%
%ADD30R,1.701800X2.489200*%
G04 APERTURE END LIST*
D10*
%TO.C,C6*%
X143020000Y-103200000D03*
X144580000Y-103200000D03*
%TD*%
D11*
%TO.C,C3*%
X172070000Y-105100000D03*
X172930000Y-105100000D03*
%TD*%
D10*
%TO.C,C5*%
X146820000Y-99800000D03*
X148380000Y-99800000D03*
%TD*%
D12*
%TO.C,R1*%
X147275000Y-101845000D03*
X148299000Y-101845000D03*
%TD*%
D13*
%TO.C,J2*%
X178700000Y-100300000D03*
X178700000Y-104200000D03*
X177430000Y-100300000D03*
X177430000Y-104200000D03*
X176160000Y-100300000D03*
X176160000Y-104200000D03*
%TD*%
D14*
%TO.C,U4*%
X147700000Y-104600000D03*
X147300000Y-104600000D03*
X146900000Y-104600000D03*
X147700000Y-104200000D03*
X147300000Y-104200000D03*
X146900000Y-104200000D03*
X147700000Y-103800000D03*
X147300000Y-103800000D03*
X146900000Y-103800000D03*
%TD*%
D15*
%TO.C,J6*%
X138400000Y-92300000D03*
X138400000Y-90299999D03*
%TD*%
D16*
%TO.C,U2*%
X147990000Y-91300000D03*
X145700000Y-91300000D03*
X143410000Y-91300000D03*
D17*
X145700000Y-97990000D03*
%TD*%
D10*
%TO.C,C1*%
X143020000Y-89545000D03*
X144580000Y-89545000D03*
%TD*%
D18*
%TO.C,C8*%
X147670000Y-106500000D03*
X148530000Y-106500000D03*
%TD*%
D15*
%TO.C,J1*%
X138445301Y-109400000D03*
X138445301Y-107399999D03*
%TD*%
%TO.C,J7*%
X172954699Y-108104900D03*
X172954699Y-110104901D03*
%TD*%
D19*
%TO.C,P1*%
X136300000Y-104400000D03*
X136300000Y-95400000D03*
D20*
X138400000Y-96900000D03*
D21*
X138400000Y-98900000D03*
X138400000Y-100900000D03*
X138400000Y-102900000D03*
%TD*%
D22*
%TO.C,FB2*%
X145648000Y-106500000D03*
X146552000Y-106500000D03*
%TD*%
D23*
%TO.C,U1*%
X150350000Y-89080000D03*
X150350000Y-90350000D03*
X150350000Y-91620000D03*
X150350000Y-92890000D03*
X150350000Y-94160000D03*
X150350000Y-95430000D03*
X150350000Y-96700000D03*
X150350000Y-97970000D03*
X150350000Y-99240000D03*
X150350000Y-100510000D03*
X150350000Y-101780000D03*
X150350000Y-103050000D03*
X150350000Y-104320000D03*
X150350000Y-105590000D03*
D24*
X153380000Y-106840000D03*
X154650000Y-106840000D03*
X155920000Y-106840000D03*
X157190000Y-106840000D03*
X158460000Y-106840000D03*
X159730000Y-106840000D03*
X161000000Y-106840000D03*
X162270000Y-106840000D03*
X163540000Y-106840000D03*
X164810000Y-106840000D03*
D23*
X167850000Y-105590000D03*
X167850000Y-104320000D03*
X167850000Y-103050000D03*
X167850000Y-101780000D03*
X167850000Y-100510000D03*
X167850000Y-99240000D03*
X167850000Y-97970000D03*
X167850000Y-96700000D03*
X167850000Y-95430000D03*
X167850000Y-94160000D03*
X167850000Y-92890000D03*
X167850000Y-91620000D03*
X167850000Y-90350000D03*
X167850000Y-89080000D03*
D25*
X156200000Y-95400000D03*
X156200000Y-95400000D03*
X156200000Y-96800000D03*
X156200000Y-98200000D03*
X156200000Y-98200000D03*
X157600000Y-95400000D03*
X157600000Y-96800000D03*
X157600000Y-98200000D03*
X157600000Y-98200000D03*
X159000000Y-95400000D03*
X159000000Y-96800000D03*
X159000000Y-98200000D03*
%TD*%
D11*
%TO.C,C2*%
X146070000Y-89545000D03*
X146930000Y-89545000D03*
%TD*%
D19*
%TO.C,P2*%
X174925000Y-89000000D03*
X174925000Y-98000000D03*
D26*
X172825000Y-96500000D03*
D21*
X172825000Y-94500000D03*
X172825000Y-92500000D03*
X172825000Y-90500000D03*
%TD*%
D18*
%TO.C,C7*%
X147670000Y-107800000D03*
X148530000Y-107800000D03*
%TD*%
D27*
%TO.C,LED1*%
X144250000Y-101745000D03*
X145900000Y-101745000D03*
%TD*%
D28*
%TO.C,C4*%
X144880000Y-99800000D03*
X143320000Y-99800000D03*
%TD*%
D29*
%TO.C,U5*%
X170077600Y-100399999D03*
X170077600Y-100900001D03*
X170077600Y-101400000D03*
X170077600Y-101899999D03*
X170077600Y-102400001D03*
X172922400Y-102400001D03*
X172922400Y-101899999D03*
X172922400Y-101400000D03*
X172922400Y-100900001D03*
X172922400Y-100399999D03*
D30*
X171500000Y-101400000D03*
%TD*%
D22*
%TO.C,FB1*%
X145648000Y-107800000D03*
X146552000Y-107800000D03*
%TD*%
M02*
