%TF.GenerationSoftware,KiCad,Pcbnew,8.0.7*%
%TF.CreationDate,2025-04-04T09:08:16-04:00*%
%TF.ProjectId,weiland-esp32,7765696c-616e-4642-9d65-737033322e6b,rev?*%
%TF.SameCoordinates,Original*%
%TF.FileFunction,Copper,L1,Top*%
%TF.FilePolarity,Positive*%
%FSLAX46Y46*%
G04 Gerber Fmt 4.6, Leading zero omitted, Abs format (unit mm)*
G04 Created by KiCad (PCBNEW 8.0.7) date 2025-04-04 09:08:16*
%MOMM*%
%LPD*%
G01*
G04 APERTURE LIST*
G04 Aperture macros list*
%AMRoundRect*
0 Rectangle with rounded corners*
0 $1 Rounding radius*
0 $2 $3 $4 $5 $6 $7 $8 $9 X,Y pos of 4 corners*
0 Add a 4 corners polygon primitive as box body*
4,1,4,$2,$3,$4,$5,$6,$7,$8,$9,$2,$3,0*
0 Add four circle primitives for the rounded corners*
1,1,$1+$1,$2,$3*
1,1,$1+$1,$4,$5*
1,1,$1+$1,$6,$7*
1,1,$1+$1,$8,$9*
0 Add four rect primitives between the rounded corners*
20,1,$1+$1,$2,$3,$4,$5,0*
20,1,$1+$1,$4,$5,$6,$7,0*
20,1,$1+$1,$6,$7,$8,$9,0*
20,1,$1+$1,$8,$9,$2,$3,0*%
G04 Aperture macros list end*
%TA.AperFunction,SMDPad,CuDef*%
%ADD10RoundRect,0.033750X-0.101250X0.386250X-0.101250X-0.386250X0.101250X-0.386250X0.101250X0.386250X0*%
%TD*%
%TA.AperFunction,SMDPad,CuDef*%
%ADD11RoundRect,0.033750X-0.386250X0.101250X-0.386250X-0.101250X0.386250X-0.101250X0.386250X0.101250X0*%
%TD*%
%TA.AperFunction,SMDPad,CuDef*%
%ADD12R,1.100000X1.100000*%
%TD*%
%TA.AperFunction,SMDPad,CuDef*%
%ADD13R,0.600000X0.560000*%
%TD*%
%TA.AperFunction,SMDPad,CuDef*%
%ADD14R,2.600000X0.740000*%
%TD*%
%TA.AperFunction,SMDPad,CuDef*%
%ADD15R,2.600000X0.800000*%
%TD*%
%TA.AperFunction,SMDPad,CuDef*%
%ADD16R,0.560000X0.600000*%
%TD*%
%TA.AperFunction,SMDPad,CuDef*%
%ADD17RoundRect,0.143100X-0.126900X-0.156900X0.126900X-0.156900X0.126900X0.156900X-0.126900X0.156900X0*%
%TD*%
%TA.AperFunction,ComponentPad*%
%ADD18C,1.320800*%
%TD*%
%TA.AperFunction,SMDPad,CuDef*%
%ADD19RoundRect,0.069750X-0.395250X0.585250X-0.395250X-0.585250X0.395250X-0.585250X0.395250X0.585250X0*%
%TD*%
%TA.AperFunction,SMDPad,CuDef*%
%ADD20RoundRect,0.098250X-1.521750X0.556750X-1.521750X-0.556750X1.521750X-0.556750X1.521750X0.556750X0*%
%TD*%
%TA.AperFunction,ComponentPad*%
%ADD21R,1.308000X1.308000*%
%TD*%
%TA.AperFunction,ComponentPad*%
%ADD22C,1.308000*%
%TD*%
%TA.AperFunction,SMDPad,CuDef*%
%ADD23R,0.500000X0.600000*%
%TD*%
%TA.AperFunction,SMDPad,CuDef*%
%ADD24R,1.500000X0.900000*%
%TD*%
%TA.AperFunction,SMDPad,CuDef*%
%ADD25R,0.900000X1.500000*%
%TD*%
%TA.AperFunction,SMDPad,CuDef*%
%ADD26R,0.900000X0.900000*%
%TD*%
%TA.AperFunction,SMDPad,CuDef*%
%ADD27RoundRect,0.143100X0.126900X0.156900X-0.126900X0.156900X-0.126900X-0.156900X0.126900X-0.156900X0*%
%TD*%
%TA.AperFunction,SMDPad,CuDef*%
%ADD28R,0.800000X0.800000*%
%TD*%
%TA.AperFunction,SMDPad,CuDef*%
%ADD29R,0.863600X0.254000*%
%TD*%
%TA.AperFunction,SMDPad,CuDef*%
%ADD30R,1.701800X2.489200*%
%TD*%
%TA.AperFunction,ViaPad*%
%ADD31C,0.600000*%
%TD*%
%TA.AperFunction,Conductor*%
%ADD32C,0.200000*%
%TD*%
G04 APERTURE END LIST*
D10*
%TO.P,U3,1,DIN*%
%TO.N,/IO22*%
X147495000Y-103435000D03*
%TO.P,U3,2,GAIN_SLOT*%
%TO.N,GND*%
X146995000Y-103435000D03*
%TO.P,U3,3,GND*%
X146495000Y-103435000D03*
%TO.P,U3,4,SD_MODE*%
%TO.N,+3V3*%
X145995000Y-103435000D03*
D11*
%TO.P,U3,5*%
%TO.N,N/C*%
X145310000Y-104120000D03*
%TO.P,U3,6*%
X145310000Y-104620000D03*
%TO.P,U3,7,VDD*%
%TO.N,+5V*%
X145310000Y-105120000D03*
%TO.P,U3,8,VDD__1*%
X145310000Y-105620000D03*
D10*
%TO.P,U3,9,OUTP*%
%TO.N,Net-(U3-OUTP)*%
X145995000Y-106305000D03*
%TO.P,U3,10,OUTN*%
%TO.N,Net-(U3-OUTN)*%
X146495000Y-106305000D03*
%TO.P,U3,11,GND__1*%
%TO.N,GND*%
X146995000Y-106305000D03*
%TO.P,U3,12*%
%TO.N,N/C*%
X147495000Y-106305000D03*
D11*
%TO.P,U3,13*%
X148180000Y-105620000D03*
%TO.P,U3,14,LRCLK*%
%TO.N,/IO14*%
X148180000Y-105120000D03*
%TO.P,U3,15,GND__2*%
%TO.N,GND*%
X148180000Y-104620000D03*
%TO.P,U3,16,BCLK*%
%TO.N,/IO15*%
X148180000Y-104120000D03*
D12*
%TO.P,U3,17,EP*%
%TO.N,GND*%
X146745000Y-104870000D03*
%TD*%
D13*
%TO.P,C6,1*%
%TO.N,+5V*%
X143300000Y-103665000D03*
%TO.P,C6,2*%
%TO.N,GND*%
X143300000Y-104535000D03*
%TD*%
D14*
%TO.P,U6,1,1*%
%TO.N,/EN*%
X175630000Y-99990000D03*
D15*
%TO.P,U6,2,2*%
%TO.N,+5V*%
X179430000Y-99990000D03*
D14*
%TO.P,U6,3,3*%
%TO.N,/TXD0*%
X175630000Y-101260000D03*
D15*
%TO.P,U6,4,4*%
%TO.N,GND*%
X179430000Y-101260000D03*
D14*
%TO.P,U6,5,5*%
%TO.N,/RXD0*%
X175630000Y-102530000D03*
D15*
%TO.P,U6,6,6*%
%TO.N,/IO0*%
X179430000Y-102530000D03*
%TD*%
D16*
%TO.P,C5,1,1*%
%TO.N,GND*%
X147595000Y-99780000D03*
%TO.P,C5,2,2*%
%TO.N,+3V3*%
X148465000Y-99780000D03*
%TD*%
%TO.P,R1,1,1*%
%TO.N,Net-(LED1-A)*%
X147570000Y-101130000D03*
%TO.P,R1,2,2*%
%TO.N,+3V3*%
X148440000Y-101130000D03*
%TD*%
D17*
%TO.P,C3,1,1*%
%TO.N,GND*%
X172065000Y-104290000D03*
%TO.P,C3,2,2*%
%TO.N,+5V*%
X172925000Y-104290000D03*
%TD*%
D18*
%TO.P,J6,1,1*%
%TO.N,GND*%
X138300000Y-92600000D03*
%TO.P,J6,2,2*%
%TO.N,+5V*%
X138300000Y-90599999D03*
%TD*%
D19*
%TO.P,U2,1,ADJ(GND)*%
%TO.N,GND*%
X147990000Y-91300000D03*
%TO.P,U2,2,VOUT(TAB)*%
%TO.N,+3V3*%
X145700000Y-91300000D03*
%TO.P,U2,3,VIN*%
%TO.N,+5V*%
X143410000Y-91300000D03*
D20*
%TO.P,U2,4,TAB*%
%TO.N,+3V3*%
X145700000Y-97990000D03*
%TD*%
D16*
%TO.P,C1,1,1*%
%TO.N,GND*%
X143565000Y-89200000D03*
%TO.P,C1,2,2*%
%TO.N,+3V3*%
X144435000Y-89200000D03*
%TD*%
%TO.P,C8,1*%
%TO.N,/OUTN*%
X148260000Y-108950000D03*
%TO.P,C8,2*%
%TO.N,GND*%
X147390000Y-108950000D03*
%TD*%
D18*
%TO.P,J1,1,1*%
%TO.N,/OUTN*%
X138300000Y-110000000D03*
%TO.P,J1,2,2*%
%TO.N,/OUTP*%
X138300000Y-107999999D03*
%TD*%
%TO.P,J7,1,1*%
%TO.N,/OUTP*%
X172820000Y-107440000D03*
%TO.P,J7,2,2*%
%TO.N,/OUTN*%
X172820000Y-109440001D03*
%TD*%
D21*
%TO.P,P1,1,1*%
%TO.N,+5V*%
X138300000Y-97300000D03*
D22*
%TO.P,P1,2,2*%
%TO.N,/OUTC*%
X138300000Y-99300000D03*
%TO.P,P1,3,3*%
%TO.N,+5V*%
X138300000Y-101300000D03*
%TO.P,P1,4,4*%
%TO.N,/OUTD*%
X138300000Y-103300000D03*
%TD*%
D23*
%TO.P,FB2,1*%
%TO.N,Net-(U3-OUTN)*%
X147358000Y-107700000D03*
%TO.P,FB2,2*%
%TO.N,/OUTN*%
X148262000Y-107700000D03*
%TD*%
D24*
%TO.P,U1,1,GND*%
%TO.N,GND*%
X150350000Y-89240000D03*
%TO.P,U1,2,3V3*%
%TO.N,+3V3*%
X150350000Y-90510000D03*
%TO.P,U1,3,EN*%
%TO.N,/EN*%
X150350000Y-91780000D03*
%TO.P,U1,4,SENSOR_VP*%
%TO.N,unconnected-(U1-SENSOR_VP-Pad4)*%
X150350000Y-93050000D03*
%TO.P,U1,5,SENSOR_VN*%
%TO.N,unconnected-(U1-SENSOR_VN-Pad5)*%
X150350000Y-94320000D03*
%TO.P,U1,6,IO34*%
%TO.N,unconnected-(U1-IO34-Pad6)*%
X150350000Y-95590000D03*
%TO.P,U1,7,IO35*%
%TO.N,unconnected-(U1-IO35-Pad7)*%
X150350000Y-96860000D03*
%TO.P,U1,8,IO32*%
%TO.N,unconnected-(U1-IO32-Pad8)*%
X150350000Y-98130000D03*
%TO.P,U1,9,IO33*%
%TO.N,unconnected-(U1-IO33-Pad9)*%
X150350000Y-99400000D03*
%TO.P,U1,10,IO25*%
%TO.N,unconnected-(U1-IO25-Pad10)*%
X150350000Y-100670000D03*
%TO.P,U1,11,IO26*%
%TO.N,unconnected-(U1-IO26-Pad11)*%
X150350000Y-101940000D03*
%TO.P,U1,12,IO27*%
%TO.N,unconnected-(U1-IO27-Pad12)*%
X150350000Y-103210000D03*
%TO.P,U1,13,IO14*%
%TO.N,/IO14*%
X150350000Y-104480000D03*
%TO.P,U1,14,IO12*%
%TO.N,unconnected-(U1-IO12-Pad14)*%
X150350000Y-105750000D03*
D25*
%TO.P,U1,15,GND*%
%TO.N,GND*%
X153380000Y-107000000D03*
%TO.P,U1,16,IO13*%
%TO.N,unconnected-(U1-IO13-Pad16)*%
X154650000Y-107000000D03*
%TO.P,U1,17,NC*%
%TO.N,unconnected-(U1-NC-Pad17)*%
X155920000Y-107000000D03*
%TO.P,U1,18,NC*%
%TO.N,unconnected-(U1-NC-Pad18)*%
X157190000Y-107000000D03*
%TO.P,U1,19,NC*%
%TO.N,unconnected-(U1-NC-Pad19)*%
X158460000Y-107000000D03*
%TO.P,U1,20,NC*%
%TO.N,unconnected-(U1-NC-Pad20)*%
X159730000Y-107000000D03*
%TO.P,U1,21,NC*%
%TO.N,unconnected-(U1-NC-Pad21)*%
X161000000Y-107000000D03*
%TO.P,U1,22,NC*%
%TO.N,unconnected-(U1-NC-Pad22)*%
X162270000Y-107000000D03*
%TO.P,U1,23,IO15*%
%TO.N,/IO15*%
X163540000Y-107000000D03*
%TO.P,U1,24,IO2*%
%TO.N,unconnected-(U1-IO2-Pad24)*%
X164810000Y-107000000D03*
D24*
%TO.P,U1,25,IO0*%
%TO.N,/IO0*%
X167850000Y-105750000D03*
%TO.P,U1,26,IO4*%
%TO.N,unconnected-(U1-IO4-Pad26)*%
X167850000Y-104480000D03*
%TO.P,U1,27,IO16*%
%TO.N,/IO16*%
X167850000Y-103210000D03*
%TO.P,U1,28,IO17*%
%TO.N,/IO17*%
X167850000Y-101940000D03*
%TO.P,U1,29,IO5*%
%TO.N,unconnected-(U1-IO5-Pad29)*%
X167850000Y-100670000D03*
%TO.P,U1,30,IO18*%
%TO.N,/IO18*%
X167850000Y-99400000D03*
%TO.P,U1,31,IO19*%
%TO.N,/IO19*%
X167850000Y-98130000D03*
%TO.P,U1,32,NC*%
%TO.N,unconnected-(U1-NC-Pad32)*%
X167850000Y-96860000D03*
%TO.P,U1,33,IO21*%
%TO.N,unconnected-(U1-IO21-Pad33)*%
X167850000Y-95590000D03*
%TO.P,U1,34,RXD0*%
%TO.N,/RXD0*%
X167850000Y-94320000D03*
%TO.P,U1,35,TXD0*%
%TO.N,/TXD0*%
X167850000Y-93050000D03*
%TO.P,U1,36,IO22*%
%TO.N,/IO22*%
X167850000Y-91780000D03*
%TO.P,U1,37,IO23*%
%TO.N,unconnected-(U1-IO23-Pad37)*%
X167850000Y-90510000D03*
%TO.P,U1,38,GND*%
%TO.N,GND*%
X167850000Y-89240000D03*
D26*
%TO.P,U1,39,GND*%
X156200000Y-95560000D03*
X156200000Y-95560000D03*
X156200000Y-96960000D03*
X156200000Y-98360000D03*
X156200000Y-98360000D03*
X157600000Y-95560000D03*
X157600000Y-96960000D03*
X157600000Y-98360000D03*
X157600000Y-98360000D03*
X159000000Y-95560000D03*
X159000000Y-96960000D03*
X159000000Y-98360000D03*
%TD*%
D27*
%TO.P,C2,1,1*%
%TO.N,GND*%
X146830000Y-89200000D03*
%TO.P,C2,2,2*%
%TO.N,+3V3*%
X145970000Y-89200000D03*
%TD*%
D21*
%TO.P,P2,1,1*%
%TO.N,+5V*%
X172830000Y-96520000D03*
D22*
%TO.P,P2,2,2*%
%TO.N,/OUTA*%
X172830000Y-94520000D03*
%TO.P,P2,3,3*%
%TO.N,+5V*%
X172830000Y-92520000D03*
%TO.P,P2,4,4*%
%TO.N,/OUTB*%
X172830000Y-90520000D03*
%TD*%
D16*
%TO.P,C7,1*%
%TO.N,/OUTP*%
X146195000Y-108930000D03*
%TO.P,C7,2*%
%TO.N,GND*%
X145325000Y-108930000D03*
%TD*%
D28*
%TO.P,LED1,1,K*%
%TO.N,GND*%
X144015000Y-101080000D03*
%TO.P,LED1,2,A*%
%TO.N,Net-(LED1-A)*%
X145665000Y-101080000D03*
%TD*%
D16*
%TO.P,C4,1,1*%
%TO.N,GND*%
X144605000Y-99660000D03*
%TO.P,C4,2,2*%
%TO.N,+5V*%
X143735000Y-99660000D03*
%TD*%
D29*
%TO.P,U5,1,IN1*%
%TO.N,/IO19*%
X170035000Y-100409998D03*
%TO.P,U5,2,IN2*%
%TO.N,/IO18*%
X170035000Y-100910000D03*
%TO.P,U5,3,IN3*%
%TO.N,/IO17*%
X170035000Y-101409999D03*
%TO.P,U5,4,IN4*%
%TO.N,/IO16*%
X170035000Y-101909998D03*
%TO.P,U5,5,GND*%
%TO.N,GND*%
X170035000Y-102410000D03*
%TO.P,U5,6,COM*%
%TO.N,unconnected-(U5-COM-Pad6)*%
X172915000Y-102410001D03*
%TO.P,U5,7,OUT4*%
%TO.N,/OUTD*%
X172915000Y-101909999D03*
%TO.P,U5,8,OUT3*%
%TO.N,/OUTC*%
X172915000Y-101410000D03*
%TO.P,U5,9,OUT2*%
%TO.N,/OUTB*%
X172915000Y-100910001D03*
%TO.P,U5,10,OUT1*%
%TO.N,/OUTA*%
X172915000Y-100409999D03*
D30*
%TO.P,U5,11,EPAD*%
%TO.N,GND*%
X171475000Y-101410000D03*
%TD*%
D23*
%TO.P,FB1,1*%
%TO.N,Net-(U3-OUTP)*%
X145318000Y-107700000D03*
%TO.P,FB1,2*%
%TO.N,/OUTP*%
X146222000Y-107700000D03*
%TD*%
D31*
%TO.N,GND*%
X179025000Y-105025000D03*
X176725000Y-104225000D03*
X144550000Y-95825000D03*
X146800000Y-95650000D03*
X143450000Y-108000000D03*
X147425000Y-109925000D03*
X146700000Y-91300000D03*
X148100000Y-89200000D03*
%TO.N,+5V*%
X142800000Y-99600000D03*
X141865000Y-103665000D03*
X144200000Y-106100000D03*
X174000000Y-104200000D03*
X180600000Y-98500000D03*
%TO.N,/OUTD*%
X154640000Y-102190000D03*
X173829202Y-102340000D03*
X157430000Y-102390000D03*
%TO.N,/OUTC*%
X155675735Y-101425735D03*
X157500000Y-101500000D03*
X173800001Y-101458236D03*
%TO.N,/RXD0*%
X169500000Y-94250000D03*
X175500000Y-104250000D03*
%TO.N,/EN*%
X166250000Y-92750000D03*
X176035661Y-99035661D03*
%TO.N,/OUTP*%
X145825000Y-110525000D03*
%TO.N,/IO22*%
X166125000Y-91825000D03*
X148525000Y-102925000D03*
%TO.N,/IO15*%
X149046591Y-103867349D03*
X161175000Y-103850000D03*
%TD*%
D32*
%TO.N,GND*%
X144395000Y-98950000D02*
X143700000Y-98950000D01*
X143700000Y-98950000D02*
X142700000Y-97950000D01*
X144605000Y-99160000D02*
X144395000Y-98950000D01*
X144605000Y-99660000D02*
X144605000Y-99160000D01*
X177250000Y-103700000D02*
X176725000Y-104225000D01*
X177250000Y-102410000D02*
X177250000Y-103700000D01*
X178400000Y-101260000D02*
X177250000Y-102410000D01*
%TO.N,+3V3*%
X145750000Y-101780000D02*
X145750000Y-103190000D01*
X148150000Y-101730000D02*
X148100000Y-101780000D01*
X145750000Y-103190000D02*
X145995000Y-103435000D01*
X148150000Y-101420000D02*
X148150000Y-101730000D01*
X148440000Y-101130000D02*
X148150000Y-101420000D01*
X148100000Y-101780000D02*
X145750000Y-101780000D01*
%TO.N,GND*%
X142705000Y-101080000D02*
X142525000Y-100900000D01*
X144015000Y-101080000D02*
X142705000Y-101080000D01*
X141525000Y-95825000D02*
X144550000Y-95825000D01*
X138300000Y-92600000D02*
X141525000Y-95825000D01*
%TO.N,+3V3*%
X148465000Y-101105000D02*
X148440000Y-101130000D01*
X148465000Y-99780000D02*
X148465000Y-101105000D01*
X148465000Y-99135000D02*
X148465000Y-99780000D01*
X147320000Y-97990000D02*
X148465000Y-99135000D01*
X145700000Y-97990000D02*
X147320000Y-97990000D01*
X145700000Y-91300000D02*
X145700000Y-97990000D01*
%TO.N,GND*%
X147390000Y-108950000D02*
X147390000Y-109890000D01*
X147390000Y-109890000D02*
X147425000Y-109925000D01*
%TO.N,/OUTP*%
X145835000Y-110515000D02*
X145835000Y-109600000D01*
X145825000Y-110525000D02*
X145835000Y-110515000D01*
%TO.N,/OUTN*%
X142270500Y-110345500D02*
X143050000Y-111125000D01*
X138645500Y-110345500D02*
X142270500Y-110345500D01*
X171135001Y-111125000D02*
X172820000Y-109440001D01*
X138300000Y-110000000D02*
X138645500Y-110345500D01*
X143050000Y-111125000D02*
X171135001Y-111125000D01*
X148260000Y-108950000D02*
X148260000Y-111115000D01*
%TO.N,/IO16*%
X168380000Y-103210000D02*
X167850000Y-103210000D01*
X168900000Y-102690000D02*
X168380000Y-103210000D01*
X168900000Y-102496486D02*
X168900000Y-102690000D01*
X169486487Y-101909999D02*
X168900000Y-102496486D01*
X170052600Y-101909999D02*
X169486487Y-101909999D01*
%TO.N,/IO17*%
X168890800Y-101940000D02*
X167850000Y-101940000D01*
X169420800Y-101410000D02*
X168890800Y-101940000D01*
X170052600Y-101410000D02*
X169420800Y-101410000D01*
%TO.N,/IO18*%
X168900000Y-100050000D02*
X168250000Y-99400000D01*
X168250000Y-99400000D02*
X167850000Y-99400000D01*
X168900000Y-100416199D02*
X168900000Y-100050000D01*
X169393802Y-100910001D02*
X168900000Y-100416199D01*
X170052600Y-100910001D02*
X169393802Y-100910001D01*
%TO.N,/IO22*%
X167805000Y-91825000D02*
X167850000Y-91780000D01*
X166125000Y-91825000D02*
X167805000Y-91825000D01*
%TO.N,/TXD0*%
X168220000Y-93050000D02*
X167850000Y-93050000D01*
X171770000Y-89500000D02*
X168220000Y-93050000D01*
X177250000Y-93590840D02*
X173159160Y-89500000D01*
X177250000Y-100645000D02*
X177250000Y-93590840D01*
X176635000Y-101260000D02*
X177250000Y-100645000D01*
X175630000Y-101260000D02*
X176635000Y-101260000D01*
%TO.N,/RXD0*%
X167920000Y-94250000D02*
X167850000Y-94320000D01*
X169500000Y-94250000D02*
X167920000Y-94250000D01*
%TO.N,/IO19*%
X168960000Y-98130000D02*
X167850000Y-98130000D01*
X170052600Y-99222600D02*
X168960000Y-98130000D01*
X170052600Y-100409999D02*
X170052600Y-99222600D01*
%TO.N,/IO0*%
X168010000Y-105590000D02*
X167850000Y-105750000D01*
X179430000Y-102605000D02*
X176445000Y-105590000D01*
%TO.N,/IO15*%
X161175000Y-103850000D02*
X163540000Y-106215000D01*
%TO.N,/IO14*%
X149280428Y-104480000D02*
X150350000Y-104480000D01*
X148640428Y-105120000D02*
X149280428Y-104480000D01*
X148180000Y-105120000D02*
X148640428Y-105120000D01*
%TO.N,/EN*%
X151040000Y-91780000D02*
X150350000Y-91780000D01*
X152010000Y-92750000D02*
X151040000Y-91780000D01*
X166250000Y-92750000D02*
X152010000Y-92750000D01*
%TO.N,+3V3*%
X150040000Y-90200000D02*
X150350000Y-90510000D01*
X145700000Y-90200000D02*
X150040000Y-90200000D01*
%TO.N,/IO0*%
X179430000Y-102530000D02*
X179430000Y-102605000D01*
%TO.N,/TXD0*%
X173159160Y-89500000D02*
X171770000Y-89500000D01*
%TO.N,/IO15*%
X163540000Y-106215000D02*
X163540000Y-107000000D01*
%TO.N,/IO0*%
X176445000Y-105590000D02*
X168010000Y-105590000D01*
%TO.N,/OUTP*%
X145835000Y-109600000D02*
X139900001Y-109600000D01*
X139900001Y-109600000D02*
X138300000Y-107999999D01*
%TO.N,+5V*%
X139000001Y-91300000D02*
X138300000Y-90599999D01*
X143410000Y-91300000D02*
X139000001Y-91300000D01*
%TO.N,GND*%
X147990000Y-91300000D02*
X146700000Y-91300000D01*
%TO.N,+5V*%
X142860000Y-99660000D02*
X142800000Y-99600000D01*
X143735000Y-99660000D02*
X142860000Y-99660000D01*
X141800000Y-103600000D02*
X141865000Y-103665000D01*
X143300000Y-103665000D02*
X141865000Y-103665000D01*
X145310000Y-105120000D02*
X145310000Y-105620000D01*
X144680000Y-105620000D02*
X144200000Y-106100000D01*
X145310000Y-105620000D02*
X144680000Y-105620000D01*
%TO.N,GND*%
X146745000Y-103685000D02*
X146495000Y-103435000D01*
X146745000Y-103685000D02*
X146995000Y-103435000D01*
X146745000Y-104870000D02*
X146745000Y-103685000D01*
X146995000Y-104620000D02*
X148180000Y-104620000D01*
X146745000Y-104870000D02*
X146995000Y-104620000D01*
X146995000Y-105120000D02*
X146995000Y-106305000D01*
X146745000Y-104870000D02*
X146995000Y-105120000D01*
%TO.N,+3V3*%
X145700000Y-90200000D02*
X145700000Y-89470000D01*
X145700000Y-91300000D02*
X145700000Y-90200000D01*
X145700000Y-89470000D02*
X145970000Y-89200000D01*
X145700000Y-90465000D02*
X144435000Y-89200000D01*
X145700000Y-91300000D02*
X145700000Y-90465000D01*
%TO.N,+5V*%
X173910000Y-104290000D02*
X174000000Y-104200000D01*
X172925000Y-104290000D02*
X173910000Y-104290000D01*
X180600000Y-98820000D02*
X180600000Y-98500000D01*
X179430000Y-99990000D02*
X180600000Y-98820000D01*
%TO.N,GND*%
X177800000Y-100660000D02*
X177800000Y-99100000D01*
X178400000Y-101260000D02*
X177800000Y-100660000D01*
X179430000Y-101260000D02*
X178400000Y-101260000D01*
%TO.N,/OUTD*%
X154840000Y-102390000D02*
X154640000Y-102190000D01*
X157430000Y-102390000D02*
X154840000Y-102390000D01*
X173399201Y-101909999D02*
X173829202Y-102340000D01*
X172897400Y-101909999D02*
X173399201Y-101909999D01*
%TO.N,/EN*%
X175630000Y-99990000D02*
X175630000Y-99441322D01*
X175630000Y-99441322D02*
X176035661Y-99035661D01*
%TO.N,/RXD0*%
X175630000Y-104120000D02*
X175500000Y-104250000D01*
X175630000Y-102530000D02*
X175630000Y-104120000D01*
%TO.N,/OUTC*%
X173800001Y-101458236D02*
X173751765Y-101410000D01*
X173751765Y-101410000D02*
X172897400Y-101410000D01*
X155750000Y-101500000D02*
X155675735Y-101425735D01*
X157500000Y-101500000D02*
X155750000Y-101500000D01*
%TO.N,/OUTA*%
X174000000Y-95690000D02*
X172830000Y-94520000D01*
X174000000Y-97677208D02*
X174000000Y-95690000D01*
X172897400Y-98779808D02*
X174000000Y-97677208D01*
X172897400Y-100409999D02*
X172897400Y-98779808D01*
%TO.N,/OUTB*%
X175222792Y-99000000D02*
X176000000Y-98222792D01*
X174425000Y-99000000D02*
X175222792Y-99000000D01*
X173784000Y-100682199D02*
X173784000Y-99641000D01*
X172897400Y-100910001D02*
X173556198Y-100910001D01*
X173556198Y-100910001D02*
X173784000Y-100682199D01*
X173784000Y-99641000D02*
X174425000Y-99000000D01*
X176000000Y-98222792D02*
X176000000Y-93690000D01*
X176000000Y-93690000D02*
X172830000Y-90520000D01*
%TO.N,Net-(LED1-A)*%
X147520000Y-101080000D02*
X147570000Y-101130000D01*
X145665000Y-101080000D02*
X147520000Y-101080000D01*
%TO.N,/OUTP*%
X146195000Y-108930000D02*
X146195000Y-109240000D01*
X146195000Y-109240000D02*
X145835000Y-109600000D01*
%TO.N,/IO22*%
X148015000Y-103435000D02*
X148525000Y-102925000D01*
X147495000Y-103435000D02*
X148015000Y-103435000D01*
%TO.N,/IO15*%
X148180000Y-104120000D02*
X148793940Y-104120000D01*
X148793940Y-104120000D02*
X149046591Y-103867349D01*
%TO.N,/OUTN*%
X148262000Y-108948000D02*
X148260000Y-108950000D01*
X148262000Y-107700000D02*
X148262000Y-108948000D01*
%TO.N,/OUTP*%
X146222000Y-108903000D02*
X146195000Y-108930000D01*
X146222000Y-107700000D02*
X146222000Y-108903000D01*
%TO.N,Net-(U3-OUTN)*%
X146495000Y-106837000D02*
X147358000Y-107700000D01*
X146495000Y-106305000D02*
X146495000Y-106837000D01*
%TO.N,Net-(U3-OUTP)*%
X145318000Y-106982000D02*
X145318000Y-107700000D01*
X145995000Y-106305000D02*
X145318000Y-106982000D01*
%TD*%
%TA.AperFunction,Conductor*%
%TO.N,GND*%
G36*
X142730299Y-88720185D02*
G01*
X142776054Y-88772989D01*
X142786550Y-88837755D01*
X142785000Y-88852171D01*
X142785000Y-88950000D01*
X143441000Y-88950000D01*
X143508039Y-88969685D01*
X143553794Y-89022489D01*
X143565000Y-89074000D01*
X143565000Y-89200000D01*
X143691000Y-89200000D01*
X143758039Y-89219685D01*
X143803794Y-89272489D01*
X143815000Y-89324000D01*
X143815000Y-90000000D01*
X143892828Y-90000000D01*
X143892844Y-89999999D01*
X143952372Y-89993598D01*
X143952379Y-89993596D01*
X144087086Y-89943354D01*
X144087093Y-89943350D01*
X144202187Y-89857190D01*
X144202190Y-89857187D01*
X144282290Y-89750189D01*
X144338223Y-89708318D01*
X144381556Y-89700500D01*
X144459167Y-89700500D01*
X144526206Y-89720185D01*
X144546848Y-89736819D01*
X145134968Y-90324939D01*
X145168453Y-90386262D01*
X145163469Y-90455954D01*
X145121597Y-90511887D01*
X145116178Y-90515722D01*
X145109910Y-90519910D01*
X145050179Y-90609302D01*
X145034500Y-90688128D01*
X145034500Y-91911865D01*
X145050180Y-91990698D01*
X145066399Y-92014971D01*
X145109910Y-92080090D01*
X145137270Y-92098371D01*
X145199302Y-92139820D01*
X145238183Y-92147553D01*
X145278131Y-92155500D01*
X145278137Y-92155499D01*
X145284192Y-92156097D01*
X145284004Y-92158003D01*
X145342509Y-92175164D01*
X145388279Y-92227955D01*
X145399500Y-92279499D01*
X145399500Y-97010500D01*
X145379815Y-97077539D01*
X145327011Y-97123294D01*
X145275500Y-97134500D01*
X144133652Y-97134500D01*
X144133629Y-97134502D01*
X144108668Y-97137397D01*
X144108665Y-97137398D01*
X144006496Y-97182509D01*
X144006488Y-97182515D01*
X143927515Y-97261488D01*
X143927511Y-97261495D01*
X143882398Y-97363663D01*
X143882398Y-97363665D01*
X143879500Y-97388643D01*
X143879500Y-98591347D01*
X143879502Y-98591370D01*
X143882397Y-98616331D01*
X143882398Y-98616334D01*
X143927509Y-98718503D01*
X143927515Y-98718511D01*
X144006164Y-98797160D01*
X144039649Y-98858483D01*
X144034665Y-98928175D01*
X143992797Y-98984106D01*
X143967809Y-99002812D01*
X143887710Y-99109811D01*
X143831777Y-99151682D01*
X143788444Y-99159500D01*
X143435247Y-99159500D01*
X143376770Y-99171131D01*
X143376769Y-99171132D01*
X143310444Y-99215450D01*
X143307428Y-99218466D01*
X143246104Y-99251948D01*
X143176412Y-99246961D01*
X143139721Y-99221478D01*
X143137828Y-99223663D01*
X143131131Y-99217860D01*
X143131128Y-99217857D01*
X143010053Y-99140047D01*
X143010051Y-99140046D01*
X143010049Y-99140045D01*
X143010050Y-99140045D01*
X142871963Y-99099500D01*
X142871961Y-99099500D01*
X142728039Y-99099500D01*
X142728036Y-99099500D01*
X142589949Y-99140045D01*
X142468873Y-99217856D01*
X142468872Y-99217856D01*
X142468872Y-99217857D01*
X142463841Y-99223663D01*
X142374623Y-99326626D01*
X142374622Y-99326628D01*
X142314834Y-99457543D01*
X142294353Y-99600000D01*
X142314834Y-99742456D01*
X142371022Y-99865489D01*
X142374623Y-99873373D01*
X142468872Y-99982143D01*
X142589947Y-100059953D01*
X142589950Y-100059954D01*
X142589949Y-100059954D01*
X142728036Y-100100499D01*
X142728038Y-100100500D01*
X142728039Y-100100500D01*
X142871962Y-100100500D01*
X142871962Y-100100499D01*
X143010050Y-100059954D01*
X143010051Y-100059954D01*
X143010053Y-100059953D01*
X143096887Y-100004147D01*
X143163927Y-99984463D01*
X143230966Y-100004147D01*
X143267029Y-100039572D01*
X143310448Y-100104553D01*
X143311543Y-100105648D01*
X143313166Y-100108620D01*
X143317233Y-100114707D01*
X143316688Y-100115070D01*
X143345028Y-100166971D01*
X143340044Y-100236663D01*
X143298174Y-100292595D01*
X143257809Y-100322812D01*
X143171649Y-100437906D01*
X143171645Y-100437913D01*
X143121403Y-100572620D01*
X143121401Y-100572627D01*
X143115000Y-100632155D01*
X143115000Y-100830000D01*
X143891000Y-100830000D01*
X143958039Y-100849685D01*
X144003794Y-100902489D01*
X144015000Y-100954000D01*
X144015000Y-101080000D01*
X144141000Y-101080000D01*
X144208039Y-101099685D01*
X144253794Y-101152489D01*
X144265000Y-101204000D01*
X144265000Y-101980000D01*
X144462828Y-101980000D01*
X144462844Y-101979999D01*
X144522372Y-101973598D01*
X144522379Y-101973596D01*
X144657086Y-101923354D01*
X144657093Y-101923350D01*
X144772187Y-101837190D01*
X144772190Y-101837187D01*
X144858350Y-101722093D01*
X144858355Y-101722084D01*
X144890918Y-101634778D01*
X144932789Y-101578844D01*
X144998253Y-101554426D01*
X145066526Y-101569277D01*
X145110201Y-101609218D01*
X145120446Y-101624551D01*
X145186769Y-101668867D01*
X145186770Y-101668868D01*
X145245247Y-101680499D01*
X145245250Y-101680500D01*
X145245252Y-101680500D01*
X145325500Y-101680500D01*
X145392539Y-101700185D01*
X145438294Y-101752989D01*
X145449500Y-101804500D01*
X145449500Y-103229562D01*
X145459219Y-103265833D01*
X145469979Y-103305990D01*
X145469980Y-103305991D01*
X145495100Y-103349500D01*
X145495101Y-103349501D01*
X145509539Y-103374510D01*
X145623181Y-103488152D01*
X145656666Y-103549475D01*
X145659500Y-103575833D01*
X145659500Y-103660500D01*
X145639815Y-103727539D01*
X145587011Y-103773294D01*
X145535500Y-103784500D01*
X144900678Y-103784500D01*
X144832349Y-103798091D01*
X144754865Y-103849865D01*
X144703091Y-103927349D01*
X144689500Y-103995677D01*
X144689500Y-103995680D01*
X144689500Y-104244320D01*
X144689500Y-104244322D01*
X144689499Y-104244322D01*
X144703091Y-104312648D01*
X144707192Y-104322549D01*
X144714659Y-104392019D01*
X144707192Y-104417451D01*
X144703091Y-104427351D01*
X144689500Y-104495677D01*
X144689500Y-104495680D01*
X144689500Y-104744320D01*
X144689500Y-104744322D01*
X144689499Y-104744322D01*
X144703091Y-104812648D01*
X144707192Y-104822549D01*
X144714659Y-104892019D01*
X144707192Y-104917451D01*
X144703091Y-104927351D01*
X144689500Y-104995677D01*
X144689500Y-105211205D01*
X144669815Y-105278244D01*
X144617011Y-105323999D01*
X144597595Y-105330979D01*
X144590459Y-105332891D01*
X144564010Y-105339978D01*
X144495489Y-105379540D01*
X144495486Y-105379542D01*
X144311847Y-105563181D01*
X144250524Y-105596666D01*
X144224166Y-105599500D01*
X144128036Y-105599500D01*
X143989949Y-105640045D01*
X143868873Y-105717856D01*
X143774623Y-105826626D01*
X143774622Y-105826628D01*
X143714834Y-105957543D01*
X143694353Y-106100000D01*
X143714834Y-106242456D01*
X143761461Y-106344552D01*
X143774623Y-106373373D01*
X143868872Y-106482143D01*
X143989947Y-106559953D01*
X143989950Y-106559954D01*
X143989949Y-106559954D01*
X144128036Y-106600499D01*
X144128038Y-106600500D01*
X144128039Y-106600500D01*
X144271962Y-106600500D01*
X144271962Y-106600499D01*
X144410053Y-106559953D01*
X144531128Y-106482143D01*
X144625377Y-106373373D01*
X144685165Y-106242457D01*
X144705647Y-106100000D01*
X144704339Y-106090905D01*
X144714279Y-106021749D01*
X144739392Y-105985577D01*
X144744374Y-105980595D01*
X144805695Y-105947112D01*
X144856244Y-105946661D01*
X144883683Y-105952119D01*
X144900679Y-105955500D01*
X144900680Y-105955500D01*
X145535500Y-105955500D01*
X145602539Y-105975185D01*
X145648294Y-106027989D01*
X145659500Y-106079500D01*
X145659500Y-106164167D01*
X145639815Y-106231206D01*
X145623181Y-106251848D01*
X145077541Y-106797487D01*
X145077535Y-106797495D01*
X145037982Y-106866004D01*
X145037979Y-106866009D01*
X145024326Y-106916962D01*
X145020515Y-106931188D01*
X145017500Y-106942439D01*
X145017500Y-107126324D01*
X144997815Y-107193363D01*
X144962392Y-107229425D01*
X144923448Y-107255446D01*
X144879132Y-107321769D01*
X144879131Y-107321770D01*
X144867500Y-107380247D01*
X144867500Y-108019752D01*
X144873357Y-108049197D01*
X144867130Y-108118789D01*
X144824267Y-108173966D01*
X144810199Y-108181494D01*
X144810693Y-108182398D01*
X144802905Y-108186650D01*
X144687812Y-108272809D01*
X144687809Y-108272812D01*
X144601649Y-108387906D01*
X144601645Y-108387913D01*
X144551403Y-108522620D01*
X144551401Y-108522627D01*
X144545000Y-108582155D01*
X144545000Y-108680000D01*
X145201000Y-108680000D01*
X145268039Y-108699685D01*
X145313794Y-108752489D01*
X145325000Y-108804000D01*
X145325000Y-109056000D01*
X145305315Y-109123039D01*
X145252511Y-109168794D01*
X145201000Y-109180000D01*
X144545000Y-109180000D01*
X144543129Y-109181870D01*
X144525315Y-109242539D01*
X144472511Y-109288294D01*
X144421000Y-109299500D01*
X140075834Y-109299500D01*
X140008795Y-109279815D01*
X139988153Y-109263181D01*
X139141163Y-108416191D01*
X139107678Y-108354868D01*
X139110912Y-108290196D01*
X139146726Y-108179976D01*
X139165642Y-107999999D01*
X139146726Y-107820022D01*
X139090803Y-107647911D01*
X139000319Y-107491187D01*
X138953754Y-107439471D01*
X138879233Y-107356706D01*
X138879230Y-107356704D01*
X138879229Y-107356703D01*
X138879228Y-107356702D01*
X138746161Y-107260023D01*
X138732819Y-107250329D01*
X138574438Y-107179815D01*
X138567498Y-107176725D01*
X138567496Y-107176724D01*
X138567495Y-107176724D01*
X138390484Y-107139099D01*
X138209516Y-107139099D01*
X138032504Y-107176724D01*
X137867180Y-107250329D01*
X137720769Y-107356704D01*
X137720766Y-107356706D01*
X137599681Y-107491186D01*
X137509196Y-107647913D01*
X137509194Y-107647917D01*
X137462351Y-107792085D01*
X137453274Y-107820022D01*
X137434358Y-107999999D01*
X137453274Y-108179976D01*
X137453275Y-108179979D01*
X137509194Y-108352080D01*
X137509196Y-108352084D01*
X137509197Y-108352087D01*
X137597739Y-108505447D01*
X137599681Y-108508811D01*
X137720766Y-108643291D01*
X137720769Y-108643293D01*
X137720772Y-108643296D01*
X137785513Y-108690333D01*
X137867180Y-108749668D01*
X137930642Y-108777922D01*
X138032502Y-108823273D01*
X138209516Y-108860899D01*
X138390484Y-108860899D01*
X138567498Y-108823273D01*
X138574642Y-108820092D01*
X138580151Y-108817640D01*
X138649401Y-108808355D01*
X138712677Y-108837983D01*
X138718268Y-108843238D01*
X139708349Y-109833319D01*
X139741834Y-109894642D01*
X139736850Y-109964334D01*
X139694978Y-110020267D01*
X139629514Y-110044684D01*
X139620668Y-110045000D01*
X139282022Y-110045000D01*
X139214983Y-110025315D01*
X139169228Y-109972511D01*
X139158701Y-109933962D01*
X139146726Y-109820023D01*
X139090803Y-109647912D01*
X139000319Y-109491188D01*
X138978377Y-109466819D01*
X138879233Y-109356707D01*
X138879230Y-109356705D01*
X138879229Y-109356704D01*
X138879228Y-109356703D01*
X138785071Y-109288294D01*
X138732819Y-109250330D01*
X138605894Y-109193820D01*
X138567498Y-109176726D01*
X138567496Y-109176725D01*
X138567495Y-109176725D01*
X138390484Y-109139100D01*
X138209516Y-109139100D01*
X138032504Y-109176725D01*
X137867180Y-109250330D01*
X137720769Y-109356705D01*
X137720766Y-109356707D01*
X137599681Y-109491187D01*
X137509196Y-109647914D01*
X137509194Y-109647918D01*
X137459519Y-109800802D01*
X137453274Y-109820023D01*
X137434358Y-110000000D01*
X137453274Y-110179977D01*
X137453275Y-110179980D01*
X137509194Y-110352081D01*
X137509196Y-110352085D01*
X137509197Y-110352088D01*
X137599681Y-110508812D01*
X137720766Y-110643292D01*
X137720769Y-110643294D01*
X137720772Y-110643297D01*
X137799505Y-110700500D01*
X137867180Y-110749669D01*
X137907318Y-110767539D01*
X138032502Y-110823274D01*
X138209516Y-110860900D01*
X138390484Y-110860900D01*
X138567498Y-110823274D01*
X138732821Y-110749668D01*
X138833893Y-110676235D01*
X138842913Y-110669682D01*
X138908719Y-110646202D01*
X138915798Y-110646000D01*
X142094667Y-110646000D01*
X142161706Y-110665685D01*
X142182348Y-110682319D01*
X142809540Y-111309511D01*
X142865489Y-111365460D01*
X142865491Y-111365461D01*
X142865495Y-111365464D01*
X142934004Y-111405017D01*
X142934011Y-111405021D01*
X143010438Y-111425500D01*
X143010440Y-111425500D01*
X171174561Y-111425500D01*
X171174563Y-111425500D01*
X171250990Y-111405021D01*
X171319512Y-111365460D01*
X171375461Y-111309511D01*
X172401733Y-110283237D01*
X172463054Y-110249754D01*
X172532745Y-110254738D01*
X172539838Y-110257637D01*
X172552502Y-110263275D01*
X172729516Y-110300901D01*
X172910484Y-110300901D01*
X173087498Y-110263275D01*
X173252821Y-110189669D01*
X173399228Y-110083298D01*
X173408681Y-110072800D01*
X173491188Y-109981166D01*
X173520319Y-109948813D01*
X173610803Y-109792089D01*
X173666726Y-109619978D01*
X173685642Y-109440001D01*
X173666726Y-109260024D01*
X173610803Y-109087913D01*
X173520319Y-108931189D01*
X173457030Y-108860899D01*
X173399233Y-108796708D01*
X173399230Y-108796706D01*
X173399229Y-108796705D01*
X173399228Y-108796704D01*
X173326024Y-108743518D01*
X173252819Y-108690331D01*
X173117869Y-108630249D01*
X173087498Y-108616727D01*
X173087496Y-108616726D01*
X173087495Y-108616726D01*
X172910484Y-108579101D01*
X172729516Y-108579101D01*
X172552504Y-108616726D01*
X172387180Y-108690331D01*
X172240769Y-108796706D01*
X172240766Y-108796708D01*
X172119681Y-108931188D01*
X172029196Y-109087915D01*
X172029194Y-109087919D01*
X171976423Y-109250332D01*
X171973274Y-109260024D01*
X171954358Y-109440001D01*
X171973274Y-109619978D01*
X171973275Y-109619981D01*
X172009085Y-109730194D01*
X172011080Y-109800035D01*
X171978835Y-109856193D01*
X171046849Y-110788181D01*
X170985526Y-110821666D01*
X170959168Y-110824500D01*
X148684500Y-110824500D01*
X148617461Y-110804815D01*
X148571706Y-110752011D01*
X148560500Y-110700500D01*
X148560500Y-109543720D01*
X148580185Y-109476681D01*
X148615610Y-109440617D01*
X148618228Y-109438867D01*
X148618231Y-109438867D01*
X148684552Y-109394552D01*
X148728867Y-109328231D01*
X148728867Y-109328229D01*
X148728868Y-109328229D01*
X148737552Y-109284568D01*
X148740500Y-109269748D01*
X148740500Y-108630252D01*
X148740500Y-108630249D01*
X148740499Y-108630247D01*
X148728868Y-108571770D01*
X148728867Y-108571769D01*
X148684552Y-108505447D01*
X148617609Y-108460717D01*
X148572804Y-108407104D01*
X148562500Y-108357615D01*
X148562500Y-108273675D01*
X148582185Y-108206636D01*
X148617610Y-108170573D01*
X148656551Y-108144553D01*
X148656552Y-108144552D01*
X148700867Y-108078231D01*
X148700867Y-108078229D01*
X148700868Y-108078229D01*
X148712499Y-108019752D01*
X148712500Y-108019750D01*
X148712500Y-107797844D01*
X152430000Y-107797844D01*
X152436401Y-107857372D01*
X152436403Y-107857379D01*
X152486645Y-107992086D01*
X152486649Y-107992093D01*
X152572809Y-108107187D01*
X152572812Y-108107190D01*
X152687906Y-108193350D01*
X152687913Y-108193354D01*
X152822620Y-108243596D01*
X152822627Y-108243598D01*
X152882155Y-108249999D01*
X152882172Y-108250000D01*
X153130000Y-108250000D01*
X153130000Y-107250000D01*
X152430000Y-107250000D01*
X152430000Y-107797844D01*
X148712500Y-107797844D01*
X148712500Y-107380249D01*
X148712499Y-107380247D01*
X148700868Y-107321770D01*
X148700867Y-107321769D01*
X148656552Y-107255447D01*
X148590230Y-107211132D01*
X148590229Y-107211131D01*
X148531752Y-107199500D01*
X148531748Y-107199500D01*
X147992252Y-107199500D01*
X147992247Y-107199500D01*
X147933770Y-107211131D01*
X147933769Y-107211132D01*
X147878891Y-107247801D01*
X147812213Y-107268679D01*
X147744833Y-107250194D01*
X147741109Y-107247801D01*
X147686230Y-107211132D01*
X147686229Y-107211131D01*
X147627752Y-107199500D01*
X147621688Y-107198903D01*
X147621874Y-107197011D01*
X147563310Y-107179815D01*
X147517555Y-107127011D01*
X147507611Y-107057853D01*
X147531543Y-107000577D01*
X147554550Y-106970236D01*
X147610741Y-106928712D01*
X147629165Y-106923542D01*
X147665984Y-106916217D01*
X147687650Y-106911908D01*
X147765135Y-106860135D01*
X147816908Y-106782650D01*
X147824990Y-106742019D01*
X147830500Y-106714322D01*
X147830500Y-106079500D01*
X147850185Y-106012461D01*
X147902989Y-105966706D01*
X147954500Y-105955500D01*
X148589322Y-105955500D01*
X148657650Y-105941908D01*
X148687196Y-105922166D01*
X148735135Y-105890135D01*
X148786908Y-105812650D01*
X148788102Y-105806649D01*
X148800500Y-105744322D01*
X148800500Y-105495677D01*
X148795051Y-105468284D01*
X148801278Y-105398692D01*
X148828986Y-105356412D01*
X148880888Y-105304511D01*
X149211383Y-104974015D01*
X149272704Y-104940532D01*
X149342395Y-104945516D01*
X149398329Y-104987387D01*
X149404819Y-104998783D01*
X149436442Y-105046109D01*
X149457320Y-105112787D01*
X149438835Y-105180167D01*
X149436442Y-105183891D01*
X149411132Y-105221769D01*
X149411131Y-105221770D01*
X149399500Y-105280247D01*
X149399500Y-106219752D01*
X149411131Y-106278229D01*
X149411132Y-106278230D01*
X149455447Y-106344552D01*
X149521769Y-106388867D01*
X149521770Y-106388868D01*
X149580247Y-106400499D01*
X149580250Y-106400500D01*
X149580252Y-106400500D01*
X151119750Y-106400500D01*
X151119751Y-106400499D01*
X151134568Y-106397552D01*
X151178229Y-106388868D01*
X151178229Y-106388867D01*
X151178231Y-106388867D01*
X151244552Y-106344552D01*
X151288867Y-106278231D01*
X151288867Y-106278229D01*
X151288868Y-106278229D01*
X151300499Y-106219752D01*
X151300500Y-106219750D01*
X151300500Y-106202155D01*
X152430000Y-106202155D01*
X152430000Y-106750000D01*
X153130000Y-106750000D01*
X153130000Y-105750000D01*
X153630000Y-105750000D01*
X153630000Y-108250000D01*
X153877828Y-108250000D01*
X153877844Y-108249999D01*
X153937372Y-108243598D01*
X153937379Y-108243596D01*
X154072086Y-108193354D01*
X154072093Y-108193350D01*
X154187187Y-108107190D01*
X154187190Y-108107187D01*
X154267290Y-108000189D01*
X154323223Y-107958318D01*
X154366556Y-107950500D01*
X155119750Y-107950500D01*
X155119751Y-107950499D01*
X155134568Y-107947552D01*
X155178229Y-107938868D01*
X155178231Y-107938867D01*
X155216108Y-107913558D01*
X155282785Y-107892679D01*
X155350165Y-107911163D01*
X155353892Y-107913558D01*
X155391768Y-107938867D01*
X155391770Y-107938868D01*
X155450247Y-107950499D01*
X155450250Y-107950500D01*
X155450252Y-107950500D01*
X156389750Y-107950500D01*
X156389751Y-107950499D01*
X156404568Y-107947552D01*
X156448229Y-107938868D01*
X156448231Y-107938867D01*
X156486108Y-107913558D01*
X156552785Y-107892679D01*
X156620165Y-107911163D01*
X156623892Y-107913558D01*
X156661768Y-107938867D01*
X156661770Y-107938868D01*
X156720247Y-107950499D01*
X156720250Y-107950500D01*
X156720252Y-107950500D01*
X157659750Y-107950500D01*
X157659751Y-107950499D01*
X157674568Y-107947552D01*
X157718229Y-107938868D01*
X157718231Y-107938867D01*
X157756108Y-107913558D01*
X157822785Y-107892679D01*
X157890165Y-107911163D01*
X157893892Y-107913558D01*
X157931768Y-107938867D01*
X157931770Y-107938868D01*
X157990247Y-107950499D01*
X157990250Y-107950500D01*
X157990252Y-107950500D01*
X158929750Y-107950500D01*
X158929751Y-107950499D01*
X158944568Y-107947552D01*
X158988229Y-107938868D01*
X158988231Y-107938867D01*
X159026108Y-107913558D01*
X159092785Y-107892679D01*
X159160165Y-107911163D01*
X159163892Y-107913558D01*
X159201768Y-107938867D01*
X159201770Y-107938868D01*
X159260247Y-107950499D01*
X159260250Y-107950500D01*
X159260252Y-107950500D01*
X160199750Y-107950500D01*
X160199751Y-107950499D01*
X160214568Y-107947552D01*
X160258229Y-107938868D01*
X160258231Y-107938867D01*
X160296108Y-107913558D01*
X160362785Y-107892679D01*
X160430165Y-107911163D01*
X160433892Y-107913558D01*
X160471768Y-107938867D01*
X160471770Y-107938868D01*
X160530247Y-107950499D01*
X160530250Y-107950500D01*
X160530252Y-107950500D01*
X161469750Y-107950500D01*
X161469751Y-107950499D01*
X161484568Y-107947552D01*
X161528229Y-107938868D01*
X161528231Y-107938867D01*
X161566108Y-107913558D01*
X161632785Y-107892679D01*
X161700165Y-107911163D01*
X161703892Y-107913558D01*
X161741768Y-107938867D01*
X161741770Y-107938868D01*
X161800247Y-107950499D01*
X161800250Y-107950500D01*
X161800252Y-107950500D01*
X162739750Y-107950500D01*
X162739751Y-107950499D01*
X162754568Y-107947552D01*
X162798229Y-107938868D01*
X162798231Y-107938867D01*
X162836108Y-107913558D01*
X162902785Y-107892679D01*
X162970165Y-107911163D01*
X162973892Y-107913558D01*
X163011768Y-107938867D01*
X163011770Y-107938868D01*
X163070247Y-107950499D01*
X163070250Y-107950500D01*
X163070252Y-107950500D01*
X164009750Y-107950500D01*
X164009751Y-107950499D01*
X164024568Y-107947552D01*
X164068229Y-107938868D01*
X164068231Y-107938867D01*
X164106108Y-107913558D01*
X164172785Y-107892679D01*
X164240165Y-107911163D01*
X164243892Y-107913558D01*
X164281768Y-107938867D01*
X164281770Y-107938868D01*
X164340247Y-107950499D01*
X164340250Y-107950500D01*
X164340252Y-107950500D01*
X165279750Y-107950500D01*
X165279751Y-107950499D01*
X165294568Y-107947552D01*
X165338229Y-107938868D01*
X165338229Y-107938867D01*
X165338231Y-107938867D01*
X165404552Y-107894552D01*
X165448867Y-107828231D01*
X165448867Y-107828229D01*
X165448868Y-107828229D01*
X165460499Y-107769752D01*
X165460500Y-107769750D01*
X165460500Y-107440000D01*
X171954358Y-107440000D01*
X171973274Y-107619977D01*
X171973275Y-107619980D01*
X172029194Y-107792081D01*
X172029196Y-107792085D01*
X172029197Y-107792088D01*
X172099327Y-107913558D01*
X172119681Y-107948812D01*
X172240766Y-108083292D01*
X172240769Y-108083294D01*
X172240772Y-108083297D01*
X172289623Y-108118789D01*
X172387180Y-108189669D01*
X172425290Y-108206636D01*
X172552502Y-108263274D01*
X172729516Y-108300900D01*
X172910484Y-108300900D01*
X173087498Y-108263274D01*
X173252821Y-108189668D01*
X173399228Y-108083297D01*
X173403790Y-108078231D01*
X173456448Y-108019748D01*
X173520319Y-107948812D01*
X173610803Y-107792088D01*
X173666726Y-107619977D01*
X173685642Y-107440000D01*
X173666726Y-107260023D01*
X173610803Y-107087912D01*
X173520319Y-106931188D01*
X173502959Y-106911908D01*
X173399233Y-106796707D01*
X173399230Y-106796705D01*
X173399229Y-106796704D01*
X173399228Y-106796703D01*
X173323303Y-106741540D01*
X173252819Y-106690330D01*
X173125894Y-106633820D01*
X173087498Y-106616726D01*
X173087496Y-106616725D01*
X173087495Y-106616725D01*
X172910484Y-106579100D01*
X172729516Y-106579100D01*
X172552504Y-106616725D01*
X172387180Y-106690330D01*
X172240769Y-106796705D01*
X172240766Y-106796707D01*
X172119681Y-106931187D01*
X172029196Y-107087914D01*
X172029194Y-107087918D01*
X171973275Y-107260019D01*
X171973274Y-107260023D01*
X171954358Y-107440000D01*
X165460500Y-107440000D01*
X165460500Y-106230249D01*
X165460499Y-106230247D01*
X165448868Y-106171770D01*
X165448867Y-106171769D01*
X165404552Y-106105447D01*
X165338230Y-106061132D01*
X165338229Y-106061131D01*
X165279752Y-106049500D01*
X165279748Y-106049500D01*
X164340252Y-106049500D01*
X164340247Y-106049500D01*
X164281770Y-106061131D01*
X164281769Y-106061132D01*
X164243891Y-106086442D01*
X164177213Y-106107320D01*
X164109833Y-106088835D01*
X164106109Y-106086442D01*
X164068230Y-106061132D01*
X164068229Y-106061131D01*
X164009752Y-106049500D01*
X164009748Y-106049500D01*
X163850833Y-106049500D01*
X163783794Y-106029815D01*
X163763152Y-106013181D01*
X161714395Y-103964424D01*
X161680910Y-103903101D01*
X161679339Y-103859094D01*
X161680647Y-103850000D01*
X161660165Y-103707543D01*
X161600377Y-103576627D01*
X161506128Y-103467857D01*
X161385053Y-103390047D01*
X161385051Y-103390046D01*
X161385049Y-103390045D01*
X161385050Y-103390045D01*
X161246963Y-103349500D01*
X161246961Y-103349500D01*
X161103039Y-103349500D01*
X161103036Y-103349500D01*
X160964949Y-103390045D01*
X160843873Y-103467856D01*
X160749623Y-103576626D01*
X160749622Y-103576628D01*
X160689834Y-103707543D01*
X160669353Y-103850000D01*
X160689834Y-103992456D01*
X160742395Y-104107547D01*
X160749623Y-104123373D01*
X160843872Y-104232143D01*
X160964947Y-104309953D01*
X160964950Y-104309954D01*
X160964949Y-104309954D01*
X161072107Y-104341417D01*
X161100280Y-104349690D01*
X161103036Y-104350499D01*
X161103038Y-104350500D01*
X161199167Y-104350500D01*
X161266206Y-104370185D01*
X161286848Y-104386819D01*
X162737848Y-105837819D01*
X162771333Y-105899142D01*
X162766349Y-105968834D01*
X162724477Y-106024767D01*
X162659013Y-106049184D01*
X162650167Y-106049500D01*
X161800247Y-106049500D01*
X161741770Y-106061131D01*
X161741769Y-106061132D01*
X161703891Y-106086442D01*
X161637213Y-106107320D01*
X161569833Y-106088835D01*
X161566109Y-106086442D01*
X161528230Y-106061132D01*
X161528229Y-106061131D01*
X161469752Y-106049500D01*
X161469748Y-106049500D01*
X160530252Y-106049500D01*
X160530247Y-106049500D01*
X160471770Y-106061131D01*
X160471769Y-106061132D01*
X160433891Y-106086442D01*
X160367213Y-106107320D01*
X160299833Y-106088835D01*
X160296109Y-106086442D01*
X160258230Y-106061132D01*
X160258229Y-106061131D01*
X160199752Y-106049500D01*
X160199748Y-106049500D01*
X159260252Y-106049500D01*
X159260247Y-106049500D01*
X159201770Y-106061131D01*
X159201769Y-106061132D01*
X159163891Y-106086442D01*
X159097213Y-106107320D01*
X159029833Y-106088835D01*
X159026109Y-106086442D01*
X158988230Y-106061132D01*
X158988229Y-106061131D01*
X158929752Y-106049500D01*
X158929748Y-106049500D01*
X157990252Y-106049500D01*
X157990247Y-106049500D01*
X157931770Y-106061131D01*
X157931769Y-106061132D01*
X157893891Y-106086442D01*
X157827213Y-106107320D01*
X157759833Y-106088835D01*
X157756109Y-106086442D01*
X157718230Y-106061132D01*
X157718229Y-106061131D01*
X157659752Y-106049500D01*
X157659748Y-106049500D01*
X156720252Y-106049500D01*
X156720247Y-106049500D01*
X156661770Y-106061131D01*
X156661769Y-106061132D01*
X156623891Y-106086442D01*
X156557213Y-106107320D01*
X156489833Y-106088835D01*
X156486109Y-106086442D01*
X156448230Y-106061132D01*
X156448229Y-106061131D01*
X156389752Y-106049500D01*
X156389748Y-106049500D01*
X155450252Y-106049500D01*
X155450247Y-106049500D01*
X155391770Y-106061131D01*
X155391769Y-106061132D01*
X155353891Y-106086442D01*
X155287213Y-106107320D01*
X155219833Y-106088835D01*
X155216109Y-106086442D01*
X155178230Y-106061132D01*
X155178229Y-106061131D01*
X155119752Y-106049500D01*
X155119748Y-106049500D01*
X154366556Y-106049500D01*
X154299517Y-106029815D01*
X154267290Y-105999811D01*
X154187190Y-105892812D01*
X154187187Y-105892809D01*
X154072093Y-105806649D01*
X154072086Y-105806645D01*
X153937379Y-105756403D01*
X153937372Y-105756401D01*
X153877844Y-105750000D01*
X153630000Y-105750000D01*
X153130000Y-105750000D01*
X152882155Y-105750000D01*
X152822627Y-105756401D01*
X152822620Y-105756403D01*
X152687913Y-105806645D01*
X152687906Y-105806649D01*
X152572812Y-105892809D01*
X152572809Y-105892812D01*
X152486649Y-106007906D01*
X152486645Y-106007913D01*
X152436403Y-106142620D01*
X152436401Y-106142627D01*
X152430000Y-106202155D01*
X151300500Y-106202155D01*
X151300500Y-105280249D01*
X151300499Y-105280247D01*
X151288868Y-105221770D01*
X151288867Y-105221768D01*
X151263558Y-105183892D01*
X151242679Y-105117215D01*
X151261163Y-105049835D01*
X151263558Y-105046108D01*
X151288867Y-105008231D01*
X151288868Y-105008229D01*
X151300499Y-104949752D01*
X151300500Y-104949750D01*
X151300500Y-104010249D01*
X151300499Y-104010247D01*
X151288868Y-103951770D01*
X151288867Y-103951768D01*
X151263558Y-103913892D01*
X151242679Y-103847215D01*
X151261163Y-103779835D01*
X151263558Y-103776108D01*
X151288867Y-103738231D01*
X151288868Y-103738229D01*
X151300499Y-103679752D01*
X151300500Y-103679750D01*
X151300500Y-102740249D01*
X151300499Y-102740247D01*
X151288868Y-102681770D01*
X151288867Y-102681768D01*
X151263558Y-102643892D01*
X151242679Y-102577215D01*
X151261163Y-102509835D01*
X151263558Y-102506108D01*
X151288867Y-102468231D01*
X151288868Y-102468229D01*
X151300499Y-102409752D01*
X151300500Y-102409750D01*
X151300500Y-102190000D01*
X154134353Y-102190000D01*
X154154834Y-102332456D01*
X154211609Y-102456774D01*
X154214623Y-102463373D01*
X154308872Y-102572143D01*
X154429947Y-102649953D01*
X154429950Y-102649954D01*
X154429949Y-102649954D01*
X154537107Y-102681417D01*
X154559228Y-102687913D01*
X154568036Y-102690499D01*
X154568038Y-102690500D01*
X154568039Y-102690500D01*
X154711961Y-102690500D01*
X154720771Y-102687912D01*
X154787801Y-102687114D01*
X154800438Y-102690500D01*
X156971499Y-102690500D01*
X157038538Y-102710185D01*
X157065211Y-102733296D01*
X157098872Y-102772143D01*
X157219947Y-102849953D01*
X157219950Y-102849954D01*
X157219949Y-102849954D01*
X157358036Y-102890499D01*
X157358038Y-102890500D01*
X157358039Y-102890500D01*
X157501962Y-102890500D01*
X157501962Y-102890499D01*
X157640053Y-102849953D01*
X157761128Y-102772143D01*
X157855377Y-102663373D01*
X157915165Y-102532457D01*
X157935647Y-102390000D01*
X157915165Y-102247543D01*
X157855377Y-102116627D01*
X157855375Y-102116625D01*
X157855374Y-102116622D01*
X157809910Y-102064154D01*
X157780885Y-102000599D01*
X157790829Y-101931440D01*
X157826466Y-101890311D01*
X157824423Y-101887953D01*
X157831120Y-101882147D01*
X157831128Y-101882143D01*
X157925377Y-101773373D01*
X157985165Y-101642457D01*
X158005647Y-101500000D01*
X157985165Y-101357543D01*
X157925377Y-101226627D01*
X157831128Y-101117857D01*
X157710053Y-101040047D01*
X157710051Y-101040046D01*
X157710049Y-101040045D01*
X157710050Y-101040045D01*
X157571963Y-100999500D01*
X157571961Y-100999500D01*
X157428039Y-100999500D01*
X157428036Y-100999500D01*
X157289949Y-101040045D01*
X157168873Y-101117856D01*
X157168872Y-101117856D01*
X157168872Y-101117857D01*
X157138973Y-101152363D01*
X157135212Y-101156703D01*
X157076433Y-101194477D01*
X157041499Y-101199500D01*
X156198586Y-101199500D01*
X156131547Y-101179815D01*
X156104873Y-101156702D01*
X156006864Y-101043593D01*
X156006863Y-101043592D01*
X155885788Y-100965782D01*
X155885786Y-100965781D01*
X155885784Y-100965780D01*
X155885785Y-100965780D01*
X155747698Y-100925235D01*
X155747696Y-100925235D01*
X155603774Y-100925235D01*
X155603771Y-100925235D01*
X155465684Y-100965780D01*
X155344608Y-101043591D01*
X155250358Y-101152361D01*
X155250357Y-101152363D01*
X155190569Y-101283278D01*
X155170088Y-101425735D01*
X155190569Y-101568191D01*
X155232497Y-101659998D01*
X155250358Y-101699108D01*
X155344607Y-101807878D01*
X155344609Y-101807879D01*
X155344611Y-101807881D01*
X155427553Y-101861185D01*
X155473308Y-101913988D01*
X155483252Y-101983147D01*
X155454227Y-102046703D01*
X155395449Y-102084477D01*
X155360514Y-102089500D01*
X155224016Y-102089500D01*
X155156977Y-102069815D01*
X155111222Y-102017012D01*
X155087245Y-101964511D01*
X155065377Y-101916627D01*
X154971128Y-101807857D01*
X154850053Y-101730047D01*
X154850051Y-101730046D01*
X154850049Y-101730045D01*
X154850050Y-101730045D01*
X154711963Y-101689500D01*
X154711961Y-101689500D01*
X154568039Y-101689500D01*
X154568036Y-101689500D01*
X154429949Y-101730045D01*
X154308873Y-101807856D01*
X154214623Y-101916626D01*
X154214622Y-101916628D01*
X154154834Y-102047543D01*
X154134353Y-102190000D01*
X151300500Y-102190000D01*
X151300500Y-101470249D01*
X151300499Y-101470247D01*
X151288868Y-101411770D01*
X151288867Y-101411768D01*
X151263558Y-101373892D01*
X151242679Y-101307215D01*
X151261163Y-101239835D01*
X151263558Y-101236108D01*
X151288867Y-101198231D01*
X151288868Y-101198229D01*
X151300499Y-101139752D01*
X151300500Y-101139750D01*
X151300500Y-100200249D01*
X151300499Y-100200247D01*
X151288868Y-100141770D01*
X151288867Y-100141768D01*
X151263558Y-100103892D01*
X151242679Y-100037215D01*
X151261163Y-99969835D01*
X151263558Y-99966108D01*
X151288867Y-99928231D01*
X151288868Y-99928229D01*
X151300499Y-99869752D01*
X151300500Y-99869750D01*
X151300500Y-98930249D01*
X151300499Y-98930247D01*
X151288868Y-98871770D01*
X151288867Y-98871768D01*
X151279563Y-98857844D01*
X155250000Y-98857844D01*
X155256401Y-98917372D01*
X155256403Y-98917379D01*
X155306645Y-99052086D01*
X155306649Y-99052093D01*
X155392809Y-99167187D01*
X155392812Y-99167190D01*
X155507906Y-99253350D01*
X155507913Y-99253354D01*
X155642620Y-99303596D01*
X155642627Y-99303598D01*
X155702155Y-99309999D01*
X155702172Y-99310000D01*
X155950000Y-99310000D01*
X156450000Y-99310000D01*
X156697828Y-99310000D01*
X156697844Y-99309999D01*
X156757372Y-99303598D01*
X156757376Y-99303597D01*
X156856666Y-99266564D01*
X156926358Y-99261580D01*
X156943334Y-99266564D01*
X157042623Y-99303597D01*
X157042627Y-99303598D01*
X157102155Y-99309999D01*
X157102172Y-99310000D01*
X157350000Y-99310000D01*
X157850000Y-99310000D01*
X158097828Y-99310000D01*
X158097844Y-99309999D01*
X158157372Y-99303598D01*
X158157376Y-99303597D01*
X158256666Y-99266564D01*
X158326358Y-99261580D01*
X158343334Y-99266564D01*
X158442623Y-99303597D01*
X158442627Y-99303598D01*
X158502155Y-99309999D01*
X158502172Y-99310000D01*
X158750000Y-99310000D01*
X159250000Y-99310000D01*
X159497828Y-99310000D01*
X159497844Y-99309999D01*
X159557372Y-99303598D01*
X159557379Y-99303596D01*
X159692086Y-99253354D01*
X159692093Y-99253350D01*
X159807187Y-99167190D01*
X159807190Y-99167187D01*
X159893350Y-99052093D01*
X159893354Y-99052086D01*
X159943596Y-98917379D01*
X159943598Y-98917372D01*
X159949999Y-98857844D01*
X159950000Y-98857827D01*
X159950000Y-98610000D01*
X159250000Y-98610000D01*
X159250000Y-99310000D01*
X158750000Y-99310000D01*
X158750000Y-98610000D01*
X157850000Y-98610000D01*
X157850000Y-99310000D01*
X157350000Y-99310000D01*
X157350000Y-98610000D01*
X156450000Y-98610000D01*
X156450000Y-99310000D01*
X155950000Y-99310000D01*
X155950000Y-98610000D01*
X155250000Y-98610000D01*
X155250000Y-98857844D01*
X151279563Y-98857844D01*
X151263558Y-98833892D01*
X151242679Y-98767215D01*
X151261163Y-98699835D01*
X151263558Y-98696108D01*
X151288867Y-98658231D01*
X151288868Y-98658229D01*
X151300499Y-98599752D01*
X151300500Y-98599750D01*
X151300500Y-97660249D01*
X151300499Y-97660247D01*
X151288868Y-97601770D01*
X151288867Y-97601768D01*
X151263558Y-97563892D01*
X151242679Y-97497215D01*
X151253479Y-97457844D01*
X155250000Y-97457844D01*
X155256401Y-97517372D01*
X155256403Y-97517383D01*
X155293434Y-97616668D01*
X155298418Y-97686360D01*
X155293434Y-97703332D01*
X155256403Y-97802616D01*
X155256401Y-97802627D01*
X155250000Y-97862155D01*
X155250000Y-98110000D01*
X155950000Y-98110000D01*
X156450000Y-98110000D01*
X157350000Y-98110000D01*
X157850000Y-98110000D01*
X158750000Y-98110000D01*
X159250000Y-98110000D01*
X159950000Y-98110000D01*
X159950000Y-97862172D01*
X159949999Y-97862155D01*
X159943598Y-97802627D01*
X159943597Y-97802623D01*
X159906564Y-97703334D01*
X159901580Y-97633642D01*
X159906564Y-97616666D01*
X159943597Y-97517376D01*
X159943598Y-97517372D01*
X159949999Y-97457844D01*
X159950000Y-97457827D01*
X159950000Y-97210000D01*
X159250000Y-97210000D01*
X159250000Y-98110000D01*
X158750000Y-98110000D01*
X158750000Y-97210000D01*
X157850000Y-97210000D01*
X157850000Y-98110000D01*
X157350000Y-98110000D01*
X157350000Y-97210000D01*
X156450000Y-97210000D01*
X156450000Y-98110000D01*
X155950000Y-98110000D01*
X155950000Y-97210000D01*
X155250000Y-97210000D01*
X155250000Y-97457844D01*
X151253479Y-97457844D01*
X151261163Y-97429835D01*
X151263558Y-97426108D01*
X151288867Y-97388231D01*
X151288868Y-97388229D01*
X151300499Y-97329752D01*
X151300500Y-97329750D01*
X151300500Y-96390249D01*
X151300499Y-96390247D01*
X151288868Y-96331770D01*
X151288867Y-96331768D01*
X151263558Y-96293892D01*
X151242679Y-96227215D01*
X151261163Y-96159835D01*
X151263558Y-96156108D01*
X151288867Y-96118231D01*
X151288868Y-96118229D01*
X151300499Y-96059752D01*
X151300500Y-96059750D01*
X151300500Y-96057844D01*
X155250000Y-96057844D01*
X155256401Y-96117372D01*
X155256403Y-96117383D01*
X155293434Y-96216668D01*
X155298418Y-96286360D01*
X155293434Y-96303332D01*
X155256403Y-96402616D01*
X155256401Y-96402627D01*
X155250000Y-96462155D01*
X155250000Y-96710000D01*
X155950000Y-96710000D01*
X156450000Y-96710000D01*
X157350000Y-96710000D01*
X157850000Y-96710000D01*
X158750000Y-96710000D01*
X159250000Y-96710000D01*
X159950000Y-96710000D01*
X159950000Y-96462172D01*
X159949999Y-96462155D01*
X159943598Y-96402627D01*
X159943597Y-96402623D01*
X159906564Y-96303334D01*
X159901580Y-96233642D01*
X159906564Y-96216666D01*
X159943597Y-96117376D01*
X159943598Y-96117372D01*
X159949999Y-96057844D01*
X159950000Y-96057827D01*
X159950000Y-95810000D01*
X159250000Y-95810000D01*
X159250000Y-96710000D01*
X158750000Y-96710000D01*
X158750000Y-95810000D01*
X157850000Y-95810000D01*
X157850000Y-96710000D01*
X157350000Y-96710000D01*
X157350000Y-95810000D01*
X156450000Y-95810000D01*
X156450000Y-96710000D01*
X155950000Y-96710000D01*
X155950000Y-95810000D01*
X155250000Y-95810000D01*
X155250000Y-96057844D01*
X151300500Y-96057844D01*
X151300500Y-95120249D01*
X151300499Y-95120247D01*
X151288945Y-95062155D01*
X155250000Y-95062155D01*
X155250000Y-95310000D01*
X155950000Y-95310000D01*
X156450000Y-95310000D01*
X157350000Y-95310000D01*
X157850000Y-95310000D01*
X158750000Y-95310000D01*
X159250000Y-95310000D01*
X159950000Y-95310000D01*
X159950000Y-95062172D01*
X159949999Y-95062155D01*
X159943598Y-95002627D01*
X159943596Y-95002620D01*
X159893354Y-94867913D01*
X159893350Y-94867906D01*
X159807190Y-94752812D01*
X159807187Y-94752809D01*
X159692093Y-94666649D01*
X159692086Y-94666645D01*
X159557379Y-94616403D01*
X159557372Y-94616401D01*
X159497844Y-94610000D01*
X159250000Y-94610000D01*
X159250000Y-95310000D01*
X158750000Y-95310000D01*
X158750000Y-94610000D01*
X158502155Y-94610000D01*
X158442627Y-94616401D01*
X158442616Y-94616403D01*
X158343332Y-94653434D01*
X158273640Y-94658418D01*
X158256668Y-94653434D01*
X158157383Y-94616403D01*
X158157372Y-94616401D01*
X158097844Y-94610000D01*
X157850000Y-94610000D01*
X157850000Y-95310000D01*
X157350000Y-95310000D01*
X157350000Y-94610000D01*
X157102155Y-94610000D01*
X157042627Y-94616401D01*
X157042616Y-94616403D01*
X156943332Y-94653434D01*
X156873640Y-94658418D01*
X156856668Y-94653434D01*
X156757383Y-94616403D01*
X156757372Y-94616401D01*
X156697844Y-94610000D01*
X156450000Y-94610000D01*
X156450000Y-95310000D01*
X155950000Y-95310000D01*
X155950000Y-94610000D01*
X155702155Y-94610000D01*
X155642627Y-94616401D01*
X155642620Y-94616403D01*
X155507913Y-94666645D01*
X155507906Y-94666649D01*
X155392812Y-94752809D01*
X155392809Y-94752812D01*
X155306649Y-94867906D01*
X155306645Y-94867913D01*
X155256403Y-95002620D01*
X155256401Y-95002627D01*
X155250000Y-95062155D01*
X151288945Y-95062155D01*
X151288868Y-95061770D01*
X151288867Y-95061768D01*
X151263558Y-95023892D01*
X151242679Y-94957215D01*
X151261163Y-94889835D01*
X151263558Y-94886108D01*
X151288867Y-94848231D01*
X151288868Y-94848229D01*
X151300499Y-94789752D01*
X151300500Y-94789750D01*
X151300500Y-93850249D01*
X151300499Y-93850247D01*
X151288868Y-93791770D01*
X151288867Y-93791768D01*
X151263558Y-93753892D01*
X151242679Y-93687215D01*
X151261163Y-93619835D01*
X151263558Y-93616108D01*
X151288867Y-93578231D01*
X151288868Y-93578229D01*
X151300499Y-93519752D01*
X151300500Y-93519750D01*
X151300500Y-92764833D01*
X151320185Y-92697794D01*
X151372989Y-92652039D01*
X151442147Y-92642095D01*
X151505703Y-92671120D01*
X151512181Y-92677152D01*
X151769540Y-92934511D01*
X151825489Y-92990460D01*
X151825491Y-92990461D01*
X151825495Y-92990464D01*
X151894004Y-93030017D01*
X151894011Y-93030021D01*
X151970438Y-93050500D01*
X165791499Y-93050500D01*
X165858538Y-93070185D01*
X165885211Y-93093296D01*
X165918872Y-93132143D01*
X166039947Y-93209953D01*
X166039950Y-93209954D01*
X166039949Y-93209954D01*
X166178036Y-93250499D01*
X166178038Y-93250500D01*
X166178039Y-93250500D01*
X166321962Y-93250500D01*
X166321962Y-93250499D01*
X166448004Y-93213491D01*
X166460050Y-93209954D01*
X166460050Y-93209953D01*
X166460053Y-93209953D01*
X166581128Y-93132143D01*
X166675377Y-93023373D01*
X166675377Y-93023372D01*
X166681185Y-93016670D01*
X166683818Y-93018952D01*
X166723974Y-92984148D01*
X166793131Y-92974196D01*
X166856690Y-93003212D01*
X166894473Y-93061986D01*
X166899500Y-93096936D01*
X166899500Y-93519752D01*
X166911131Y-93578229D01*
X166911132Y-93578230D01*
X166936442Y-93616109D01*
X166957320Y-93682787D01*
X166938835Y-93750167D01*
X166936442Y-93753891D01*
X166911132Y-93791769D01*
X166911131Y-93791770D01*
X166899500Y-93850247D01*
X166899500Y-94789752D01*
X166911131Y-94848229D01*
X166911132Y-94848230D01*
X166936442Y-94886109D01*
X166957320Y-94952787D01*
X166938835Y-95020167D01*
X166936442Y-95023891D01*
X166911132Y-95061769D01*
X166911131Y-95061770D01*
X166899500Y-95120247D01*
X166899500Y-96059752D01*
X166911131Y-96118229D01*
X166911132Y-96118230D01*
X166936442Y-96156109D01*
X166957320Y-96222787D01*
X166938835Y-96290167D01*
X166936442Y-96293891D01*
X166911132Y-96331769D01*
X166911131Y-96331770D01*
X166899500Y-96390247D01*
X166899500Y-97329752D01*
X166911131Y-97388229D01*
X166911132Y-97388230D01*
X166936442Y-97426109D01*
X166957320Y-97492787D01*
X166938835Y-97560167D01*
X166936442Y-97563891D01*
X166911132Y-97601769D01*
X166911131Y-97601770D01*
X166899500Y-97660247D01*
X166899500Y-98599752D01*
X166911131Y-98658229D01*
X166911132Y-98658230D01*
X166936442Y-98696109D01*
X166957320Y-98762787D01*
X166938835Y-98830167D01*
X166936442Y-98833891D01*
X166911132Y-98871769D01*
X166911131Y-98871770D01*
X166899500Y-98930247D01*
X166899500Y-99869752D01*
X166911131Y-99928229D01*
X166911132Y-99928230D01*
X166936442Y-99966109D01*
X166957320Y-100032787D01*
X166938835Y-100100167D01*
X166936442Y-100103891D01*
X166911132Y-100141769D01*
X166911131Y-100141770D01*
X166899500Y-100200247D01*
X166899500Y-101139752D01*
X166911131Y-101198229D01*
X166911132Y-101198230D01*
X166936442Y-101236109D01*
X166957320Y-101302787D01*
X166938835Y-101370167D01*
X166936442Y-101373891D01*
X166911132Y-101411769D01*
X166911131Y-101411770D01*
X166899500Y-101470247D01*
X166899500Y-102409752D01*
X166911131Y-102468229D01*
X166911132Y-102468230D01*
X166936442Y-102506109D01*
X166957320Y-102572787D01*
X166938835Y-102640167D01*
X166936442Y-102643891D01*
X166911132Y-102681769D01*
X166911131Y-102681770D01*
X166899500Y-102740247D01*
X166899500Y-103679752D01*
X166911131Y-103738229D01*
X166911132Y-103738230D01*
X166936442Y-103776109D01*
X166957320Y-103842787D01*
X166938835Y-103910167D01*
X166936442Y-103913891D01*
X166911132Y-103951769D01*
X166911131Y-103951770D01*
X166899500Y-104010247D01*
X166899500Y-104949752D01*
X166911131Y-105008229D01*
X166911132Y-105008230D01*
X166936442Y-105046109D01*
X166957320Y-105112787D01*
X166938835Y-105180167D01*
X166936442Y-105183891D01*
X166911132Y-105221769D01*
X166911131Y-105221770D01*
X166899500Y-105280247D01*
X166899500Y-106219752D01*
X166911131Y-106278229D01*
X166911132Y-106278230D01*
X166955447Y-106344552D01*
X167021769Y-106388867D01*
X167021770Y-106388868D01*
X167080247Y-106400499D01*
X167080250Y-106400500D01*
X167080252Y-106400500D01*
X168619750Y-106400500D01*
X168619751Y-106400499D01*
X168634568Y-106397552D01*
X168678229Y-106388868D01*
X168678229Y-106388867D01*
X168678231Y-106388867D01*
X168744552Y-106344552D01*
X168788867Y-106278231D01*
X168788867Y-106278229D01*
X168788868Y-106278229D01*
X168800499Y-106219752D01*
X168800500Y-106219750D01*
X168800500Y-106014500D01*
X168820185Y-105947461D01*
X168872989Y-105901706D01*
X168924500Y-105890500D01*
X176484560Y-105890500D01*
X176484562Y-105890500D01*
X176560989Y-105870021D01*
X176629511Y-105830460D01*
X176685460Y-105774511D01*
X179293152Y-103166819D01*
X179354475Y-103133334D01*
X179380833Y-103130500D01*
X180749746Y-103130500D01*
X180749748Y-103130500D01*
X180771308Y-103126211D01*
X180840897Y-103132437D01*
X180896075Y-103175298D01*
X180919322Y-103241187D01*
X180919500Y-103247828D01*
X180919500Y-111775500D01*
X180899815Y-111842539D01*
X180847011Y-111888294D01*
X180795500Y-111899500D01*
X130324500Y-111899500D01*
X130257461Y-111879815D01*
X130211706Y-111827011D01*
X130200500Y-111775500D01*
X130200500Y-104721153D01*
X135399500Y-104721153D01*
X135399500Y-104878846D01*
X135430261Y-105033489D01*
X135430264Y-105033501D01*
X135490602Y-105179172D01*
X135490609Y-105179185D01*
X135578210Y-105310288D01*
X135578213Y-105310292D01*
X135689707Y-105421786D01*
X135689711Y-105421789D01*
X135820814Y-105509390D01*
X135820827Y-105509397D01*
X135950675Y-105563181D01*
X135966503Y-105569737D01*
X136116131Y-105599500D01*
X136121153Y-105600499D01*
X136121156Y-105600500D01*
X136121158Y-105600500D01*
X136278844Y-105600500D01*
X136278845Y-105600499D01*
X136433497Y-105569737D01*
X136579179Y-105509394D01*
X136710289Y-105421789D01*
X136821789Y-105310289D01*
X136909394Y-105179179D01*
X136969737Y-105033497D01*
X137000500Y-104878842D01*
X137000500Y-104862844D01*
X142500000Y-104862844D01*
X142506401Y-104922372D01*
X142506403Y-104922379D01*
X142556645Y-105057086D01*
X142556649Y-105057093D01*
X142642809Y-105172187D01*
X142642812Y-105172190D01*
X142757906Y-105258350D01*
X142757913Y-105258354D01*
X142892620Y-105308596D01*
X142892627Y-105308598D01*
X142952155Y-105314999D01*
X142952172Y-105315000D01*
X143050000Y-105315000D01*
X143550000Y-105315000D01*
X143647828Y-105315000D01*
X143647844Y-105314999D01*
X143707372Y-105308598D01*
X143707379Y-105308596D01*
X143842086Y-105258354D01*
X143842093Y-105258350D01*
X143957187Y-105172190D01*
X143957190Y-105172187D01*
X144043350Y-105057093D01*
X144043354Y-105057086D01*
X144093596Y-104922379D01*
X144093598Y-104922372D01*
X144099999Y-104862844D01*
X144100000Y-104862827D01*
X144100000Y-104785000D01*
X143550000Y-104785000D01*
X143550000Y-105315000D01*
X143050000Y-105315000D01*
X143050000Y-104785000D01*
X142500000Y-104785000D01*
X142500000Y-104862844D01*
X137000500Y-104862844D01*
X137000500Y-104721158D01*
X137000500Y-104721155D01*
X137000499Y-104721153D01*
X136988325Y-104659953D01*
X136969737Y-104566503D01*
X136951871Y-104523371D01*
X136909397Y-104420827D01*
X136909390Y-104420814D01*
X136821789Y-104289711D01*
X136821786Y-104289707D01*
X136710292Y-104178213D01*
X136710288Y-104178210D01*
X136579185Y-104090609D01*
X136579172Y-104090602D01*
X136433501Y-104030264D01*
X136433489Y-104030261D01*
X136278845Y-103999500D01*
X136278842Y-103999500D01*
X136121158Y-103999500D01*
X136121155Y-103999500D01*
X135966510Y-104030261D01*
X135966498Y-104030264D01*
X135820827Y-104090602D01*
X135820814Y-104090609D01*
X135689711Y-104178210D01*
X135689707Y-104178213D01*
X135578213Y-104289707D01*
X135578210Y-104289711D01*
X135490609Y-104420814D01*
X135490602Y-104420827D01*
X135430264Y-104566498D01*
X135430261Y-104566510D01*
X135399500Y-104721153D01*
X130200500Y-104721153D01*
X130200500Y-103300000D01*
X137440793Y-103300000D01*
X137459569Y-103478640D01*
X137505340Y-103619511D01*
X137515075Y-103649471D01*
X137604887Y-103805029D01*
X137688429Y-103897812D01*
X137723373Y-103936622D01*
X137725078Y-103938515D01*
X137870396Y-104044095D01*
X138034490Y-104117154D01*
X138210188Y-104154500D01*
X138389812Y-104154500D01*
X138565510Y-104117154D01*
X138729604Y-104044095D01*
X138874922Y-103938515D01*
X138995113Y-103805029D01*
X139075959Y-103665000D01*
X141359353Y-103665000D01*
X141379834Y-103807456D01*
X141428442Y-103913891D01*
X141439623Y-103938373D01*
X141533872Y-104047143D01*
X141654947Y-104124953D01*
X141654950Y-104124954D01*
X141654949Y-104124954D01*
X141793036Y-104165499D01*
X141793038Y-104165500D01*
X141793039Y-104165500D01*
X141936962Y-104165500D01*
X141936962Y-104165499D01*
X142075053Y-104124953D01*
X142196128Y-104047143D01*
X142229788Y-104008296D01*
X142288567Y-103970523D01*
X142323501Y-103965500D01*
X142395737Y-103965500D01*
X142462776Y-103985185D01*
X142508531Y-104037989D01*
X142518475Y-104107147D01*
X142511918Y-104132835D01*
X142506403Y-104147619D01*
X142506401Y-104147627D01*
X142500000Y-104207155D01*
X142500000Y-104285000D01*
X144100000Y-104285000D01*
X144100000Y-104207172D01*
X144099999Y-104207155D01*
X144093598Y-104147627D01*
X144093596Y-104147620D01*
X144043354Y-104012913D01*
X144043350Y-104012906D01*
X143957190Y-103897812D01*
X143850188Y-103817709D01*
X143808318Y-103761775D01*
X143800500Y-103718443D01*
X143800500Y-103365249D01*
X143800499Y-103365247D01*
X143788868Y-103306770D01*
X143788867Y-103306769D01*
X143744552Y-103240447D01*
X143678230Y-103196132D01*
X143678229Y-103196131D01*
X143619752Y-103184500D01*
X143619748Y-103184500D01*
X142980252Y-103184500D01*
X142980247Y-103184500D01*
X142921770Y-103196131D01*
X142921769Y-103196132D01*
X142855447Y-103240447D01*
X142809381Y-103309391D01*
X142755769Y-103354196D01*
X142706279Y-103364500D01*
X142323501Y-103364500D01*
X142256462Y-103344815D01*
X142229788Y-103321703D01*
X142220514Y-103311000D01*
X142196128Y-103282857D01*
X142075053Y-103205047D01*
X142075051Y-103205046D01*
X142075049Y-103205045D01*
X142075050Y-103205045D01*
X141936963Y-103164500D01*
X141936961Y-103164500D01*
X141793039Y-103164500D01*
X141793036Y-103164500D01*
X141654949Y-103205045D01*
X141533873Y-103282856D01*
X141439623Y-103391626D01*
X141439622Y-103391628D01*
X141379834Y-103522543D01*
X141359353Y-103665000D01*
X139075959Y-103665000D01*
X139084925Y-103649471D01*
X139140431Y-103478639D01*
X139159207Y-103300000D01*
X139140431Y-103121361D01*
X139084925Y-102950529D01*
X138995113Y-102794971D01*
X138874922Y-102661485D01*
X138729604Y-102555905D01*
X138565510Y-102482846D01*
X138565508Y-102482845D01*
X138389812Y-102445500D01*
X138210188Y-102445500D01*
X138034490Y-102482845D01*
X138034485Y-102482847D01*
X137870397Y-102555905D01*
X137870392Y-102555907D01*
X137725079Y-102661483D01*
X137725072Y-102661489D01*
X137604886Y-102794972D01*
X137515074Y-102950530D01*
X137459569Y-103121359D01*
X137440793Y-103300000D01*
X130200500Y-103300000D01*
X130200500Y-101300000D01*
X137440793Y-101300000D01*
X137459569Y-101478640D01*
X137512795Y-101642456D01*
X137515075Y-101649471D01*
X137604887Y-101805029D01*
X137679552Y-101887953D01*
X137713194Y-101925317D01*
X137725078Y-101938515D01*
X137870396Y-102044095D01*
X138034490Y-102117154D01*
X138210188Y-102154500D01*
X138389812Y-102154500D01*
X138565510Y-102117154D01*
X138729604Y-102044095D01*
X138874922Y-101938515D01*
X138995113Y-101805029D01*
X139084925Y-101649471D01*
X139124444Y-101527844D01*
X143115000Y-101527844D01*
X143121401Y-101587372D01*
X143121403Y-101587379D01*
X143171645Y-101722086D01*
X143171649Y-101722093D01*
X143257809Y-101837187D01*
X143257812Y-101837190D01*
X143372906Y-101923350D01*
X143372913Y-101923354D01*
X143507620Y-101973596D01*
X143507627Y-101973598D01*
X143567155Y-101979999D01*
X143567172Y-101980000D01*
X143765000Y-101980000D01*
X143765000Y-101330000D01*
X143115000Y-101330000D01*
X143115000Y-101527844D01*
X139124444Y-101527844D01*
X139140431Y-101478639D01*
X139159207Y-101300000D01*
X139140431Y-101121361D01*
X139084925Y-100950529D01*
X138995113Y-100794971D01*
X138874922Y-100661485D01*
X138729604Y-100555905D01*
X138565510Y-100482846D01*
X138565508Y-100482845D01*
X138389812Y-100445500D01*
X138210188Y-100445500D01*
X138034490Y-100482845D01*
X138034485Y-100482847D01*
X137870397Y-100555905D01*
X137870392Y-100555907D01*
X137725079Y-100661483D01*
X137725072Y-100661489D01*
X137604886Y-100794972D01*
X137515074Y-100950530D01*
X137459569Y-101121359D01*
X137440793Y-101300000D01*
X130200500Y-101300000D01*
X130200500Y-99300000D01*
X137440793Y-99300000D01*
X137459569Y-99478640D01*
X137512617Y-99641908D01*
X137515075Y-99649471D01*
X137604887Y-99805029D01*
X137666424Y-99873373D01*
X137721022Y-99934011D01*
X137725078Y-99938515D01*
X137870396Y-100044095D01*
X138034490Y-100117154D01*
X138210188Y-100154500D01*
X138389812Y-100154500D01*
X138565510Y-100117154D01*
X138729604Y-100044095D01*
X138874922Y-99938515D01*
X138995113Y-99805029D01*
X139084925Y-99649471D01*
X139140431Y-99478639D01*
X139159207Y-99300000D01*
X139140431Y-99121361D01*
X139084925Y-98950529D01*
X138995113Y-98794971D01*
X138874922Y-98661485D01*
X138729604Y-98555905D01*
X138565510Y-98482846D01*
X138565508Y-98482845D01*
X138389812Y-98445500D01*
X138210188Y-98445500D01*
X138034490Y-98482845D01*
X138034485Y-98482847D01*
X137870397Y-98555905D01*
X137870392Y-98555907D01*
X137725079Y-98661483D01*
X137725072Y-98661489D01*
X137604886Y-98794972D01*
X137515074Y-98950530D01*
X137459569Y-99121359D01*
X137440793Y-99300000D01*
X130200500Y-99300000D01*
X130200500Y-96626247D01*
X137445500Y-96626247D01*
X137445500Y-97973752D01*
X137457131Y-98032229D01*
X137457132Y-98032230D01*
X137501447Y-98098552D01*
X137567769Y-98142867D01*
X137567770Y-98142868D01*
X137626247Y-98154499D01*
X137626250Y-98154500D01*
X137626252Y-98154500D01*
X138973750Y-98154500D01*
X138973751Y-98154499D01*
X138988568Y-98151552D01*
X139032229Y-98142868D01*
X139032229Y-98142867D01*
X139032231Y-98142867D01*
X139098552Y-98098552D01*
X139142867Y-98032231D01*
X139142867Y-98032229D01*
X139142868Y-98032229D01*
X139154499Y-97973752D01*
X139154500Y-97973750D01*
X139154500Y-96626249D01*
X139154499Y-96626247D01*
X139142868Y-96567770D01*
X139142867Y-96567769D01*
X139098552Y-96501447D01*
X139032230Y-96457132D01*
X139032229Y-96457131D01*
X138973752Y-96445500D01*
X138973748Y-96445500D01*
X137626252Y-96445500D01*
X137626247Y-96445500D01*
X137567770Y-96457131D01*
X137567769Y-96457132D01*
X137501447Y-96501447D01*
X137457132Y-96567769D01*
X137457131Y-96567770D01*
X137445500Y-96626247D01*
X130200500Y-96626247D01*
X130200500Y-95721153D01*
X135399500Y-95721153D01*
X135399500Y-95878846D01*
X135430261Y-96033489D01*
X135430264Y-96033501D01*
X135490602Y-96179172D01*
X135490609Y-96179185D01*
X135578210Y-96310288D01*
X135578213Y-96310292D01*
X135689707Y-96421786D01*
X135689711Y-96421789D01*
X135820814Y-96509390D01*
X135820827Y-96509397D01*
X135961752Y-96567769D01*
X135966503Y-96569737D01*
X136121153Y-96600499D01*
X136121156Y-96600500D01*
X136121158Y-96600500D01*
X136278844Y-96600500D01*
X136278845Y-96600499D01*
X136433497Y-96569737D01*
X136579179Y-96509394D01*
X136710289Y-96421789D01*
X136821789Y-96310289D01*
X136909394Y-96179179D01*
X136917407Y-96159835D01*
X136934640Y-96118229D01*
X136969737Y-96033497D01*
X137000500Y-95878842D01*
X137000500Y-95721158D01*
X137000500Y-95721155D01*
X137000499Y-95721153D01*
X136969738Y-95566510D01*
X136969737Y-95566503D01*
X136944467Y-95505495D01*
X136909397Y-95420827D01*
X136909390Y-95420814D01*
X136821789Y-95289711D01*
X136821786Y-95289707D01*
X136710292Y-95178213D01*
X136710288Y-95178210D01*
X136579185Y-95090609D01*
X136579172Y-95090602D01*
X136433501Y-95030264D01*
X136433489Y-95030261D01*
X136278845Y-94999500D01*
X136278842Y-94999500D01*
X136121158Y-94999500D01*
X136121155Y-94999500D01*
X135966510Y-95030261D01*
X135966498Y-95030264D01*
X135820827Y-95090602D01*
X135820814Y-95090609D01*
X135689711Y-95178210D01*
X135689707Y-95178213D01*
X135578213Y-95289707D01*
X135578210Y-95289711D01*
X135490609Y-95420814D01*
X135490602Y-95420827D01*
X135430264Y-95566498D01*
X135430261Y-95566510D01*
X135399500Y-95721153D01*
X130200500Y-95721153D01*
X130200500Y-92600000D01*
X137134629Y-92600000D01*
X137154471Y-92814131D01*
X137213325Y-93020984D01*
X137309182Y-93213489D01*
X137319410Y-93227034D01*
X137319411Y-93227035D01*
X137893600Y-92652846D01*
X137893600Y-92653504D01*
X137921295Y-92756865D01*
X137974799Y-92849536D01*
X138050464Y-92925201D01*
X138143135Y-92978705D01*
X138246496Y-93006400D01*
X138247153Y-93006400D01*
X137675437Y-93578114D01*
X137780551Y-93643197D01*
X137981083Y-93720883D01*
X138192475Y-93760400D01*
X138407525Y-93760400D01*
X138618916Y-93720883D01*
X138618926Y-93720880D01*
X138819450Y-93643197D01*
X138819452Y-93643196D01*
X138924561Y-93578114D01*
X138352848Y-93006400D01*
X138353504Y-93006400D01*
X138456865Y-92978705D01*
X138549536Y-92925201D01*
X138625201Y-92849536D01*
X138678705Y-92756865D01*
X138706400Y-92653504D01*
X138706400Y-92652847D01*
X139280588Y-93227035D01*
X139290816Y-93213491D01*
X139386674Y-93020984D01*
X139445528Y-92814131D01*
X139465370Y-92600000D01*
X139445528Y-92385868D01*
X139386674Y-92179015D01*
X139290821Y-91986517D01*
X139290813Y-91986504D01*
X139280587Y-91972963D01*
X138706400Y-92547151D01*
X138706400Y-92546496D01*
X138678705Y-92443135D01*
X138625201Y-92350464D01*
X138549536Y-92274799D01*
X138456865Y-92221295D01*
X138353504Y-92193600D01*
X138352847Y-92193600D01*
X138909627Y-91636819D01*
X138970950Y-91603334D01*
X138997308Y-91600500D01*
X142620501Y-91600500D01*
X142687540Y-91620185D01*
X142733295Y-91672989D01*
X142744501Y-91724500D01*
X142744501Y-91911868D01*
X142744502Y-91911871D01*
X142760180Y-91990698D01*
X142776399Y-92014971D01*
X142819910Y-92080090D01*
X142847270Y-92098371D01*
X142909302Y-92139820D01*
X142935340Y-92144999D01*
X142988131Y-92155500D01*
X143831868Y-92155499D01*
X143910697Y-92139820D01*
X144000090Y-92080090D01*
X144059820Y-91990697D01*
X144075500Y-91911869D01*
X144075499Y-90688132D01*
X144059820Y-90609303D01*
X144053603Y-90599999D01*
X144034659Y-90571647D01*
X144000090Y-90519910D01*
X143964283Y-90495985D01*
X143910697Y-90460179D01*
X143831871Y-90444500D01*
X142988134Y-90444500D01*
X142909301Y-90460180D01*
X142819910Y-90519910D01*
X142760179Y-90609302D01*
X142744500Y-90688128D01*
X142744500Y-90875500D01*
X142724815Y-90942539D01*
X142672011Y-90988294D01*
X142620500Y-90999500D01*
X139246069Y-90999500D01*
X139179030Y-90979815D01*
X139133275Y-90927011D01*
X139123331Y-90857853D01*
X139128136Y-90837188D01*
X139146726Y-90779976D01*
X139165642Y-90599999D01*
X139146726Y-90420022D01*
X139090803Y-90247911D01*
X139000319Y-90091187D01*
X138960704Y-90047190D01*
X138879233Y-89956706D01*
X138879230Y-89956704D01*
X138879229Y-89956703D01*
X138879228Y-89956702D01*
X138775701Y-89881485D01*
X138732819Y-89850329D01*
X138596726Y-89789738D01*
X138567498Y-89776725D01*
X138567496Y-89776724D01*
X138567495Y-89776724D01*
X138390484Y-89739099D01*
X138209516Y-89739099D01*
X138032504Y-89776724D01*
X137867180Y-89850329D01*
X137720769Y-89956704D01*
X137720766Y-89956706D01*
X137599681Y-90091186D01*
X137509196Y-90247913D01*
X137509194Y-90247917D01*
X137464243Y-90386262D01*
X137453274Y-90420022D01*
X137434358Y-90599999D01*
X137453274Y-90779976D01*
X137453275Y-90779979D01*
X137509194Y-90952080D01*
X137509196Y-90952084D01*
X137509197Y-90952087D01*
X137558932Y-91038231D01*
X137599681Y-91108811D01*
X137720766Y-91243291D01*
X137720773Y-91243297D01*
X137838912Y-91329130D01*
X137881578Y-91384460D01*
X137887557Y-91454073D01*
X137854951Y-91515868D01*
X137810822Y-91545074D01*
X137780557Y-91556798D01*
X137780553Y-91556800D01*
X137675437Y-91621884D01*
X138247154Y-92193600D01*
X138246496Y-92193600D01*
X138143135Y-92221295D01*
X138050464Y-92274799D01*
X137974799Y-92350464D01*
X137921295Y-92443135D01*
X137893600Y-92546496D01*
X137893600Y-92547153D01*
X137319411Y-91972964D01*
X137309179Y-91986515D01*
X137213325Y-92179015D01*
X137154471Y-92385868D01*
X137134629Y-92600000D01*
X130200500Y-92600000D01*
X130200500Y-89547844D01*
X142785000Y-89547844D01*
X142791401Y-89607372D01*
X142791403Y-89607379D01*
X142841645Y-89742086D01*
X142841649Y-89742093D01*
X142927809Y-89857187D01*
X142927812Y-89857190D01*
X143042906Y-89943350D01*
X143042913Y-89943354D01*
X143177620Y-89993596D01*
X143177627Y-89993598D01*
X143237155Y-89999999D01*
X143237172Y-90000000D01*
X143315000Y-90000000D01*
X143315000Y-89450000D01*
X142785000Y-89450000D01*
X142785000Y-89547844D01*
X130200500Y-89547844D01*
X130200500Y-88824500D01*
X130220185Y-88757461D01*
X130272989Y-88711706D01*
X130324500Y-88700500D01*
X142663260Y-88700500D01*
X142730299Y-88720185D01*
G37*
%TD.AperFunction*%
%TA.AperFunction,Conductor*%
G36*
X147583039Y-108969685D02*
G01*
X147628794Y-109022489D01*
X147640000Y-109074000D01*
X147640000Y-109750000D01*
X147717828Y-109750000D01*
X147717844Y-109749999D01*
X147777372Y-109743598D01*
X147777380Y-109743596D01*
X147792165Y-109738082D01*
X147861856Y-109733096D01*
X147923180Y-109766580D01*
X147956666Y-109827903D01*
X147959500Y-109854263D01*
X147959500Y-110700500D01*
X147939815Y-110767539D01*
X147887011Y-110813294D01*
X147835500Y-110824500D01*
X146429698Y-110824500D01*
X146362659Y-110804815D01*
X146316904Y-110752011D01*
X146306960Y-110682853D01*
X146309883Y-110669412D01*
X146310163Y-110667459D01*
X146310165Y-110667457D01*
X146330647Y-110525000D01*
X146310165Y-110382543D01*
X146250377Y-110251627D01*
X146205345Y-110199657D01*
X146165786Y-110154002D01*
X146136762Y-110090446D01*
X146135500Y-110072800D01*
X146135500Y-109775833D01*
X146155185Y-109708794D01*
X146171819Y-109688152D01*
X146393152Y-109466819D01*
X146454475Y-109433334D01*
X146480833Y-109430500D01*
X146494749Y-109430500D01*
X146510246Y-109427417D01*
X146530109Y-109423466D01*
X146599701Y-109429693D01*
X146654879Y-109472555D01*
X146663134Y-109485657D01*
X146666646Y-109492089D01*
X146752809Y-109607187D01*
X146752812Y-109607190D01*
X146867906Y-109693350D01*
X146867913Y-109693354D01*
X147002620Y-109743596D01*
X147002627Y-109743598D01*
X147062155Y-109749999D01*
X147062172Y-109750000D01*
X147140000Y-109750000D01*
X147140000Y-109074000D01*
X147159685Y-109006961D01*
X147212489Y-108961206D01*
X147264000Y-108950000D01*
X147516000Y-108950000D01*
X147583039Y-108969685D01*
G37*
%TD.AperFunction*%
%TA.AperFunction,Conductor*%
G36*
X172116528Y-89820185D02*
G01*
X172162283Y-89872989D01*
X172172227Y-89942147D01*
X172143202Y-90005703D01*
X172141640Y-90007471D01*
X172134885Y-90014972D01*
X172045074Y-90170530D01*
X171989569Y-90341359D01*
X171970793Y-90520000D01*
X171989569Y-90698640D01*
X172015997Y-90779979D01*
X172045075Y-90869471D01*
X172134887Y-91025029D01*
X172255078Y-91158515D01*
X172400396Y-91264095D01*
X172564490Y-91337154D01*
X172740188Y-91374500D01*
X172919812Y-91374500D01*
X173095510Y-91337154D01*
X173098176Y-91335967D01*
X173105304Y-91332794D01*
X173174554Y-91323509D01*
X173237831Y-91353137D01*
X173243421Y-91358392D01*
X175663181Y-93778152D01*
X175696666Y-93839475D01*
X175699500Y-93865833D01*
X175699500Y-97358059D01*
X175679815Y-97425098D01*
X175627011Y-97470853D01*
X175557853Y-97480797D01*
X175494297Y-97451772D01*
X175487819Y-97445740D01*
X175440292Y-97398213D01*
X175440288Y-97398210D01*
X175309185Y-97310609D01*
X175309172Y-97310602D01*
X175163501Y-97250264D01*
X175163489Y-97250261D01*
X175008845Y-97219500D01*
X175008842Y-97219500D01*
X174851158Y-97219500D01*
X174851155Y-97219500D01*
X174696510Y-97250261D01*
X174696498Y-97250264D01*
X174550827Y-97310602D01*
X174550814Y-97310609D01*
X174493391Y-97348979D01*
X174426714Y-97369857D01*
X174359333Y-97351373D01*
X174312643Y-97299394D01*
X174300500Y-97245877D01*
X174300500Y-95650439D01*
X174300500Y-95650438D01*
X174280021Y-95574011D01*
X174275683Y-95566498D01*
X174240464Y-95505495D01*
X174240458Y-95505487D01*
X173666084Y-94931113D01*
X173632599Y-94869790D01*
X173635833Y-94805120D01*
X173670431Y-94698639D01*
X173689207Y-94520000D01*
X173670431Y-94341361D01*
X173614925Y-94170529D01*
X173525113Y-94014971D01*
X173404922Y-93881485D01*
X173259604Y-93775905D01*
X173095510Y-93702846D01*
X173095508Y-93702845D01*
X172919812Y-93665500D01*
X172740188Y-93665500D01*
X172564490Y-93702845D01*
X172564485Y-93702847D01*
X172400397Y-93775905D01*
X172400392Y-93775907D01*
X172255079Y-93881483D01*
X172255072Y-93881489D01*
X172134886Y-94014972D01*
X172045074Y-94170530D01*
X171989569Y-94341359D01*
X171970793Y-94520000D01*
X171989569Y-94698640D01*
X172044568Y-94867913D01*
X172045075Y-94869471D01*
X172134887Y-95025029D01*
X172255078Y-95158515D01*
X172400396Y-95264095D01*
X172564490Y-95337154D01*
X172740188Y-95374500D01*
X172919812Y-95374500D01*
X173095510Y-95337154D01*
X173098176Y-95335967D01*
X173105304Y-95332794D01*
X173174554Y-95323509D01*
X173237831Y-95353137D01*
X173243421Y-95358392D01*
X173338848Y-95453819D01*
X173372333Y-95515142D01*
X173367349Y-95584834D01*
X173325477Y-95640767D01*
X173260013Y-95665184D01*
X173251167Y-95665500D01*
X172156247Y-95665500D01*
X172097770Y-95677131D01*
X172097769Y-95677132D01*
X172031447Y-95721447D01*
X171987132Y-95787769D01*
X171987131Y-95787770D01*
X171975500Y-95846247D01*
X171975500Y-97193752D01*
X171987131Y-97252229D01*
X171987132Y-97252230D01*
X172031447Y-97318552D01*
X172097769Y-97362867D01*
X172097770Y-97362868D01*
X172156247Y-97374499D01*
X172156250Y-97374500D01*
X172156252Y-97374500D01*
X173503750Y-97374500D01*
X173551308Y-97365040D01*
X173620900Y-97371267D01*
X173676077Y-97414130D01*
X173699322Y-97480019D01*
X173699500Y-97486657D01*
X173699500Y-97501375D01*
X173679815Y-97568414D01*
X173663181Y-97589056D01*
X172656941Y-98595295D01*
X172656935Y-98595303D01*
X172617382Y-98663812D01*
X172617379Y-98663817D01*
X172596900Y-98740247D01*
X172596900Y-99554236D01*
X172577215Y-99621275D01*
X172524411Y-99667030D01*
X172455253Y-99676974D01*
X172440895Y-99673309D01*
X172440830Y-99673587D01*
X172433272Y-99671801D01*
X172373744Y-99665400D01*
X171725000Y-99665400D01*
X171725000Y-103154600D01*
X172373728Y-103154600D01*
X172373744Y-103154599D01*
X172433272Y-103148198D01*
X172433279Y-103148196D01*
X172567986Y-103097954D01*
X172567993Y-103097950D01*
X172683087Y-103011790D01*
X172683090Y-103011787D01*
X172769250Y-102896693D01*
X172769254Y-102896686D01*
X172798540Y-102818168D01*
X172840411Y-102762234D01*
X172905876Y-102737817D01*
X172914722Y-102737501D01*
X173366550Y-102737501D01*
X173436126Y-102723661D01*
X173505718Y-102729888D01*
X173527357Y-102740962D01*
X173619149Y-102799953D01*
X173619152Y-102799954D01*
X173619151Y-102799954D01*
X173757238Y-102840499D01*
X173757240Y-102840500D01*
X173757241Y-102840500D01*
X173901163Y-102840500D01*
X173971907Y-102819728D01*
X174041776Y-102819728D01*
X174100554Y-102857502D01*
X174128458Y-102914514D01*
X174141131Y-102978229D01*
X174141132Y-102978230D01*
X174185447Y-103044552D01*
X174251769Y-103088867D01*
X174251770Y-103088868D01*
X174310247Y-103100499D01*
X174310250Y-103100500D01*
X174310252Y-103100500D01*
X175205500Y-103100500D01*
X175272539Y-103120185D01*
X175318294Y-103172989D01*
X175329500Y-103224500D01*
X175329500Y-103696918D01*
X175309815Y-103763957D01*
X175272540Y-103801233D01*
X175168874Y-103867855D01*
X175168872Y-103867856D01*
X175168872Y-103867857D01*
X175146672Y-103893476D01*
X175074623Y-103976626D01*
X175074622Y-103976628D01*
X175014834Y-104107543D01*
X174994353Y-104250000D01*
X175014834Y-104392456D01*
X175061976Y-104495680D01*
X175074623Y-104523373D01*
X175168872Y-104632143D01*
X175289947Y-104709953D01*
X175289950Y-104709954D01*
X175289949Y-104709954D01*
X175367427Y-104732703D01*
X175406998Y-104744322D01*
X175428036Y-104750499D01*
X175428038Y-104750500D01*
X175428039Y-104750500D01*
X175571962Y-104750500D01*
X175571962Y-104750499D01*
X175710053Y-104709953D01*
X175831128Y-104632143D01*
X175925377Y-104523373D01*
X175985165Y-104392457D01*
X176005647Y-104250000D01*
X175985165Y-104107543D01*
X175941704Y-104012378D01*
X175930500Y-103960869D01*
X175930500Y-103224500D01*
X175950185Y-103157461D01*
X176002989Y-103111706D01*
X176054500Y-103100500D01*
X176949750Y-103100500D01*
X176949751Y-103100499D01*
X176964568Y-103097552D01*
X177008229Y-103088868D01*
X177008229Y-103088867D01*
X177008231Y-103088867D01*
X177074552Y-103044552D01*
X177118867Y-102978231D01*
X177118867Y-102978229D01*
X177118868Y-102978229D01*
X177130499Y-102919752D01*
X177130500Y-102919750D01*
X177130500Y-102140249D01*
X177130499Y-102140247D01*
X177118868Y-102081770D01*
X177118867Y-102081769D01*
X177074552Y-102015448D01*
X177063191Y-102007857D01*
X177048591Y-101998101D01*
X177003787Y-101944491D01*
X176995080Y-101875166D01*
X177025234Y-101812138D01*
X177048590Y-101791899D01*
X177074552Y-101774552D01*
X177118867Y-101708231D01*
X177118867Y-101708229D01*
X177118868Y-101708229D01*
X177130499Y-101649752D01*
X177130500Y-101649750D01*
X177130500Y-101240833D01*
X177150185Y-101173794D01*
X177166819Y-101153152D01*
X177418319Y-100901652D01*
X177479642Y-100868167D01*
X177549334Y-100873151D01*
X177605267Y-100915023D01*
X177629684Y-100980487D01*
X177630000Y-100989333D01*
X177630000Y-101010000D01*
X179306000Y-101010000D01*
X179373039Y-101029685D01*
X179418794Y-101082489D01*
X179430000Y-101134000D01*
X179430000Y-101386000D01*
X179410315Y-101453039D01*
X179357511Y-101498794D01*
X179306000Y-101510000D01*
X177630000Y-101510000D01*
X177630000Y-101707844D01*
X177636401Y-101767372D01*
X177636403Y-101767379D01*
X177686645Y-101902086D01*
X177686649Y-101902093D01*
X177772809Y-102017187D01*
X177772812Y-102017190D01*
X177879811Y-102097290D01*
X177921682Y-102153223D01*
X177929500Y-102196556D01*
X177929500Y-102949752D01*
X177941131Y-103008229D01*
X177941132Y-103008230D01*
X177985447Y-103074552D01*
X178051769Y-103118867D01*
X178051770Y-103118868D01*
X178110247Y-103130499D01*
X178110250Y-103130500D01*
X178110252Y-103130500D01*
X178180167Y-103130500D01*
X178247206Y-103150185D01*
X178292961Y-103202989D01*
X178302905Y-103272147D01*
X178273880Y-103335703D01*
X178267848Y-103342181D01*
X176356848Y-105253181D01*
X176295525Y-105286666D01*
X176269167Y-105289500D01*
X172468012Y-105289500D01*
X172400973Y-105269815D01*
X172355218Y-105217011D01*
X172345274Y-105147853D01*
X172374299Y-105084297D01*
X172433077Y-105046523D01*
X172433418Y-105046423D01*
X172449336Y-105041798D01*
X172589189Y-104959089D01*
X172589198Y-104959082D01*
X172704084Y-104844196D01*
X172708496Y-104838508D01*
X172765135Y-104797596D01*
X172806477Y-104790499D01*
X173092162Y-104790499D01*
X173092164Y-104790499D01*
X173106459Y-104788617D01*
X173142202Y-104783912D01*
X173142207Y-104783909D01*
X173142209Y-104783909D01*
X173252015Y-104732706D01*
X173252016Y-104732705D01*
X173252021Y-104732703D01*
X173337703Y-104647021D01*
X173337706Y-104647014D01*
X173340253Y-104643378D01*
X173394829Y-104599752D01*
X173441829Y-104590500D01*
X173645467Y-104590500D01*
X173712506Y-104610185D01*
X173746674Y-104632143D01*
X173789948Y-104659954D01*
X173928036Y-104700499D01*
X173928038Y-104700500D01*
X173928039Y-104700500D01*
X174071962Y-104700500D01*
X174071962Y-104700499D01*
X174210053Y-104659953D01*
X174331128Y-104582143D01*
X174425377Y-104473373D01*
X174485165Y-104342457D01*
X174505647Y-104200000D01*
X174485165Y-104057543D01*
X174425377Y-103926627D01*
X174331128Y-103817857D01*
X174210053Y-103740047D01*
X174210051Y-103740046D01*
X174210049Y-103740045D01*
X174210050Y-103740045D01*
X174071963Y-103699500D01*
X174071961Y-103699500D01*
X173928039Y-103699500D01*
X173928036Y-103699500D01*
X173789949Y-103740045D01*
X173668873Y-103817856D01*
X173574624Y-103926624D01*
X173570825Y-103932538D01*
X173518021Y-103978294D01*
X173466508Y-103989500D01*
X173441829Y-103989500D01*
X173374790Y-103969815D01*
X173340253Y-103936622D01*
X173337704Y-103932982D01*
X173337703Y-103932979D01*
X173252021Y-103847297D01*
X173252015Y-103847293D01*
X173142208Y-103796090D01*
X173142203Y-103796088D01*
X173142202Y-103796088D01*
X173142200Y-103796087D01*
X173142198Y-103796087D01*
X173092170Y-103789500D01*
X172806483Y-103789500D01*
X172739444Y-103769815D01*
X172708504Y-103741500D01*
X172704088Y-103735807D01*
X172589198Y-103620917D01*
X172589189Y-103620910D01*
X172449335Y-103538200D01*
X172315000Y-103499173D01*
X172315000Y-104166000D01*
X172295315Y-104233039D01*
X172242511Y-104278794D01*
X172191000Y-104290000D01*
X172065000Y-104290000D01*
X172065000Y-104416000D01*
X172045315Y-104483039D01*
X171992511Y-104528794D01*
X171941000Y-104540000D01*
X171297217Y-104540000D01*
X171297870Y-104548307D01*
X171343199Y-104704331D01*
X171343201Y-104704336D01*
X171425910Y-104844189D01*
X171425917Y-104844198D01*
X171540801Y-104959082D01*
X171540810Y-104959089D01*
X171680663Y-105041798D01*
X171696582Y-105046423D01*
X171755468Y-105084029D01*
X171784675Y-105147501D01*
X171774929Y-105216688D01*
X171729326Y-105269623D01*
X171662343Y-105289499D01*
X171661988Y-105289500D01*
X168899776Y-105289500D01*
X168832737Y-105269815D01*
X168798345Y-105230124D01*
X168795653Y-105231924D01*
X168763558Y-105183892D01*
X168742679Y-105117215D01*
X168761163Y-105049835D01*
X168763558Y-105046108D01*
X168788867Y-105008231D01*
X168788868Y-105008229D01*
X168800499Y-104949752D01*
X168800500Y-104949750D01*
X168800500Y-104040000D01*
X171297217Y-104040000D01*
X171815000Y-104040000D01*
X171815000Y-103499173D01*
X171680664Y-103538200D01*
X171540810Y-103620910D01*
X171540801Y-103620917D01*
X171425917Y-103735801D01*
X171425910Y-103735810D01*
X171343201Y-103875663D01*
X171343199Y-103875668D01*
X171297870Y-104031692D01*
X171297217Y-104040000D01*
X168800500Y-104040000D01*
X168800500Y-104010249D01*
X168800499Y-104010247D01*
X168788868Y-103951770D01*
X168788867Y-103951768D01*
X168763558Y-103913892D01*
X168742679Y-103847215D01*
X168761163Y-103779835D01*
X168763558Y-103776108D01*
X168788867Y-103738231D01*
X168788868Y-103738229D01*
X168800499Y-103679752D01*
X168800500Y-103679750D01*
X168800500Y-103265833D01*
X168820185Y-103198794D01*
X168836819Y-103178152D01*
X169098417Y-102916554D01*
X169159740Y-102883069D01*
X169229432Y-102888053D01*
X169260409Y-102904968D01*
X169361110Y-102980352D01*
X169361113Y-102980354D01*
X169495820Y-103030596D01*
X169495827Y-103030598D01*
X169555355Y-103036999D01*
X169555372Y-103037000D01*
X169908000Y-103037000D01*
X169908000Y-102534000D01*
X169927685Y-102466961D01*
X169980489Y-102421206D01*
X170032000Y-102410000D01*
X170038000Y-102410000D01*
X170105039Y-102429685D01*
X170150794Y-102482489D01*
X170162000Y-102534000D01*
X170162000Y-103037000D01*
X170259316Y-103037000D01*
X170326355Y-103056685D01*
X170333627Y-103061733D01*
X170382010Y-103097952D01*
X170382013Y-103097954D01*
X170516720Y-103148196D01*
X170516727Y-103148198D01*
X170576255Y-103154599D01*
X170576272Y-103154600D01*
X171225000Y-103154600D01*
X171225000Y-99665400D01*
X170576255Y-99665400D01*
X170516727Y-99671801D01*
X170509170Y-99673587D01*
X170508621Y-99671264D01*
X170450729Y-99675399D01*
X170389409Y-99641908D01*
X170355931Y-99580581D01*
X170353100Y-99554236D01*
X170353100Y-99183039D01*
X170353099Y-99183035D01*
X170349910Y-99171132D01*
X170349910Y-99171133D01*
X170332622Y-99106612D01*
X170293060Y-99038089D01*
X169144511Y-97889540D01*
X169144509Y-97889539D01*
X169144504Y-97889535D01*
X169121864Y-97876464D01*
X169121864Y-97876463D01*
X169121861Y-97876463D01*
X169075994Y-97849981D01*
X169075991Y-97849979D01*
X169037775Y-97839739D01*
X168999562Y-97829500D01*
X168999560Y-97829500D01*
X168924500Y-97829500D01*
X168857461Y-97809815D01*
X168811706Y-97757011D01*
X168800500Y-97705500D01*
X168800500Y-97660249D01*
X168800499Y-97660247D01*
X168788868Y-97601770D01*
X168788867Y-97601768D01*
X168763558Y-97563892D01*
X168742679Y-97497215D01*
X168761163Y-97429835D01*
X168763558Y-97426108D01*
X168788867Y-97388231D01*
X168788868Y-97388229D01*
X168800499Y-97329752D01*
X168800500Y-97329750D01*
X168800500Y-96390249D01*
X168800499Y-96390247D01*
X168788868Y-96331770D01*
X168788867Y-96331768D01*
X168763558Y-96293892D01*
X168742679Y-96227215D01*
X168761163Y-96159835D01*
X168763558Y-96156108D01*
X168788867Y-96118231D01*
X168788868Y-96118229D01*
X168800499Y-96059752D01*
X168800500Y-96059750D01*
X168800500Y-95120249D01*
X168800499Y-95120247D01*
X168788868Y-95061770D01*
X168788867Y-95061768D01*
X168763558Y-95023892D01*
X168742679Y-94957215D01*
X168761163Y-94889835D01*
X168763558Y-94886108D01*
X168788867Y-94848231D01*
X168788868Y-94848229D01*
X168800499Y-94789752D01*
X168800500Y-94789750D01*
X168800500Y-94674500D01*
X168820185Y-94607461D01*
X168872989Y-94561706D01*
X168924500Y-94550500D01*
X169041499Y-94550500D01*
X169108538Y-94570185D01*
X169135211Y-94593296D01*
X169168872Y-94632143D01*
X169289947Y-94709953D01*
X169289950Y-94709954D01*
X169289949Y-94709954D01*
X169428036Y-94750499D01*
X169428038Y-94750500D01*
X169428039Y-94750500D01*
X169571962Y-94750500D01*
X169571962Y-94750499D01*
X169710053Y-94709953D01*
X169831128Y-94632143D01*
X169925377Y-94523373D01*
X169985165Y-94392457D01*
X170005647Y-94250000D01*
X169985165Y-94107543D01*
X169925377Y-93976627D01*
X169831128Y-93867857D01*
X169710053Y-93790047D01*
X169710051Y-93790046D01*
X169710049Y-93790045D01*
X169710050Y-93790045D01*
X169571963Y-93749500D01*
X169571961Y-93749500D01*
X169428039Y-93749500D01*
X169428036Y-93749500D01*
X169289949Y-93790045D01*
X169168873Y-93867856D01*
X169168872Y-93867856D01*
X169168872Y-93867857D01*
X169157063Y-93881486D01*
X169135212Y-93906703D01*
X169076433Y-93944477D01*
X169041499Y-93949500D01*
X168922006Y-93949500D01*
X168854967Y-93929815D01*
X168809212Y-93877011D01*
X168800389Y-93849691D01*
X168788868Y-93791770D01*
X168788867Y-93791768D01*
X168763558Y-93753892D01*
X168742679Y-93687215D01*
X168761163Y-93619835D01*
X168763558Y-93616108D01*
X168788867Y-93578231D01*
X168788868Y-93578229D01*
X168800499Y-93519752D01*
X168800500Y-93519750D01*
X168800500Y-92945833D01*
X168820185Y-92878794D01*
X168836819Y-92858152D01*
X169174971Y-92520000D01*
X171970793Y-92520000D01*
X171989569Y-92698640D01*
X172038597Y-92849536D01*
X172045075Y-92869471D01*
X172134887Y-93025029D01*
X172255078Y-93158515D01*
X172400396Y-93264095D01*
X172564490Y-93337154D01*
X172740188Y-93374500D01*
X172919812Y-93374500D01*
X173095510Y-93337154D01*
X173259604Y-93264095D01*
X173404922Y-93158515D01*
X173525113Y-93025029D01*
X173614925Y-92869471D01*
X173670431Y-92698639D01*
X173689207Y-92520000D01*
X173670431Y-92341361D01*
X173614925Y-92170529D01*
X173525113Y-92014971D01*
X173404922Y-91881485D01*
X173259604Y-91775905D01*
X173095510Y-91702846D01*
X173095508Y-91702845D01*
X172919812Y-91665500D01*
X172740188Y-91665500D01*
X172564490Y-91702845D01*
X172564485Y-91702847D01*
X172400397Y-91775905D01*
X172400392Y-91775907D01*
X172255079Y-91881483D01*
X172255072Y-91881489D01*
X172134886Y-92014972D01*
X172045074Y-92170530D01*
X171989569Y-92341359D01*
X171970793Y-92520000D01*
X169174971Y-92520000D01*
X171858152Y-89836819D01*
X171919475Y-89803334D01*
X171945833Y-89800500D01*
X172049489Y-89800500D01*
X172116528Y-89820185D01*
G37*
%TD.AperFunction*%
%TA.AperFunction,Conductor*%
G36*
X146973935Y-90520185D02*
G01*
X147019690Y-90572989D01*
X147029835Y-90640686D01*
X147025000Y-90677409D01*
X147025000Y-91050000D01*
X148954999Y-91050000D01*
X148954999Y-90677414D01*
X148950164Y-90640682D01*
X148960932Y-90571647D01*
X149007313Y-90519393D01*
X149073104Y-90500500D01*
X149275500Y-90500500D01*
X149342539Y-90520185D01*
X149388294Y-90572989D01*
X149399500Y-90624500D01*
X149399500Y-90979752D01*
X149411131Y-91038229D01*
X149411132Y-91038230D01*
X149436442Y-91076109D01*
X149457320Y-91142787D01*
X149438835Y-91210167D01*
X149436442Y-91213891D01*
X149411132Y-91251769D01*
X149411131Y-91251770D01*
X149399500Y-91310247D01*
X149399500Y-92249752D01*
X149411131Y-92308229D01*
X149411132Y-92308230D01*
X149436442Y-92346109D01*
X149457320Y-92412787D01*
X149438835Y-92480167D01*
X149436442Y-92483891D01*
X149411132Y-92521769D01*
X149411131Y-92521770D01*
X149399500Y-92580247D01*
X149399500Y-93519752D01*
X149411131Y-93578229D01*
X149411132Y-93578230D01*
X149436442Y-93616109D01*
X149457320Y-93682787D01*
X149438835Y-93750167D01*
X149436442Y-93753891D01*
X149411132Y-93791769D01*
X149411131Y-93791770D01*
X149399500Y-93850247D01*
X149399500Y-94789752D01*
X149411131Y-94848229D01*
X149411132Y-94848230D01*
X149436442Y-94886109D01*
X149457320Y-94952787D01*
X149438835Y-95020167D01*
X149436442Y-95023891D01*
X149411132Y-95061769D01*
X149411131Y-95061770D01*
X149399500Y-95120247D01*
X149399500Y-96059752D01*
X149411131Y-96118229D01*
X149411132Y-96118230D01*
X149436442Y-96156109D01*
X149457320Y-96222787D01*
X149438835Y-96290167D01*
X149436442Y-96293891D01*
X149411132Y-96331769D01*
X149411131Y-96331770D01*
X149399500Y-96390247D01*
X149399500Y-97329752D01*
X149411131Y-97388229D01*
X149411132Y-97388230D01*
X149436442Y-97426109D01*
X149457320Y-97492787D01*
X149438835Y-97560167D01*
X149436442Y-97563891D01*
X149411132Y-97601769D01*
X149411131Y-97601770D01*
X149399500Y-97660247D01*
X149399500Y-98599752D01*
X149411131Y-98658229D01*
X149411132Y-98658230D01*
X149436442Y-98696109D01*
X149457320Y-98762787D01*
X149438835Y-98830167D01*
X149436442Y-98833891D01*
X149411132Y-98871769D01*
X149411131Y-98871770D01*
X149399500Y-98930247D01*
X149399500Y-99869752D01*
X149411131Y-99928229D01*
X149411132Y-99928230D01*
X149436442Y-99966109D01*
X149457320Y-100032787D01*
X149438835Y-100100167D01*
X149436442Y-100103891D01*
X149411132Y-100141769D01*
X149411131Y-100141770D01*
X149399500Y-100200247D01*
X149399500Y-101139752D01*
X149411131Y-101198229D01*
X149411132Y-101198230D01*
X149436442Y-101236109D01*
X149457320Y-101302787D01*
X149438835Y-101370167D01*
X149436442Y-101373891D01*
X149411132Y-101411769D01*
X149411131Y-101411770D01*
X149399500Y-101470247D01*
X149399500Y-102409752D01*
X149411131Y-102468229D01*
X149411132Y-102468230D01*
X149436442Y-102506109D01*
X149457320Y-102572787D01*
X149438835Y-102640167D01*
X149436442Y-102643891D01*
X149411132Y-102681769D01*
X149411131Y-102681770D01*
X149399500Y-102740247D01*
X149399500Y-103283697D01*
X149379815Y-103350736D01*
X149327011Y-103396491D01*
X149257853Y-103406435D01*
X149240566Y-103402674D01*
X149118555Y-103366849D01*
X149118552Y-103366849D01*
X149066384Y-103366849D01*
X148999345Y-103347164D01*
X148953590Y-103294360D01*
X148943646Y-103225202D01*
X148953590Y-103191337D01*
X149010165Y-103067457D01*
X149030647Y-102925000D01*
X149010165Y-102782543D01*
X148950377Y-102651627D01*
X148856128Y-102542857D01*
X148735053Y-102465047D01*
X148735051Y-102465046D01*
X148735049Y-102465045D01*
X148735050Y-102465045D01*
X148596963Y-102424500D01*
X148596961Y-102424500D01*
X148453039Y-102424500D01*
X148453036Y-102424500D01*
X148314949Y-102465045D01*
X148193873Y-102542856D01*
X148099623Y-102651626D01*
X148099622Y-102651628D01*
X148039834Y-102782543D01*
X148025731Y-102880637D01*
X147996706Y-102944193D01*
X147937928Y-102981967D01*
X147868058Y-102981967D01*
X147809280Y-102944193D01*
X147799891Y-102931881D01*
X147781908Y-102904968D01*
X147765135Y-102879865D01*
X147731666Y-102857502D01*
X147687650Y-102828091D01*
X147629163Y-102816457D01*
X147567253Y-102784071D01*
X147554552Y-102769765D01*
X147477217Y-102667782D01*
X147360308Y-102579128D01*
X147360306Y-102579127D01*
X147223811Y-102525301D01*
X147223809Y-102525300D01*
X147138035Y-102515000D01*
X147130000Y-102515000D01*
X147130000Y-103311000D01*
X147110315Y-103378039D01*
X147057511Y-103423794D01*
X147006000Y-103435000D01*
X146984000Y-103435000D01*
X146916961Y-103415315D01*
X146871206Y-103362511D01*
X146860000Y-103311000D01*
X146860000Y-102515000D01*
X146859999Y-102514999D01*
X146851971Y-102515000D01*
X146759784Y-102526070D01*
X146730217Y-102526070D01*
X146638029Y-102515000D01*
X146630000Y-102515000D01*
X146630000Y-103311000D01*
X146610315Y-103378039D01*
X146557511Y-103423794D01*
X146506000Y-103435000D01*
X146484000Y-103435000D01*
X146416961Y-103415315D01*
X146371206Y-103362511D01*
X146360000Y-103311000D01*
X146360000Y-102515000D01*
X146359999Y-102514999D01*
X146351971Y-102515000D01*
X146266190Y-102525300D01*
X146219989Y-102543520D01*
X146150402Y-102549801D01*
X146088466Y-102517463D01*
X146053845Y-102456774D01*
X146050500Y-102428165D01*
X146050500Y-102204500D01*
X146070185Y-102137461D01*
X146122989Y-102091706D01*
X146174500Y-102080500D01*
X148139560Y-102080500D01*
X148139562Y-102080500D01*
X148215989Y-102060021D01*
X148284511Y-102020460D01*
X148340460Y-101964511D01*
X148390460Y-101914511D01*
X148430022Y-101845988D01*
X148450500Y-101769562D01*
X148450500Y-101754500D01*
X148470185Y-101687461D01*
X148522989Y-101641706D01*
X148574500Y-101630500D01*
X148739750Y-101630500D01*
X148739751Y-101630499D01*
X148754568Y-101627552D01*
X148798229Y-101618868D01*
X148798229Y-101618867D01*
X148798231Y-101618867D01*
X148864552Y-101574552D01*
X148908867Y-101508231D01*
X148908867Y-101508229D01*
X148908868Y-101508229D01*
X148920499Y-101449752D01*
X148920500Y-101449750D01*
X148920500Y-100810249D01*
X148920499Y-100810247D01*
X148908868Y-100751770D01*
X148908867Y-100751769D01*
X148864551Y-100685446D01*
X148820608Y-100656084D01*
X148775804Y-100602472D01*
X148765500Y-100552983D01*
X148765500Y-100373720D01*
X148785185Y-100306681D01*
X148820610Y-100270617D01*
X148823228Y-100268867D01*
X148823231Y-100268867D01*
X148889552Y-100224552D01*
X148933867Y-100158231D01*
X148933867Y-100158229D01*
X148933868Y-100158229D01*
X148945350Y-100100500D01*
X148945500Y-100099748D01*
X148945500Y-99460252D01*
X148945500Y-99460249D01*
X148945499Y-99460247D01*
X148933868Y-99401770D01*
X148933867Y-99401769D01*
X148889551Y-99335446D01*
X148820608Y-99289379D01*
X148775804Y-99235767D01*
X148765500Y-99186278D01*
X148765500Y-99095437D01*
X148760083Y-99075223D01*
X148760082Y-99075218D01*
X148745023Y-99019015D01*
X148745022Y-99019013D01*
X148745022Y-99019012D01*
X148705460Y-98950489D01*
X147556818Y-97801847D01*
X147523333Y-97740524D01*
X147520499Y-97714166D01*
X147520499Y-97388652D01*
X147520499Y-97388646D01*
X147517602Y-97363666D01*
X147489223Y-97299394D01*
X147472490Y-97261496D01*
X147472488Y-97261493D01*
X147472487Y-97261491D01*
X147393509Y-97182513D01*
X147360815Y-97168077D01*
X147291335Y-97137398D01*
X147266357Y-97134500D01*
X147266355Y-97134500D01*
X146124500Y-97134500D01*
X146057461Y-97114815D01*
X146011706Y-97062011D01*
X146000500Y-97010500D01*
X146000500Y-92279499D01*
X146020185Y-92212460D01*
X146072989Y-92166705D01*
X146115930Y-92157363D01*
X146115806Y-92156096D01*
X146121863Y-92155499D01*
X146121868Y-92155499D01*
X146200697Y-92139820D01*
X146290090Y-92080090D01*
X146349820Y-91990697D01*
X146363367Y-91922592D01*
X147025001Y-91922592D01*
X147039663Y-92033976D01*
X147039665Y-92033985D01*
X147097073Y-92172579D01*
X147188400Y-92291599D01*
X147307420Y-92382926D01*
X147446014Y-92440334D01*
X147446016Y-92440335D01*
X147557408Y-92454999D01*
X147739999Y-92454999D01*
X148240000Y-92454999D01*
X148422592Y-92454999D01*
X148533976Y-92440336D01*
X148533985Y-92440334D01*
X148672579Y-92382926D01*
X148791599Y-92291599D01*
X148882926Y-92172579D01*
X148940334Y-92033985D01*
X148940335Y-92033983D01*
X148955000Y-91922591D01*
X148955000Y-91550000D01*
X148240000Y-91550000D01*
X148240000Y-92454999D01*
X147739999Y-92454999D01*
X147740000Y-92454998D01*
X147740000Y-91550000D01*
X147025001Y-91550000D01*
X147025001Y-91922592D01*
X146363367Y-91922592D01*
X146365500Y-91911869D01*
X146365499Y-90688132D01*
X146357654Y-90648689D01*
X146363883Y-90579097D01*
X146406747Y-90523921D01*
X146472638Y-90500678D01*
X146479272Y-90500500D01*
X146906896Y-90500500D01*
X146973935Y-90520185D01*
G37*
%TD.AperFunction*%
%TA.AperFunction,Conductor*%
G36*
X147591345Y-98702163D02*
G01*
X147635693Y-98730664D01*
X147808681Y-98903652D01*
X147842166Y-98964975D01*
X147845000Y-98991333D01*
X147845000Y-99656000D01*
X147825315Y-99723039D01*
X147772511Y-99768794D01*
X147721000Y-99780000D01*
X147595000Y-99780000D01*
X147595000Y-99906000D01*
X147575315Y-99973039D01*
X147522511Y-100018794D01*
X147471000Y-100030000D01*
X146815000Y-100030000D01*
X146815000Y-100127844D01*
X146821401Y-100187372D01*
X146821403Y-100187379D01*
X146871645Y-100322086D01*
X146871649Y-100322093D01*
X146957809Y-100437187D01*
X146957812Y-100437190D01*
X147072906Y-100523350D01*
X147080696Y-100527604D01*
X147079783Y-100529275D01*
X147126774Y-100564452D01*
X147151191Y-100629916D01*
X147136339Y-100698189D01*
X147130610Y-100707652D01*
X147119427Y-100724389D01*
X147065815Y-100769195D01*
X147016324Y-100779500D01*
X146389500Y-100779500D01*
X146322461Y-100759815D01*
X146276706Y-100707011D01*
X146267815Y-100666142D01*
X146266097Y-100666312D01*
X146265500Y-100660257D01*
X146265500Y-100660252D01*
X146260402Y-100634622D01*
X146253868Y-100601770D01*
X146253867Y-100601769D01*
X146209552Y-100535447D01*
X146143230Y-100491132D01*
X146143229Y-100491131D01*
X146084752Y-100479500D01*
X146084748Y-100479500D01*
X145368405Y-100479500D01*
X145301366Y-100459815D01*
X145255611Y-100407011D01*
X145245667Y-100337853D01*
X145269139Y-100281188D01*
X145328352Y-100202089D01*
X145328354Y-100202086D01*
X145378596Y-100067379D01*
X145378598Y-100067372D01*
X145384999Y-100007844D01*
X145385000Y-100007827D01*
X145385000Y-99910000D01*
X144729000Y-99910000D01*
X144661961Y-99890315D01*
X144616206Y-99837511D01*
X144605000Y-99786000D01*
X144605000Y-99534000D01*
X144624685Y-99466961D01*
X144677489Y-99421206D01*
X144729000Y-99410000D01*
X145385000Y-99410000D01*
X145385000Y-99312172D01*
X145384999Y-99312155D01*
X145378598Y-99252627D01*
X145378596Y-99252620D01*
X145328354Y-99117913D01*
X145328352Y-99117910D01*
X145272881Y-99043811D01*
X145248463Y-98978347D01*
X145263314Y-98910074D01*
X145312719Y-98860668D01*
X145372144Y-98845499D01*
X146955694Y-98845499D01*
X147022733Y-98865184D01*
X147068488Y-98917988D01*
X147078432Y-98987146D01*
X147049407Y-99050702D01*
X147030006Y-99068765D01*
X146957809Y-99122812D01*
X146871649Y-99237906D01*
X146871645Y-99237913D01*
X146821403Y-99372620D01*
X146821401Y-99372627D01*
X146815000Y-99432155D01*
X146815000Y-99530000D01*
X147345000Y-99530000D01*
X147345000Y-98966492D01*
X147327762Y-98934924D01*
X147332746Y-98865232D01*
X147374618Y-98809299D01*
X147385871Y-98802718D01*
X147393502Y-98797490D01*
X147393509Y-98797487D01*
X147460334Y-98730661D01*
X147521653Y-98697179D01*
X147591345Y-98702163D01*
G37*
%TD.AperFunction*%
%TA.AperFunction,Conductor*%
G36*
X149043039Y-88720185D02*
G01*
X149088794Y-88772989D01*
X149100000Y-88824500D01*
X149100000Y-88990000D01*
X151600000Y-88990000D01*
X151600000Y-88824500D01*
X151619685Y-88757461D01*
X151672489Y-88711706D01*
X151724000Y-88700500D01*
X166476000Y-88700500D01*
X166543039Y-88720185D01*
X166588794Y-88772989D01*
X166600000Y-88824500D01*
X166600000Y-88990000D01*
X169100000Y-88990000D01*
X169100000Y-88824500D01*
X169119685Y-88757461D01*
X169172489Y-88711706D01*
X169224000Y-88700500D01*
X174026275Y-88700500D01*
X174093314Y-88720185D01*
X174139069Y-88772989D01*
X174149013Y-88842147D01*
X174147892Y-88848691D01*
X174129500Y-88941153D01*
X174129500Y-89098846D01*
X174160261Y-89253489D01*
X174160264Y-89253501D01*
X174220602Y-89399172D01*
X174220609Y-89399185D01*
X174308210Y-89530288D01*
X174308213Y-89530292D01*
X174419707Y-89641786D01*
X174419711Y-89641789D01*
X174550814Y-89729390D01*
X174550827Y-89729397D01*
X174665089Y-89776725D01*
X174696503Y-89789737D01*
X174849574Y-89820185D01*
X174851153Y-89820499D01*
X174851156Y-89820500D01*
X174851158Y-89820500D01*
X175008844Y-89820500D01*
X175008845Y-89820499D01*
X175163497Y-89789737D01*
X175309179Y-89729394D01*
X175440289Y-89641789D01*
X175551789Y-89530289D01*
X175639394Y-89399179D01*
X175699737Y-89253497D01*
X175730500Y-89098842D01*
X175730500Y-88941158D01*
X175730500Y-88941155D01*
X175730499Y-88941153D01*
X175712108Y-88848691D01*
X175718335Y-88779099D01*
X175761198Y-88723922D01*
X175827088Y-88700678D01*
X175833725Y-88700500D01*
X180795500Y-88700500D01*
X180862539Y-88720185D01*
X180908294Y-88772989D01*
X180919500Y-88824500D01*
X180919500Y-97906538D01*
X180899815Y-97973577D01*
X180847011Y-98019332D01*
X180777853Y-98029276D01*
X180760567Y-98025516D01*
X180671961Y-97999500D01*
X180528039Y-97999500D01*
X180528036Y-97999500D01*
X180389949Y-98040045D01*
X180268873Y-98117856D01*
X180174623Y-98226626D01*
X180174622Y-98226628D01*
X180114834Y-98357543D01*
X180094353Y-98500000D01*
X180114834Y-98642457D01*
X180114835Y-98642458D01*
X180153602Y-98727346D01*
X180163546Y-98796504D01*
X180134521Y-98860060D01*
X180128489Y-98866538D01*
X179641848Y-99353181D01*
X179580525Y-99386666D01*
X179554167Y-99389500D01*
X178110247Y-99389500D01*
X178051770Y-99401131D01*
X178051769Y-99401132D01*
X177985447Y-99445447D01*
X177941132Y-99511769D01*
X177941131Y-99511770D01*
X177929500Y-99570247D01*
X177929500Y-100323443D01*
X177909815Y-100390482D01*
X177879812Y-100422709D01*
X177772809Y-100502812D01*
X177766540Y-100509082D01*
X177765318Y-100507860D01*
X177717825Y-100543408D01*
X177648132Y-100548387D01*
X177586812Y-100514897D01*
X177553332Y-100453572D01*
X177550500Y-100427223D01*
X177550500Y-93551279D01*
X177538232Y-93505495D01*
X177530021Y-93474851D01*
X177515408Y-93449540D01*
X177490464Y-93406335D01*
X177490458Y-93406327D01*
X173343672Y-89259541D01*
X173343667Y-89259537D01*
X173333204Y-89253496D01*
X173333202Y-89253496D01*
X173300746Y-89234757D01*
X173275150Y-89219979D01*
X173249673Y-89213152D01*
X173198722Y-89199500D01*
X171730438Y-89199500D01*
X171663039Y-89217559D01*
X171654007Y-89219980D01*
X171595957Y-89253496D01*
X171585492Y-89259537D01*
X171585487Y-89259541D01*
X169012181Y-91832848D01*
X168950858Y-91866333D01*
X168881166Y-91861349D01*
X168825233Y-91819477D01*
X168800816Y-91754013D01*
X168800500Y-91745167D01*
X168800500Y-91310249D01*
X168800499Y-91310247D01*
X168788868Y-91251770D01*
X168788867Y-91251768D01*
X168763558Y-91213892D01*
X168742679Y-91147215D01*
X168761163Y-91079835D01*
X168763558Y-91076108D01*
X168788867Y-91038231D01*
X168788868Y-91038229D01*
X168798800Y-90988294D01*
X168800500Y-90979748D01*
X168800500Y-90226556D01*
X168820185Y-90159517D01*
X168850189Y-90127290D01*
X168957187Y-90047190D01*
X168957190Y-90047187D01*
X169043350Y-89932093D01*
X169043354Y-89932086D01*
X169093596Y-89797379D01*
X169093598Y-89797372D01*
X169099999Y-89737844D01*
X169100000Y-89737827D01*
X169100000Y-89490000D01*
X166600000Y-89490000D01*
X166600000Y-89737844D01*
X166606401Y-89797372D01*
X166606403Y-89797379D01*
X166656645Y-89932086D01*
X166656649Y-89932093D01*
X166742809Y-90047187D01*
X166742812Y-90047190D01*
X166849811Y-90127290D01*
X166891682Y-90183223D01*
X166899500Y-90226556D01*
X166899500Y-90979752D01*
X166911131Y-91038229D01*
X166911132Y-91038230D01*
X166936442Y-91076109D01*
X166957320Y-91142787D01*
X166938835Y-91210167D01*
X166936442Y-91213891D01*
X166911132Y-91251769D01*
X166911131Y-91251770D01*
X166899500Y-91310247D01*
X166899500Y-91400500D01*
X166879815Y-91467539D01*
X166827011Y-91513294D01*
X166775500Y-91524500D01*
X166583501Y-91524500D01*
X166516462Y-91504815D01*
X166489788Y-91481703D01*
X166471761Y-91460899D01*
X166456128Y-91442857D01*
X166335053Y-91365047D01*
X166335051Y-91365046D01*
X166335049Y-91365045D01*
X166335050Y-91365045D01*
X166196963Y-91324500D01*
X166196961Y-91324500D01*
X166053039Y-91324500D01*
X166053036Y-91324500D01*
X165914949Y-91365045D01*
X165793873Y-91442856D01*
X165699623Y-91551626D01*
X165699622Y-91551628D01*
X165639834Y-91682543D01*
X165619353Y-91825000D01*
X165639834Y-91967456D01*
X165675033Y-92044529D01*
X165699623Y-92098373D01*
X165793872Y-92207143D01*
X165793874Y-92207144D01*
X165793874Y-92207145D01*
X165815720Y-92221184D01*
X165861476Y-92273987D01*
X165871420Y-92343146D01*
X165842396Y-92406702D01*
X165783618Y-92444477D01*
X165748682Y-92449500D01*
X152185833Y-92449500D01*
X152118794Y-92429815D01*
X152098152Y-92413181D01*
X151336819Y-91651848D01*
X151303334Y-91590525D01*
X151300500Y-91564167D01*
X151300500Y-91310249D01*
X151300499Y-91310247D01*
X151288868Y-91251770D01*
X151288867Y-91251768D01*
X151263558Y-91213892D01*
X151242679Y-91147215D01*
X151261163Y-91079835D01*
X151263558Y-91076108D01*
X151288867Y-91038231D01*
X151288868Y-91038229D01*
X151298800Y-90988294D01*
X151300500Y-90979748D01*
X151300500Y-90226556D01*
X151320185Y-90159517D01*
X151350189Y-90127290D01*
X151457187Y-90047190D01*
X151457190Y-90047187D01*
X151543350Y-89932093D01*
X151543354Y-89932086D01*
X151593596Y-89797379D01*
X151593598Y-89797372D01*
X151599999Y-89737844D01*
X151600000Y-89737827D01*
X151600000Y-89490000D01*
X149100000Y-89490000D01*
X149100000Y-89737828D01*
X149102625Y-89762245D01*
X149090219Y-89831005D01*
X149042608Y-89882142D01*
X148979335Y-89899500D01*
X147600548Y-89899500D01*
X147533509Y-89879815D01*
X147487754Y-89827011D01*
X147477810Y-89757853D01*
X147493816Y-89712379D01*
X147551798Y-89614336D01*
X147551800Y-89614331D01*
X147597129Y-89458307D01*
X147597783Y-89450000D01*
X146954000Y-89450000D01*
X146886961Y-89430315D01*
X146841206Y-89377511D01*
X146830000Y-89326000D01*
X146830000Y-89074000D01*
X146849685Y-89006961D01*
X146902489Y-88961206D01*
X146954000Y-88950000D01*
X147597783Y-88950000D01*
X147597129Y-88941697D01*
X147573132Y-88859095D01*
X147573332Y-88789225D01*
X147611274Y-88730555D01*
X147674913Y-88701712D01*
X147692209Y-88700500D01*
X148976000Y-88700500D01*
X149043039Y-88720185D01*
G37*
%TD.AperFunction*%
%TD*%
M02*
