%TF.GenerationSoftware,KiCad,Pcbnew,8.0.7*%
%TF.CreationDate,2025-04-18T11:17:16-04:00*%
%TF.ProjectId,weiland-esp32,7765696c-616e-4642-9d65-737033322e6b,rev?*%
%TF.SameCoordinates,Original*%
%TF.FileFunction,Copper,L2,Bot*%
%TF.FilePolarity,Positive*%
%FSLAX46Y46*%
G04 Gerber Fmt 4.6, Leading zero omitted, Abs format (unit mm)*
G04 Created by KiCad (PCBNEW 8.0.7) date 2025-04-18 11:17:16*
%MOMM*%
%LPD*%
G01*
G04 APERTURE LIST*
%TA.AperFunction,ComponentPad*%
%ADD10C,1.320800*%
%TD*%
%TA.AperFunction,ComponentPad*%
%ADD11R,1.308000X1.308000*%
%TD*%
%TA.AperFunction,ComponentPad*%
%ADD12C,1.308000*%
%TD*%
%TA.AperFunction,ViaPad*%
%ADD13C,0.600000*%
%TD*%
%TA.AperFunction,Conductor*%
%ADD14C,0.200000*%
%TD*%
G04 APERTURE END LIST*
D10*
%TO.P,J6,1,1*%
%TO.N,GND*%
X138275000Y-92350000D03*
%TO.P,J6,2,2*%
%TO.N,+5V*%
X138275000Y-90349999D03*
%TD*%
%TO.P,J1,1,1*%
%TO.N,/OUTN*%
X138275000Y-109725000D03*
%TO.P,J1,2,2*%
%TO.N,/OUTP*%
X138275000Y-107724999D03*
%TD*%
D11*
%TO.P,P2,1,1*%
%TO.N,+5V*%
X172825000Y-96500000D03*
D12*
%TO.P,P2,2,2*%
%TO.N,/OUTA*%
X172825000Y-94500000D03*
%TO.P,P2,3,3*%
%TO.N,+5V*%
X172825000Y-92500000D03*
%TO.P,P2,4,4*%
%TO.N,/OUTB*%
X172825000Y-90500000D03*
%TD*%
D11*
%TO.P,P1,1,1*%
%TO.N,+5V*%
X138275000Y-97050000D03*
D12*
%TO.P,P1,2,2*%
%TO.N,/OUTC*%
X138275000Y-99050000D03*
%TO.P,P1,3,3*%
%TO.N,+5V*%
X138275000Y-101050000D03*
%TO.P,P1,4,4*%
%TO.N,/OUTD*%
X138275000Y-103050000D03*
%TD*%
D10*
%TO.P,J7,2,2*%
%TO.N,/OUTN*%
X172820000Y-109440001D03*
%TO.P,J7,1,1*%
%TO.N,/OUTP*%
X172820000Y-107440000D03*
%TD*%
D13*
%TO.N,GND*%
X144250000Y-110250000D03*
X144100000Y-109000000D03*
%TO.N,/OUTN*%
X148250000Y-109700000D03*
%TO.N,/IO22*%
X153400000Y-102925000D03*
%TO.N,+3.3V*%
X148500000Y-97700000D03*
X152000000Y-98100000D03*
X151896878Y-105702942D03*
X153850000Y-110600000D03*
%TO.N,/IO14*%
X151500000Y-104480000D03*
X156250000Y-110550000D03*
%TO.N,/IO19*%
X158550000Y-110650000D03*
X163450000Y-103100000D03*
%TO.N,GND*%
X146800000Y-95650000D03*
X179025000Y-105025000D03*
X144550000Y-95825000D03*
X146775000Y-91200000D03*
X145275000Y-88600000D03*
X176725000Y-104225000D03*
%TO.N,+5V*%
X174000000Y-104200000D03*
X144200000Y-106100000D03*
X141865000Y-103665000D03*
X142800000Y-99600000D03*
X180600000Y-98500000D03*
%TO.N,/EN*%
X152010000Y-92750000D03*
X154200000Y-89400000D03*
X176035661Y-99035661D03*
%TO.N,/RXD0*%
X169500000Y-94250000D03*
X175500000Y-104250000D03*
%TO.N,/IO22*%
X148525000Y-102925000D03*
%TO.N,/IO15*%
X149046591Y-103867349D03*
X161175000Y-103850000D03*
%TO.N,/OUTC*%
X173800001Y-101458236D03*
%TO.N,/OUTD*%
X173829202Y-102340000D03*
%TD*%
D14*
%TO.N,/EN*%
X153750000Y-91550000D02*
X154200000Y-91275000D01*
X152010000Y-92750000D02*
X153750000Y-91550000D01*
X154200000Y-89400000D02*
X154200000Y-91275000D01*
X154200000Y-91275000D02*
X166352818Y-91275000D01*
%TO.N,/OUTD*%
X154640000Y-102190000D02*
X155300000Y-102200000D01*
X139135000Y-102190000D02*
X154640000Y-102190000D01*
X155300000Y-102200000D02*
X173829202Y-102340000D01*
X138275000Y-103050000D02*
X139135000Y-102190000D01*
%TO.N,/OUTC*%
X140715735Y-101425735D02*
X173767500Y-101425735D01*
X140660000Y-101370000D02*
X140715735Y-101425735D01*
X140660000Y-101369799D02*
X140660000Y-101370000D01*
X173767500Y-101425735D02*
X173800001Y-101458236D01*
X138340201Y-99050000D02*
X140660000Y-101369799D01*
X138275000Y-99050000D02*
X138340201Y-99050000D01*
%TO.N,/EN*%
X152025000Y-92735000D02*
X152010000Y-92750000D01*
%TO.N,GND*%
X144100000Y-110100000D02*
X144250000Y-110250000D01*
X144100000Y-109000000D02*
X144100000Y-110100000D01*
%TO.N,/OUTN*%
X148250000Y-109700000D02*
X148250000Y-111525000D01*
X148250000Y-111525000D02*
X170735001Y-111525000D01*
X140075000Y-111525000D02*
X148250000Y-111525000D01*
%TO.N,/IO22*%
X148525000Y-102925000D02*
X153400000Y-102925000D01*
%TO.N,+3.3V*%
X151550000Y-98100000D02*
X151150000Y-97700000D01*
X151150000Y-97700000D02*
X148500000Y-97700000D01*
X152000000Y-98100000D02*
X151550000Y-98100000D01*
X153850000Y-110600000D02*
X153850000Y-107656064D01*
X153850000Y-107656064D02*
X151896878Y-105702942D01*
%TO.N,/IO14*%
X156750000Y-110050000D02*
X156250000Y-110550000D01*
X151500000Y-104480000D02*
X156750000Y-110050000D01*
%TO.N,/IO19*%
X158550000Y-110650000D02*
X158550000Y-108000000D01*
X158550000Y-108000000D02*
X163450000Y-103100000D01*
%TO.N,/OUTN*%
X138275000Y-109725000D02*
X140075000Y-111525000D01*
X170735001Y-111525000D02*
X172820000Y-109440001D01*
%TO.N,GND*%
X176725000Y-104225000D02*
X178225000Y-104225000D01*
X178225000Y-104225000D02*
X179025000Y-105025000D01*
X146775000Y-90100000D02*
X146775000Y-91200000D01*
X145275000Y-88600000D02*
X146775000Y-90100000D01*
X144550000Y-95825000D02*
X146625000Y-95825000D01*
X146625000Y-95825000D02*
X146800000Y-95650000D01*
%TO.N,/EN*%
X166352818Y-91275000D02*
X166675000Y-91597182D01*
X166675000Y-91597182D02*
X166675000Y-93175000D01*
X172535661Y-99035661D02*
X176035661Y-99035661D01*
X166675000Y-93175000D02*
X172535661Y-99035661D01*
%TO.N,/RXD0*%
X176635661Y-96885661D02*
X173250000Y-93500000D01*
X170250000Y-93500000D02*
X169500000Y-94250000D01*
X175500000Y-104250000D02*
X176635661Y-103114339D01*
X173250000Y-93500000D02*
X170250000Y-93500000D01*
X176635661Y-103114339D02*
X176635661Y-96885661D01*
%TO.N,/IO15*%
X161157651Y-103867349D02*
X161175000Y-103850000D01*
X149046591Y-103867349D02*
X161157651Y-103867349D01*
%TO.N,/OUTC*%
X173800001Y-101458236D02*
X173758237Y-101500000D01*
%TD*%
%TA.AperFunction,Conductor*%
%TO.N,+5V*%
G36*
X180867341Y-87721650D02*
G01*
X180913196Y-87774367D01*
X180924500Y-87826093D01*
X180924500Y-111500500D01*
X180904815Y-111567539D01*
X180852011Y-111613294D01*
X180800500Y-111624500D01*
X171359834Y-111624500D01*
X171292795Y-111604815D01*
X171247040Y-111552011D01*
X171237096Y-111482853D01*
X171266121Y-111419297D01*
X171272153Y-111412819D01*
X171534472Y-111150500D01*
X172401733Y-110283237D01*
X172463054Y-110249754D01*
X172532745Y-110254738D01*
X172539838Y-110257637D01*
X172552502Y-110263275D01*
X172729516Y-110300901D01*
X172910484Y-110300901D01*
X173087498Y-110263275D01*
X173252821Y-110189669D01*
X173399228Y-110083298D01*
X173402316Y-110079869D01*
X173461273Y-110014390D01*
X173520319Y-109948813D01*
X173610803Y-109792089D01*
X173666726Y-109619978D01*
X173685642Y-109440001D01*
X173666726Y-109260024D01*
X173610803Y-109087913D01*
X173520319Y-108931189D01*
X173512267Y-108922246D01*
X173399233Y-108796708D01*
X173399230Y-108796706D01*
X173399229Y-108796705D01*
X173399228Y-108796704D01*
X173302777Y-108726628D01*
X173252819Y-108690331D01*
X173125894Y-108633821D01*
X173087498Y-108616727D01*
X173087496Y-108616726D01*
X173087495Y-108616726D01*
X172910484Y-108579101D01*
X172729516Y-108579101D01*
X172552504Y-108616726D01*
X172387180Y-108690331D01*
X172240769Y-108796706D01*
X172240766Y-108796708D01*
X172119681Y-108931188D01*
X172029196Y-109087915D01*
X172029194Y-109087919D01*
X171979765Y-109240047D01*
X171973274Y-109260024D01*
X171954358Y-109440001D01*
X171973274Y-109619978D01*
X171973275Y-109619981D01*
X172009085Y-109730194D01*
X172011080Y-109800035D01*
X171978835Y-109856193D01*
X170646849Y-111188181D01*
X170585526Y-111221666D01*
X170559168Y-111224500D01*
X158985971Y-111224500D01*
X158918932Y-111204815D01*
X158873177Y-111152011D01*
X158863233Y-111082853D01*
X158892256Y-111019299D01*
X158975377Y-110923373D01*
X159035165Y-110792457D01*
X159055647Y-110650000D01*
X159035165Y-110507543D01*
X158975377Y-110376627D01*
X158975375Y-110376625D01*
X158975374Y-110376622D01*
X158880787Y-110267462D01*
X158851762Y-110203906D01*
X158850500Y-110186260D01*
X158850500Y-108175832D01*
X158870185Y-108108793D01*
X158886814Y-108088156D01*
X159534970Y-107440000D01*
X171954358Y-107440000D01*
X171973274Y-107619977D01*
X171973275Y-107619980D01*
X172029194Y-107792081D01*
X172029196Y-107792085D01*
X172029197Y-107792088D01*
X172094374Y-107904979D01*
X172119681Y-107948812D01*
X172240766Y-108083292D01*
X172240769Y-108083294D01*
X172240772Y-108083297D01*
X172350577Y-108163075D01*
X172387180Y-108189669D01*
X172450642Y-108217923D01*
X172552502Y-108263274D01*
X172729516Y-108300900D01*
X172910484Y-108300900D01*
X173087498Y-108263274D01*
X173252821Y-108189668D01*
X173399228Y-108083297D01*
X173404823Y-108077084D01*
X173496312Y-107975474D01*
X173520319Y-107948812D01*
X173610803Y-107792088D01*
X173666726Y-107619977D01*
X173685642Y-107440000D01*
X173666726Y-107260023D01*
X173610803Y-107087912D01*
X173520319Y-106931188D01*
X173512267Y-106922245D01*
X173399233Y-106796707D01*
X173399230Y-106796705D01*
X173399229Y-106796704D01*
X173399228Y-106796703D01*
X173326024Y-106743517D01*
X173252819Y-106690330D01*
X173125894Y-106633820D01*
X173087498Y-106616726D01*
X173087496Y-106616725D01*
X173087495Y-106616725D01*
X172910484Y-106579100D01*
X172729516Y-106579100D01*
X172552504Y-106616725D01*
X172387180Y-106690330D01*
X172240769Y-106796705D01*
X172240766Y-106796707D01*
X172119681Y-106931187D01*
X172029196Y-107087914D01*
X172029194Y-107087918D01*
X171987517Y-107216187D01*
X171973274Y-107260023D01*
X171954358Y-107440000D01*
X159534970Y-107440000D01*
X163338151Y-103636818D01*
X163399474Y-103603334D01*
X163425832Y-103600500D01*
X163521962Y-103600500D01*
X163521962Y-103600499D01*
X163660053Y-103559953D01*
X163781128Y-103482143D01*
X163875377Y-103373373D01*
X163935165Y-103242457D01*
X163955647Y-103100000D01*
X163935165Y-102957543D01*
X163875377Y-102826627D01*
X163827044Y-102770847D01*
X163798020Y-102707293D01*
X163807964Y-102638134D01*
X163853719Y-102585331D01*
X163920758Y-102565646D01*
X163921491Y-102565649D01*
X173368626Y-102637027D01*
X173435514Y-102657217D01*
X173461401Y-102679821D01*
X173498071Y-102722141D01*
X173498073Y-102722142D01*
X173498074Y-102722143D01*
X173619149Y-102799953D01*
X173619152Y-102799954D01*
X173619151Y-102799954D01*
X173757238Y-102840499D01*
X173757240Y-102840500D01*
X173757241Y-102840500D01*
X173901164Y-102840500D01*
X173901164Y-102840499D01*
X174039255Y-102799953D01*
X174160330Y-102722143D01*
X174254579Y-102613373D01*
X174314367Y-102482457D01*
X174334849Y-102340000D01*
X174314367Y-102197543D01*
X174254579Y-102066627D01*
X174254577Y-102066625D01*
X174254576Y-102066622D01*
X174165194Y-101963469D01*
X174136169Y-101899913D01*
X174146113Y-101830755D01*
X174165190Y-101801070D01*
X174225378Y-101731609D01*
X174285166Y-101600693D01*
X174305648Y-101458236D01*
X174285166Y-101315779D01*
X174225378Y-101184863D01*
X174131129Y-101076093D01*
X174010054Y-100998283D01*
X174010052Y-100998282D01*
X174010050Y-100998281D01*
X174010051Y-100998281D01*
X173871964Y-100957736D01*
X173871962Y-100957736D01*
X173728040Y-100957736D01*
X173728037Y-100957736D01*
X173589950Y-100998281D01*
X173468872Y-101076093D01*
X173463376Y-101082437D01*
X173404598Y-101120212D01*
X173369662Y-101125235D01*
X140891769Y-101125235D01*
X140824730Y-101105550D01*
X140804088Y-101088916D01*
X139127074Y-99411902D01*
X139093589Y-99350579D01*
X139096823Y-99285905D01*
X139115431Y-99228639D01*
X139134207Y-99050000D01*
X139115431Y-98871361D01*
X139059925Y-98700529D01*
X138970113Y-98544971D01*
X138849922Y-98411485D01*
X138849921Y-98411484D01*
X138849460Y-98410972D01*
X138819230Y-98347980D01*
X138827855Y-98278645D01*
X138872597Y-98224980D01*
X138939249Y-98204022D01*
X138941610Y-98204000D01*
X138976828Y-98204000D01*
X138976844Y-98203999D01*
X139036372Y-98197598D01*
X139036379Y-98197596D01*
X139171086Y-98147354D01*
X139171093Y-98147350D01*
X139286187Y-98061190D01*
X139286190Y-98061187D01*
X139372350Y-97946093D01*
X139372354Y-97946086D01*
X139422596Y-97811379D01*
X139422598Y-97811372D01*
X139428999Y-97751844D01*
X139429000Y-97751827D01*
X139429000Y-97700000D01*
X147994353Y-97700000D01*
X148014834Y-97842456D01*
X148074622Y-97973371D01*
X148074623Y-97973373D01*
X148168872Y-98082143D01*
X148289947Y-98159953D01*
X148289950Y-98159954D01*
X148289949Y-98159954D01*
X148397107Y-98191417D01*
X148411010Y-98195500D01*
X148428036Y-98200499D01*
X148428038Y-98200500D01*
X148428039Y-98200500D01*
X148571962Y-98200500D01*
X148571962Y-98200499D01*
X148710053Y-98159953D01*
X148831128Y-98082143D01*
X148864788Y-98043296D01*
X148923567Y-98005523D01*
X148958501Y-98000500D01*
X150974167Y-98000500D01*
X151041206Y-98020185D01*
X151061848Y-98036819D01*
X151309540Y-98284511D01*
X151365489Y-98340460D01*
X151365491Y-98340461D01*
X151365495Y-98340464D01*
X151422493Y-98373371D01*
X151434011Y-98380021D01*
X151510438Y-98400500D01*
X151541499Y-98400500D01*
X151608538Y-98420185D01*
X151635211Y-98443296D01*
X151668872Y-98482143D01*
X151789947Y-98559953D01*
X151789950Y-98559954D01*
X151789949Y-98559954D01*
X151928036Y-98600499D01*
X151928038Y-98600500D01*
X151928039Y-98600500D01*
X152071962Y-98600500D01*
X152071962Y-98600499D01*
X152179121Y-98569035D01*
X152210050Y-98559954D01*
X152210050Y-98559953D01*
X152210053Y-98559953D01*
X152331128Y-98482143D01*
X152425377Y-98373373D01*
X152485165Y-98242457D01*
X152505647Y-98100000D01*
X152485165Y-97957543D01*
X152425377Y-97826627D01*
X152331128Y-97717857D01*
X152210053Y-97640047D01*
X152210051Y-97640046D01*
X152210049Y-97640045D01*
X152210050Y-97640045D01*
X152071963Y-97599500D01*
X152071961Y-97599500D01*
X151928039Y-97599500D01*
X151928036Y-97599500D01*
X151789949Y-97640045D01*
X151789946Y-97640047D01*
X151706639Y-97693584D01*
X151639600Y-97713268D01*
X151572560Y-97693583D01*
X151551920Y-97676949D01*
X151334512Y-97459541D01*
X151334504Y-97459535D01*
X151265995Y-97419982D01*
X151265990Y-97419979D01*
X151240513Y-97413152D01*
X151189562Y-97399500D01*
X151189560Y-97399500D01*
X148958501Y-97399500D01*
X148891462Y-97379815D01*
X148864788Y-97356703D01*
X148831128Y-97317857D01*
X148710053Y-97240047D01*
X148710051Y-97240046D01*
X148710049Y-97240045D01*
X148710050Y-97240045D01*
X148571963Y-97199500D01*
X148571961Y-97199500D01*
X148428039Y-97199500D01*
X148428036Y-97199500D01*
X148289949Y-97240045D01*
X148168873Y-97317856D01*
X148074623Y-97426626D01*
X148074622Y-97426628D01*
X148014834Y-97557543D01*
X147994353Y-97700000D01*
X139429000Y-97700000D01*
X139429000Y-97300000D01*
X138590686Y-97300000D01*
X138595080Y-97295606D01*
X138647741Y-97204394D01*
X138675000Y-97102661D01*
X138675000Y-96997339D01*
X138647741Y-96895606D01*
X138595080Y-96804394D01*
X138590686Y-96800000D01*
X139429000Y-96800000D01*
X139429000Y-96348172D01*
X139428999Y-96348155D01*
X139422598Y-96288627D01*
X139422596Y-96288620D01*
X139372354Y-96153913D01*
X139372350Y-96153906D01*
X139286190Y-96038812D01*
X139286187Y-96038809D01*
X139171093Y-95952649D01*
X139171086Y-95952645D01*
X139036379Y-95902403D01*
X139036372Y-95902401D01*
X138976844Y-95896000D01*
X138525000Y-95896000D01*
X138525000Y-96734314D01*
X138520606Y-96729920D01*
X138429394Y-96677259D01*
X138327661Y-96650000D01*
X138222339Y-96650000D01*
X138120606Y-96677259D01*
X138029394Y-96729920D01*
X138025000Y-96734314D01*
X138025000Y-95896000D01*
X137573155Y-95896000D01*
X137513627Y-95902401D01*
X137513620Y-95902403D01*
X137378913Y-95952645D01*
X137378906Y-95952649D01*
X137263812Y-96038809D01*
X137263809Y-96038812D01*
X137177649Y-96153906D01*
X137177645Y-96153913D01*
X137127403Y-96288620D01*
X137127401Y-96288627D01*
X137121000Y-96348155D01*
X137121000Y-96800000D01*
X137959314Y-96800000D01*
X137954920Y-96804394D01*
X137902259Y-96895606D01*
X137875000Y-96997339D01*
X137875000Y-97102661D01*
X137902259Y-97204394D01*
X137954920Y-97295606D01*
X137959314Y-97300000D01*
X137121000Y-97300000D01*
X137121000Y-97751844D01*
X137127401Y-97811372D01*
X137127403Y-97811379D01*
X137177645Y-97946086D01*
X137177649Y-97946093D01*
X137263809Y-98061187D01*
X137263812Y-98061190D01*
X137378906Y-98147350D01*
X137378913Y-98147354D01*
X137513620Y-98197596D01*
X137513627Y-98197598D01*
X137573155Y-98203999D01*
X137573172Y-98204000D01*
X137608389Y-98204000D01*
X137675428Y-98223685D01*
X137721183Y-98276489D01*
X137731127Y-98345647D01*
X137702102Y-98409203D01*
X137700539Y-98410972D01*
X137579886Y-98544972D01*
X137490074Y-98700530D01*
X137434569Y-98871359D01*
X137415793Y-99050000D01*
X137434569Y-99228640D01*
X137475900Y-99355846D01*
X137490075Y-99399471D01*
X137579887Y-99555029D01*
X137700078Y-99688515D01*
X137808418Y-99767229D01*
X137827174Y-99780856D01*
X137869839Y-99836186D01*
X137875818Y-99905800D01*
X137843212Y-99967595D01*
X137799082Y-99996800D01*
X137758425Y-100012550D01*
X137758410Y-100012557D01*
X137655087Y-100076532D01*
X137655086Y-100076533D01*
X138228553Y-100650000D01*
X138222339Y-100650000D01*
X138120606Y-100677259D01*
X138029394Y-100729920D01*
X137954920Y-100804394D01*
X137902259Y-100895606D01*
X137875000Y-100997339D01*
X137875000Y-101003553D01*
X137298980Y-100427533D01*
X137289646Y-100439893D01*
X137194321Y-100631330D01*
X137194315Y-100631345D01*
X137135789Y-100837043D01*
X137135788Y-100837045D01*
X137116056Y-101049999D01*
X137116056Y-101050000D01*
X137135788Y-101262954D01*
X137135789Y-101262956D01*
X137194315Y-101468654D01*
X137194321Y-101468669D01*
X137289642Y-101660099D01*
X137289647Y-101660107D01*
X137298980Y-101672465D01*
X137875000Y-101096445D01*
X137875000Y-101102661D01*
X137902259Y-101204394D01*
X137954920Y-101295606D01*
X138029394Y-101370080D01*
X138120606Y-101422741D01*
X138222339Y-101450000D01*
X138228552Y-101450000D01*
X137655086Y-102023465D01*
X137758413Y-102087443D01*
X137758423Y-102087448D01*
X137799082Y-102103200D01*
X137854484Y-102145772D01*
X137878074Y-102211539D01*
X137862363Y-102279620D01*
X137827174Y-102319144D01*
X137700075Y-102411487D01*
X137700072Y-102411489D01*
X137579886Y-102544972D01*
X137490074Y-102700530D01*
X137434569Y-102871359D01*
X137415793Y-103050000D01*
X137434569Y-103228640D01*
X137481594Y-103373371D01*
X137490075Y-103399471D01*
X137579887Y-103555029D01*
X137700078Y-103688515D01*
X137845396Y-103794095D01*
X138009490Y-103867154D01*
X138185188Y-103904500D01*
X138364812Y-103904500D01*
X138540510Y-103867154D01*
X138704604Y-103794095D01*
X138849922Y-103688515D01*
X138970113Y-103555029D01*
X139059925Y-103399471D01*
X139115431Y-103228639D01*
X139134207Y-103050000D01*
X139115431Y-102871361D01*
X139080833Y-102764880D01*
X139078839Y-102695043D01*
X139111083Y-102638886D01*
X139223153Y-102526818D01*
X139284476Y-102493334D01*
X139310833Y-102490500D01*
X147980259Y-102490500D01*
X148047298Y-102510185D01*
X148093053Y-102562989D01*
X148102997Y-102632147D01*
X148093053Y-102666011D01*
X148039835Y-102782541D01*
X148039834Y-102782542D01*
X148019353Y-102925000D01*
X148039834Y-103067456D01*
X148058854Y-103109103D01*
X148099623Y-103198373D01*
X148193872Y-103307143D01*
X148314947Y-103384953D01*
X148314950Y-103384954D01*
X148314949Y-103384954D01*
X148453036Y-103425499D01*
X148453038Y-103425500D01*
X148505207Y-103425500D01*
X148572246Y-103445185D01*
X148618001Y-103497989D01*
X148627945Y-103567147D01*
X148618001Y-103601010D01*
X148605996Y-103627297D01*
X148561425Y-103724892D01*
X148540944Y-103867349D01*
X148561425Y-104009805D01*
X148575081Y-104039707D01*
X148621214Y-104140722D01*
X148715463Y-104249492D01*
X148836538Y-104327302D01*
X148836541Y-104327303D01*
X148836540Y-104327303D01*
X148974627Y-104367848D01*
X148974629Y-104367849D01*
X148974630Y-104367849D01*
X149118553Y-104367849D01*
X149118553Y-104367848D01*
X149225712Y-104336384D01*
X149256641Y-104327303D01*
X149256641Y-104327302D01*
X149256644Y-104327302D01*
X149377719Y-104249492D01*
X149411379Y-104210645D01*
X149470158Y-104172872D01*
X149505092Y-104167849D01*
X150899384Y-104167849D01*
X150966423Y-104187534D01*
X151012178Y-104240338D01*
X151022122Y-104309496D01*
X151016460Y-104328779D01*
X151017333Y-104329036D01*
X151014834Y-104337542D01*
X150994353Y-104480000D01*
X151014834Y-104622456D01*
X151054794Y-104709954D01*
X151074623Y-104753373D01*
X151168872Y-104862143D01*
X151289947Y-104939953D01*
X151289950Y-104939954D01*
X151289949Y-104939954D01*
X151428036Y-104980499D01*
X151428038Y-104980500D01*
X151428039Y-104980500D01*
X151505277Y-104980500D01*
X151572316Y-105000185D01*
X151595512Y-105019449D01*
X151658768Y-105086560D01*
X151690425Y-105148846D01*
X151683383Y-105218360D01*
X151639877Y-105273031D01*
X151635573Y-105275926D01*
X151565752Y-105320797D01*
X151471501Y-105429568D01*
X151471500Y-105429570D01*
X151411712Y-105560485D01*
X151391231Y-105702942D01*
X151411712Y-105845398D01*
X151471500Y-105976313D01*
X151471501Y-105976315D01*
X151565750Y-106085085D01*
X151686825Y-106162895D01*
X151686828Y-106162896D01*
X151686827Y-106162896D01*
X151793985Y-106194359D01*
X151822158Y-106202632D01*
X151824914Y-106203441D01*
X151824916Y-106203442D01*
X151921045Y-106203442D01*
X151988084Y-106223127D01*
X152008726Y-106239761D01*
X153513181Y-107744216D01*
X153546666Y-107805539D01*
X153549500Y-107831897D01*
X153549500Y-110136260D01*
X153529815Y-110203299D01*
X153519213Y-110217462D01*
X153424625Y-110326622D01*
X153424622Y-110326628D01*
X153364834Y-110457543D01*
X153344353Y-110600000D01*
X153364834Y-110742456D01*
X153424622Y-110873371D01*
X153424623Y-110873373D01*
X153518872Y-110982143D01*
X153518874Y-110982144D01*
X153540721Y-110996185D01*
X153586476Y-111048989D01*
X153596419Y-111118148D01*
X153567393Y-111181703D01*
X153508615Y-111219477D01*
X153473681Y-111224500D01*
X148674500Y-111224500D01*
X148607461Y-111204815D01*
X148561706Y-111152011D01*
X148550500Y-111100500D01*
X148550500Y-110163738D01*
X148570185Y-110096699D01*
X148580787Y-110082535D01*
X148581124Y-110082144D01*
X148581128Y-110082143D01*
X148675377Y-109973373D01*
X148735165Y-109842457D01*
X148755647Y-109700000D01*
X148735165Y-109557543D01*
X148675377Y-109426627D01*
X148581128Y-109317857D01*
X148460053Y-109240047D01*
X148460051Y-109240046D01*
X148460049Y-109240045D01*
X148460050Y-109240045D01*
X148321963Y-109199500D01*
X148321961Y-109199500D01*
X148178039Y-109199500D01*
X148178036Y-109199500D01*
X148039949Y-109240045D01*
X147918873Y-109317856D01*
X147824623Y-109426626D01*
X147824622Y-109426628D01*
X147764834Y-109557543D01*
X147744353Y-109700000D01*
X147764834Y-109842456D01*
X147808327Y-109937691D01*
X147824623Y-109973373D01*
X147918872Y-110082143D01*
X147918875Y-110082144D01*
X147919213Y-110082535D01*
X147948238Y-110146091D01*
X147949500Y-110163738D01*
X147949500Y-111100500D01*
X147929815Y-111167539D01*
X147877011Y-111213294D01*
X147825500Y-111224500D01*
X140250833Y-111224500D01*
X140183794Y-111204815D01*
X140163152Y-111188181D01*
X139116163Y-110141192D01*
X139082678Y-110079869D01*
X139085912Y-110015197D01*
X139121726Y-109904977D01*
X139140642Y-109725000D01*
X139121726Y-109545023D01*
X139065803Y-109372912D01*
X138975319Y-109216188D01*
X138960293Y-109199500D01*
X138854233Y-109081707D01*
X138854230Y-109081705D01*
X138854229Y-109081704D01*
X138854228Y-109081703D01*
X138741774Y-109000000D01*
X143594353Y-109000000D01*
X143614834Y-109142456D01*
X143648507Y-109216188D01*
X143674623Y-109273373D01*
X143768872Y-109382143D01*
X143768875Y-109382144D01*
X143769213Y-109382535D01*
X143798238Y-109446091D01*
X143799500Y-109463738D01*
X143799500Y-110004663D01*
X143788294Y-110056174D01*
X143764835Y-110107541D01*
X143764834Y-110107542D01*
X143744353Y-110250000D01*
X143764834Y-110392456D01*
X143817592Y-110507977D01*
X143824623Y-110523373D01*
X143918872Y-110632143D01*
X144039947Y-110709953D01*
X144039950Y-110709954D01*
X144039949Y-110709954D01*
X144178036Y-110750499D01*
X144178038Y-110750500D01*
X144178039Y-110750500D01*
X144321962Y-110750500D01*
X144321962Y-110750499D01*
X144460053Y-110709953D01*
X144581128Y-110632143D01*
X144675377Y-110523373D01*
X144735165Y-110392457D01*
X144755647Y-110250000D01*
X144735165Y-110107543D01*
X144675377Y-109976627D01*
X144581128Y-109867857D01*
X144581125Y-109867855D01*
X144581126Y-109867855D01*
X144457460Y-109788380D01*
X144411706Y-109735576D01*
X144400500Y-109684065D01*
X144400500Y-109463738D01*
X144420185Y-109396699D01*
X144430787Y-109382535D01*
X144431124Y-109382144D01*
X144431128Y-109382143D01*
X144525377Y-109273373D01*
X144585165Y-109142457D01*
X144605647Y-109000000D01*
X144585165Y-108857543D01*
X144525377Y-108726627D01*
X144431128Y-108617857D01*
X144310053Y-108540047D01*
X144310051Y-108540046D01*
X144310049Y-108540045D01*
X144310050Y-108540045D01*
X144171963Y-108499500D01*
X144171961Y-108499500D01*
X144028039Y-108499500D01*
X144028036Y-108499500D01*
X143889949Y-108540045D01*
X143768873Y-108617856D01*
X143674623Y-108726626D01*
X143674622Y-108726628D01*
X143614834Y-108857543D01*
X143594353Y-109000000D01*
X138741774Y-109000000D01*
X138707819Y-108975330D01*
X138580894Y-108918820D01*
X138542498Y-108901726D01*
X138542496Y-108901725D01*
X138542495Y-108901725D01*
X138365484Y-108864100D01*
X138184516Y-108864100D01*
X138007504Y-108901725D01*
X137842180Y-108975330D01*
X137695769Y-109081705D01*
X137695766Y-109081707D01*
X137574681Y-109216187D01*
X137484196Y-109372914D01*
X137484194Y-109372918D01*
X137460419Y-109446091D01*
X137428274Y-109545023D01*
X137409358Y-109725000D01*
X137428274Y-109904977D01*
X137428275Y-109904980D01*
X137484194Y-110077081D01*
X137484196Y-110077085D01*
X137484197Y-110077088D01*
X137568426Y-110222978D01*
X137574681Y-110233812D01*
X137695766Y-110368292D01*
X137695769Y-110368294D01*
X137695772Y-110368297D01*
X137788371Y-110435574D01*
X137842180Y-110474669D01*
X137905642Y-110502923D01*
X138007502Y-110548274D01*
X138184516Y-110585900D01*
X138365484Y-110585900D01*
X138542498Y-110548274D01*
X138549642Y-110545093D01*
X138555151Y-110542641D01*
X138624401Y-110533356D01*
X138687677Y-110562984D01*
X138693268Y-110568239D01*
X139537848Y-111412819D01*
X139571333Y-111474142D01*
X139566349Y-111543834D01*
X139524477Y-111599767D01*
X139459013Y-111624184D01*
X139450167Y-111624500D01*
X130324500Y-111624500D01*
X130257461Y-111604815D01*
X130211706Y-111552011D01*
X130200500Y-111500500D01*
X130200500Y-107724999D01*
X137409358Y-107724999D01*
X137428274Y-107904976D01*
X137428275Y-107904979D01*
X137484194Y-108077080D01*
X137484196Y-108077084D01*
X137484197Y-108077087D01*
X137511554Y-108124471D01*
X137574681Y-108233811D01*
X137695766Y-108368291D01*
X137695769Y-108368293D01*
X137695772Y-108368296D01*
X137805577Y-108448074D01*
X137842180Y-108474668D01*
X137897955Y-108499500D01*
X138007502Y-108548273D01*
X138184516Y-108585899D01*
X138365484Y-108585899D01*
X138542498Y-108548273D01*
X138707821Y-108474667D01*
X138854228Y-108368296D01*
X138975319Y-108233811D01*
X139065803Y-108077087D01*
X139121726Y-107904976D01*
X139140642Y-107724999D01*
X139121726Y-107545022D01*
X139065803Y-107372911D01*
X138975319Y-107216187D01*
X138967267Y-107207244D01*
X138854233Y-107081706D01*
X138854230Y-107081704D01*
X138854229Y-107081703D01*
X138854228Y-107081702D01*
X138781024Y-107028516D01*
X138707819Y-106975329D01*
X138580894Y-106918819D01*
X138542498Y-106901725D01*
X138542496Y-106901724D01*
X138542495Y-106901724D01*
X138365484Y-106864099D01*
X138184516Y-106864099D01*
X138007504Y-106901724D01*
X137842180Y-106975329D01*
X137695769Y-107081704D01*
X137695766Y-107081706D01*
X137574681Y-107216186D01*
X137484196Y-107372913D01*
X137484194Y-107372917D01*
X137428275Y-107545018D01*
X137428274Y-107545022D01*
X137409358Y-107724999D01*
X130200500Y-107724999D01*
X130200500Y-104471153D01*
X135374500Y-104471153D01*
X135374500Y-104628846D01*
X135405261Y-104783489D01*
X135405264Y-104783501D01*
X135465602Y-104929172D01*
X135465609Y-104929185D01*
X135553210Y-105060288D01*
X135553213Y-105060292D01*
X135664707Y-105171786D01*
X135664711Y-105171789D01*
X135795814Y-105259390D01*
X135795827Y-105259397D01*
X135889925Y-105298373D01*
X135941503Y-105319737D01*
X136096153Y-105350499D01*
X136096156Y-105350500D01*
X136096158Y-105350500D01*
X136253844Y-105350500D01*
X136253845Y-105350499D01*
X136408497Y-105319737D01*
X136554179Y-105259394D01*
X136685289Y-105171789D01*
X136796789Y-105060289D01*
X136884394Y-104929179D01*
X136944737Y-104783497D01*
X136975500Y-104628842D01*
X136975500Y-104471158D01*
X136975500Y-104471155D01*
X136975499Y-104471153D01*
X136950999Y-104347984D01*
X136944737Y-104316503D01*
X136931451Y-104284428D01*
X136884397Y-104170827D01*
X136884390Y-104170814D01*
X136796789Y-104039711D01*
X136796786Y-104039707D01*
X136685292Y-103928213D01*
X136685288Y-103928210D01*
X136554185Y-103840609D01*
X136554172Y-103840602D01*
X136408501Y-103780264D01*
X136408489Y-103780261D01*
X136253845Y-103749500D01*
X136253842Y-103749500D01*
X136096158Y-103749500D01*
X136096155Y-103749500D01*
X135941510Y-103780261D01*
X135941498Y-103780264D01*
X135795827Y-103840602D01*
X135795814Y-103840609D01*
X135664711Y-103928210D01*
X135664707Y-103928213D01*
X135553213Y-104039707D01*
X135553210Y-104039711D01*
X135465609Y-104170814D01*
X135465602Y-104170827D01*
X135405264Y-104316498D01*
X135405261Y-104316510D01*
X135374500Y-104471153D01*
X130200500Y-104471153D01*
X130200500Y-95471153D01*
X135374500Y-95471153D01*
X135374500Y-95628846D01*
X135405261Y-95783489D01*
X135405264Y-95783501D01*
X135465602Y-95929172D01*
X135465609Y-95929185D01*
X135553210Y-96060288D01*
X135553213Y-96060292D01*
X135664707Y-96171786D01*
X135664711Y-96171789D01*
X135795814Y-96259390D01*
X135795827Y-96259397D01*
X135866379Y-96288620D01*
X135941503Y-96319737D01*
X136096153Y-96350499D01*
X136096156Y-96350500D01*
X136096158Y-96350500D01*
X136253844Y-96350500D01*
X136253845Y-96350499D01*
X136408497Y-96319737D01*
X136554179Y-96259394D01*
X136685289Y-96171789D01*
X136796789Y-96060289D01*
X136884394Y-95929179D01*
X136927546Y-95825000D01*
X144044353Y-95825000D01*
X144064834Y-95967456D01*
X144097422Y-96038812D01*
X144124623Y-96098373D01*
X144218872Y-96207143D01*
X144339947Y-96284953D01*
X144339950Y-96284954D01*
X144339949Y-96284954D01*
X144478036Y-96325499D01*
X144478038Y-96325500D01*
X144478039Y-96325500D01*
X144621962Y-96325500D01*
X144621962Y-96325499D01*
X144729121Y-96294035D01*
X144760050Y-96284954D01*
X144760050Y-96284953D01*
X144760053Y-96284953D01*
X144881128Y-96207143D01*
X144914788Y-96168296D01*
X144973567Y-96130523D01*
X145008501Y-96125500D01*
X146585438Y-96125500D01*
X146625068Y-96125500D01*
X146660003Y-96130523D01*
X146728038Y-96150500D01*
X146728039Y-96150500D01*
X146871962Y-96150500D01*
X146871962Y-96150499D01*
X147010053Y-96109953D01*
X147131128Y-96032143D01*
X147225377Y-95923373D01*
X147285165Y-95792457D01*
X147305647Y-95650000D01*
X147285165Y-95507543D01*
X147225377Y-95376627D01*
X147131128Y-95267857D01*
X147010053Y-95190047D01*
X147010051Y-95190046D01*
X147010049Y-95190045D01*
X147010050Y-95190045D01*
X146871963Y-95149500D01*
X146871961Y-95149500D01*
X146728039Y-95149500D01*
X146728036Y-95149500D01*
X146589949Y-95190045D01*
X146468873Y-95267856D01*
X146374623Y-95376626D01*
X146374622Y-95376628D01*
X146340195Y-95452012D01*
X146294440Y-95504816D01*
X146227401Y-95524500D01*
X145008501Y-95524500D01*
X144941462Y-95504815D01*
X144914788Y-95481703D01*
X144881128Y-95442857D01*
X144760053Y-95365047D01*
X144760051Y-95365046D01*
X144760049Y-95365045D01*
X144760050Y-95365045D01*
X144621963Y-95324500D01*
X144621961Y-95324500D01*
X144478039Y-95324500D01*
X144478036Y-95324500D01*
X144339949Y-95365045D01*
X144218873Y-95442856D01*
X144124623Y-95551626D01*
X144124622Y-95551628D01*
X144064834Y-95682543D01*
X144044353Y-95825000D01*
X136927546Y-95825000D01*
X136944737Y-95783497D01*
X136975500Y-95628842D01*
X136975500Y-95471158D01*
X136975500Y-95471155D01*
X136975499Y-95471153D01*
X136971692Y-95452012D01*
X136944737Y-95316503D01*
X136926036Y-95271355D01*
X136884397Y-95170827D01*
X136884390Y-95170814D01*
X136796789Y-95039711D01*
X136796786Y-95039707D01*
X136685292Y-94928213D01*
X136685288Y-94928210D01*
X136554185Y-94840609D01*
X136554172Y-94840602D01*
X136408501Y-94780264D01*
X136408489Y-94780261D01*
X136253845Y-94749500D01*
X136253842Y-94749500D01*
X136096158Y-94749500D01*
X136096155Y-94749500D01*
X135941510Y-94780261D01*
X135941498Y-94780264D01*
X135795827Y-94840602D01*
X135795814Y-94840609D01*
X135664711Y-94928210D01*
X135664707Y-94928213D01*
X135553213Y-95039707D01*
X135553210Y-95039711D01*
X135465609Y-95170814D01*
X135465602Y-95170827D01*
X135405264Y-95316498D01*
X135405261Y-95316510D01*
X135374500Y-95471153D01*
X130200500Y-95471153D01*
X130200500Y-90349999D01*
X137109629Y-90349999D01*
X137129471Y-90564130D01*
X137188325Y-90770983D01*
X137284182Y-90963488D01*
X137294410Y-90977033D01*
X137294411Y-90977034D01*
X137868600Y-90402845D01*
X137868600Y-90403503D01*
X137896295Y-90506864D01*
X137949799Y-90599535D01*
X138025464Y-90675200D01*
X138118135Y-90728704D01*
X138221496Y-90756399D01*
X138222153Y-90756399D01*
X137650437Y-91328113D01*
X137755550Y-91393196D01*
X137755554Y-91393198D01*
X137785820Y-91404923D01*
X137841222Y-91447495D01*
X137864813Y-91513262D01*
X137849103Y-91581342D01*
X137813913Y-91620868D01*
X137695769Y-91706705D01*
X137695766Y-91706707D01*
X137574681Y-91841187D01*
X137484196Y-91997914D01*
X137484194Y-91997918D01*
X137428275Y-92170019D01*
X137428274Y-92170023D01*
X137409358Y-92350000D01*
X137428274Y-92529977D01*
X137428275Y-92529980D01*
X137484194Y-92702081D01*
X137484196Y-92702085D01*
X137484197Y-92702088D01*
X137552319Y-92820080D01*
X137574681Y-92858812D01*
X137695766Y-92993292D01*
X137695769Y-92993294D01*
X137695772Y-92993297D01*
X137774545Y-93050529D01*
X137842180Y-93099669D01*
X137893380Y-93122464D01*
X138007502Y-93173274D01*
X138184516Y-93210900D01*
X138365484Y-93210900D01*
X138542498Y-93173274D01*
X138707821Y-93099668D01*
X138854228Y-92993297D01*
X138975319Y-92858812D01*
X139038141Y-92750000D01*
X151504353Y-92750000D01*
X151524834Y-92892456D01*
X151573568Y-92999167D01*
X151584623Y-93023373D01*
X151678872Y-93132143D01*
X151799947Y-93209953D01*
X151799950Y-93209954D01*
X151799949Y-93209954D01*
X151938036Y-93250499D01*
X151938038Y-93250500D01*
X151938039Y-93250500D01*
X152081962Y-93250500D01*
X152081962Y-93250499D01*
X152220053Y-93209953D01*
X152341128Y-93132143D01*
X152435377Y-93023373D01*
X152495165Y-92892457D01*
X152505329Y-92821760D01*
X152534351Y-92758207D01*
X152557662Y-92737333D01*
X153910984Y-91804008D01*
X153916676Y-91800310D01*
X154080004Y-91700500D01*
X154254781Y-91593693D01*
X154319440Y-91575500D01*
X166176985Y-91575500D01*
X166244024Y-91595185D01*
X166264666Y-91611819D01*
X166338181Y-91685334D01*
X166371666Y-91746657D01*
X166374500Y-91773015D01*
X166374500Y-93214562D01*
X166375952Y-93219979D01*
X166394979Y-93290990D01*
X166394980Y-93290991D01*
X166409124Y-93315489D01*
X166434540Y-93359511D01*
X172295201Y-99220172D01*
X172351150Y-99276121D01*
X172351152Y-99276122D01*
X172351156Y-99276125D01*
X172368091Y-99285902D01*
X172419672Y-99315682D01*
X172496099Y-99336161D01*
X172575223Y-99336161D01*
X175577160Y-99336161D01*
X175644199Y-99355846D01*
X175670872Y-99378957D01*
X175704533Y-99417804D01*
X175825608Y-99495614D01*
X175825611Y-99495615D01*
X175825610Y-99495615D01*
X175963697Y-99536160D01*
X175963699Y-99536161D01*
X175963700Y-99536161D01*
X176107622Y-99536161D01*
X176176227Y-99516017D01*
X176246095Y-99516017D01*
X176304874Y-99553791D01*
X176333899Y-99617347D01*
X176335161Y-99634994D01*
X176335161Y-102938505D01*
X176315476Y-103005544D01*
X176298842Y-103026186D01*
X175611847Y-103713181D01*
X175550524Y-103746666D01*
X175524166Y-103749500D01*
X175428036Y-103749500D01*
X175289949Y-103790045D01*
X175168873Y-103867856D01*
X175074623Y-103976626D01*
X175074622Y-103976628D01*
X175014834Y-104107543D01*
X174994353Y-104250000D01*
X175014834Y-104392456D01*
X175050777Y-104471158D01*
X175074623Y-104523373D01*
X175168872Y-104632143D01*
X175289947Y-104709953D01*
X175289950Y-104709954D01*
X175289949Y-104709954D01*
X175428036Y-104750499D01*
X175428038Y-104750500D01*
X175428039Y-104750500D01*
X175571962Y-104750500D01*
X175571962Y-104750499D01*
X175710053Y-104709953D01*
X175831128Y-104632143D01*
X175925377Y-104523373D01*
X175985165Y-104392457D01*
X175991559Y-104347983D01*
X176020583Y-104284428D01*
X176079361Y-104246653D01*
X176149231Y-104246653D01*
X176208009Y-104284426D01*
X176237035Y-104347982D01*
X176237035Y-104347983D01*
X176239834Y-104367456D01*
X176251252Y-104392457D01*
X176299623Y-104498373D01*
X176393872Y-104607143D01*
X176514947Y-104684953D01*
X176514950Y-104684954D01*
X176514949Y-104684954D01*
X176653036Y-104725499D01*
X176653038Y-104725500D01*
X176653039Y-104725500D01*
X176796962Y-104725500D01*
X176796962Y-104725499D01*
X176935053Y-104684953D01*
X177056128Y-104607143D01*
X177089788Y-104568296D01*
X177148567Y-104530523D01*
X177183501Y-104525500D01*
X178049167Y-104525500D01*
X178116206Y-104545185D01*
X178136848Y-104561819D01*
X178485604Y-104910575D01*
X178519089Y-104971898D01*
X178520661Y-105015902D01*
X178519353Y-105024999D01*
X178539834Y-105167456D01*
X178589372Y-105275926D01*
X178599623Y-105298373D01*
X178693872Y-105407143D01*
X178814947Y-105484953D01*
X178814950Y-105484954D01*
X178814949Y-105484954D01*
X178953036Y-105525499D01*
X178953038Y-105525500D01*
X178953039Y-105525500D01*
X179096962Y-105525500D01*
X179096962Y-105525499D01*
X179235053Y-105484953D01*
X179356128Y-105407143D01*
X179450377Y-105298373D01*
X179510165Y-105167457D01*
X179530647Y-105025000D01*
X179510165Y-104882543D01*
X179450377Y-104751627D01*
X179356128Y-104642857D01*
X179235053Y-104565047D01*
X179235051Y-104565046D01*
X179235049Y-104565045D01*
X179235050Y-104565045D01*
X179096963Y-104524500D01*
X179096961Y-104524500D01*
X179000833Y-104524500D01*
X178933794Y-104504815D01*
X178913152Y-104488181D01*
X178409512Y-103984541D01*
X178409504Y-103984535D01*
X178395807Y-103976627D01*
X178395803Y-103976626D01*
X178352504Y-103951627D01*
X178340990Y-103944979D01*
X178315513Y-103938152D01*
X178264562Y-103924500D01*
X178264560Y-103924500D01*
X177183501Y-103924500D01*
X177116462Y-103904815D01*
X177089788Y-103881703D01*
X177056128Y-103842857D01*
X176935053Y-103765047D01*
X176935051Y-103765046D01*
X176935049Y-103765045D01*
X176935050Y-103765045D01*
X176796963Y-103724500D01*
X176796961Y-103724500D01*
X176749833Y-103724500D01*
X176682794Y-103704815D01*
X176637039Y-103652011D01*
X176627095Y-103582853D01*
X176656120Y-103519297D01*
X176662152Y-103512819D01*
X176767575Y-103407396D01*
X176876121Y-103298850D01*
X176880965Y-103290460D01*
X176915682Y-103230328D01*
X176936161Y-103153901D01*
X176936161Y-96846099D01*
X176915683Y-96769673D01*
X176876121Y-96701150D01*
X173434511Y-93259540D01*
X173434510Y-93259539D01*
X173434507Y-93259537D01*
X173418853Y-93250499D01*
X173418851Y-93250499D01*
X173389297Y-93233436D01*
X173365990Y-93219979D01*
X173328572Y-93209953D01*
X173289562Y-93199500D01*
X173222308Y-93199500D01*
X173155269Y-93179815D01*
X173134627Y-93163181D01*
X172871446Y-92900000D01*
X172877661Y-92900000D01*
X172979394Y-92872741D01*
X173070606Y-92820080D01*
X173145080Y-92745606D01*
X173197741Y-92654394D01*
X173225000Y-92552661D01*
X173225000Y-92546446D01*
X173801018Y-93122464D01*
X173801019Y-93122464D01*
X173810352Y-93110107D01*
X173810355Y-93110102D01*
X173905678Y-92918669D01*
X173905684Y-92918654D01*
X173964210Y-92712956D01*
X173964211Y-92712954D01*
X173983944Y-92500000D01*
X173983944Y-92499999D01*
X173964211Y-92287045D01*
X173964210Y-92287043D01*
X173905684Y-92081345D01*
X173905678Y-92081330D01*
X173810357Y-91889901D01*
X173810355Y-91889898D01*
X173801018Y-91877534D01*
X173225000Y-92453552D01*
X173225000Y-92447339D01*
X173197741Y-92345606D01*
X173145080Y-92254394D01*
X173070606Y-92179920D01*
X172979394Y-92127259D01*
X172877661Y-92100000D01*
X172871447Y-92100000D01*
X173444912Y-91526533D01*
X173341586Y-91462556D01*
X173341579Y-91462552D01*
X173300916Y-91446799D01*
X173245515Y-91404225D01*
X173221925Y-91338458D01*
X173237637Y-91270378D01*
X173272823Y-91230857D01*
X173399922Y-91138515D01*
X173520113Y-91005029D01*
X173609925Y-90849471D01*
X173665431Y-90678639D01*
X173684207Y-90500000D01*
X173665431Y-90321361D01*
X173609925Y-90150529D01*
X173520113Y-89994971D01*
X173399922Y-89861485D01*
X173254604Y-89755905D01*
X173090510Y-89682846D01*
X173090508Y-89682845D01*
X172914812Y-89645500D01*
X172735188Y-89645500D01*
X172559490Y-89682845D01*
X172559485Y-89682847D01*
X172395397Y-89755905D01*
X172395392Y-89755907D01*
X172250079Y-89861483D01*
X172250072Y-89861489D01*
X172129886Y-89994972D01*
X172040074Y-90150530D01*
X171984569Y-90321359D01*
X171965793Y-90500000D01*
X171984569Y-90678640D01*
X172029674Y-90817462D01*
X172040075Y-90849471D01*
X172129887Y-91005029D01*
X172250078Y-91138515D01*
X172334705Y-91200000D01*
X172377174Y-91230856D01*
X172419839Y-91286186D01*
X172425818Y-91355800D01*
X172393212Y-91417595D01*
X172349082Y-91446800D01*
X172308425Y-91462550D01*
X172308410Y-91462557D01*
X172205087Y-91526532D01*
X172205086Y-91526533D01*
X172778554Y-92100000D01*
X172772339Y-92100000D01*
X172670606Y-92127259D01*
X172579394Y-92179920D01*
X172504920Y-92254394D01*
X172452259Y-92345606D01*
X172425000Y-92447339D01*
X172425000Y-92453553D01*
X171848980Y-91877533D01*
X171839646Y-91889893D01*
X171744321Y-92081330D01*
X171744315Y-92081345D01*
X171685789Y-92287043D01*
X171685788Y-92287045D01*
X171666056Y-92499999D01*
X171666056Y-92500000D01*
X171685788Y-92712954D01*
X171685789Y-92712956D01*
X171744315Y-92918654D01*
X171744321Y-92918669D01*
X171794892Y-93020228D01*
X171807153Y-93089014D01*
X171780280Y-93153509D01*
X171722804Y-93193236D01*
X171683892Y-93199500D01*
X170210438Y-93199500D01*
X170167894Y-93210900D01*
X170134007Y-93219980D01*
X170081148Y-93250499D01*
X170065492Y-93259537D01*
X170065487Y-93259541D01*
X169611847Y-93713181D01*
X169550524Y-93746666D01*
X169524166Y-93749500D01*
X169428036Y-93749500D01*
X169289949Y-93790045D01*
X169168873Y-93867856D01*
X169074623Y-93976626D01*
X169074622Y-93976628D01*
X169014834Y-94107543D01*
X168994353Y-94250000D01*
X169014834Y-94392456D01*
X169063949Y-94500000D01*
X169074623Y-94523373D01*
X169168872Y-94632143D01*
X169289947Y-94709953D01*
X169289950Y-94709954D01*
X169289949Y-94709954D01*
X169397107Y-94741417D01*
X169424633Y-94749500D01*
X169428036Y-94750499D01*
X169428038Y-94750500D01*
X169428039Y-94750500D01*
X169571962Y-94750500D01*
X169571962Y-94750499D01*
X169710053Y-94709953D01*
X169831128Y-94632143D01*
X169925377Y-94523373D01*
X169985165Y-94392457D01*
X170005647Y-94250000D01*
X170004339Y-94240905D01*
X170014279Y-94171749D01*
X170039390Y-94135579D01*
X170338153Y-93836816D01*
X170399475Y-93803334D01*
X170425833Y-93800500D01*
X172027815Y-93800500D01*
X172094854Y-93820185D01*
X172140609Y-93872989D01*
X172150553Y-93942147D01*
X172131725Y-93988528D01*
X172133136Y-93989343D01*
X172040074Y-94150530D01*
X171984569Y-94321359D01*
X171965793Y-94500000D01*
X171984569Y-94678640D01*
X172037195Y-94840609D01*
X172040075Y-94849471D01*
X172129887Y-95005029D01*
X172161115Y-95039711D01*
X172250540Y-95139028D01*
X172280770Y-95202020D01*
X172272145Y-95271355D01*
X172227403Y-95325020D01*
X172160751Y-95345978D01*
X172158390Y-95346000D01*
X172123155Y-95346000D01*
X172063627Y-95352401D01*
X172063620Y-95352403D01*
X171928913Y-95402645D01*
X171928906Y-95402649D01*
X171813812Y-95488809D01*
X171813809Y-95488812D01*
X171727649Y-95603906D01*
X171727645Y-95603913D01*
X171677403Y-95738620D01*
X171677401Y-95738627D01*
X171671000Y-95798155D01*
X171671000Y-96250000D01*
X172509314Y-96250000D01*
X172504920Y-96254394D01*
X172452259Y-96345606D01*
X172425000Y-96447339D01*
X172425000Y-96552661D01*
X172452259Y-96654394D01*
X172504920Y-96745606D01*
X172509314Y-96750000D01*
X171671000Y-96750000D01*
X171671000Y-97201844D01*
X171677401Y-97261372D01*
X171677403Y-97261379D01*
X171727645Y-97396086D01*
X171727649Y-97396093D01*
X171813809Y-97511187D01*
X171813812Y-97511190D01*
X171928906Y-97597350D01*
X171928913Y-97597354D01*
X172063620Y-97647596D01*
X172063627Y-97647598D01*
X172123155Y-97653999D01*
X172123172Y-97654000D01*
X172575000Y-97654000D01*
X172575000Y-96815686D01*
X172579394Y-96820080D01*
X172670606Y-96872741D01*
X172772339Y-96900000D01*
X172877661Y-96900000D01*
X172979394Y-96872741D01*
X173070606Y-96820080D01*
X173075000Y-96815686D01*
X173075000Y-97654000D01*
X173526828Y-97654000D01*
X173526844Y-97653999D01*
X173586372Y-97647598D01*
X173586379Y-97647596D01*
X173721086Y-97597354D01*
X173721093Y-97597350D01*
X173836187Y-97511190D01*
X173836190Y-97511187D01*
X173922350Y-97396093D01*
X173922354Y-97396086D01*
X173972596Y-97261379D01*
X173972598Y-97261372D01*
X173978999Y-97201844D01*
X173979000Y-97201827D01*
X173979000Y-96750000D01*
X173140686Y-96750000D01*
X173145080Y-96745606D01*
X173197741Y-96654394D01*
X173225000Y-96552661D01*
X173225000Y-96447339D01*
X173197741Y-96345606D01*
X173145080Y-96254394D01*
X173140686Y-96250000D01*
X173979000Y-96250000D01*
X173979000Y-95798172D01*
X173978999Y-95798155D01*
X173972598Y-95738627D01*
X173972596Y-95738620D01*
X173922354Y-95603913D01*
X173922350Y-95603906D01*
X173836190Y-95488812D01*
X173836187Y-95488809D01*
X173721093Y-95402649D01*
X173721086Y-95402645D01*
X173586379Y-95352403D01*
X173586372Y-95352401D01*
X173526844Y-95346000D01*
X173491610Y-95346000D01*
X173424571Y-95326315D01*
X173378816Y-95273511D01*
X173368872Y-95204353D01*
X173397897Y-95140797D01*
X173399460Y-95139028D01*
X173399922Y-95138515D01*
X173520113Y-95005029D01*
X173609925Y-94849471D01*
X173665431Y-94678639D01*
X173670425Y-94631115D01*
X173697009Y-94566503D01*
X173754307Y-94526518D01*
X173824126Y-94523858D01*
X173881427Y-94556398D01*
X176298842Y-96973813D01*
X176332327Y-97035136D01*
X176335161Y-97061494D01*
X176335161Y-98436327D01*
X176315476Y-98503366D01*
X176262672Y-98549121D01*
X176193514Y-98559065D01*
X176176227Y-98555304D01*
X176107625Y-98535161D01*
X176107622Y-98535161D01*
X175963700Y-98535161D01*
X175963697Y-98535161D01*
X175825610Y-98575706D01*
X175761365Y-98616994D01*
X175694325Y-98636678D01*
X175627286Y-98616993D01*
X175581531Y-98564189D01*
X175571588Y-98495030D01*
X175591222Y-98443789D01*
X175634394Y-98379179D01*
X175694737Y-98233497D01*
X175725500Y-98078842D01*
X175725500Y-97921158D01*
X175725500Y-97921155D01*
X175725499Y-97921153D01*
X175709845Y-97842456D01*
X175694737Y-97766503D01*
X175688658Y-97751827D01*
X175634397Y-97620827D01*
X175634390Y-97620814D01*
X175546789Y-97489711D01*
X175546786Y-97489707D01*
X175435292Y-97378213D01*
X175435288Y-97378210D01*
X175304185Y-97290609D01*
X175304172Y-97290602D01*
X175158501Y-97230264D01*
X175158489Y-97230261D01*
X175003845Y-97199500D01*
X175003842Y-97199500D01*
X174846158Y-97199500D01*
X174846155Y-97199500D01*
X174691510Y-97230261D01*
X174691498Y-97230264D01*
X174545827Y-97290602D01*
X174545814Y-97290609D01*
X174414711Y-97378210D01*
X174414707Y-97378213D01*
X174303213Y-97489707D01*
X174303210Y-97489711D01*
X174215609Y-97620814D01*
X174215602Y-97620827D01*
X174155264Y-97766498D01*
X174155261Y-97766510D01*
X174124500Y-97921153D01*
X174124500Y-98078846D01*
X174155261Y-98233489D01*
X174155264Y-98233501D01*
X174215602Y-98379172D01*
X174215609Y-98379185D01*
X174303210Y-98510288D01*
X174303213Y-98510292D01*
X174316401Y-98523480D01*
X174349886Y-98584803D01*
X174344902Y-98654495D01*
X174303030Y-98710428D01*
X174237566Y-98734845D01*
X174228720Y-98735161D01*
X172711494Y-98735161D01*
X172644455Y-98715476D01*
X172623813Y-98698842D01*
X167011819Y-93086848D01*
X166978334Y-93025525D01*
X166975500Y-92999167D01*
X166975500Y-91557621D01*
X166975500Y-91557620D01*
X166955021Y-91481193D01*
X166935566Y-91447495D01*
X166915464Y-91412677D01*
X166915458Y-91412669D01*
X166859511Y-91356722D01*
X166537333Y-91034543D01*
X166537332Y-91034542D01*
X166537329Y-91034540D01*
X166529486Y-91030012D01*
X166486211Y-91005027D01*
X166468808Y-90994979D01*
X166443331Y-90988152D01*
X166392380Y-90974500D01*
X166392378Y-90974500D01*
X154624500Y-90974500D01*
X154557461Y-90954815D01*
X154511706Y-90902011D01*
X154500500Y-90850500D01*
X154500500Y-89863738D01*
X154520185Y-89796699D01*
X154530787Y-89782535D01*
X154531124Y-89782144D01*
X154531128Y-89782143D01*
X154625377Y-89673373D01*
X154685165Y-89542457D01*
X154705647Y-89400000D01*
X154685165Y-89257543D01*
X154625377Y-89126627D01*
X154531128Y-89017857D01*
X154410053Y-88940047D01*
X154410051Y-88940046D01*
X154410049Y-88940045D01*
X154410050Y-88940045D01*
X154345708Y-88921153D01*
X174124500Y-88921153D01*
X174124500Y-89078846D01*
X174155261Y-89233489D01*
X174155264Y-89233501D01*
X174215602Y-89379172D01*
X174215609Y-89379185D01*
X174303210Y-89510288D01*
X174303213Y-89510292D01*
X174414707Y-89621786D01*
X174414711Y-89621789D01*
X174545814Y-89709390D01*
X174545827Y-89709397D01*
X174658114Y-89755907D01*
X174691503Y-89769737D01*
X174827049Y-89796699D01*
X174846153Y-89800499D01*
X174846156Y-89800500D01*
X174846158Y-89800500D01*
X175003844Y-89800500D01*
X175003845Y-89800499D01*
X175158497Y-89769737D01*
X175304179Y-89709394D01*
X175435289Y-89621789D01*
X175546789Y-89510289D01*
X175634394Y-89379179D01*
X175637417Y-89371882D01*
X175694735Y-89233501D01*
X175694737Y-89233497D01*
X175725500Y-89078842D01*
X175725500Y-88921158D01*
X175725500Y-88921155D01*
X175725499Y-88921153D01*
X175715995Y-88873373D01*
X175694737Y-88766503D01*
X175684777Y-88742457D01*
X175634397Y-88620827D01*
X175634390Y-88620814D01*
X175546789Y-88489711D01*
X175546786Y-88489707D01*
X175435292Y-88378213D01*
X175435288Y-88378210D01*
X175304185Y-88290609D01*
X175304172Y-88290602D01*
X175158501Y-88230264D01*
X175158489Y-88230261D01*
X175003845Y-88199500D01*
X175003842Y-88199500D01*
X174846158Y-88199500D01*
X174846155Y-88199500D01*
X174691510Y-88230261D01*
X174691498Y-88230264D01*
X174545827Y-88290602D01*
X174545814Y-88290609D01*
X174414711Y-88378210D01*
X174414707Y-88378213D01*
X174303213Y-88489707D01*
X174303210Y-88489711D01*
X174215609Y-88620814D01*
X174215602Y-88620827D01*
X174155264Y-88766498D01*
X174155261Y-88766510D01*
X174124500Y-88921153D01*
X154345708Y-88921153D01*
X154271963Y-88899500D01*
X154271961Y-88899500D01*
X154128039Y-88899500D01*
X154128036Y-88899500D01*
X153989949Y-88940045D01*
X153868873Y-89017856D01*
X153774623Y-89126626D01*
X153774622Y-89126628D01*
X153714834Y-89257543D01*
X153694353Y-89400000D01*
X153714834Y-89542456D01*
X153751065Y-89621789D01*
X153774623Y-89673373D01*
X153868872Y-89782143D01*
X153868875Y-89782144D01*
X153869213Y-89782535D01*
X153898238Y-89846091D01*
X153899500Y-89863738D01*
X153899500Y-91036925D01*
X153879815Y-91103964D01*
X153840159Y-91142732D01*
X153630849Y-91270642D01*
X153619095Y-91276253D01*
X153619202Y-91276461D01*
X153611960Y-91280165D01*
X153589045Y-91295968D01*
X153583317Y-91299690D01*
X153559549Y-91314215D01*
X153553232Y-91319319D01*
X153553085Y-91319137D01*
X153543175Y-91327602D01*
X152217898Y-92241586D01*
X152151535Y-92263442D01*
X152112566Y-92258486D01*
X152081961Y-92249500D01*
X151938039Y-92249500D01*
X151938036Y-92249500D01*
X151799949Y-92290045D01*
X151678873Y-92367856D01*
X151584623Y-92476626D01*
X151584622Y-92476628D01*
X151524834Y-92607543D01*
X151504353Y-92750000D01*
X139038141Y-92750000D01*
X139065803Y-92702088D01*
X139121726Y-92529977D01*
X139140642Y-92350000D01*
X139121726Y-92170023D01*
X139065803Y-91997912D01*
X138975319Y-91841188D01*
X138940108Y-91802082D01*
X138854233Y-91706707D01*
X138854230Y-91706705D01*
X138854229Y-91706704D01*
X138854228Y-91706703D01*
X138736085Y-91620867D01*
X138693420Y-91565537D01*
X138687441Y-91495923D01*
X138720047Y-91434128D01*
X138764181Y-91404921D01*
X138794454Y-91393194D01*
X138899561Y-91328113D01*
X138327848Y-90756399D01*
X138328504Y-90756399D01*
X138431865Y-90728704D01*
X138524536Y-90675200D01*
X138600201Y-90599535D01*
X138653705Y-90506864D01*
X138681400Y-90403503D01*
X138681400Y-90402846D01*
X139255588Y-90977034D01*
X139265816Y-90963490D01*
X139361674Y-90770983D01*
X139420528Y-90564130D01*
X139440370Y-90349999D01*
X139420528Y-90135867D01*
X139361674Y-89929014D01*
X139265821Y-89736516D01*
X139265813Y-89736503D01*
X139255587Y-89722962D01*
X138681400Y-90297150D01*
X138681400Y-90296495D01*
X138653705Y-90193134D01*
X138600201Y-90100463D01*
X138524536Y-90024798D01*
X138431865Y-89971294D01*
X138328504Y-89943599D01*
X138327847Y-89943599D01*
X138899561Y-89371883D01*
X138899560Y-89371882D01*
X138794454Y-89306803D01*
X138794448Y-89306801D01*
X138593916Y-89229115D01*
X138382525Y-89189599D01*
X138167475Y-89189599D01*
X137956083Y-89229115D01*
X137956082Y-89229115D01*
X137755552Y-89306800D01*
X137650437Y-89371883D01*
X138222154Y-89943599D01*
X138221496Y-89943599D01*
X138118135Y-89971294D01*
X138025464Y-90024798D01*
X137949799Y-90100463D01*
X137896295Y-90193134D01*
X137868600Y-90296495D01*
X137868600Y-90297152D01*
X137294411Y-89722963D01*
X137284179Y-89736514D01*
X137188325Y-89929014D01*
X137129471Y-90135867D01*
X137109629Y-90349999D01*
X130200500Y-90349999D01*
X130200500Y-88600000D01*
X144769353Y-88600000D01*
X144789834Y-88742456D01*
X144849622Y-88873371D01*
X144849623Y-88873373D01*
X144943872Y-88982143D01*
X145064947Y-89059953D01*
X145064950Y-89059954D01*
X145064949Y-89059954D01*
X145129291Y-89078846D01*
X145200280Y-89099690D01*
X145203036Y-89100499D01*
X145203038Y-89100500D01*
X145299167Y-89100500D01*
X145366206Y-89120185D01*
X145386848Y-89136819D01*
X146438181Y-90188152D01*
X146471666Y-90249475D01*
X146474500Y-90275833D01*
X146474500Y-90736260D01*
X146454815Y-90803299D01*
X146444213Y-90817462D01*
X146349625Y-90926622D01*
X146349622Y-90926628D01*
X146289834Y-91057543D01*
X146269353Y-91200000D01*
X146289834Y-91342456D01*
X146331700Y-91434128D01*
X146349623Y-91473373D01*
X146443872Y-91582143D01*
X146564947Y-91659953D01*
X146564950Y-91659954D01*
X146564949Y-91659954D01*
X146703036Y-91700499D01*
X146703038Y-91700500D01*
X146703039Y-91700500D01*
X146846962Y-91700500D01*
X146846962Y-91700499D01*
X146985053Y-91659953D01*
X147106128Y-91582143D01*
X147200377Y-91473373D01*
X147260165Y-91342457D01*
X147280647Y-91200000D01*
X147260165Y-91057543D01*
X147200377Y-90926627D01*
X147200375Y-90926625D01*
X147200374Y-90926622D01*
X147105787Y-90817462D01*
X147076762Y-90753906D01*
X147075500Y-90736260D01*
X147075500Y-90060439D01*
X147065950Y-90024798D01*
X147055021Y-89984011D01*
X147047679Y-89971294D01*
X147015464Y-89915495D01*
X147015458Y-89915487D01*
X145814395Y-88714424D01*
X145780910Y-88653101D01*
X145779339Y-88609094D01*
X145780647Y-88600000D01*
X145760165Y-88457543D01*
X145700377Y-88326627D01*
X145606128Y-88217857D01*
X145485053Y-88140047D01*
X145485051Y-88140046D01*
X145485049Y-88140045D01*
X145485050Y-88140045D01*
X145346963Y-88099500D01*
X145346961Y-88099500D01*
X145203039Y-88099500D01*
X145203036Y-88099500D01*
X145064949Y-88140045D01*
X144943873Y-88217856D01*
X144849623Y-88326626D01*
X144849622Y-88326628D01*
X144789834Y-88457543D01*
X144769353Y-88600000D01*
X130200500Y-88600000D01*
X130200500Y-87922238D01*
X130220185Y-87855199D01*
X130272989Y-87809444D01*
X130324259Y-87798238D01*
X180800267Y-87702093D01*
X180867341Y-87721650D01*
G37*
%TD.AperFunction*%
%TD*%
M02*
