M48
; DRILL file {KiCad 8.0.7} date 2025-05-02T11:03:31-0400
; FORMAT={-:-/ absolute / inch / decimal}
; #@! TF.CreationDate,2025-05-02T11:03:31-04:00
; #@! TF.GenerationSoftware,Kicad,Pcbnew,8.0.7
; #@! TF.FileFunction,Plated,1,2,PTH
FMAT,2
INCH
; #@! TA.AperFunction,Plated,PTH,ViaDrill
T1C0.0118
; #@! TA.AperFunction,Plated,PTH,ComponentDrill
T2C0.0315
; #@! TA.AperFunction,Plated,PTH,ComponentDrill
T3C0.0320
%
G90
G05
T1
X5.7116Y-3.9213
X5.7402Y-3.872
X5.7657Y-3.9213
X5.8329Y-4.2018
X5.8986Y-4.2185
X6.0055Y-3.5084
X6.0236Y-3.9911
X6.061Y-3.9094
X6.1368Y-3.9104
X6.188Y-4.0768
X6.188Y-4.3313
X6.2608Y-4.3313
X6.3317Y-4.1142
X6.3465Y-4.3313
X6.3858Y-4.1565
X6.4006Y-4.0787
X6.4026Y-3.9892
X6.4114Y-4.1152
X6.4626Y-4.1132
X6.4705Y-3.9892
X6.4872Y-3.8404
X6.5866Y-4.2264
X6.6565Y-3.6575
X6.6581Y-3.688
X6.6713Y-3.5108
X6.6713Y-4.1624
X6.6801Y-3.8701
X6.7047Y-3.69
X6.7047Y-3.7244
X6.7077Y-3.6604
X6.7451Y-3.7254
X6.7953Y-3.878
X6.7963Y-3.9557
X6.8376Y-3.9882
X6.8376Y-4.0177
X6.8376Y-4.0482
X6.9075Y-3.5256
X6.937Y-3.9537
X6.9386Y-4.2384
X7.0181Y-4.375
X7.0197Y-3.5236
X7.1171Y-3.7234
X7.2451Y-3.5059
T2
X5.4488Y-3.8189
X5.4488Y-3.8976
X5.4488Y-3.9764
X5.4488Y-4.0551
X7.0748Y-3.8179
X7.0748Y-3.8967
X7.0748Y-3.9754
X7.0748Y-4.0541
T3
X5.4476Y-3.553
X5.4476Y-3.6317
X5.4488Y-4.2392
X5.4488Y-4.3179
X7.076Y-4.2384
X7.076Y-4.3171
M30
