%TF.GenerationSoftware,KiCad,Pcbnew,8.0.7*%
%TF.CreationDate,2025-04-18T11:17:16-04:00*%
%TF.ProjectId,weiland-esp32,7765696c-616e-4642-9d65-737033322e6b,rev?*%
%TF.SameCoordinates,Original*%
%TF.FileFunction,Soldermask,Top*%
%TF.FilePolarity,Negative*%
%FSLAX46Y46*%
G04 Gerber Fmt 4.6, Leading zero omitted, Abs format (unit mm)*
G04 Created by KiCad (PCBNEW 8.0.7) date 2025-04-18 11:17:16*
%MOMM*%
%LPD*%
G01*
G04 APERTURE LIST*
G04 Aperture macros list*
%AMRoundRect*
0 Rectangle with rounded corners*
0 $1 Rounding radius*
0 $2 $3 $4 $5 $6 $7 $8 $9 X,Y pos of 4 corners*
0 Add a 4 corners polygon primitive as box body*
4,1,4,$2,$3,$4,$5,$6,$7,$8,$9,$2,$3,0*
0 Add four circle primitives for the rounded corners*
1,1,$1+$1,$2,$3*
1,1,$1+$1,$4,$5*
1,1,$1+$1,$6,$7*
1,1,$1+$1,$8,$9*
0 Add four rect primitives between the rounded corners*
20,1,$1+$1,$2,$3,$4,$5,0*
20,1,$1+$1,$4,$5,$6,$7,0*
20,1,$1+$1,$6,$7,$8,$9,0*
20,1,$1+$1,$8,$9,$2,$3,0*%
G04 Aperture macros list end*
%ADD10RoundRect,0.102000X-0.300000X0.280000X-0.300000X-0.280000X0.300000X-0.280000X0.300000X0.280000X0*%
%ADD11R,2.600000X0.740000*%
%ADD12R,2.600000X0.800000*%
%ADD13C,1.000000*%
%ADD14RoundRect,0.102000X-0.280000X-0.300000X0.280000X-0.300000X0.280000X0.300000X-0.280000X0.300000X0*%
%ADD15RoundRect,0.140000X0.140000X0.170000X-0.140000X0.170000X-0.140000X-0.170000X0.140000X-0.170000X0*%
%ADD16RoundRect,0.197160X-0.174840X-0.204840X0.174840X-0.204840X0.174840X0.204840X-0.174840X0.204840X0*%
%ADD17C,1.320800*%
%ADD18RoundRect,0.113550X-1.608450X0.643450X-1.608450X-0.643450X1.608450X-0.643450X1.608450X0.643450X0*%
%ADD19RoundRect,0.085050X-0.481950X0.671950X-0.481950X-0.671950X0.481950X-0.671950X0.481950X0.671950X0*%
%ADD20RoundRect,0.102000X0.280000X0.300000X-0.280000X0.300000X-0.280000X-0.300000X0.280000X-0.300000X0*%
%ADD21RoundRect,0.135000X-0.135000X-0.185000X0.135000X-0.185000X0.135000X0.185000X-0.135000X0.185000X0*%
%ADD22C,1.100000*%
%ADD23RoundRect,0.102000X-0.654000X0.654000X-0.654000X-0.654000X0.654000X-0.654000X0.654000X0.654000X0*%
%ADD24C,1.512000*%
%ADD25RoundRect,0.102000X0.654000X-0.654000X0.654000X0.654000X-0.654000X0.654000X-0.654000X-0.654000X0*%
%ADD26RoundRect,0.102000X-0.250000X-0.300000X0.250000X-0.300000X0.250000X0.300000X-0.250000X0.300000X0*%
%ADD27R,1.500000X0.900000*%
%ADD28R,0.900000X1.500000*%
%ADD29R,0.900000X0.900000*%
%ADD30RoundRect,0.197160X-0.204840X0.174840X-0.204840X-0.174840X0.204840X-0.174840X0.204840X0.174840X0*%
%ADD31RoundRect,0.102000X0.400000X0.400000X-0.400000X0.400000X-0.400000X-0.400000X0.400000X-0.400000X0*%
%ADD32RoundRect,0.059250X-0.177750X0.462750X-0.177750X-0.462750X0.177750X-0.462750X0.177750X0.462750X0*%
%ADD33RoundRect,0.059250X-0.462750X0.177750X-0.462750X-0.177750X0.462750X-0.177750X0.462750X0.177750X0*%
%ADD34RoundRect,0.102000X-0.550000X0.550000X-0.550000X-0.550000X0.550000X-0.550000X0.550000X0.550000X0*%
%ADD35R,0.863600X0.254000*%
%ADD36R,1.701800X2.489200*%
G04 APERTURE END LIST*
D10*
%TO.C,C6*%
X143300000Y-103665000D03*
X143300000Y-104535000D03*
%TD*%
D11*
%TO.C,U6*%
X175630000Y-99990000D03*
D12*
X179430000Y-99990000D03*
D11*
X175630000Y-101260000D03*
D12*
X179430000Y-101260000D03*
D11*
X175630000Y-102530000D03*
D12*
X179430000Y-102530000D03*
%TD*%
D13*
%TO.C,IO19*%
X158675000Y-109325000D03*
%TD*%
D14*
%TO.C,C5*%
X147595000Y-99780000D03*
X148465000Y-99780000D03*
%TD*%
D13*
%TO.C,IO14*%
X156450000Y-109325000D03*
%TD*%
%TO.C,IO15*%
X160875000Y-109275000D03*
%TD*%
%TO.C,OUTP1*%
X143350000Y-108000000D03*
%TD*%
D14*
%TO.C,R1*%
X147570000Y-101130000D03*
X148440000Y-101130000D03*
%TD*%
D15*
%TO.C,C9*%
X147535000Y-88400000D03*
X146575000Y-88400000D03*
%TD*%
D16*
%TO.C,C3*%
X172065000Y-104290000D03*
X172925000Y-104290000D03*
%TD*%
D13*
%TO.C,IO16*%
X167225000Y-109250000D03*
%TD*%
%TO.C,IO22*%
X152225000Y-109300000D03*
%TD*%
D17*
%TO.C,J6*%
X138275000Y-92350000D03*
X138275000Y-90349999D03*
%TD*%
D18*
%TO.C,U2*%
X145700000Y-97990000D03*
D19*
X143410000Y-91300000D03*
X145700000Y-91300000D03*
X147990000Y-91300000D03*
%TD*%
D10*
%TO.C,C1*%
X144000000Y-88790000D03*
X144000000Y-89660000D03*
%TD*%
D20*
%TO.C,C8*%
X148260000Y-108950000D03*
X147390000Y-108950000D03*
%TD*%
D17*
%TO.C,J1*%
X138275000Y-109725000D03*
X138275000Y-107724999D03*
%TD*%
D13*
%TO.C,IO18*%
X163000000Y-109275000D03*
%TD*%
D21*
%TO.C,R2*%
X146550000Y-89425000D03*
X147570000Y-89425000D03*
%TD*%
D22*
%TO.C,P2*%
X174925000Y-89000000D03*
X174925000Y-98000000D03*
D23*
X172825000Y-96500000D03*
D24*
X172825000Y-94500000D03*
X172825000Y-92500000D03*
X172825000Y-90500000D03*
%TD*%
D22*
%TO.C,P1*%
X136175000Y-104550000D03*
X136175000Y-95550000D03*
D25*
X138275000Y-97050000D03*
D24*
X138275000Y-99050000D03*
X138275000Y-101050000D03*
X138275000Y-103050000D03*
%TD*%
D26*
%TO.C,FB2*%
X147358000Y-107700000D03*
X148262000Y-107700000D03*
%TD*%
D27*
%TO.C,U1*%
X150350000Y-89240000D03*
X150350000Y-90510000D03*
X150350000Y-91780000D03*
X150350000Y-93050000D03*
X150350000Y-94320000D03*
X150350000Y-95590000D03*
X150350000Y-96860000D03*
X150350000Y-98130000D03*
X150350000Y-99400000D03*
X150350000Y-100670000D03*
X150350000Y-101940000D03*
X150350000Y-103210000D03*
X150350000Y-104480000D03*
X150350000Y-105750000D03*
D28*
X153380000Y-107000000D03*
X154650000Y-107000000D03*
X155920000Y-107000000D03*
X157190000Y-107000000D03*
X158460000Y-107000000D03*
X159730000Y-107000000D03*
X161000000Y-107000000D03*
X162270000Y-107000000D03*
X163540000Y-107000000D03*
X164810000Y-107000000D03*
D27*
X167850000Y-105750000D03*
X167850000Y-104480000D03*
X167850000Y-103210000D03*
X167850000Y-101940000D03*
X167850000Y-100670000D03*
X167850000Y-99400000D03*
X167850000Y-98130000D03*
X167850000Y-96860000D03*
X167850000Y-95590000D03*
X167850000Y-94320000D03*
X167850000Y-93050000D03*
X167850000Y-91780000D03*
X167850000Y-90510000D03*
X167850000Y-89240000D03*
D29*
X156200000Y-95560000D03*
X156200000Y-95560000D03*
X156200000Y-96960000D03*
X156200000Y-98360000D03*
X156200000Y-98360000D03*
X157600000Y-95560000D03*
X157600000Y-96960000D03*
X157600000Y-98360000D03*
X157600000Y-98360000D03*
X159000000Y-95560000D03*
X159000000Y-96960000D03*
X159000000Y-98360000D03*
%TD*%
D13*
%TO.C,OUTN1*%
X150125000Y-109325000D03*
%TD*%
D30*
%TO.C,C2*%
X142775000Y-88795000D03*
X142775000Y-89655000D03*
%TD*%
D13*
%TO.C,3.3V1*%
X154350000Y-109300000D03*
%TD*%
D20*
%TO.C,C7*%
X146195000Y-108930000D03*
X145325000Y-108930000D03*
%TD*%
D31*
%TO.C,LED1*%
X144015000Y-101080000D03*
X145665000Y-101080000D03*
%TD*%
D32*
%TO.C,U3*%
X147495000Y-103435000D03*
X146995000Y-103435000D03*
X146495000Y-103435000D03*
X145995000Y-103435000D03*
D33*
X145310000Y-104120000D03*
X145310000Y-104620000D03*
X145310000Y-105120000D03*
X145310000Y-105620000D03*
D32*
X145995000Y-106305000D03*
X146495000Y-106305000D03*
X146995000Y-106305000D03*
X147495000Y-106305000D03*
D33*
X148180000Y-105620000D03*
X148180000Y-105120000D03*
X148180000Y-104620000D03*
X148180000Y-104120000D03*
D34*
X146745000Y-104870000D03*
%TD*%
D20*
%TO.C,C4*%
X144605000Y-99660000D03*
X143735000Y-99660000D03*
%TD*%
D35*
%TO.C,U5*%
X170035000Y-100409998D03*
X170035000Y-100910000D03*
X170035000Y-101409999D03*
X170035000Y-101909998D03*
X170035000Y-102410000D03*
X172915000Y-102410001D03*
X172915000Y-101909999D03*
X172915000Y-101410000D03*
X172915000Y-100910001D03*
X172915000Y-100409999D03*
D36*
X171475000Y-101410000D03*
%TD*%
D26*
%TO.C,FB1*%
X145318000Y-107700000D03*
X146222000Y-107700000D03*
%TD*%
D13*
%TO.C,IO17*%
X165125000Y-109250000D03*
%TD*%
D17*
%TO.C,J7*%
X172820000Y-109440001D03*
X172820000Y-107440000D03*
%TD*%
M02*
