M48
; DRILL file {KiCad 8.0.7} date 2025-04-04T09:08:16-0400
; FORMAT={-:-/ absolute / inch / decimal}
; #@! TF.CreationDate,2025-04-04T09:08:16-04:00
; #@! TF.GenerationSoftware,Kicad,Pcbnew,8.0.7
; #@! TF.FileFunction,Plated,1,2,PTH
FMAT,2
INCH
; #@! TA.AperFunction,Plated,PTH,ViaDrill
T1C0.0118
; #@! TA.AperFunction,Plated,PTH,ComponentDrill
T2C0.0315
; #@! TA.AperFunction,Plated,PTH,ComponentDrill
T3C0.0320
%
G90
G05
T1
X5.5852Y-4.0813
X5.622Y-3.9213
X5.6476Y-4.252
X5.6772Y-4.1772
X5.6909Y-3.7726
X5.7411Y-4.3514
X5.7756Y-3.5945
X5.7795Y-3.7657
X5.8041Y-4.3278
X5.8307Y-3.5118
X5.8474Y-4.0522
X5.868Y-4.0893
X6.0882Y-4.0232
X6.129Y-3.9931
X6.198Y-4.0311
X6.2008Y-3.9961
X6.3455Y-4.0886
X6.5404Y-3.6152
X6.5453Y-3.6516
X6.6732Y-3.7106
X6.8425Y-3.9944
X6.8437Y-4.0291
X6.8504Y-4.1024
X6.9094Y-4.1043
X6.9305Y-3.899
X6.9577Y-4.1033
X7.0482Y-4.1348
X7.1102Y-3.878
T2
X5.4449Y-3.8307
X5.4449Y-3.9094
X5.4449Y-3.9882
X5.4449Y-4.0669
X6.8043Y-3.5638
X6.8043Y-3.6425
X6.8043Y-3.7213
X6.8043Y-3.8
T3
X5.4449Y-3.5669
X5.4449Y-3.6457
X5.4449Y-4.252
X5.4449Y-4.3307
X6.8039Y-4.2299
X6.8039Y-4.3087
M30
