M48
; DRILL file {KiCad 8.0.7} date 2025-04-18T11:17:16-0400
; FORMAT={-:-/ absolute / inch / decimal}
; #@! TF.CreationDate,2025-04-18T11:17:16-04:00
; #@! TF.GenerationSoftware,Kicad,Pcbnew,8.0.7
; #@! TF.FileFunction,Plated,1,2,PTH
FMAT,2
INCH
; #@! TA.AperFunction,Plated,PTH,ViaDrill
T1C0.0118
; #@! TA.AperFunction,Plated,PTH,ComponentDrill
T2C0.0315
; #@! TA.AperFunction,Plated,PTH,ComponentDrill
T3C0.0320
%
G90
G05
T1
X5.5852Y-4.0813
X5.622Y-3.9213
X5.6732Y-4.2913
X5.6772Y-4.1772
X5.6791Y-4.3406
X5.6909Y-3.7726
X5.7195Y-3.4882
X5.7785Y-3.5906
X5.7795Y-3.7657
X5.8366Y-4.3189
X5.8465Y-3.8465
X5.8474Y-4.0522
X5.868Y-4.0893
X5.9646Y-4.1134
X5.9802Y-4.1615
X5.9843Y-3.8622
X5.9846Y-3.6516
X6.0394Y-4.0522
X6.0571Y-4.3543
X6.0709Y-3.5197
X6.1516Y-4.3524
X6.2421Y-4.3563
X6.3455Y-4.0886
X6.435Y-4.0591
X6.6732Y-3.7106
X6.8425Y-3.9944
X6.8437Y-4.0291
X6.8504Y-4.1024
X6.9094Y-4.1043
X6.9305Y-3.899
X6.9577Y-4.1033
X7.0482Y-4.1348
X7.1102Y-3.878
T2
X5.4439Y-3.8209
X5.4439Y-3.8996
X5.4439Y-3.9783
X5.4439Y-4.0571
X6.8041Y-3.563
X6.8041Y-3.6417
X6.8041Y-3.7205
X6.8041Y-3.7992
T3
X5.4439Y-3.5571
X5.4439Y-3.6358
X5.4439Y-4.2411
X5.4439Y-4.3199
X6.8039Y-4.2299
X6.8039Y-4.3087
M30
