%TF.GenerationSoftware,KiCad,Pcbnew,8.0.7*%
%TF.CreationDate,2025-04-04T09:08:16-04:00*%
%TF.ProjectId,weiland-esp32,7765696c-616e-4642-9d65-737033322e6b,rev?*%
%TF.SameCoordinates,Original*%
%TF.FileFunction,Legend,Top*%
%TF.FilePolarity,Positive*%
%FSLAX46Y46*%
G04 Gerber Fmt 4.6, Leading zero omitted, Abs format (unit mm)*
G04 Created by KiCad (PCBNEW 8.0.7) date 2025-04-04 09:08:16*
%MOMM*%
%LPD*%
G01*
G04 APERTURE LIST*
G04 Aperture macros list*
%AMRoundRect*
0 Rectangle with rounded corners*
0 $1 Rounding radius*
0 $2 $3 $4 $5 $6 $7 $8 $9 X,Y pos of 4 corners*
0 Add a 4 corners polygon primitive as box body*
4,1,4,$2,$3,$4,$5,$6,$7,$8,$9,$2,$3,0*
0 Add four circle primitives for the rounded corners*
1,1,$1+$1,$2,$3*
1,1,$1+$1,$4,$5*
1,1,$1+$1,$6,$7*
1,1,$1+$1,$8,$9*
0 Add four rect primitives between the rounded corners*
20,1,$1+$1,$2,$3,$4,$5,0*
20,1,$1+$1,$4,$5,$6,$7,0*
20,1,$1+$1,$6,$7,$8,$9,0*
20,1,$1+$1,$8,$9,$2,$3,0*%
G04 Aperture macros list end*
%ADD10C,0.150000*%
%ADD11C,0.060464*%
%ADD12C,0.098425*%
%ADD13C,0.127000*%
%ADD14C,0.200000*%
%ADD15C,0.250000*%
%ADD16C,0.152400*%
%ADD17C,0.508000*%
%ADD18C,0.120000*%
%ADD19RoundRect,0.059250X-0.177750X0.462750X-0.177750X-0.462750X0.177750X-0.462750X0.177750X0.462750X0*%
%ADD20RoundRect,0.059250X-0.462750X0.177750X-0.462750X-0.177750X0.462750X-0.177750X0.462750X0.177750X0*%
%ADD21RoundRect,0.102000X-0.550000X0.550000X-0.550000X-0.550000X0.550000X-0.550000X0.550000X0.550000X0*%
%ADD22RoundRect,0.102000X-0.300000X0.280000X-0.300000X-0.280000X0.300000X-0.280000X0.300000X0.280000X0*%
%ADD23R,2.600000X0.740000*%
%ADD24R,2.600000X0.800000*%
%ADD25RoundRect,0.102000X-0.280000X-0.300000X0.280000X-0.300000X0.280000X0.300000X-0.280000X0.300000X0*%
%ADD26RoundRect,0.197160X-0.174840X-0.204840X0.174840X-0.204840X0.174840X0.204840X-0.174840X0.204840X0*%
%ADD27C,1.320800*%
%ADD28RoundRect,0.085050X-0.481950X0.671950X-0.481950X-0.671950X0.481950X-0.671950X0.481950X0.671950X0*%
%ADD29RoundRect,0.113550X-1.608450X0.643450X-1.608450X-0.643450X1.608450X-0.643450X1.608450X0.643450X0*%
%ADD30RoundRect,0.102000X0.280000X0.300000X-0.280000X0.300000X-0.280000X-0.300000X0.280000X-0.300000X0*%
%ADD31C,1.100000*%
%ADD32RoundRect,0.102000X0.654000X-0.654000X0.654000X0.654000X-0.654000X0.654000X-0.654000X-0.654000X0*%
%ADD33C,1.512000*%
%ADD34RoundRect,0.102000X-0.250000X-0.300000X0.250000X-0.300000X0.250000X0.300000X-0.250000X0.300000X0*%
%ADD35R,1.500000X0.900000*%
%ADD36R,0.900000X1.500000*%
%ADD37R,0.900000X0.900000*%
%ADD38RoundRect,0.197160X0.174840X0.204840X-0.174840X0.204840X-0.174840X-0.204840X0.174840X-0.204840X0*%
%ADD39RoundRect,0.102000X-0.654000X0.654000X-0.654000X-0.654000X0.654000X-0.654000X0.654000X0.654000X0*%
%ADD40RoundRect,0.102000X0.400000X0.400000X-0.400000X0.400000X-0.400000X-0.400000X0.400000X-0.400000X0*%
%ADD41R,0.863600X0.254000*%
%ADD42R,1.701800X2.489200*%
G04 APERTURE END LIST*
D10*
X142313095Y-101954819D02*
X142313095Y-102764342D01*
X142313095Y-102764342D02*
X142360714Y-102859580D01*
X142360714Y-102859580D02*
X142408333Y-102907200D01*
X142408333Y-102907200D02*
X142503571Y-102954819D01*
X142503571Y-102954819D02*
X142694047Y-102954819D01*
X142694047Y-102954819D02*
X142789285Y-102907200D01*
X142789285Y-102907200D02*
X142836904Y-102859580D01*
X142836904Y-102859580D02*
X142884523Y-102764342D01*
X142884523Y-102764342D02*
X142884523Y-101954819D01*
X143265476Y-101954819D02*
X143884523Y-101954819D01*
X143884523Y-101954819D02*
X143551190Y-102335771D01*
X143551190Y-102335771D02*
X143694047Y-102335771D01*
X143694047Y-102335771D02*
X143789285Y-102383390D01*
X143789285Y-102383390D02*
X143836904Y-102431009D01*
X143836904Y-102431009D02*
X143884523Y-102526247D01*
X143884523Y-102526247D02*
X143884523Y-102764342D01*
X143884523Y-102764342D02*
X143836904Y-102859580D01*
X143836904Y-102859580D02*
X143789285Y-102907200D01*
X143789285Y-102907200D02*
X143694047Y-102954819D01*
X143694047Y-102954819D02*
X143408333Y-102954819D01*
X143408333Y-102954819D02*
X143313095Y-102907200D01*
X143313095Y-102907200D02*
X143265476Y-102859580D01*
X143193333Y-105927323D02*
X143162857Y-105957800D01*
X143162857Y-105957800D02*
X143071428Y-105988276D01*
X143071428Y-105988276D02*
X143010476Y-105988276D01*
X143010476Y-105988276D02*
X142919047Y-105957800D01*
X142919047Y-105957800D02*
X142858095Y-105896847D01*
X142858095Y-105896847D02*
X142827618Y-105835895D01*
X142827618Y-105835895D02*
X142797142Y-105713990D01*
X142797142Y-105713990D02*
X142797142Y-105622561D01*
X142797142Y-105622561D02*
X142827618Y-105500657D01*
X142827618Y-105500657D02*
X142858095Y-105439704D01*
X142858095Y-105439704D02*
X142919047Y-105378752D01*
X142919047Y-105378752D02*
X143010476Y-105348276D01*
X143010476Y-105348276D02*
X143071428Y-105348276D01*
X143071428Y-105348276D02*
X143162857Y-105378752D01*
X143162857Y-105378752D02*
X143193333Y-105409228D01*
X143741904Y-105348276D02*
X143619999Y-105348276D01*
X143619999Y-105348276D02*
X143559047Y-105378752D01*
X143559047Y-105378752D02*
X143528571Y-105409228D01*
X143528571Y-105409228D02*
X143467618Y-105500657D01*
X143467618Y-105500657D02*
X143437142Y-105622561D01*
X143437142Y-105622561D02*
X143437142Y-105866371D01*
X143437142Y-105866371D02*
X143467618Y-105927323D01*
X143467618Y-105927323D02*
X143498095Y-105957800D01*
X143498095Y-105957800D02*
X143559047Y-105988276D01*
X143559047Y-105988276D02*
X143680952Y-105988276D01*
X143680952Y-105988276D02*
X143741904Y-105957800D01*
X143741904Y-105957800D02*
X143772380Y-105927323D01*
X143772380Y-105927323D02*
X143802857Y-105866371D01*
X143802857Y-105866371D02*
X143802857Y-105713990D01*
X143802857Y-105713990D02*
X143772380Y-105653038D01*
X143772380Y-105653038D02*
X143741904Y-105622561D01*
X143741904Y-105622561D02*
X143680952Y-105592085D01*
X143680952Y-105592085D02*
X143559047Y-105592085D01*
X143559047Y-105592085D02*
X143498095Y-105622561D01*
X143498095Y-105622561D02*
X143467618Y-105653038D01*
X143467618Y-105653038D02*
X143437142Y-105713990D01*
X179553095Y-103614819D02*
X179553095Y-104424342D01*
X179553095Y-104424342D02*
X179600714Y-104519580D01*
X179600714Y-104519580D02*
X179648333Y-104567200D01*
X179648333Y-104567200D02*
X179743571Y-104614819D01*
X179743571Y-104614819D02*
X179934047Y-104614819D01*
X179934047Y-104614819D02*
X180029285Y-104567200D01*
X180029285Y-104567200D02*
X180076904Y-104519580D01*
X180076904Y-104519580D02*
X180124523Y-104424342D01*
X180124523Y-104424342D02*
X180124523Y-103614819D01*
X181029285Y-103614819D02*
X180838809Y-103614819D01*
X180838809Y-103614819D02*
X180743571Y-103662438D01*
X180743571Y-103662438D02*
X180695952Y-103710057D01*
X180695952Y-103710057D02*
X180600714Y-103852914D01*
X180600714Y-103852914D02*
X180553095Y-104043390D01*
X180553095Y-104043390D02*
X180553095Y-104424342D01*
X180553095Y-104424342D02*
X180600714Y-104519580D01*
X180600714Y-104519580D02*
X180648333Y-104567200D01*
X180648333Y-104567200D02*
X180743571Y-104614819D01*
X180743571Y-104614819D02*
X180934047Y-104614819D01*
X180934047Y-104614819D02*
X181029285Y-104567200D01*
X181029285Y-104567200D02*
X181076904Y-104519580D01*
X181076904Y-104519580D02*
X181124523Y-104424342D01*
X181124523Y-104424342D02*
X181124523Y-104186247D01*
X181124523Y-104186247D02*
X181076904Y-104091009D01*
X181076904Y-104091009D02*
X181029285Y-104043390D01*
X181029285Y-104043390D02*
X180934047Y-103995771D01*
X180934047Y-103995771D02*
X180743571Y-103995771D01*
X180743571Y-103995771D02*
X180648333Y-104043390D01*
X180648333Y-104043390D02*
X180600714Y-104091009D01*
X180600714Y-104091009D02*
X180553095Y-104186247D01*
X146797323Y-99786666D02*
X146827800Y-99817142D01*
X146827800Y-99817142D02*
X146858276Y-99908571D01*
X146858276Y-99908571D02*
X146858276Y-99969523D01*
X146858276Y-99969523D02*
X146827800Y-100060952D01*
X146827800Y-100060952D02*
X146766847Y-100121904D01*
X146766847Y-100121904D02*
X146705895Y-100152381D01*
X146705895Y-100152381D02*
X146583990Y-100182857D01*
X146583990Y-100182857D02*
X146492561Y-100182857D01*
X146492561Y-100182857D02*
X146370657Y-100152381D01*
X146370657Y-100152381D02*
X146309704Y-100121904D01*
X146309704Y-100121904D02*
X146248752Y-100060952D01*
X146248752Y-100060952D02*
X146218276Y-99969523D01*
X146218276Y-99969523D02*
X146218276Y-99908571D01*
X146218276Y-99908571D02*
X146248752Y-99817142D01*
X146248752Y-99817142D02*
X146279228Y-99786666D01*
X146218276Y-99207619D02*
X146218276Y-99512381D01*
X146218276Y-99512381D02*
X146523038Y-99542857D01*
X146523038Y-99542857D02*
X146492561Y-99512381D01*
X146492561Y-99512381D02*
X146462085Y-99451428D01*
X146462085Y-99451428D02*
X146462085Y-99299047D01*
X146462085Y-99299047D02*
X146492561Y-99238095D01*
X146492561Y-99238095D02*
X146523038Y-99207619D01*
X146523038Y-99207619D02*
X146583990Y-99177142D01*
X146583990Y-99177142D02*
X146736371Y-99177142D01*
X146736371Y-99177142D02*
X146797323Y-99207619D01*
X146797323Y-99207619D02*
X146827800Y-99238095D01*
X146827800Y-99238095D02*
X146858276Y-99299047D01*
X146858276Y-99299047D02*
X146858276Y-99451428D01*
X146858276Y-99451428D02*
X146827800Y-99512381D01*
X146827800Y-99512381D02*
X146797323Y-99542857D01*
X148368333Y-102463276D02*
X148154999Y-102158514D01*
X148002618Y-102463276D02*
X148002618Y-101823276D01*
X148002618Y-101823276D02*
X148246428Y-101823276D01*
X148246428Y-101823276D02*
X148307380Y-101853752D01*
X148307380Y-101853752D02*
X148337857Y-101884228D01*
X148337857Y-101884228D02*
X148368333Y-101945180D01*
X148368333Y-101945180D02*
X148368333Y-102036609D01*
X148368333Y-102036609D02*
X148337857Y-102097561D01*
X148337857Y-102097561D02*
X148307380Y-102128038D01*
X148307380Y-102128038D02*
X148246428Y-102158514D01*
X148246428Y-102158514D02*
X148002618Y-102158514D01*
X148977857Y-102463276D02*
X148612142Y-102463276D01*
X148794999Y-102463276D02*
X148794999Y-101823276D01*
X148794999Y-101823276D02*
X148734047Y-101914704D01*
X148734047Y-101914704D02*
X148673095Y-101975657D01*
X148673095Y-101975657D02*
X148612142Y-102006133D01*
D11*
X171385708Y-104350308D02*
X171397225Y-104361825D01*
X171397225Y-104361825D02*
X171408741Y-104396375D01*
X171408741Y-104396375D02*
X171408741Y-104419409D01*
X171408741Y-104419409D02*
X171397225Y-104453960D01*
X171397225Y-104453960D02*
X171374191Y-104476993D01*
X171374191Y-104476993D02*
X171351157Y-104488510D01*
X171351157Y-104488510D02*
X171305090Y-104500027D01*
X171305090Y-104500027D02*
X171270539Y-104500027D01*
X171270539Y-104500027D02*
X171224472Y-104488510D01*
X171224472Y-104488510D02*
X171201438Y-104476993D01*
X171201438Y-104476993D02*
X171178404Y-104453960D01*
X171178404Y-104453960D02*
X171166887Y-104419409D01*
X171166887Y-104419409D02*
X171166887Y-104396375D01*
X171166887Y-104396375D02*
X171178404Y-104361825D01*
X171178404Y-104361825D02*
X171189921Y-104350308D01*
X171166887Y-104269690D02*
X171166887Y-104119971D01*
X171166887Y-104119971D02*
X171259022Y-104200589D01*
X171259022Y-104200589D02*
X171259022Y-104166038D01*
X171259022Y-104166038D02*
X171270539Y-104143005D01*
X171270539Y-104143005D02*
X171282056Y-104131488D01*
X171282056Y-104131488D02*
X171305090Y-104119971D01*
X171305090Y-104119971D02*
X171362674Y-104119971D01*
X171362674Y-104119971D02*
X171385708Y-104131488D01*
X171385708Y-104131488D02*
X171397225Y-104143005D01*
X171397225Y-104143005D02*
X171408741Y-104166038D01*
X171408741Y-104166038D02*
X171408741Y-104235139D01*
X171408741Y-104235139D02*
X171397225Y-104258173D01*
X171397225Y-104258173D02*
X171385708Y-104269690D01*
D10*
X130676666Y-93394819D02*
X130676666Y-94109104D01*
X130676666Y-94109104D02*
X130629047Y-94251961D01*
X130629047Y-94251961D02*
X130533809Y-94347200D01*
X130533809Y-94347200D02*
X130390952Y-94394819D01*
X130390952Y-94394819D02*
X130295714Y-94394819D01*
X131581428Y-93394819D02*
X131390952Y-93394819D01*
X131390952Y-93394819D02*
X131295714Y-93442438D01*
X131295714Y-93442438D02*
X131248095Y-93490057D01*
X131248095Y-93490057D02*
X131152857Y-93632914D01*
X131152857Y-93632914D02*
X131105238Y-93823390D01*
X131105238Y-93823390D02*
X131105238Y-94204342D01*
X131105238Y-94204342D02*
X131152857Y-94299580D01*
X131152857Y-94299580D02*
X131200476Y-94347200D01*
X131200476Y-94347200D02*
X131295714Y-94394819D01*
X131295714Y-94394819D02*
X131486190Y-94394819D01*
X131486190Y-94394819D02*
X131581428Y-94347200D01*
X131581428Y-94347200D02*
X131629047Y-94299580D01*
X131629047Y-94299580D02*
X131676666Y-94204342D01*
X131676666Y-94204342D02*
X131676666Y-93966247D01*
X131676666Y-93966247D02*
X131629047Y-93871009D01*
X131629047Y-93871009D02*
X131581428Y-93823390D01*
X131581428Y-93823390D02*
X131486190Y-93775771D01*
X131486190Y-93775771D02*
X131295714Y-93775771D01*
X131295714Y-93775771D02*
X131200476Y-93823390D01*
X131200476Y-93823390D02*
X131152857Y-93871009D01*
X131152857Y-93871009D02*
X131105238Y-93966247D01*
X143554819Y-95406904D02*
X144364342Y-95406904D01*
X144364342Y-95406904D02*
X144459580Y-95359285D01*
X144459580Y-95359285D02*
X144507200Y-95311666D01*
X144507200Y-95311666D02*
X144554819Y-95216428D01*
X144554819Y-95216428D02*
X144554819Y-95025952D01*
X144554819Y-95025952D02*
X144507200Y-94930714D01*
X144507200Y-94930714D02*
X144459580Y-94883095D01*
X144459580Y-94883095D02*
X144364342Y-94835476D01*
X144364342Y-94835476D02*
X143554819Y-94835476D01*
X143650057Y-94406904D02*
X143602438Y-94359285D01*
X143602438Y-94359285D02*
X143554819Y-94264047D01*
X143554819Y-94264047D02*
X143554819Y-94025952D01*
X143554819Y-94025952D02*
X143602438Y-93930714D01*
X143602438Y-93930714D02*
X143650057Y-93883095D01*
X143650057Y-93883095D02*
X143745295Y-93835476D01*
X143745295Y-93835476D02*
X143840533Y-93835476D01*
X143840533Y-93835476D02*
X143983390Y-93883095D01*
X143983390Y-93883095D02*
X144554819Y-94454523D01*
X144554819Y-94454523D02*
X144554819Y-93835476D01*
X143618333Y-90602323D02*
X143587857Y-90632800D01*
X143587857Y-90632800D02*
X143496428Y-90663276D01*
X143496428Y-90663276D02*
X143435476Y-90663276D01*
X143435476Y-90663276D02*
X143344047Y-90632800D01*
X143344047Y-90632800D02*
X143283095Y-90571847D01*
X143283095Y-90571847D02*
X143252618Y-90510895D01*
X143252618Y-90510895D02*
X143222142Y-90388990D01*
X143222142Y-90388990D02*
X143222142Y-90297561D01*
X143222142Y-90297561D02*
X143252618Y-90175657D01*
X143252618Y-90175657D02*
X143283095Y-90114704D01*
X143283095Y-90114704D02*
X143344047Y-90053752D01*
X143344047Y-90053752D02*
X143435476Y-90023276D01*
X143435476Y-90023276D02*
X143496428Y-90023276D01*
X143496428Y-90023276D02*
X143587857Y-90053752D01*
X143587857Y-90053752D02*
X143618333Y-90084228D01*
X144227857Y-90663276D02*
X143862142Y-90663276D01*
X144044999Y-90663276D02*
X144044999Y-90023276D01*
X144044999Y-90023276D02*
X143984047Y-90114704D01*
X143984047Y-90114704D02*
X143923095Y-90175657D01*
X143923095Y-90175657D02*
X143862142Y-90206133D01*
X149577323Y-109056666D02*
X149607800Y-109087142D01*
X149607800Y-109087142D02*
X149638276Y-109178571D01*
X149638276Y-109178571D02*
X149638276Y-109239523D01*
X149638276Y-109239523D02*
X149607800Y-109330952D01*
X149607800Y-109330952D02*
X149546847Y-109391904D01*
X149546847Y-109391904D02*
X149485895Y-109422381D01*
X149485895Y-109422381D02*
X149363990Y-109452857D01*
X149363990Y-109452857D02*
X149272561Y-109452857D01*
X149272561Y-109452857D02*
X149150657Y-109422381D01*
X149150657Y-109422381D02*
X149089704Y-109391904D01*
X149089704Y-109391904D02*
X149028752Y-109330952D01*
X149028752Y-109330952D02*
X148998276Y-109239523D01*
X148998276Y-109239523D02*
X148998276Y-109178571D01*
X148998276Y-109178571D02*
X149028752Y-109087142D01*
X149028752Y-109087142D02*
X149059228Y-109056666D01*
X149272561Y-108690952D02*
X149242085Y-108751904D01*
X149242085Y-108751904D02*
X149211609Y-108782381D01*
X149211609Y-108782381D02*
X149150657Y-108812857D01*
X149150657Y-108812857D02*
X149120180Y-108812857D01*
X149120180Y-108812857D02*
X149059228Y-108782381D01*
X149059228Y-108782381D02*
X149028752Y-108751904D01*
X149028752Y-108751904D02*
X148998276Y-108690952D01*
X148998276Y-108690952D02*
X148998276Y-108569047D01*
X148998276Y-108569047D02*
X149028752Y-108508095D01*
X149028752Y-108508095D02*
X149059228Y-108477619D01*
X149059228Y-108477619D02*
X149120180Y-108447142D01*
X149120180Y-108447142D02*
X149150657Y-108447142D01*
X149150657Y-108447142D02*
X149211609Y-108477619D01*
X149211609Y-108477619D02*
X149242085Y-108508095D01*
X149242085Y-108508095D02*
X149272561Y-108569047D01*
X149272561Y-108569047D02*
X149272561Y-108690952D01*
X149272561Y-108690952D02*
X149303038Y-108751904D01*
X149303038Y-108751904D02*
X149333514Y-108782381D01*
X149333514Y-108782381D02*
X149394466Y-108812857D01*
X149394466Y-108812857D02*
X149516371Y-108812857D01*
X149516371Y-108812857D02*
X149577323Y-108782381D01*
X149577323Y-108782381D02*
X149607800Y-108751904D01*
X149607800Y-108751904D02*
X149638276Y-108690952D01*
X149638276Y-108690952D02*
X149638276Y-108569047D01*
X149638276Y-108569047D02*
X149607800Y-108508095D01*
X149607800Y-108508095D02*
X149577323Y-108477619D01*
X149577323Y-108477619D02*
X149516371Y-108447142D01*
X149516371Y-108447142D02*
X149394466Y-108447142D01*
X149394466Y-108447142D02*
X149333514Y-108477619D01*
X149333514Y-108477619D02*
X149303038Y-108508095D01*
X149303038Y-108508095D02*
X149272561Y-108569047D01*
X143066064Y-110749719D02*
X143066064Y-111464004D01*
X143066064Y-111464004D02*
X143018445Y-111606861D01*
X143018445Y-111606861D02*
X142923207Y-111702100D01*
X142923207Y-111702100D02*
X142780350Y-111749719D01*
X142780350Y-111749719D02*
X142685112Y-111749719D01*
X144066064Y-111749719D02*
X143494636Y-111749719D01*
X143780350Y-111749719D02*
X143780350Y-110749719D01*
X143780350Y-110749719D02*
X143685112Y-110892576D01*
X143685112Y-110892576D02*
X143589874Y-110987814D01*
X143589874Y-110987814D02*
X143494636Y-111035433D01*
X167721967Y-110389919D02*
X167721967Y-111104204D01*
X167721967Y-111104204D02*
X167674348Y-111247061D01*
X167674348Y-111247061D02*
X167579110Y-111342300D01*
X167579110Y-111342300D02*
X167436253Y-111389919D01*
X167436253Y-111389919D02*
X167341015Y-111389919D01*
X168102920Y-110389919D02*
X168769586Y-110389919D01*
X168769586Y-110389919D02*
X168341015Y-111389919D01*
X130480516Y-104945690D02*
X130480516Y-103943808D01*
X130480516Y-103943808D02*
X130862185Y-103943808D01*
X130862185Y-103943808D02*
X130957603Y-103991517D01*
X130957603Y-103991517D02*
X131005311Y-104039226D01*
X131005311Y-104039226D02*
X131053020Y-104134643D01*
X131053020Y-104134643D02*
X131053020Y-104277769D01*
X131053020Y-104277769D02*
X131005311Y-104373186D01*
X131005311Y-104373186D02*
X130957603Y-104420895D01*
X130957603Y-104420895D02*
X130862185Y-104468604D01*
X130862185Y-104468604D02*
X130480516Y-104468604D01*
X132007193Y-104945690D02*
X131434689Y-104945690D01*
X131720941Y-104945690D02*
X131720941Y-103943808D01*
X131720941Y-103943808D02*
X131625524Y-104086934D01*
X131625524Y-104086934D02*
X131530107Y-104182352D01*
X131530107Y-104182352D02*
X131434689Y-104230060D01*
D12*
X149220790Y-108003084D02*
X149220790Y-108134317D01*
X149427014Y-108134317D02*
X149033313Y-108134317D01*
X149033313Y-108134317D02*
X149033313Y-107946841D01*
X149220790Y-107665626D02*
X149239538Y-107609383D01*
X149239538Y-107609383D02*
X149258285Y-107590635D01*
X149258285Y-107590635D02*
X149295781Y-107571887D01*
X149295781Y-107571887D02*
X149352024Y-107571887D01*
X149352024Y-107571887D02*
X149389519Y-107590635D01*
X149389519Y-107590635D02*
X149408267Y-107609383D01*
X149408267Y-107609383D02*
X149427014Y-107646878D01*
X149427014Y-107646878D02*
X149427014Y-107796859D01*
X149427014Y-107796859D02*
X149033313Y-107796859D01*
X149033313Y-107796859D02*
X149033313Y-107665626D01*
X149033313Y-107665626D02*
X149052061Y-107628130D01*
X149052061Y-107628130D02*
X149070809Y-107609383D01*
X149070809Y-107609383D02*
X149108304Y-107590635D01*
X149108304Y-107590635D02*
X149145799Y-107590635D01*
X149145799Y-107590635D02*
X149183295Y-107609383D01*
X149183295Y-107609383D02*
X149202042Y-107628130D01*
X149202042Y-107628130D02*
X149220790Y-107665626D01*
X149220790Y-107665626D02*
X149220790Y-107796859D01*
X149070809Y-107421906D02*
X149052061Y-107403158D01*
X149052061Y-107403158D02*
X149033313Y-107365663D01*
X149033313Y-107365663D02*
X149033313Y-107271925D01*
X149033313Y-107271925D02*
X149052061Y-107234429D01*
X149052061Y-107234429D02*
X149070809Y-107215682D01*
X149070809Y-107215682D02*
X149108304Y-107196934D01*
X149108304Y-107196934D02*
X149145799Y-107196934D01*
X149145799Y-107196934D02*
X149202042Y-107215682D01*
X149202042Y-107215682D02*
X149427014Y-107440654D01*
X149427014Y-107440654D02*
X149427014Y-107196934D01*
D10*
X159338095Y-90214819D02*
X159338095Y-91024342D01*
X159338095Y-91024342D02*
X159385714Y-91119580D01*
X159385714Y-91119580D02*
X159433333Y-91167200D01*
X159433333Y-91167200D02*
X159528571Y-91214819D01*
X159528571Y-91214819D02*
X159719047Y-91214819D01*
X159719047Y-91214819D02*
X159814285Y-91167200D01*
X159814285Y-91167200D02*
X159861904Y-91119580D01*
X159861904Y-91119580D02*
X159909523Y-91024342D01*
X159909523Y-91024342D02*
X159909523Y-90214819D01*
X160909523Y-91214819D02*
X160338095Y-91214819D01*
X160623809Y-91214819D02*
X160623809Y-90214819D01*
X160623809Y-90214819D02*
X160528571Y-90357676D01*
X160528571Y-90357676D02*
X160433333Y-90452914D01*
X160433333Y-90452914D02*
X160338095Y-90500533D01*
X154338094Y-84919104D02*
X154814284Y-84919104D01*
X154242856Y-85204819D02*
X154576189Y-84204819D01*
X154576189Y-84204819D02*
X154909522Y-85204819D01*
X155242856Y-84538152D02*
X155242856Y-85204819D01*
X155242856Y-84633390D02*
X155290475Y-84585771D01*
X155290475Y-84585771D02*
X155385713Y-84538152D01*
X155385713Y-84538152D02*
X155528570Y-84538152D01*
X155528570Y-84538152D02*
X155623808Y-84585771D01*
X155623808Y-84585771D02*
X155671427Y-84681009D01*
X155671427Y-84681009D02*
X155671427Y-85204819D01*
X156004761Y-84538152D02*
X156385713Y-84538152D01*
X156147618Y-84204819D02*
X156147618Y-85061961D01*
X156147618Y-85061961D02*
X156195237Y-85157200D01*
X156195237Y-85157200D02*
X156290475Y-85204819D01*
X156290475Y-85204819D02*
X156385713Y-85204819D01*
X157099999Y-85157200D02*
X157004761Y-85204819D01*
X157004761Y-85204819D02*
X156814285Y-85204819D01*
X156814285Y-85204819D02*
X156719047Y-85157200D01*
X156719047Y-85157200D02*
X156671428Y-85061961D01*
X156671428Y-85061961D02*
X156671428Y-84681009D01*
X156671428Y-84681009D02*
X156719047Y-84585771D01*
X156719047Y-84585771D02*
X156814285Y-84538152D01*
X156814285Y-84538152D02*
X157004761Y-84538152D01*
X157004761Y-84538152D02*
X157099999Y-84585771D01*
X157099999Y-84585771D02*
X157147618Y-84681009D01*
X157147618Y-84681009D02*
X157147618Y-84776247D01*
X157147618Y-84776247D02*
X156671428Y-84871485D01*
X157576190Y-84538152D02*
X157576190Y-85204819D01*
X157576190Y-84633390D02*
X157623809Y-84585771D01*
X157623809Y-84585771D02*
X157719047Y-84538152D01*
X157719047Y-84538152D02*
X157861904Y-84538152D01*
X157861904Y-84538152D02*
X157957142Y-84585771D01*
X157957142Y-84585771D02*
X158004761Y-84681009D01*
X158004761Y-84681009D02*
X158004761Y-85204819D01*
X158480952Y-84538152D02*
X158480952Y-85204819D01*
X158480952Y-84633390D02*
X158528571Y-84585771D01*
X158528571Y-84585771D02*
X158623809Y-84538152D01*
X158623809Y-84538152D02*
X158766666Y-84538152D01*
X158766666Y-84538152D02*
X158861904Y-84585771D01*
X158861904Y-84585771D02*
X158909523Y-84681009D01*
X158909523Y-84681009D02*
X158909523Y-85204819D01*
X159814285Y-85204819D02*
X159814285Y-84681009D01*
X159814285Y-84681009D02*
X159766666Y-84585771D01*
X159766666Y-84585771D02*
X159671428Y-84538152D01*
X159671428Y-84538152D02*
X159480952Y-84538152D01*
X159480952Y-84538152D02*
X159385714Y-84585771D01*
X159814285Y-85157200D02*
X159719047Y-85204819D01*
X159719047Y-85204819D02*
X159480952Y-85204819D01*
X159480952Y-85204819D02*
X159385714Y-85157200D01*
X159385714Y-85157200D02*
X159338095Y-85061961D01*
X159338095Y-85061961D02*
X159338095Y-84966723D01*
X159338095Y-84966723D02*
X159385714Y-84871485D01*
X159385714Y-84871485D02*
X159480952Y-84823866D01*
X159480952Y-84823866D02*
X159719047Y-84823866D01*
X159719047Y-84823866D02*
X159814285Y-84776247D01*
X161004762Y-84919104D02*
X161480952Y-84919104D01*
X160909524Y-85204819D02*
X161242857Y-84204819D01*
X161242857Y-84204819D02*
X161576190Y-85204819D01*
X161909524Y-85204819D02*
X161909524Y-84538152D01*
X161909524Y-84728628D02*
X161957143Y-84633390D01*
X161957143Y-84633390D02*
X162004762Y-84585771D01*
X162004762Y-84585771D02*
X162100000Y-84538152D01*
X162100000Y-84538152D02*
X162195238Y-84538152D01*
X162909524Y-85157200D02*
X162814286Y-85204819D01*
X162814286Y-85204819D02*
X162623810Y-85204819D01*
X162623810Y-85204819D02*
X162528572Y-85157200D01*
X162528572Y-85157200D02*
X162480953Y-85061961D01*
X162480953Y-85061961D02*
X162480953Y-84681009D01*
X162480953Y-84681009D02*
X162528572Y-84585771D01*
X162528572Y-84585771D02*
X162623810Y-84538152D01*
X162623810Y-84538152D02*
X162814286Y-84538152D01*
X162814286Y-84538152D02*
X162909524Y-84585771D01*
X162909524Y-84585771D02*
X162957143Y-84681009D01*
X162957143Y-84681009D02*
X162957143Y-84776247D01*
X162957143Y-84776247D02*
X162480953Y-84871485D01*
X163814286Y-85204819D02*
X163814286Y-84681009D01*
X163814286Y-84681009D02*
X163766667Y-84585771D01*
X163766667Y-84585771D02*
X163671429Y-84538152D01*
X163671429Y-84538152D02*
X163480953Y-84538152D01*
X163480953Y-84538152D02*
X163385715Y-84585771D01*
X163814286Y-85157200D02*
X163719048Y-85204819D01*
X163719048Y-85204819D02*
X163480953Y-85204819D01*
X163480953Y-85204819D02*
X163385715Y-85157200D01*
X163385715Y-85157200D02*
X163338096Y-85061961D01*
X163338096Y-85061961D02*
X163338096Y-84966723D01*
X163338096Y-84966723D02*
X163385715Y-84871485D01*
X163385715Y-84871485D02*
X163480953Y-84823866D01*
X163480953Y-84823866D02*
X163719048Y-84823866D01*
X163719048Y-84823866D02*
X163814286Y-84776247D01*
D11*
X146409691Y-90285708D02*
X146398174Y-90297225D01*
X146398174Y-90297225D02*
X146363624Y-90308741D01*
X146363624Y-90308741D02*
X146340590Y-90308741D01*
X146340590Y-90308741D02*
X146306039Y-90297225D01*
X146306039Y-90297225D02*
X146283006Y-90274191D01*
X146283006Y-90274191D02*
X146271489Y-90251157D01*
X146271489Y-90251157D02*
X146259972Y-90205090D01*
X146259972Y-90205090D02*
X146259972Y-90170539D01*
X146259972Y-90170539D02*
X146271489Y-90124472D01*
X146271489Y-90124472D02*
X146283006Y-90101438D01*
X146283006Y-90101438D02*
X146306039Y-90078404D01*
X146306039Y-90078404D02*
X146340590Y-90066887D01*
X146340590Y-90066887D02*
X146363624Y-90066887D01*
X146363624Y-90066887D02*
X146398174Y-90078404D01*
X146398174Y-90078404D02*
X146409691Y-90089921D01*
X146501826Y-90089921D02*
X146513343Y-90078404D01*
X146513343Y-90078404D02*
X146536377Y-90066887D01*
X146536377Y-90066887D02*
X146593961Y-90066887D01*
X146593961Y-90066887D02*
X146616995Y-90078404D01*
X146616995Y-90078404D02*
X146628511Y-90089921D01*
X146628511Y-90089921D02*
X146640028Y-90112955D01*
X146640028Y-90112955D02*
X146640028Y-90135989D01*
X146640028Y-90135989D02*
X146628511Y-90170539D01*
X146628511Y-90170539D02*
X146490309Y-90308741D01*
X146490309Y-90308741D02*
X146640028Y-90308741D01*
D10*
X179300516Y-98255690D02*
X179300516Y-97253808D01*
X179300516Y-97253808D02*
X179682185Y-97253808D01*
X179682185Y-97253808D02*
X179777603Y-97301517D01*
X179777603Y-97301517D02*
X179825311Y-97349226D01*
X179825311Y-97349226D02*
X179873020Y-97444643D01*
X179873020Y-97444643D02*
X179873020Y-97587769D01*
X179873020Y-97587769D02*
X179825311Y-97683186D01*
X179825311Y-97683186D02*
X179777603Y-97730895D01*
X179777603Y-97730895D02*
X179682185Y-97778604D01*
X179682185Y-97778604D02*
X179300516Y-97778604D01*
X180254689Y-97349226D02*
X180302398Y-97301517D01*
X180302398Y-97301517D02*
X180397815Y-97253808D01*
X180397815Y-97253808D02*
X180636359Y-97253808D01*
X180636359Y-97253808D02*
X180731776Y-97301517D01*
X180731776Y-97301517D02*
X180779485Y-97349226D01*
X180779485Y-97349226D02*
X180827193Y-97444643D01*
X180827193Y-97444643D02*
X180827193Y-97540060D01*
X180827193Y-97540060D02*
X180779485Y-97683186D01*
X180779485Y-97683186D02*
X180206981Y-98255690D01*
X180206981Y-98255690D02*
X180827193Y-98255690D01*
X144402323Y-108986666D02*
X144432800Y-109017142D01*
X144432800Y-109017142D02*
X144463276Y-109108571D01*
X144463276Y-109108571D02*
X144463276Y-109169523D01*
X144463276Y-109169523D02*
X144432800Y-109260952D01*
X144432800Y-109260952D02*
X144371847Y-109321904D01*
X144371847Y-109321904D02*
X144310895Y-109352381D01*
X144310895Y-109352381D02*
X144188990Y-109382857D01*
X144188990Y-109382857D02*
X144097561Y-109382857D01*
X144097561Y-109382857D02*
X143975657Y-109352381D01*
X143975657Y-109352381D02*
X143914704Y-109321904D01*
X143914704Y-109321904D02*
X143853752Y-109260952D01*
X143853752Y-109260952D02*
X143823276Y-109169523D01*
X143823276Y-109169523D02*
X143823276Y-109108571D01*
X143823276Y-109108571D02*
X143853752Y-109017142D01*
X143853752Y-109017142D02*
X143884228Y-108986666D01*
X143823276Y-108773333D02*
X143823276Y-108346666D01*
X143823276Y-108346666D02*
X144463276Y-108620952D01*
X145108809Y-102513276D02*
X144804047Y-102513276D01*
X144804047Y-102513276D02*
X144804047Y-101873276D01*
X145322142Y-102178038D02*
X145535476Y-102178038D01*
X145626904Y-102513276D02*
X145322142Y-102513276D01*
X145322142Y-102513276D02*
X145322142Y-101873276D01*
X145322142Y-101873276D02*
X145626904Y-101873276D01*
X145901190Y-102513276D02*
X145901190Y-101873276D01*
X145901190Y-101873276D02*
X146053571Y-101873276D01*
X146053571Y-101873276D02*
X146145000Y-101903752D01*
X146145000Y-101903752D02*
X146205952Y-101964704D01*
X146205952Y-101964704D02*
X146236429Y-102025657D01*
X146236429Y-102025657D02*
X146266905Y-102147561D01*
X146266905Y-102147561D02*
X146266905Y-102238990D01*
X146266905Y-102238990D02*
X146236429Y-102360895D01*
X146236429Y-102360895D02*
X146205952Y-102421847D01*
X146205952Y-102421847D02*
X146145000Y-102482800D01*
X146145000Y-102482800D02*
X146053571Y-102513276D01*
X146053571Y-102513276D02*
X145901190Y-102513276D01*
X146876429Y-102513276D02*
X146510714Y-102513276D01*
X146693571Y-102513276D02*
X146693571Y-101873276D01*
X146693571Y-101873276D02*
X146632619Y-101964704D01*
X146632619Y-101964704D02*
X146571667Y-102025657D01*
X146571667Y-102025657D02*
X146510714Y-102056133D01*
X142997323Y-99806666D02*
X143027800Y-99837142D01*
X143027800Y-99837142D02*
X143058276Y-99928571D01*
X143058276Y-99928571D02*
X143058276Y-99989523D01*
X143058276Y-99989523D02*
X143027800Y-100080952D01*
X143027800Y-100080952D02*
X142966847Y-100141904D01*
X142966847Y-100141904D02*
X142905895Y-100172381D01*
X142905895Y-100172381D02*
X142783990Y-100202857D01*
X142783990Y-100202857D02*
X142692561Y-100202857D01*
X142692561Y-100202857D02*
X142570657Y-100172381D01*
X142570657Y-100172381D02*
X142509704Y-100141904D01*
X142509704Y-100141904D02*
X142448752Y-100080952D01*
X142448752Y-100080952D02*
X142418276Y-99989523D01*
X142418276Y-99989523D02*
X142418276Y-99928571D01*
X142418276Y-99928571D02*
X142448752Y-99837142D01*
X142448752Y-99837142D02*
X142479228Y-99806666D01*
X142631609Y-99258095D02*
X143058276Y-99258095D01*
X142387800Y-99410476D02*
X142844942Y-99562857D01*
X142844942Y-99562857D02*
X142844942Y-99166666D01*
X169238095Y-103564819D02*
X169238095Y-104374342D01*
X169238095Y-104374342D02*
X169285714Y-104469580D01*
X169285714Y-104469580D02*
X169333333Y-104517200D01*
X169333333Y-104517200D02*
X169428571Y-104564819D01*
X169428571Y-104564819D02*
X169619047Y-104564819D01*
X169619047Y-104564819D02*
X169714285Y-104517200D01*
X169714285Y-104517200D02*
X169761904Y-104469580D01*
X169761904Y-104469580D02*
X169809523Y-104374342D01*
X169809523Y-104374342D02*
X169809523Y-103564819D01*
X170761904Y-103564819D02*
X170285714Y-103564819D01*
X170285714Y-103564819D02*
X170238095Y-104041009D01*
X170238095Y-104041009D02*
X170285714Y-103993390D01*
X170285714Y-103993390D02*
X170380952Y-103945771D01*
X170380952Y-103945771D02*
X170619047Y-103945771D01*
X170619047Y-103945771D02*
X170714285Y-103993390D01*
X170714285Y-103993390D02*
X170761904Y-104041009D01*
X170761904Y-104041009D02*
X170809523Y-104136247D01*
X170809523Y-104136247D02*
X170809523Y-104374342D01*
X170809523Y-104374342D02*
X170761904Y-104469580D01*
X170761904Y-104469580D02*
X170714285Y-104517200D01*
X170714285Y-104517200D02*
X170619047Y-104564819D01*
X170619047Y-104564819D02*
X170380952Y-104564819D01*
X170380952Y-104564819D02*
X170285714Y-104517200D01*
X170285714Y-104517200D02*
X170238095Y-104469580D01*
D12*
X144360790Y-108028084D02*
X144360790Y-108159317D01*
X144567014Y-108159317D02*
X144173313Y-108159317D01*
X144173313Y-108159317D02*
X144173313Y-107971841D01*
X144360790Y-107690626D02*
X144379538Y-107634383D01*
X144379538Y-107634383D02*
X144398285Y-107615635D01*
X144398285Y-107615635D02*
X144435781Y-107596887D01*
X144435781Y-107596887D02*
X144492024Y-107596887D01*
X144492024Y-107596887D02*
X144529519Y-107615635D01*
X144529519Y-107615635D02*
X144548267Y-107634383D01*
X144548267Y-107634383D02*
X144567014Y-107671878D01*
X144567014Y-107671878D02*
X144567014Y-107821859D01*
X144567014Y-107821859D02*
X144173313Y-107821859D01*
X144173313Y-107821859D02*
X144173313Y-107690626D01*
X144173313Y-107690626D02*
X144192061Y-107653130D01*
X144192061Y-107653130D02*
X144210809Y-107634383D01*
X144210809Y-107634383D02*
X144248304Y-107615635D01*
X144248304Y-107615635D02*
X144285799Y-107615635D01*
X144285799Y-107615635D02*
X144323295Y-107634383D01*
X144323295Y-107634383D02*
X144342042Y-107653130D01*
X144342042Y-107653130D02*
X144360790Y-107690626D01*
X144360790Y-107690626D02*
X144360790Y-107821859D01*
X144567014Y-107221934D02*
X144567014Y-107446906D01*
X144567014Y-107334420D02*
X144173313Y-107334420D01*
X144173313Y-107334420D02*
X144229556Y-107371915D01*
X144229556Y-107371915D02*
X144267052Y-107409411D01*
X144267052Y-107409411D02*
X144285799Y-107446906D01*
D13*
%TO.C,U3*%
X148245000Y-103370000D02*
X147950000Y-103370000D01*
X148245000Y-103370000D02*
X148245000Y-103665000D01*
X145245000Y-103370000D02*
X145540000Y-103370000D01*
X145245000Y-103370000D02*
X145245000Y-103665000D01*
X148245000Y-106370000D02*
X148245000Y-106075000D01*
X148245000Y-106370000D02*
X147950000Y-106370000D01*
X145245000Y-106370000D02*
X145245000Y-106075000D01*
X145245000Y-106370000D02*
X145540000Y-106370000D01*
D14*
X147595000Y-102395000D02*
G75*
G02*
X147395000Y-102395000I-100000J0D01*
G01*
X147395000Y-102395000D02*
G75*
G02*
X147595000Y-102395000I100000J0D01*
G01*
D15*
%TO.C,U6*%
X179130000Y-99260000D02*
X175930000Y-99260000D01*
X175930000Y-99260000D02*
X175930000Y-99390000D01*
X179130000Y-99360000D02*
X179130000Y-99260000D01*
X175930000Y-100600000D02*
X175930000Y-100660000D01*
X179130000Y-100630000D02*
X179130000Y-100630000D01*
X175930000Y-101870000D02*
X175930000Y-101930000D01*
X179130000Y-101900000D02*
X179130000Y-101900000D01*
X175930000Y-103140000D02*
X175930000Y-103260000D01*
X179130000Y-103260000D02*
X179130000Y-103170000D01*
X175930000Y-103260000D02*
X179130000Y-103260000D01*
D13*
%TO.C,C3*%
X171995000Y-104770000D02*
X172995000Y-104770000D01*
X172995000Y-103810000D02*
X171995000Y-103810000D01*
D16*
%TO.C,J6*%
X129972999Y-94724200D02*
X141936399Y-94724200D01*
X141936399Y-94724200D02*
X141936399Y-88475800D01*
X129972999Y-88475800D02*
X129972999Y-94724200D01*
X141936399Y-88475800D02*
X129972999Y-88475800D01*
D17*
X138681000Y-96502200D02*
G75*
G02*
X137919000Y-96502200I-381000J0D01*
G01*
X137919000Y-96502200D02*
G75*
G02*
X138681000Y-96502200I381000J0D01*
G01*
D13*
%TO.C,U2*%
X148952500Y-92892500D02*
X148952500Y-96397500D01*
X142447500Y-92892500D02*
X148952500Y-92892500D01*
X148952500Y-96397500D02*
X142447500Y-96397500D01*
X142447500Y-96397500D02*
X142447500Y-92892500D01*
D14*
X148090000Y-89645000D02*
G75*
G02*
X147890000Y-89645000I-100000J0D01*
G01*
X147890000Y-89645000D02*
G75*
G02*
X148090000Y-89645000I100000J0D01*
G01*
D16*
%TO.C,J1*%
X129972999Y-112124200D02*
X141936399Y-112124200D01*
X141936399Y-112124200D02*
X141936399Y-105875800D01*
X129972999Y-105875800D02*
X129972999Y-112124200D01*
X141936399Y-105875800D02*
X129972999Y-105875800D01*
D17*
X138681000Y-113902200D02*
G75*
G02*
X137919000Y-113902200I-381000J0D01*
G01*
X137919000Y-113902200D02*
G75*
G02*
X138681000Y-113902200I381000J0D01*
G01*
D16*
%TO.C,J7*%
X181147001Y-105315800D02*
X169183601Y-105315800D01*
X169183601Y-105315800D02*
X169183601Y-111564200D01*
X181147001Y-111564200D02*
X181147001Y-105315800D01*
X169183601Y-111564200D02*
X181147001Y-111564200D01*
D17*
X173201000Y-103537800D02*
G75*
G02*
X172439000Y-103537800I-381000J0D01*
G01*
X172439000Y-103537800D02*
G75*
G02*
X173201000Y-103537800I381000J0D01*
G01*
D13*
%TO.C,P1*%
X130100000Y-105300000D02*
X130100000Y-95300000D01*
X141800000Y-105300000D02*
X130100000Y-105300000D01*
X130100000Y-95300000D02*
X141800000Y-95300000D01*
X141800000Y-95300000D02*
X141800000Y-105300000D01*
D18*
%TO.C,U1*%
X150100000Y-81750000D02*
X150100000Y-88500000D01*
X150100000Y-81750000D02*
X168100000Y-81750000D01*
X150100000Y-106500000D02*
X150100000Y-107250000D01*
X150100000Y-107250000D02*
X150850000Y-107250000D01*
X150850000Y-107250000D02*
X152600000Y-107250000D01*
X167350000Y-107250000D02*
X165600000Y-107250000D01*
X168100000Y-81750000D02*
X168100000Y-88500000D01*
X168100000Y-87690000D02*
X150100000Y-87690000D01*
X168100000Y-106500000D02*
X168100000Y-107250000D01*
X168100000Y-107250000D02*
X167350000Y-107250000D01*
D13*
%TO.C,C2*%
X146900000Y-88720000D02*
X145900000Y-88720000D01*
X145900000Y-89680000D02*
X146900000Y-89680000D01*
%TO.C,P2*%
X181030000Y-88520000D02*
X181030000Y-98520000D01*
X169330000Y-88520000D02*
X181030000Y-88520000D01*
X181030000Y-98520000D02*
X169330000Y-98520000D01*
X169330000Y-98520000D02*
X169330000Y-88520000D01*
D14*
%TO.C,LED1*%
X147165000Y-101080000D02*
G75*
G02*
X146965000Y-101080000I-100000J0D01*
G01*
X146965000Y-101080000D02*
G75*
G02*
X147165000Y-101080000I100000J0D01*
G01*
D16*
%TO.C,U5*%
X169798600Y-103086400D02*
X173151400Y-103086400D01*
X173151400Y-99733600D02*
X169798600Y-99733600D01*
X169288060Y-100483829D02*
G75*
G02*
X169288060Y-100336171I-18860J73829D01*
G01*
%TD*%
%LPC*%
D19*
%TO.C,U3*%
X147495000Y-103435000D03*
X146995000Y-103435000D03*
X146495000Y-103435000D03*
X145995000Y-103435000D03*
D20*
X145310000Y-104120000D03*
X145310000Y-104620000D03*
X145310000Y-105120000D03*
X145310000Y-105620000D03*
D19*
X145995000Y-106305000D03*
X146495000Y-106305000D03*
X146995000Y-106305000D03*
X147495000Y-106305000D03*
D20*
X148180000Y-105620000D03*
X148180000Y-105120000D03*
X148180000Y-104620000D03*
X148180000Y-104120000D03*
D21*
X146745000Y-104870000D03*
%TD*%
D22*
%TO.C,C6*%
X143300000Y-103665000D03*
X143300000Y-104535000D03*
%TD*%
D23*
%TO.C,U6*%
X175630000Y-99990000D03*
D24*
X179430000Y-99990000D03*
D23*
X175630000Y-101260000D03*
D24*
X179430000Y-101260000D03*
D23*
X175630000Y-102530000D03*
D24*
X179430000Y-102530000D03*
%TD*%
D25*
%TO.C,C5*%
X147595000Y-99780000D03*
X148465000Y-99780000D03*
%TD*%
%TO.C,R1*%
X147570000Y-101130000D03*
X148440000Y-101130000D03*
%TD*%
D26*
%TO.C,C3*%
X172065000Y-104290000D03*
X172925000Y-104290000D03*
%TD*%
D27*
%TO.C,J6*%
X138300000Y-92600000D03*
X138300000Y-90599999D03*
%TD*%
D28*
%TO.C,U2*%
X147990000Y-91300000D03*
X145700000Y-91300000D03*
X143410000Y-91300000D03*
D29*
X145700000Y-97990000D03*
%TD*%
D25*
%TO.C,C1*%
X143565000Y-89200000D03*
X144435000Y-89200000D03*
%TD*%
D30*
%TO.C,C8*%
X148260000Y-108950000D03*
X147390000Y-108950000D03*
%TD*%
D27*
%TO.C,J1*%
X138300000Y-110000000D03*
X138300000Y-107999999D03*
%TD*%
%TO.C,J7*%
X172820000Y-107440000D03*
X172820000Y-109440001D03*
%TD*%
D31*
%TO.C,P1*%
X136200000Y-104800000D03*
X136200000Y-95800000D03*
D32*
X138300000Y-97300000D03*
D33*
X138300000Y-99300000D03*
X138300000Y-101300000D03*
X138300000Y-103300000D03*
%TD*%
D34*
%TO.C,FB2*%
X147358000Y-107700000D03*
X148262000Y-107700000D03*
%TD*%
D35*
%TO.C,U1*%
X150350000Y-89240000D03*
X150350000Y-90510000D03*
X150350000Y-91780000D03*
X150350000Y-93050000D03*
X150350000Y-94320000D03*
X150350000Y-95590000D03*
X150350000Y-96860000D03*
X150350000Y-98130000D03*
X150350000Y-99400000D03*
X150350000Y-100670000D03*
X150350000Y-101940000D03*
X150350000Y-103210000D03*
X150350000Y-104480000D03*
X150350000Y-105750000D03*
D36*
X153380000Y-107000000D03*
X154650000Y-107000000D03*
X155920000Y-107000000D03*
X157190000Y-107000000D03*
X158460000Y-107000000D03*
X159730000Y-107000000D03*
X161000000Y-107000000D03*
X162270000Y-107000000D03*
X163540000Y-107000000D03*
X164810000Y-107000000D03*
D35*
X167850000Y-105750000D03*
X167850000Y-104480000D03*
X167850000Y-103210000D03*
X167850000Y-101940000D03*
X167850000Y-100670000D03*
X167850000Y-99400000D03*
X167850000Y-98130000D03*
X167850000Y-96860000D03*
X167850000Y-95590000D03*
X167850000Y-94320000D03*
X167850000Y-93050000D03*
X167850000Y-91780000D03*
X167850000Y-90510000D03*
X167850000Y-89240000D03*
D37*
X156200000Y-95560000D03*
X156200000Y-95560000D03*
X156200000Y-96960000D03*
X156200000Y-98360000D03*
X156200000Y-98360000D03*
X157600000Y-95560000D03*
X157600000Y-96960000D03*
X157600000Y-98360000D03*
X157600000Y-98360000D03*
X159000000Y-95560000D03*
X159000000Y-96960000D03*
X159000000Y-98360000D03*
%TD*%
D38*
%TO.C,C2*%
X146830000Y-89200000D03*
X145970000Y-89200000D03*
%TD*%
D31*
%TO.C,P2*%
X174930000Y-89020000D03*
X174930000Y-98020000D03*
D39*
X172830000Y-96520000D03*
D33*
X172830000Y-94520000D03*
X172830000Y-92520000D03*
X172830000Y-90520000D03*
%TD*%
D30*
%TO.C,C7*%
X146195000Y-108930000D03*
X145325000Y-108930000D03*
%TD*%
D40*
%TO.C,LED1*%
X144015000Y-101080000D03*
X145665000Y-101080000D03*
%TD*%
D30*
%TO.C,C4*%
X144605000Y-99660000D03*
X143735000Y-99660000D03*
%TD*%
D41*
%TO.C,U5*%
X170035000Y-100409998D03*
X170035000Y-100910000D03*
X170035000Y-101409999D03*
X170035000Y-101909998D03*
X170035000Y-102410000D03*
X172915000Y-102410001D03*
X172915000Y-101909999D03*
X172915000Y-101410000D03*
X172915000Y-100910001D03*
X172915000Y-100409999D03*
D42*
X171475000Y-101410000D03*
%TD*%
D34*
%TO.C,FB1*%
X145318000Y-107700000D03*
X146222000Y-107700000D03*
%TD*%
%LPD*%
M02*
