%TF.GenerationSoftware,KiCad,Pcbnew,8.0.7*%
%TF.CreationDate,2025-04-18T11:17:16-04:00*%
%TF.ProjectId,weiland-esp32,7765696c-616e-4642-9d65-737033322e6b,rev?*%
%TF.SameCoordinates,Original*%
%TF.FileFunction,Copper,L1,Top*%
%TF.FilePolarity,Positive*%
%FSLAX46Y46*%
G04 Gerber Fmt 4.6, Leading zero omitted, Abs format (unit mm)*
G04 Created by KiCad (PCBNEW 8.0.7) date 2025-04-18 11:17:16*
%MOMM*%
%LPD*%
G01*
G04 APERTURE LIST*
G04 Aperture macros list*
%AMRoundRect*
0 Rectangle with rounded corners*
0 $1 Rounding radius*
0 $2 $3 $4 $5 $6 $7 $8 $9 X,Y pos of 4 corners*
0 Add a 4 corners polygon primitive as box body*
4,1,4,$2,$3,$4,$5,$6,$7,$8,$9,$2,$3,0*
0 Add four circle primitives for the rounded corners*
1,1,$1+$1,$2,$3*
1,1,$1+$1,$4,$5*
1,1,$1+$1,$6,$7*
1,1,$1+$1,$8,$9*
0 Add four rect primitives between the rounded corners*
20,1,$1+$1,$2,$3,$4,$5,0*
20,1,$1+$1,$4,$5,$6,$7,0*
20,1,$1+$1,$6,$7,$8,$9,0*
20,1,$1+$1,$8,$9,$2,$3,0*%
G04 Aperture macros list end*
%TA.AperFunction,SMDPad,CuDef*%
%ADD10R,0.600000X0.560000*%
%TD*%
%TA.AperFunction,SMDPad,CuDef*%
%ADD11R,2.600000X0.740000*%
%TD*%
%TA.AperFunction,SMDPad,CuDef*%
%ADD12R,2.600000X0.800000*%
%TD*%
%TA.AperFunction,SMDPad,CuDef*%
%ADD13C,1.000000*%
%TD*%
%TA.AperFunction,SMDPad,CuDef*%
%ADD14R,0.560000X0.600000*%
%TD*%
%TA.AperFunction,SMDPad,CuDef*%
%ADD15RoundRect,0.140000X0.140000X0.170000X-0.140000X0.170000X-0.140000X-0.170000X0.140000X-0.170000X0*%
%TD*%
%TA.AperFunction,SMDPad,CuDef*%
%ADD16RoundRect,0.143100X-0.126900X-0.156900X0.126900X-0.156900X0.126900X0.156900X-0.126900X0.156900X0*%
%TD*%
%TA.AperFunction,ComponentPad*%
%ADD17C,1.320800*%
%TD*%
%TA.AperFunction,SMDPad,CuDef*%
%ADD18RoundRect,0.098250X-1.521750X0.556750X-1.521750X-0.556750X1.521750X-0.556750X1.521750X0.556750X0*%
%TD*%
%TA.AperFunction,SMDPad,CuDef*%
%ADD19RoundRect,0.069750X-0.395250X0.585250X-0.395250X-0.585250X0.395250X-0.585250X0.395250X0.585250X0*%
%TD*%
%TA.AperFunction,SMDPad,CuDef*%
%ADD20RoundRect,0.135000X-0.135000X-0.185000X0.135000X-0.185000X0.135000X0.185000X-0.135000X0.185000X0*%
%TD*%
%TA.AperFunction,ComponentPad*%
%ADD21R,1.308000X1.308000*%
%TD*%
%TA.AperFunction,ComponentPad*%
%ADD22C,1.308000*%
%TD*%
%TA.AperFunction,SMDPad,CuDef*%
%ADD23R,0.500000X0.600000*%
%TD*%
%TA.AperFunction,SMDPad,CuDef*%
%ADD24R,1.500000X0.900000*%
%TD*%
%TA.AperFunction,SMDPad,CuDef*%
%ADD25R,0.900000X1.500000*%
%TD*%
%TA.AperFunction,SMDPad,CuDef*%
%ADD26R,0.900000X0.900000*%
%TD*%
%TA.AperFunction,SMDPad,CuDef*%
%ADD27RoundRect,0.143100X-0.156900X0.126900X-0.156900X-0.126900X0.156900X-0.126900X0.156900X0.126900X0*%
%TD*%
%TA.AperFunction,SMDPad,CuDef*%
%ADD28R,0.800000X0.800000*%
%TD*%
%TA.AperFunction,SMDPad,CuDef*%
%ADD29RoundRect,0.033750X-0.101250X0.386250X-0.101250X-0.386250X0.101250X-0.386250X0.101250X0.386250X0*%
%TD*%
%TA.AperFunction,SMDPad,CuDef*%
%ADD30RoundRect,0.033750X-0.386250X0.101250X-0.386250X-0.101250X0.386250X-0.101250X0.386250X0.101250X0*%
%TD*%
%TA.AperFunction,SMDPad,CuDef*%
%ADD31R,1.100000X1.100000*%
%TD*%
%TA.AperFunction,SMDPad,CuDef*%
%ADD32R,0.863600X0.254000*%
%TD*%
%TA.AperFunction,SMDPad,CuDef*%
%ADD33R,1.701800X2.489200*%
%TD*%
%TA.AperFunction,ViaPad*%
%ADD34C,0.600000*%
%TD*%
%TA.AperFunction,Conductor*%
%ADD35C,0.200000*%
%TD*%
G04 APERTURE END LIST*
D10*
%TO.P,C6,1*%
%TO.N,+5V*%
X143300000Y-103665000D03*
%TO.P,C6,2*%
%TO.N,GND*%
X143300000Y-104535000D03*
%TD*%
D11*
%TO.P,U6,1,1*%
%TO.N,/EN*%
X175630000Y-99990000D03*
D12*
%TO.P,U6,2,2*%
%TO.N,+5V*%
X179430000Y-99990000D03*
D11*
%TO.P,U6,3,3*%
%TO.N,/TXD0*%
X175630000Y-101260000D03*
D12*
%TO.P,U6,4,4*%
%TO.N,GND*%
X179430000Y-101260000D03*
D11*
%TO.P,U6,5,5*%
%TO.N,/RXD0*%
X175630000Y-102530000D03*
D12*
%TO.P,U6,6,6*%
%TO.N,/IO0*%
X179430000Y-102530000D03*
%TD*%
D13*
%TO.P,IO19,1,1*%
%TO.N,/IO19*%
X158675000Y-109325000D03*
%TD*%
D14*
%TO.P,C5,1,1*%
%TO.N,GND*%
X147595000Y-99780000D03*
%TO.P,C5,2,2*%
%TO.N,+3.3V*%
X148465000Y-99780000D03*
%TD*%
D13*
%TO.P,IO14,1,1*%
%TO.N,/IO14*%
X156450000Y-109325000D03*
%TD*%
%TO.P,IO15,1,1*%
%TO.N,/IO15*%
X160875000Y-109275000D03*
%TD*%
%TO.P,OUTP1,1,1*%
%TO.N,/PRE-OUTP*%
X143350000Y-108000000D03*
%TD*%
D14*
%TO.P,R1,1,1*%
%TO.N,Net-(LED1-A)*%
X147570000Y-101130000D03*
%TO.P,R1,2,2*%
%TO.N,+3.3V*%
X148440000Y-101130000D03*
%TD*%
D15*
%TO.P,C9,1*%
%TO.N,/EN*%
X147535000Y-88400000D03*
%TO.P,C9,2*%
%TO.N,GND*%
X146575000Y-88400000D03*
%TD*%
D16*
%TO.P,C3,1,1*%
%TO.N,GND*%
X172065000Y-104290000D03*
%TO.P,C3,2,2*%
%TO.N,+5V*%
X172925000Y-104290000D03*
%TD*%
D13*
%TO.P,IO16,1,1*%
%TO.N,/IO16*%
X167225000Y-109250000D03*
%TD*%
%TO.P,IO22,1,1*%
%TO.N,/IO22*%
X152225000Y-109300000D03*
%TD*%
D17*
%TO.P,J6,1,1*%
%TO.N,GND*%
X138275000Y-92350000D03*
%TO.P,J6,2,2*%
%TO.N,+5V*%
X138275000Y-90349999D03*
%TD*%
D18*
%TO.P,U2,4,TAB*%
%TO.N,+3.3V*%
X145700000Y-97990000D03*
D19*
%TO.P,U2,3,VIN*%
%TO.N,+5V*%
X143410000Y-91300000D03*
%TO.P,U2,2,VOUT(TAB)*%
%TO.N,+3.3V*%
X145700000Y-91300000D03*
%TO.P,U2,1,ADJ(GND)*%
%TO.N,GND*%
X147990000Y-91300000D03*
%TD*%
D10*
%TO.P,C1,1,1*%
%TO.N,GND*%
X144000000Y-88790000D03*
%TO.P,C1,2,2*%
%TO.N,+3.3V*%
X144000000Y-89660000D03*
%TD*%
D14*
%TO.P,C8,1*%
%TO.N,/OUTN*%
X148260000Y-108950000D03*
%TO.P,C8,2*%
%TO.N,GND*%
X147390000Y-108950000D03*
%TD*%
D17*
%TO.P,J1,1,1*%
%TO.N,/OUTN*%
X138275000Y-109725000D03*
%TO.P,J1,2,2*%
%TO.N,/OUTP*%
X138275000Y-107724999D03*
%TD*%
D13*
%TO.P,IO18,1,1*%
%TO.N,/IO18*%
X163000000Y-109275000D03*
%TD*%
D20*
%TO.P,R2,1*%
%TO.N,+3.3V*%
X146550000Y-89425000D03*
%TO.P,R2,2*%
%TO.N,/EN*%
X147570000Y-89425000D03*
%TD*%
D21*
%TO.P,P2,1,1*%
%TO.N,+5V*%
X172825000Y-96500000D03*
D22*
%TO.P,P2,2,2*%
%TO.N,/OUTA*%
X172825000Y-94500000D03*
%TO.P,P2,3,3*%
%TO.N,+5V*%
X172825000Y-92500000D03*
%TO.P,P2,4,4*%
%TO.N,/OUTB*%
X172825000Y-90500000D03*
%TD*%
D21*
%TO.P,P1,1,1*%
%TO.N,+5V*%
X138275000Y-97050000D03*
D22*
%TO.P,P1,2,2*%
%TO.N,/OUTC*%
X138275000Y-99050000D03*
%TO.P,P1,3,3*%
%TO.N,+5V*%
X138275000Y-101050000D03*
%TO.P,P1,4,4*%
%TO.N,/OUTD*%
X138275000Y-103050000D03*
%TD*%
D23*
%TO.P,FB2,1*%
%TO.N,/PRE-OUTN*%
X147358000Y-107700000D03*
%TO.P,FB2,2*%
%TO.N,/OUTN*%
X148262000Y-107700000D03*
%TD*%
D24*
%TO.P,U1,1,GND*%
%TO.N,GND*%
X150350000Y-89240000D03*
%TO.P,U1,2,3V3*%
%TO.N,+3.3V*%
X150350000Y-90510000D03*
%TO.P,U1,3,EN*%
%TO.N,/EN*%
X150350000Y-91780000D03*
%TO.P,U1,4,SENSOR_VP*%
%TO.N,unconnected-(U1-SENSOR_VP-Pad4)*%
X150350000Y-93050000D03*
%TO.P,U1,5,SENSOR_VN*%
%TO.N,unconnected-(U1-SENSOR_VN-Pad5)*%
X150350000Y-94320000D03*
%TO.P,U1,6,IO34*%
%TO.N,unconnected-(U1-IO34-Pad6)*%
X150350000Y-95590000D03*
%TO.P,U1,7,IO35*%
%TO.N,unconnected-(U1-IO35-Pad7)*%
X150350000Y-96860000D03*
%TO.P,U1,8,IO32*%
%TO.N,unconnected-(U1-IO32-Pad8)*%
X150350000Y-98130000D03*
%TO.P,U1,9,IO33*%
%TO.N,unconnected-(U1-IO33-Pad9)*%
X150350000Y-99400000D03*
%TO.P,U1,10,IO25*%
%TO.N,unconnected-(U1-IO25-Pad10)*%
X150350000Y-100670000D03*
%TO.P,U1,11,IO26*%
%TO.N,unconnected-(U1-IO26-Pad11)*%
X150350000Y-101940000D03*
%TO.P,U1,12,IO27*%
%TO.N,unconnected-(U1-IO27-Pad12)*%
X150350000Y-103210000D03*
%TO.P,U1,13,IO14*%
%TO.N,/IO14*%
X150350000Y-104480000D03*
%TO.P,U1,14,IO12*%
%TO.N,unconnected-(U1-IO12-Pad14)*%
X150350000Y-105750000D03*
D25*
%TO.P,U1,15,GND*%
%TO.N,GND*%
X153380000Y-107000000D03*
%TO.P,U1,16,IO13*%
%TO.N,unconnected-(U1-IO13-Pad16)*%
X154650000Y-107000000D03*
%TO.P,U1,17,NC*%
%TO.N,unconnected-(U1-NC-Pad17)*%
X155920000Y-107000000D03*
%TO.P,U1,18,NC*%
%TO.N,unconnected-(U1-NC-Pad18)*%
X157190000Y-107000000D03*
%TO.P,U1,19,NC*%
%TO.N,unconnected-(U1-NC-Pad19)*%
X158460000Y-107000000D03*
%TO.P,U1,20,NC*%
%TO.N,unconnected-(U1-NC-Pad20)*%
X159730000Y-107000000D03*
%TO.P,U1,21,NC*%
%TO.N,unconnected-(U1-NC-Pad21)*%
X161000000Y-107000000D03*
%TO.P,U1,22,NC*%
%TO.N,unconnected-(U1-NC-Pad22)*%
X162270000Y-107000000D03*
%TO.P,U1,23,IO15*%
%TO.N,/IO15*%
X163540000Y-107000000D03*
%TO.P,U1,24,IO2*%
%TO.N,unconnected-(U1-IO2-Pad24)*%
X164810000Y-107000000D03*
D24*
%TO.P,U1,25,IO0*%
%TO.N,/IO0*%
X167850000Y-105750000D03*
%TO.P,U1,26,IO4*%
%TO.N,unconnected-(U1-IO4-Pad26)*%
X167850000Y-104480000D03*
%TO.P,U1,27,IO16*%
%TO.N,/IO16*%
X167850000Y-103210000D03*
%TO.P,U1,28,IO17*%
%TO.N,/IO17*%
X167850000Y-101940000D03*
%TO.P,U1,29,IO5*%
%TO.N,unconnected-(U1-IO5-Pad29)*%
X167850000Y-100670000D03*
%TO.P,U1,30,IO18*%
%TO.N,/IO18*%
X167850000Y-99400000D03*
%TO.P,U1,31,IO19*%
%TO.N,/IO19*%
X167850000Y-98130000D03*
%TO.P,U1,32,NC*%
%TO.N,unconnected-(U1-NC-Pad32)*%
X167850000Y-96860000D03*
%TO.P,U1,33,IO21*%
%TO.N,unconnected-(U1-IO21-Pad33)*%
X167850000Y-95590000D03*
%TO.P,U1,34,RXD0*%
%TO.N,/RXD0*%
X167850000Y-94320000D03*
%TO.P,U1,35,TXD0*%
%TO.N,/TXD0*%
X167850000Y-93050000D03*
%TO.P,U1,36,IO22*%
%TO.N,/IO22*%
X167850000Y-91780000D03*
%TO.P,U1,37,IO23*%
%TO.N,unconnected-(U1-IO23-Pad37)*%
X167850000Y-90510000D03*
%TO.P,U1,38,GND*%
%TO.N,GND*%
X167850000Y-89240000D03*
D26*
%TO.P,U1,39,GND*%
X156200000Y-95560000D03*
X156200000Y-95560000D03*
X156200000Y-96960000D03*
X156200000Y-98360000D03*
X156200000Y-98360000D03*
X157600000Y-95560000D03*
X157600000Y-96960000D03*
X157600000Y-98360000D03*
X157600000Y-98360000D03*
X159000000Y-95560000D03*
X159000000Y-96960000D03*
X159000000Y-98360000D03*
%TD*%
D13*
%TO.P,OUTN1,1,1*%
%TO.N,/PRE-OUTN*%
X150125000Y-109325000D03*
%TD*%
D27*
%TO.P,C2,1,1*%
%TO.N,GND*%
X142775000Y-88795000D03*
%TO.P,C2,2,2*%
%TO.N,+3.3V*%
X142775000Y-89655000D03*
%TD*%
D13*
%TO.P,3.3V1,1,1*%
%TO.N,+3.3V*%
X154350000Y-109300000D03*
%TD*%
D14*
%TO.P,C7,1*%
%TO.N,/OUTP*%
X146195000Y-108930000D03*
%TO.P,C7,2*%
%TO.N,GND*%
X145325000Y-108930000D03*
%TD*%
D28*
%TO.P,LED1,1,K*%
%TO.N,GND*%
X144015000Y-101080000D03*
%TO.P,LED1,2,A*%
%TO.N,Net-(LED1-A)*%
X145665000Y-101080000D03*
%TD*%
D29*
%TO.P,U3,1,DIN*%
%TO.N,/IO22*%
X147495000Y-103435000D03*
%TO.P,U3,2,GAIN_SLOT*%
%TO.N,GND*%
X146995000Y-103435000D03*
%TO.P,U3,3,GND*%
X146495000Y-103435000D03*
%TO.P,U3,4,SD_MODE*%
%TO.N,+3.3V*%
X145995000Y-103435000D03*
D30*
%TO.P,U3,5*%
%TO.N,N/C*%
X145310000Y-104120000D03*
%TO.P,U3,6*%
X145310000Y-104620000D03*
%TO.P,U3,7,VDD*%
%TO.N,+5V*%
X145310000Y-105120000D03*
%TO.P,U3,8,VDD__1*%
X145310000Y-105620000D03*
D29*
%TO.P,U3,9,OUTP*%
%TO.N,/PRE-OUTP*%
X145995000Y-106305000D03*
%TO.P,U3,10,OUTN*%
%TO.N,/PRE-OUTN*%
X146495000Y-106305000D03*
%TO.P,U3,11,GND__1*%
%TO.N,GND*%
X146995000Y-106305000D03*
%TO.P,U3,12*%
%TO.N,N/C*%
X147495000Y-106305000D03*
D30*
%TO.P,U3,13*%
X148180000Y-105620000D03*
%TO.P,U3,14,LRCLK*%
%TO.N,/IO14*%
X148180000Y-105120000D03*
%TO.P,U3,15,GND__2*%
%TO.N,GND*%
X148180000Y-104620000D03*
%TO.P,U3,16,BCLK*%
%TO.N,/IO15*%
X148180000Y-104120000D03*
D31*
%TO.P,U3,17,EP*%
%TO.N,GND*%
X146745000Y-104870000D03*
%TD*%
D14*
%TO.P,C4,1,1*%
%TO.N,GND*%
X144605000Y-99660000D03*
%TO.P,C4,2,2*%
%TO.N,+5V*%
X143735000Y-99660000D03*
%TD*%
D32*
%TO.P,U5,1,IN1*%
%TO.N,/IO19*%
X170035000Y-100409998D03*
%TO.P,U5,2,IN2*%
%TO.N,/IO18*%
X170035000Y-100910000D03*
%TO.P,U5,3,IN3*%
%TO.N,/IO17*%
X170035000Y-101409999D03*
%TO.P,U5,4,IN4*%
%TO.N,/IO16*%
X170035000Y-101909998D03*
%TO.P,U5,5,GND*%
%TO.N,GND*%
X170035000Y-102410000D03*
%TO.P,U5,6,COM*%
%TO.N,unconnected-(U5-COM-Pad6)*%
X172915000Y-102410001D03*
%TO.P,U5,7,OUT4*%
%TO.N,/OUTD*%
X172915000Y-101909999D03*
%TO.P,U5,8,OUT3*%
%TO.N,/OUTC*%
X172915000Y-101410000D03*
%TO.P,U5,9,OUT2*%
%TO.N,/OUTB*%
X172915000Y-100910001D03*
%TO.P,U5,10,OUT1*%
%TO.N,/OUTA*%
X172915000Y-100409999D03*
D33*
%TO.P,U5,11,EPAD*%
%TO.N,GND*%
X171475000Y-101410000D03*
%TD*%
D23*
%TO.P,FB1,1*%
%TO.N,/PRE-OUTP*%
X145318000Y-107700000D03*
%TO.P,FB1,2*%
%TO.N,/OUTP*%
X146222000Y-107700000D03*
%TD*%
D13*
%TO.P,IO17,1,1*%
%TO.N,/IO17*%
X165125000Y-109250000D03*
%TD*%
D17*
%TO.P,J7,2,2*%
%TO.N,/OUTN*%
X172820000Y-109440001D03*
%TO.P,J7,1,1*%
%TO.N,/OUTP*%
X172820000Y-107440000D03*
%TD*%
D34*
%TO.N,GND*%
X144250000Y-110250000D03*
X144100000Y-109000000D03*
%TO.N,/OUTN*%
X148250000Y-109700000D03*
%TO.N,/IO22*%
X153400000Y-102925000D03*
%TO.N,+3.3V*%
X148500000Y-97700000D03*
X152000000Y-98100000D03*
X151896878Y-105702942D03*
X153850000Y-110600000D03*
%TO.N,/IO14*%
X151500000Y-104480000D03*
X156250000Y-110550000D03*
%TO.N,/IO19*%
X158550000Y-110650000D03*
X163450000Y-103100000D03*
%TO.N,GND*%
X146800000Y-95650000D03*
X179025000Y-105025000D03*
X144550000Y-95825000D03*
X146775000Y-91200000D03*
X145275000Y-88600000D03*
X176725000Y-104225000D03*
%TO.N,+5V*%
X174000000Y-104200000D03*
X144200000Y-106100000D03*
X141865000Y-103665000D03*
X142800000Y-99600000D03*
X180600000Y-98500000D03*
%TO.N,/EN*%
X152010000Y-92750000D03*
X154200000Y-89400000D03*
X176035661Y-99035661D03*
%TO.N,/RXD0*%
X169500000Y-94250000D03*
X175500000Y-104250000D03*
%TO.N,/IO22*%
X148525000Y-102925000D03*
%TO.N,/IO15*%
X149046591Y-103867349D03*
X161175000Y-103850000D03*
%TO.N,/OUTC*%
X173800001Y-101458236D03*
%TO.N,/OUTD*%
X173829202Y-102340000D03*
%TD*%
D35*
%TO.N,GND*%
X144605000Y-100490000D02*
X144605000Y-99660000D01*
X144015000Y-101080000D02*
X144605000Y-100490000D01*
%TO.N,/IO22*%
X159162182Y-99060000D02*
X159590000Y-99060000D01*
X166125000Y-92525000D02*
X166125000Y-91825000D01*
X155297182Y-102925000D02*
X159162182Y-99060000D01*
X153400000Y-102925000D02*
X155297182Y-102925000D01*
X159590000Y-99060000D02*
X166125000Y-92525000D01*
%TO.N,/EN*%
X151210000Y-88400000D02*
X147555000Y-88400000D01*
X147555000Y-88400000D02*
X147555000Y-89395000D01*
X147555000Y-89395000D02*
X147585000Y-89425000D01*
X154200000Y-89400000D02*
X151210000Y-88400000D01*
%TO.N,GND*%
X144170000Y-108930000D02*
X144100000Y-109000000D01*
X145325000Y-108930000D02*
X144170000Y-108930000D01*
%TO.N,/OUTP*%
X170250000Y-110010000D02*
X172820000Y-107440000D01*
X170250000Y-111525000D02*
X170250000Y-110010000D01*
X142075001Y-111525000D02*
X170250000Y-111525000D01*
X138275000Y-107724999D02*
X142075001Y-111525000D01*
%TO.N,/OUTN*%
X148260000Y-109450000D02*
X148260000Y-109690000D01*
X148260000Y-109690000D02*
X148250000Y-109700000D01*
%TO.N,/IO22*%
X152225000Y-109300000D02*
X152225000Y-106455000D01*
X152225000Y-106455000D02*
X153400000Y-105280000D01*
X153400000Y-105280000D02*
X153400000Y-102925000D01*
%TO.N,+3.3V*%
X148210000Y-97990000D02*
X145700000Y-97990000D01*
X148500000Y-97700000D02*
X148210000Y-97990000D01*
X152050000Y-98150000D02*
X152000000Y-98100000D01*
X152050000Y-105549820D02*
X152050000Y-98150000D01*
X151896878Y-105702942D02*
X152050000Y-105549820D01*
X154350000Y-110100000D02*
X153850000Y-110600000D01*
X154350000Y-109300000D02*
X154350000Y-110100000D01*
%TO.N,/IO14*%
X151500000Y-104480000D02*
X150350000Y-104480000D01*
X156450000Y-110350000D02*
X156250000Y-110550000D01*
X156450000Y-109325000D02*
X156450000Y-110350000D01*
%TO.N,/IO19*%
X167420000Y-98130000D02*
X167850000Y-98130000D01*
X163450000Y-102100000D02*
X167420000Y-98130000D01*
X163450000Y-103100000D02*
X163450000Y-102100000D01*
X158675000Y-110525000D02*
X158550000Y-110650000D01*
X158675000Y-109325000D02*
X158675000Y-110525000D01*
%TO.N,/OUTN*%
X148260000Y-108950000D02*
X148260000Y-109450000D01*
%TO.N,/IO15*%
X163540000Y-107430000D02*
X163540000Y-107000000D01*
X161695000Y-109275000D02*
X163540000Y-107430000D01*
X160875000Y-109275000D02*
X161695000Y-109275000D01*
%TO.N,/IO18*%
X165650000Y-101170000D02*
X167420000Y-99400000D01*
X165650000Y-108000000D02*
X165650000Y-101170000D01*
X167420000Y-99400000D02*
X167850000Y-99400000D01*
X164275000Y-108000000D02*
X165650000Y-108000000D01*
X163000000Y-109275000D02*
X164275000Y-108000000D01*
%TO.N,/IO17*%
X167460000Y-101940000D02*
X167850000Y-101940000D01*
X166375001Y-103024999D02*
X167460000Y-101940000D01*
X166375001Y-107999999D02*
X166375001Y-103024999D01*
X165125000Y-109250000D02*
X166375001Y-107999999D01*
%TO.N,/IO16*%
X167440000Y-103210000D02*
X167850000Y-103210000D01*
X166725001Y-103924999D02*
X167440000Y-103210000D01*
X166725001Y-108750001D02*
X166725001Y-103924999D01*
X167225000Y-109250000D02*
X166725001Y-108750001D01*
%TO.N,/PRE-OUTN*%
X150125000Y-108513000D02*
X150125000Y-109325000D01*
X148762000Y-107150000D02*
X150125000Y-108513000D01*
X147908000Y-107150000D02*
X148762000Y-107150000D01*
X147358000Y-107700000D02*
X147908000Y-107150000D01*
%TO.N,/PRE-OUTP*%
X145018000Y-108000000D02*
X145318000Y-107700000D01*
X143350000Y-108000000D02*
X145018000Y-108000000D01*
%TO.N,GND*%
X146745000Y-103685000D02*
X146995000Y-103435000D01*
X178400000Y-101260000D02*
X177250000Y-102410000D01*
X138275000Y-92575000D02*
X141525000Y-95825000D01*
X146745000Y-104870000D02*
X146995000Y-104620000D01*
X143995000Y-88795000D02*
X144000000Y-88790000D01*
X146745000Y-104870000D02*
X146745000Y-103685000D01*
X177800000Y-100660000D02*
X177800000Y-99100000D01*
X146995000Y-105120000D02*
X146995000Y-106305000D01*
X177250000Y-102410000D02*
X177250000Y-103700000D01*
X141525000Y-95825000D02*
X144550000Y-95825000D01*
X146745000Y-104870000D02*
X146995000Y-105120000D01*
X142775000Y-88795000D02*
X143995000Y-88795000D01*
X146745000Y-103685000D02*
X146495000Y-103435000D01*
X146595000Y-88400000D02*
X145475000Y-88400000D01*
X146995000Y-104620000D02*
X148180000Y-104620000D01*
X178400000Y-101260000D02*
X177800000Y-100660000D01*
X177250000Y-103700000D02*
X176725000Y-104225000D01*
X145475000Y-88400000D02*
X145275000Y-88600000D01*
X179430000Y-101260000D02*
X178400000Y-101260000D01*
X138275000Y-92350000D02*
X138275000Y-92575000D01*
%TO.N,+5V*%
X141800000Y-103600000D02*
X141865000Y-103665000D01*
X145310000Y-105120000D02*
X145310000Y-105620000D01*
X143410000Y-91300000D02*
X139225001Y-91300000D01*
X144680000Y-105620000D02*
X144200000Y-106100000D01*
X173910000Y-104290000D02*
X174000000Y-104200000D01*
X172925000Y-104290000D02*
X173910000Y-104290000D01*
X143735000Y-99660000D02*
X142860000Y-99660000D01*
X180600000Y-98820000D02*
X180600000Y-98500000D01*
X179430000Y-99990000D02*
X180600000Y-98820000D01*
X145310000Y-105620000D02*
X144680000Y-105620000D01*
X143300000Y-103665000D02*
X141865000Y-103665000D01*
X139225001Y-91300000D02*
X138275000Y-90349999D01*
X142860000Y-99660000D02*
X142800000Y-99600000D01*
%TO.N,/OUTP*%
X146222000Y-108903000D02*
X146195000Y-108930000D01*
X140150001Y-109600000D02*
X138275000Y-107724999D01*
X146195000Y-108930000D02*
X146195000Y-109240000D01*
X146195000Y-109240000D02*
X145835000Y-109600000D01*
X146222000Y-107700000D02*
X146222000Y-108903000D01*
X145835000Y-109600000D02*
X140150001Y-109600000D01*
%TO.N,/OUTN*%
X148262000Y-107700000D02*
X148262000Y-108948000D01*
X148262000Y-108948000D02*
X148260000Y-108950000D01*
%TO.N,/PRE-OUTP*%
X145995000Y-106305000D02*
X145318000Y-106982000D01*
X145318000Y-106982000D02*
X145318000Y-107700000D01*
%TO.N,/PRE-OUTN*%
X146495000Y-106837000D02*
X147358000Y-107700000D01*
X146495000Y-106305000D02*
X146495000Y-106837000D01*
%TO.N,/IO0*%
X176445000Y-105590000D02*
X168010000Y-105590000D01*
X168010000Y-105590000D02*
X167850000Y-105750000D01*
X179430000Y-102605000D02*
X176445000Y-105590000D01*
X179430000Y-102530000D02*
X179430000Y-102605000D01*
%TO.N,/EN*%
X175630000Y-99990000D02*
X175630000Y-99441322D01*
X151040000Y-91780000D02*
X150350000Y-91780000D01*
X152010000Y-92750000D02*
X151040000Y-91780000D01*
X175630000Y-99441322D02*
X176035661Y-99035661D01*
%TO.N,/RXD0*%
X175630000Y-102530000D02*
X175630000Y-104120000D01*
X169500000Y-94250000D02*
X167920000Y-94250000D01*
X167920000Y-94250000D02*
X167850000Y-94320000D01*
X175630000Y-104120000D02*
X175500000Y-104250000D01*
%TO.N,/TXD0*%
X177250000Y-100645000D02*
X177225000Y-91900000D01*
X168220000Y-93050000D02*
X167850000Y-93050000D01*
X177225000Y-91900000D02*
X173159160Y-89500000D01*
X173159160Y-89500000D02*
X171770000Y-89500000D01*
X171770000Y-89500000D02*
X168220000Y-93050000D01*
X176635000Y-101260000D02*
X177250000Y-100645000D01*
X175630000Y-101260000D02*
X176635000Y-101260000D01*
%TO.N,/OUTA*%
X172897400Y-100409999D02*
X172897400Y-98779808D01*
X174000000Y-95690000D02*
X172830000Y-94520000D01*
X174000000Y-97677208D02*
X174000000Y-95690000D01*
X172897400Y-98779808D02*
X174000000Y-97677208D01*
%TO.N,/OUTB*%
X176000000Y-98222792D02*
X176000000Y-93690000D01*
X173784000Y-99641000D02*
X174425000Y-99000000D01*
X174425000Y-99000000D02*
X175222792Y-99000000D01*
X175222792Y-99000000D02*
X176000000Y-98222792D01*
X176000000Y-93690000D02*
X172830000Y-90520000D01*
X172897400Y-100910001D02*
X173556198Y-100910001D01*
X173784000Y-100682199D02*
X173784000Y-99641000D01*
X173556198Y-100910001D02*
X173784000Y-100682199D01*
%TO.N,Net-(LED1-A)*%
X147520000Y-101080000D02*
X147570000Y-101130000D01*
X145665000Y-101080000D02*
X147520000Y-101080000D01*
%TO.N,/IO14*%
X148180000Y-105120000D02*
X148640428Y-105120000D01*
X148640428Y-105120000D02*
X149280428Y-104480000D01*
X149280428Y-104480000D02*
X150350000Y-104480000D01*
%TO.N,/IO22*%
X148015000Y-103435000D02*
X148525000Y-102925000D01*
X166125000Y-91825000D02*
X167805000Y-91825000D01*
X167805000Y-91825000D02*
X167850000Y-91780000D01*
X147495000Y-103435000D02*
X148015000Y-103435000D01*
%TO.N,/IO15*%
X148793940Y-104120000D02*
X149046591Y-103867349D01*
X161175000Y-103850000D02*
X163540000Y-106215000D01*
X148180000Y-104120000D02*
X148793940Y-104120000D01*
X163540000Y-106215000D02*
X163540000Y-107000000D01*
%TO.N,/OUTC*%
X173800001Y-101458236D02*
X173751765Y-101410000D01*
X173751765Y-101410000D02*
X172897400Y-101410000D01*
%TO.N,/OUTD*%
X172897400Y-101909999D02*
X173399201Y-101909999D01*
X173399201Y-101909999D02*
X173829202Y-102340000D01*
%TO.N,/IO17*%
X169420800Y-101410000D02*
X168890800Y-101940000D01*
X168890800Y-101940000D02*
X167850000Y-101940000D01*
X170052600Y-101410000D02*
X169420800Y-101410000D01*
%TO.N,/IO19*%
X170052600Y-99222600D02*
X168960000Y-98130000D01*
X170052600Y-100409999D02*
X170052600Y-99222600D01*
X168960000Y-98130000D02*
X167850000Y-98130000D01*
%TO.N,/IO16*%
X168900000Y-102496486D02*
X168900000Y-102690000D01*
X168900000Y-102690000D02*
X168380000Y-103210000D01*
X170052600Y-101909999D02*
X169486487Y-101909999D01*
X168380000Y-103210000D02*
X167850000Y-103210000D01*
X169486487Y-101909999D02*
X168900000Y-102496486D01*
%TO.N,/IO18*%
X168900000Y-100416199D02*
X168900000Y-100050000D01*
X168250000Y-99400000D02*
X167850000Y-99400000D01*
X170052600Y-100910001D02*
X169393802Y-100910001D01*
X168900000Y-100050000D02*
X168250000Y-99400000D01*
X169393802Y-100910001D02*
X168900000Y-100416199D01*
%TO.N,+3.3V*%
X145700000Y-97990000D02*
X147320000Y-97990000D01*
X148465000Y-99780000D02*
X148465000Y-101105000D01*
X148100000Y-101780000D02*
X145750000Y-101780000D01*
X148465000Y-101105000D02*
X148440000Y-101130000D01*
X146575000Y-90200000D02*
X150040000Y-90200000D01*
X145700000Y-90200000D02*
X146575000Y-90200000D01*
X146565000Y-90190000D02*
X146565000Y-89425000D01*
X150040000Y-90200000D02*
X150350000Y-90510000D01*
X146575000Y-90200000D02*
X146565000Y-90190000D01*
X145700000Y-91300000D02*
X145700000Y-89965000D01*
X145700000Y-91300000D02*
X145700000Y-90200000D01*
X145700000Y-89965000D02*
X145435000Y-89700000D01*
X148465000Y-99135000D02*
X148465000Y-99780000D01*
X145700000Y-91300000D02*
X145700000Y-97990000D01*
X147320000Y-97990000D02*
X148465000Y-99135000D01*
X145435000Y-89700000D02*
X143855000Y-89700000D01*
X148150000Y-101420000D02*
X148150000Y-101730000D01*
X145750000Y-103190000D02*
X145995000Y-103435000D01*
X145750000Y-101780000D02*
X145750000Y-103190000D01*
X148440000Y-101130000D02*
X148150000Y-101420000D01*
X143995000Y-89655000D02*
X144000000Y-89660000D01*
X148150000Y-101730000D02*
X148100000Y-101780000D01*
X142775000Y-89655000D02*
X143995000Y-89655000D01*
%TD*%
%TA.AperFunction,Conductor*%
%TO.N,GND*%
G36*
X145927079Y-87620185D02*
G01*
X145972834Y-87672989D01*
X145982778Y-87742147D01*
X145953753Y-87805703D01*
X145947721Y-87812181D01*
X145925285Y-87834616D01*
X145925278Y-87834625D01*
X145842968Y-87973804D01*
X145842966Y-87973809D01*
X145797855Y-88129081D01*
X145797854Y-88129087D01*
X145796209Y-88149999D01*
X145796210Y-88150000D01*
X146451000Y-88150000D01*
X146518039Y-88169685D01*
X146563794Y-88222489D01*
X146575000Y-88274000D01*
X146575000Y-88526000D01*
X146555315Y-88593039D01*
X146502511Y-88638794D01*
X146451000Y-88650000D01*
X145796210Y-88650000D01*
X145797854Y-88670910D01*
X145842968Y-88826195D01*
X145925278Y-88965374D01*
X145925285Y-88965383D01*
X146045138Y-89085236D01*
X146042817Y-89087556D01*
X146074928Y-89132005D01*
X146080967Y-89189540D01*
X146079643Y-89199602D01*
X146079500Y-89200685D01*
X146079500Y-89620167D01*
X146059815Y-89687206D01*
X146007011Y-89732961D01*
X145937853Y-89742905D01*
X145874297Y-89713880D01*
X145867819Y-89707848D01*
X145619511Y-89459540D01*
X145619507Y-89459537D01*
X145616051Y-89457542D01*
X145616047Y-89457540D01*
X145583067Y-89438499D01*
X145550990Y-89419979D01*
X145525513Y-89413152D01*
X145474562Y-89399500D01*
X145474560Y-89399500D01*
X144889344Y-89399500D01*
X144822305Y-89379815D01*
X144776550Y-89327011D01*
X144766606Y-89257853D01*
X144773162Y-89232166D01*
X144793597Y-89177376D01*
X144793598Y-89177372D01*
X144799999Y-89117844D01*
X144800000Y-89117827D01*
X144800000Y-89040000D01*
X143678963Y-89040000D01*
X143674996Y-89042166D01*
X143648638Y-89045000D01*
X141984174Y-89045000D01*
X142023200Y-89179335D01*
X142105910Y-89319189D01*
X142105917Y-89319198D01*
X142220804Y-89434085D01*
X142226495Y-89438499D01*
X142267405Y-89495139D01*
X142274500Y-89536482D01*
X142274500Y-89822164D01*
X142281087Y-89872197D01*
X142281090Y-89872209D01*
X142332293Y-89982015D01*
X142332297Y-89982021D01*
X142417979Y-90067703D01*
X142417980Y-90067703D01*
X142417984Y-90067706D01*
X142527791Y-90118909D01*
X142527792Y-90118909D01*
X142527798Y-90118912D01*
X142577837Y-90125500D01*
X142972162Y-90125499D01*
X142972164Y-90125499D01*
X142986459Y-90123617D01*
X143022202Y-90118912D01*
X143022207Y-90118909D01*
X143022209Y-90118909D01*
X143132015Y-90067706D01*
X143132016Y-90067705D01*
X143132021Y-90067703D01*
X143207905Y-89991819D01*
X143269228Y-89958334D01*
X143295586Y-89955500D01*
X143402938Y-89955500D01*
X143469977Y-89975185D01*
X143506040Y-90010609D01*
X143555447Y-90084552D01*
X143621769Y-90128867D01*
X143621770Y-90128868D01*
X143680247Y-90140499D01*
X143680250Y-90140500D01*
X143680252Y-90140500D01*
X144319750Y-90140500D01*
X144319751Y-90140499D01*
X144334568Y-90137552D01*
X144378229Y-90128868D01*
X144378229Y-90128867D01*
X144378231Y-90128867D01*
X144444552Y-90084552D01*
X144463892Y-90055607D01*
X144517505Y-90010804D01*
X144566994Y-90000500D01*
X145259167Y-90000500D01*
X145326206Y-90020185D01*
X145346848Y-90036819D01*
X145363181Y-90053152D01*
X145396666Y-90114475D01*
X145399500Y-90140833D01*
X145399500Y-90320500D01*
X145379815Y-90387539D01*
X145327011Y-90433294D01*
X145284068Y-90442642D01*
X145284193Y-90443904D01*
X145278135Y-90444500D01*
X145199301Y-90460180D01*
X145109910Y-90519910D01*
X145050179Y-90609302D01*
X145034500Y-90688128D01*
X145034500Y-91911865D01*
X145050180Y-91990698D01*
X145053036Y-91994972D01*
X145109910Y-92080090D01*
X145163496Y-92115895D01*
X145199302Y-92139820D01*
X145226274Y-92145185D01*
X145278131Y-92155500D01*
X145278137Y-92155499D01*
X145284192Y-92156097D01*
X145284004Y-92158003D01*
X145342509Y-92175164D01*
X145388279Y-92227955D01*
X145399500Y-92279499D01*
X145399500Y-97010500D01*
X145379815Y-97077539D01*
X145327011Y-97123294D01*
X145275500Y-97134500D01*
X144133652Y-97134500D01*
X144133629Y-97134502D01*
X144108668Y-97137397D01*
X144108665Y-97137398D01*
X144006496Y-97182509D01*
X144006488Y-97182515D01*
X143927515Y-97261488D01*
X143927511Y-97261495D01*
X143882398Y-97363663D01*
X143882398Y-97363665D01*
X143879500Y-97388643D01*
X143879500Y-98591347D01*
X143879502Y-98591370D01*
X143882397Y-98616331D01*
X143882398Y-98616334D01*
X143927509Y-98718503D01*
X143927515Y-98718511D01*
X144006164Y-98797160D01*
X144039649Y-98858483D01*
X144034665Y-98928175D01*
X143992797Y-98984106D01*
X143967809Y-99002812D01*
X143887710Y-99109811D01*
X143831777Y-99151682D01*
X143788444Y-99159500D01*
X143435247Y-99159500D01*
X143376770Y-99171131D01*
X143376769Y-99171132D01*
X143310444Y-99215450D01*
X143307428Y-99218466D01*
X143246104Y-99251948D01*
X143176412Y-99246961D01*
X143139721Y-99221478D01*
X143137828Y-99223663D01*
X143131131Y-99217860D01*
X143131128Y-99217857D01*
X143010053Y-99140047D01*
X143010051Y-99140046D01*
X143010049Y-99140045D01*
X143010050Y-99140045D01*
X142871963Y-99099500D01*
X142871961Y-99099500D01*
X142728039Y-99099500D01*
X142728036Y-99099500D01*
X142589949Y-99140045D01*
X142468873Y-99217856D01*
X142468872Y-99217856D01*
X142468872Y-99217857D01*
X142463841Y-99223663D01*
X142374623Y-99326626D01*
X142374622Y-99326628D01*
X142314834Y-99457543D01*
X142294353Y-99600000D01*
X142314834Y-99742456D01*
X142371022Y-99865489D01*
X142374623Y-99873373D01*
X142468872Y-99982143D01*
X142589947Y-100059953D01*
X142589950Y-100059954D01*
X142589949Y-100059954D01*
X142728036Y-100100499D01*
X142728038Y-100100500D01*
X142728039Y-100100500D01*
X142871962Y-100100500D01*
X142871962Y-100100499D01*
X143010050Y-100059954D01*
X143010051Y-100059954D01*
X143010053Y-100059953D01*
X143096887Y-100004147D01*
X143163927Y-99984463D01*
X143230966Y-100004147D01*
X143267029Y-100039572D01*
X143310448Y-100104553D01*
X143311543Y-100105648D01*
X143313166Y-100108620D01*
X143317233Y-100114707D01*
X143316688Y-100115070D01*
X143345028Y-100166971D01*
X143340044Y-100236663D01*
X143298174Y-100292595D01*
X143257809Y-100322812D01*
X143171649Y-100437906D01*
X143171645Y-100437913D01*
X143121403Y-100572620D01*
X143121401Y-100572627D01*
X143115000Y-100632155D01*
X143115000Y-100830000D01*
X143891000Y-100830000D01*
X143958039Y-100849685D01*
X144003794Y-100902489D01*
X144015000Y-100954000D01*
X144015000Y-101080000D01*
X144141000Y-101080000D01*
X144208039Y-101099685D01*
X144253794Y-101152489D01*
X144265000Y-101204000D01*
X144265000Y-101980000D01*
X144462828Y-101980000D01*
X144462844Y-101979999D01*
X144522372Y-101973598D01*
X144522379Y-101973596D01*
X144657086Y-101923354D01*
X144657093Y-101923350D01*
X144772187Y-101837190D01*
X144772190Y-101837187D01*
X144858350Y-101722093D01*
X144858355Y-101722084D01*
X144890918Y-101634778D01*
X144932789Y-101578844D01*
X144998253Y-101554426D01*
X145066526Y-101569277D01*
X145110201Y-101609218D01*
X145120446Y-101624551D01*
X145186769Y-101668867D01*
X145186770Y-101668868D01*
X145245247Y-101680499D01*
X145245250Y-101680500D01*
X145245252Y-101680500D01*
X145325500Y-101680500D01*
X145392539Y-101700185D01*
X145438294Y-101752989D01*
X145449500Y-101804500D01*
X145449500Y-103229562D01*
X145463781Y-103282857D01*
X145469980Y-103305993D01*
X145469981Y-103305994D01*
X145479049Y-103321699D01*
X145488658Y-103338342D01*
X145495100Y-103349500D01*
X145509539Y-103374510D01*
X145623181Y-103488152D01*
X145656666Y-103549475D01*
X145659500Y-103575833D01*
X145659500Y-103660500D01*
X145639815Y-103727539D01*
X145587011Y-103773294D01*
X145535500Y-103784500D01*
X144900678Y-103784500D01*
X144832349Y-103798091D01*
X144754865Y-103849865D01*
X144703091Y-103927349D01*
X144689500Y-103995677D01*
X144689500Y-103995680D01*
X144689500Y-104244320D01*
X144689500Y-104244322D01*
X144689499Y-104244322D01*
X144703091Y-104312648D01*
X144707192Y-104322549D01*
X144714659Y-104392019D01*
X144707192Y-104417451D01*
X144703091Y-104427351D01*
X144689500Y-104495677D01*
X144689500Y-104495680D01*
X144689500Y-104744320D01*
X144689500Y-104744322D01*
X144689499Y-104744322D01*
X144703091Y-104812648D01*
X144707192Y-104822549D01*
X144714659Y-104892019D01*
X144707192Y-104917451D01*
X144703091Y-104927351D01*
X144689500Y-104995677D01*
X144689500Y-105211205D01*
X144669815Y-105278244D01*
X144617011Y-105323999D01*
X144597595Y-105330979D01*
X144590459Y-105332891D01*
X144564010Y-105339978D01*
X144495489Y-105379540D01*
X144495486Y-105379542D01*
X144311847Y-105563181D01*
X144250524Y-105596666D01*
X144224166Y-105599500D01*
X144128036Y-105599500D01*
X143989949Y-105640045D01*
X143868873Y-105717856D01*
X143774623Y-105826626D01*
X143774622Y-105826628D01*
X143714834Y-105957543D01*
X143694353Y-106100000D01*
X143714834Y-106242456D01*
X143758930Y-106339011D01*
X143774623Y-106373373D01*
X143868872Y-106482143D01*
X143989947Y-106559953D01*
X143989950Y-106559954D01*
X143989949Y-106559954D01*
X144128036Y-106600499D01*
X144128038Y-106600500D01*
X144128039Y-106600500D01*
X144271962Y-106600500D01*
X144271962Y-106600499D01*
X144410053Y-106559953D01*
X144531128Y-106482143D01*
X144625377Y-106373373D01*
X144685165Y-106242457D01*
X144705647Y-106100000D01*
X144704339Y-106090905D01*
X144714279Y-106021749D01*
X144739392Y-105985577D01*
X144744374Y-105980595D01*
X144805695Y-105947112D01*
X144856244Y-105946661D01*
X144883683Y-105952119D01*
X144900679Y-105955500D01*
X144900680Y-105955500D01*
X145535500Y-105955500D01*
X145602539Y-105975185D01*
X145648294Y-106027989D01*
X145659500Y-106079500D01*
X145659500Y-106164167D01*
X145639815Y-106231206D01*
X145623181Y-106251848D01*
X145077541Y-106797487D01*
X145077535Y-106797495D01*
X145037982Y-106866004D01*
X145037979Y-106866009D01*
X145024326Y-106916962D01*
X145020515Y-106931188D01*
X145017500Y-106942439D01*
X145017500Y-107126324D01*
X144997815Y-107193363D01*
X144962392Y-107229425D01*
X144923448Y-107255446D01*
X144879132Y-107321769D01*
X144879131Y-107321770D01*
X144867500Y-107380247D01*
X144867500Y-107575500D01*
X144847815Y-107642539D01*
X144795011Y-107688294D01*
X144743500Y-107699500D01*
X144058832Y-107699500D01*
X143991793Y-107679815D01*
X143956782Y-107645941D01*
X143954434Y-107642539D01*
X143878183Y-107532071D01*
X143750852Y-107419266D01*
X143750849Y-107419263D01*
X143600226Y-107340210D01*
X143435056Y-107299500D01*
X143264944Y-107299500D01*
X143099773Y-107340210D01*
X142949150Y-107419263D01*
X142821816Y-107532072D01*
X142725182Y-107672068D01*
X142664860Y-107831125D01*
X142664859Y-107831130D01*
X142644355Y-108000000D01*
X142664859Y-108168869D01*
X142664860Y-108168874D01*
X142725182Y-108327931D01*
X142779832Y-108407104D01*
X142821817Y-108467929D01*
X142906149Y-108542640D01*
X142949150Y-108580736D01*
X143099773Y-108659789D01*
X143099775Y-108659790D01*
X143264944Y-108700500D01*
X143435056Y-108700500D01*
X143600225Y-108659790D01*
X143694611Y-108610252D01*
X143750849Y-108580736D01*
X143750850Y-108580734D01*
X143750852Y-108580734D01*
X143878183Y-108467929D01*
X143956782Y-108354058D01*
X144011065Y-108310069D01*
X144058832Y-108300500D01*
X144455656Y-108300500D01*
X144522695Y-108320185D01*
X144568450Y-108372989D01*
X144578394Y-108442147D01*
X144571838Y-108467834D01*
X144551402Y-108522623D01*
X144551401Y-108522627D01*
X144545000Y-108582155D01*
X144545000Y-108680000D01*
X145201000Y-108680000D01*
X145268039Y-108699685D01*
X145313794Y-108752489D01*
X145325000Y-108804000D01*
X145325000Y-109056000D01*
X145305315Y-109123039D01*
X145252511Y-109168794D01*
X145201000Y-109180000D01*
X144545000Y-109180000D01*
X144543129Y-109181870D01*
X144525315Y-109242539D01*
X144472511Y-109288294D01*
X144421000Y-109299500D01*
X140325834Y-109299500D01*
X140258795Y-109279815D01*
X140238153Y-109263181D01*
X139116163Y-108141191D01*
X139082678Y-108079868D01*
X139085912Y-108015196D01*
X139121726Y-107904976D01*
X139140642Y-107724999D01*
X139121726Y-107545022D01*
X139065803Y-107372911D01*
X138975319Y-107216187D01*
X138950334Y-107188438D01*
X138854233Y-107081706D01*
X138854230Y-107081704D01*
X138854229Y-107081703D01*
X138854228Y-107081702D01*
X138741775Y-107000000D01*
X138707819Y-106975329D01*
X138569361Y-106913685D01*
X138542498Y-106901725D01*
X138542496Y-106901724D01*
X138542495Y-106901724D01*
X138365484Y-106864099D01*
X138184516Y-106864099D01*
X138007504Y-106901724D01*
X137842180Y-106975329D01*
X137695769Y-107081704D01*
X137695766Y-107081706D01*
X137574681Y-107216186D01*
X137484196Y-107372913D01*
X137484194Y-107372917D01*
X137428275Y-107545018D01*
X137428274Y-107545022D01*
X137409358Y-107724999D01*
X137428274Y-107904976D01*
X137428275Y-107904979D01*
X137484194Y-108077080D01*
X137484196Y-108077084D01*
X137484197Y-108077087D01*
X137552383Y-108195189D01*
X137574681Y-108233811D01*
X137695766Y-108368291D01*
X137695769Y-108368293D01*
X137695772Y-108368296D01*
X137797419Y-108442147D01*
X137842180Y-108474668D01*
X137905642Y-108502922D01*
X138007502Y-108548273D01*
X138184516Y-108585899D01*
X138365484Y-108585899D01*
X138542498Y-108548273D01*
X138549642Y-108545092D01*
X138555151Y-108542640D01*
X138624401Y-108533355D01*
X138687677Y-108562983D01*
X138693268Y-108568238D01*
X141537849Y-111412819D01*
X141571334Y-111474142D01*
X141566350Y-111543834D01*
X141524478Y-111599767D01*
X141459014Y-111624184D01*
X141450168Y-111624500D01*
X130324500Y-111624500D01*
X130257461Y-111604815D01*
X130211706Y-111552011D01*
X130200500Y-111500500D01*
X130200500Y-109725000D01*
X137409358Y-109725000D01*
X137428274Y-109904977D01*
X137428275Y-109904980D01*
X137484194Y-110077081D01*
X137484196Y-110077085D01*
X137484197Y-110077088D01*
X137574681Y-110233812D01*
X137695766Y-110368292D01*
X137695769Y-110368294D01*
X137695772Y-110368297D01*
X137784948Y-110433087D01*
X137842180Y-110474669D01*
X137905642Y-110502923D01*
X138007502Y-110548274D01*
X138184516Y-110585900D01*
X138365484Y-110585900D01*
X138542498Y-110548274D01*
X138707821Y-110474668D01*
X138854228Y-110368297D01*
X138975319Y-110233812D01*
X139065803Y-110077088D01*
X139121726Y-109904977D01*
X139140642Y-109725000D01*
X139121726Y-109545023D01*
X139065803Y-109372912D01*
X138975319Y-109216188D01*
X138942735Y-109180000D01*
X138854233Y-109081707D01*
X138854230Y-109081705D01*
X138854229Y-109081704D01*
X138854228Y-109081703D01*
X138768963Y-109019754D01*
X138707819Y-108975330D01*
X138580894Y-108918820D01*
X138542498Y-108901726D01*
X138542496Y-108901725D01*
X138542495Y-108901725D01*
X138365484Y-108864100D01*
X138184516Y-108864100D01*
X138007504Y-108901725D01*
X137842180Y-108975330D01*
X137695769Y-109081705D01*
X137695766Y-109081707D01*
X137574681Y-109216187D01*
X137484196Y-109372914D01*
X137484194Y-109372918D01*
X137437878Y-109515464D01*
X137428274Y-109545023D01*
X137409358Y-109725000D01*
X130200500Y-109725000D01*
X130200500Y-104471153D01*
X135374500Y-104471153D01*
X135374500Y-104628846D01*
X135405261Y-104783489D01*
X135405264Y-104783501D01*
X135465602Y-104929172D01*
X135465609Y-104929185D01*
X135553210Y-105060288D01*
X135553213Y-105060292D01*
X135664707Y-105171786D01*
X135664711Y-105171789D01*
X135795814Y-105259390D01*
X135795827Y-105259397D01*
X135941498Y-105319735D01*
X135941503Y-105319737D01*
X136043261Y-105339978D01*
X136096153Y-105350499D01*
X136096156Y-105350500D01*
X136096158Y-105350500D01*
X136253844Y-105350500D01*
X136253845Y-105350499D01*
X136408497Y-105319737D01*
X136554179Y-105259394D01*
X136685289Y-105171789D01*
X136796789Y-105060289D01*
X136884394Y-104929179D01*
X136911871Y-104862844D01*
X142500000Y-104862844D01*
X142506401Y-104922372D01*
X142506403Y-104922379D01*
X142556645Y-105057086D01*
X142556649Y-105057093D01*
X142642809Y-105172187D01*
X142642812Y-105172190D01*
X142757906Y-105258350D01*
X142757913Y-105258354D01*
X142892620Y-105308596D01*
X142892627Y-105308598D01*
X142952155Y-105314999D01*
X142952172Y-105315000D01*
X143050000Y-105315000D01*
X143550000Y-105315000D01*
X143647828Y-105315000D01*
X143647844Y-105314999D01*
X143707372Y-105308598D01*
X143707379Y-105308596D01*
X143842086Y-105258354D01*
X143842093Y-105258350D01*
X143957187Y-105172190D01*
X143957190Y-105172187D01*
X144043350Y-105057093D01*
X144043354Y-105057086D01*
X144093596Y-104922379D01*
X144093598Y-104922372D01*
X144099999Y-104862844D01*
X144100000Y-104862827D01*
X144100000Y-104785000D01*
X143550000Y-104785000D01*
X143550000Y-105315000D01*
X143050000Y-105315000D01*
X143050000Y-104785000D01*
X142500000Y-104785000D01*
X142500000Y-104862844D01*
X136911871Y-104862844D01*
X136944737Y-104783497D01*
X136975500Y-104628842D01*
X136975500Y-104471158D01*
X136975500Y-104471155D01*
X136975499Y-104471153D01*
X136954633Y-104366255D01*
X136944737Y-104316503D01*
X136914838Y-104244320D01*
X136884397Y-104170827D01*
X136884390Y-104170814D01*
X136796789Y-104039711D01*
X136796786Y-104039707D01*
X136685292Y-103928213D01*
X136685288Y-103928210D01*
X136554185Y-103840609D01*
X136554172Y-103840602D01*
X136408501Y-103780264D01*
X136408489Y-103780261D01*
X136253845Y-103749500D01*
X136253842Y-103749500D01*
X136096158Y-103749500D01*
X136096155Y-103749500D01*
X135941510Y-103780261D01*
X135941498Y-103780264D01*
X135795827Y-103840602D01*
X135795814Y-103840609D01*
X135664711Y-103928210D01*
X135664707Y-103928213D01*
X135553213Y-104039707D01*
X135553210Y-104039711D01*
X135465609Y-104170814D01*
X135465602Y-104170827D01*
X135405264Y-104316498D01*
X135405261Y-104316510D01*
X135374500Y-104471153D01*
X130200500Y-104471153D01*
X130200500Y-103050000D01*
X137415793Y-103050000D01*
X137434569Y-103228640D01*
X137489106Y-103396491D01*
X137490075Y-103399471D01*
X137579887Y-103555029D01*
X137700078Y-103688515D01*
X137845396Y-103794095D01*
X138009490Y-103867154D01*
X138185188Y-103904500D01*
X138364812Y-103904500D01*
X138540510Y-103867154D01*
X138704604Y-103794095D01*
X138849922Y-103688515D01*
X138871095Y-103665000D01*
X141359353Y-103665000D01*
X141379834Y-103807456D01*
X141428443Y-103913892D01*
X141439623Y-103938373D01*
X141533872Y-104047143D01*
X141654947Y-104124953D01*
X141654950Y-104124954D01*
X141654949Y-104124954D01*
X141793036Y-104165499D01*
X141793038Y-104165500D01*
X141793039Y-104165500D01*
X141936962Y-104165500D01*
X141936962Y-104165499D01*
X142075053Y-104124953D01*
X142196128Y-104047143D01*
X142229788Y-104008296D01*
X142288567Y-103970523D01*
X142323501Y-103965500D01*
X142395737Y-103965500D01*
X142462776Y-103985185D01*
X142508531Y-104037989D01*
X142518475Y-104107147D01*
X142511918Y-104132835D01*
X142506403Y-104147619D01*
X142506401Y-104147627D01*
X142500000Y-104207155D01*
X142500000Y-104285000D01*
X144100000Y-104285000D01*
X144100000Y-104207172D01*
X144099999Y-104207155D01*
X144093598Y-104147627D01*
X144093596Y-104147620D01*
X144043354Y-104012913D01*
X144043350Y-104012906D01*
X143957190Y-103897812D01*
X143850188Y-103817709D01*
X143808318Y-103761775D01*
X143800500Y-103718443D01*
X143800500Y-103365249D01*
X143800499Y-103365247D01*
X143788868Y-103306770D01*
X143788867Y-103306769D01*
X143744552Y-103240447D01*
X143678230Y-103196132D01*
X143678229Y-103196131D01*
X143619752Y-103184500D01*
X143619748Y-103184500D01*
X142980252Y-103184500D01*
X142980247Y-103184500D01*
X142921770Y-103196131D01*
X142921769Y-103196132D01*
X142855447Y-103240447D01*
X142809381Y-103309391D01*
X142755769Y-103354196D01*
X142706279Y-103364500D01*
X142323501Y-103364500D01*
X142256462Y-103344815D01*
X142229788Y-103321703D01*
X142220514Y-103311000D01*
X142196128Y-103282857D01*
X142075053Y-103205047D01*
X142075051Y-103205046D01*
X142075049Y-103205045D01*
X142075050Y-103205045D01*
X141936963Y-103164500D01*
X141936961Y-103164500D01*
X141793039Y-103164500D01*
X141793036Y-103164500D01*
X141654949Y-103205045D01*
X141533873Y-103282856D01*
X141439623Y-103391626D01*
X141439622Y-103391628D01*
X141379834Y-103522543D01*
X141359353Y-103665000D01*
X138871095Y-103665000D01*
X138970113Y-103555029D01*
X139059925Y-103399471D01*
X139115431Y-103228639D01*
X139134207Y-103050000D01*
X139115431Y-102871361D01*
X139059925Y-102700529D01*
X138970113Y-102544971D01*
X138849922Y-102411485D01*
X138704604Y-102305905D01*
X138540510Y-102232846D01*
X138540508Y-102232845D01*
X138364812Y-102195500D01*
X138185188Y-102195500D01*
X138009490Y-102232845D01*
X138009485Y-102232847D01*
X137845397Y-102305905D01*
X137845392Y-102305907D01*
X137700079Y-102411483D01*
X137700072Y-102411489D01*
X137579886Y-102544972D01*
X137490074Y-102700530D01*
X137434569Y-102871359D01*
X137415793Y-103050000D01*
X130200500Y-103050000D01*
X130200500Y-101050000D01*
X137415793Y-101050000D01*
X137434569Y-101228640D01*
X137481763Y-101373891D01*
X137490075Y-101399471D01*
X137579887Y-101555029D01*
X137700078Y-101688515D01*
X137845396Y-101794095D01*
X138009490Y-101867154D01*
X138185188Y-101904500D01*
X138364812Y-101904500D01*
X138540510Y-101867154D01*
X138704604Y-101794095D01*
X138849922Y-101688515D01*
X138970113Y-101555029D01*
X138985808Y-101527844D01*
X143115000Y-101527844D01*
X143121401Y-101587372D01*
X143121403Y-101587379D01*
X143171645Y-101722086D01*
X143171649Y-101722093D01*
X143257809Y-101837187D01*
X143257812Y-101837190D01*
X143372906Y-101923350D01*
X143372913Y-101923354D01*
X143507620Y-101973596D01*
X143507627Y-101973598D01*
X143567155Y-101979999D01*
X143567172Y-101980000D01*
X143765000Y-101980000D01*
X143765000Y-101330000D01*
X143115000Y-101330000D01*
X143115000Y-101527844D01*
X138985808Y-101527844D01*
X139059925Y-101399471D01*
X139115431Y-101228639D01*
X139134207Y-101050000D01*
X139115431Y-100871361D01*
X139059925Y-100700529D01*
X138970113Y-100544971D01*
X138849922Y-100411485D01*
X138704604Y-100305905D01*
X138540510Y-100232846D01*
X138540508Y-100232845D01*
X138364812Y-100195500D01*
X138185188Y-100195500D01*
X138009490Y-100232845D01*
X138009485Y-100232847D01*
X137845397Y-100305905D01*
X137845392Y-100305907D01*
X137700079Y-100411483D01*
X137700072Y-100411489D01*
X137579886Y-100544972D01*
X137490074Y-100700530D01*
X137434569Y-100871359D01*
X137415793Y-101050000D01*
X130200500Y-101050000D01*
X130200500Y-99050000D01*
X137415793Y-99050000D01*
X137434569Y-99228640D01*
X137489737Y-99398433D01*
X137490075Y-99399471D01*
X137579887Y-99555029D01*
X137700078Y-99688515D01*
X137845396Y-99794095D01*
X138009490Y-99867154D01*
X138185188Y-99904500D01*
X138364812Y-99904500D01*
X138540510Y-99867154D01*
X138704604Y-99794095D01*
X138849922Y-99688515D01*
X138970113Y-99555029D01*
X139059925Y-99399471D01*
X139115431Y-99228639D01*
X139134207Y-99050000D01*
X139115431Y-98871361D01*
X139059925Y-98700529D01*
X138970113Y-98544971D01*
X138849922Y-98411485D01*
X138704604Y-98305905D01*
X138540510Y-98232846D01*
X138540508Y-98232845D01*
X138364812Y-98195500D01*
X138185188Y-98195500D01*
X138009490Y-98232845D01*
X138009485Y-98232847D01*
X137845397Y-98305905D01*
X137845392Y-98305907D01*
X137700079Y-98411483D01*
X137700072Y-98411489D01*
X137579886Y-98544972D01*
X137490074Y-98700530D01*
X137434569Y-98871359D01*
X137415793Y-99050000D01*
X130200500Y-99050000D01*
X130200500Y-96376247D01*
X137420500Y-96376247D01*
X137420500Y-97723752D01*
X137432131Y-97782229D01*
X137432132Y-97782230D01*
X137476447Y-97848552D01*
X137542769Y-97892867D01*
X137542770Y-97892868D01*
X137601247Y-97904499D01*
X137601250Y-97904500D01*
X137601252Y-97904500D01*
X138948750Y-97904500D01*
X138948751Y-97904499D01*
X138963568Y-97901552D01*
X139007229Y-97892868D01*
X139007229Y-97892867D01*
X139007231Y-97892867D01*
X139073552Y-97848552D01*
X139117867Y-97782231D01*
X139117867Y-97782229D01*
X139117868Y-97782229D01*
X139129499Y-97723752D01*
X139129500Y-97723750D01*
X139129500Y-96376249D01*
X139129499Y-96376247D01*
X139117868Y-96317770D01*
X139117867Y-96317769D01*
X139073552Y-96251447D01*
X139007230Y-96207132D01*
X139007229Y-96207131D01*
X138948752Y-96195500D01*
X138948748Y-96195500D01*
X137601252Y-96195500D01*
X137601247Y-96195500D01*
X137542770Y-96207131D01*
X137542769Y-96207132D01*
X137476447Y-96251447D01*
X137432132Y-96317769D01*
X137432131Y-96317770D01*
X137420500Y-96376247D01*
X130200500Y-96376247D01*
X130200500Y-95471153D01*
X135374500Y-95471153D01*
X135374500Y-95628846D01*
X135405261Y-95783489D01*
X135405264Y-95783501D01*
X135465602Y-95929172D01*
X135465609Y-95929185D01*
X135553210Y-96060288D01*
X135553213Y-96060292D01*
X135664707Y-96171786D01*
X135664711Y-96171789D01*
X135795814Y-96259390D01*
X135795827Y-96259397D01*
X135901902Y-96303334D01*
X135941503Y-96319737D01*
X136096153Y-96350499D01*
X136096156Y-96350500D01*
X136096158Y-96350500D01*
X136253844Y-96350500D01*
X136253845Y-96350499D01*
X136408497Y-96319737D01*
X136554179Y-96259394D01*
X136685289Y-96171789D01*
X136796789Y-96060289D01*
X136884394Y-95929179D01*
X136944737Y-95783497D01*
X136975500Y-95628842D01*
X136975500Y-95471158D01*
X136975500Y-95471155D01*
X136975499Y-95471153D01*
X136950010Y-95343013D01*
X136944737Y-95316503D01*
X136914744Y-95244093D01*
X136884397Y-95170827D01*
X136884390Y-95170814D01*
X136796789Y-95039711D01*
X136796786Y-95039707D01*
X136685292Y-94928213D01*
X136685288Y-94928210D01*
X136554185Y-94840609D01*
X136554172Y-94840602D01*
X136408501Y-94780264D01*
X136408489Y-94780261D01*
X136253845Y-94749500D01*
X136253842Y-94749500D01*
X136096158Y-94749500D01*
X136096155Y-94749500D01*
X135941510Y-94780261D01*
X135941498Y-94780264D01*
X135795827Y-94840602D01*
X135795814Y-94840609D01*
X135664711Y-94928210D01*
X135664707Y-94928213D01*
X135553213Y-95039707D01*
X135553210Y-95039711D01*
X135465609Y-95170814D01*
X135465602Y-95170827D01*
X135405264Y-95316498D01*
X135405261Y-95316510D01*
X135374500Y-95471153D01*
X130200500Y-95471153D01*
X130200500Y-92350000D01*
X137109629Y-92350000D01*
X137129471Y-92564131D01*
X137188325Y-92770984D01*
X137284182Y-92963489D01*
X137294410Y-92977034D01*
X137294411Y-92977035D01*
X137868600Y-92402846D01*
X137868600Y-92403504D01*
X137896295Y-92506865D01*
X137949799Y-92599536D01*
X138025464Y-92675201D01*
X138118135Y-92728705D01*
X138221496Y-92756400D01*
X138222153Y-92756400D01*
X137650437Y-93328114D01*
X137755551Y-93393197D01*
X137956083Y-93470883D01*
X138167475Y-93510400D01*
X138382525Y-93510400D01*
X138593916Y-93470883D01*
X138593926Y-93470880D01*
X138794450Y-93393197D01*
X138794452Y-93393196D01*
X138899561Y-93328114D01*
X138327848Y-92756400D01*
X138328504Y-92756400D01*
X138431865Y-92728705D01*
X138524536Y-92675201D01*
X138600201Y-92599536D01*
X138653705Y-92506865D01*
X138681400Y-92403504D01*
X138681400Y-92402846D01*
X139255587Y-92977035D01*
X139265816Y-92963491D01*
X139361674Y-92770984D01*
X139420528Y-92564131D01*
X139440370Y-92350000D01*
X139420528Y-92135868D01*
X139361674Y-91929015D01*
X139287360Y-91779772D01*
X139275099Y-91710986D01*
X139301972Y-91646491D01*
X139359448Y-91606764D01*
X139398360Y-91600500D01*
X142620501Y-91600500D01*
X142687540Y-91620185D01*
X142733295Y-91672989D01*
X142744501Y-91724500D01*
X142744501Y-91911868D01*
X142756260Y-91970989D01*
X142760180Y-91990698D01*
X142763036Y-91994972D01*
X142819910Y-92080090D01*
X142873496Y-92115895D01*
X142909302Y-92139820D01*
X142935340Y-92144999D01*
X142988131Y-92155500D01*
X143831868Y-92155499D01*
X143910697Y-92139820D01*
X144000090Y-92080090D01*
X144059820Y-91990697D01*
X144075500Y-91911869D01*
X144075499Y-90688132D01*
X144059820Y-90609303D01*
X144000090Y-90519910D01*
X143964283Y-90495985D01*
X143910697Y-90460179D01*
X143831871Y-90444500D01*
X142988134Y-90444500D01*
X142909301Y-90460180D01*
X142819910Y-90519910D01*
X142760179Y-90609302D01*
X142744500Y-90688128D01*
X142744500Y-90875500D01*
X142724815Y-90942539D01*
X142672011Y-90988294D01*
X142620500Y-90999500D01*
X139400834Y-90999500D01*
X139333795Y-90979815D01*
X139313153Y-90963181D01*
X139116163Y-90766191D01*
X139082678Y-90704868D01*
X139085912Y-90640196D01*
X139121726Y-90529976D01*
X139140642Y-90349999D01*
X139121726Y-90170022D01*
X139065803Y-89997911D01*
X138975319Y-89841187D01*
X138939441Y-89801340D01*
X138854233Y-89706706D01*
X138854230Y-89706704D01*
X138854229Y-89706703D01*
X138854228Y-89706702D01*
X138775243Y-89649316D01*
X138707819Y-89600329D01*
X138571643Y-89539701D01*
X138542498Y-89526725D01*
X138542496Y-89526724D01*
X138542495Y-89526724D01*
X138365484Y-89489099D01*
X138184516Y-89489099D01*
X138007504Y-89526724D01*
X137842180Y-89600329D01*
X137695769Y-89706704D01*
X137695766Y-89706706D01*
X137574681Y-89841186D01*
X137522201Y-89932086D01*
X137485895Y-89994971D01*
X137484196Y-89997913D01*
X137484194Y-89997917D01*
X137434607Y-90150530D01*
X137428274Y-90170022D01*
X137409358Y-90349999D01*
X137428274Y-90529976D01*
X137428275Y-90529979D01*
X137484194Y-90702080D01*
X137484196Y-90702084D01*
X137484197Y-90702087D01*
X137538669Y-90796436D01*
X137574681Y-90858811D01*
X137695766Y-90993291D01*
X137695773Y-90993297D01*
X137813912Y-91079130D01*
X137856578Y-91134460D01*
X137862557Y-91204073D01*
X137829951Y-91265868D01*
X137785822Y-91295074D01*
X137755557Y-91306798D01*
X137755553Y-91306800D01*
X137650437Y-91371884D01*
X138222154Y-91943600D01*
X138221496Y-91943600D01*
X138118135Y-91971295D01*
X138025464Y-92024799D01*
X137949799Y-92100464D01*
X137896295Y-92193135D01*
X137868600Y-92296496D01*
X137868600Y-92297153D01*
X137294411Y-91722964D01*
X137284179Y-91736515D01*
X137188325Y-91929015D01*
X137129471Y-92135868D01*
X137109629Y-92350000D01*
X130200500Y-92350000D01*
X130200500Y-88545000D01*
X141984174Y-88545000D01*
X142525000Y-88545000D01*
X142525000Y-88027216D01*
X142524999Y-88027215D01*
X143025000Y-88027215D01*
X143025000Y-88545000D01*
X143096037Y-88545000D01*
X143100004Y-88542834D01*
X143126362Y-88540000D01*
X143750000Y-88540000D01*
X144250000Y-88540000D01*
X144800000Y-88540000D01*
X144800000Y-88462172D01*
X144799999Y-88462155D01*
X144793598Y-88402627D01*
X144793596Y-88402620D01*
X144743354Y-88267913D01*
X144743350Y-88267906D01*
X144657190Y-88152812D01*
X144657187Y-88152809D01*
X144542093Y-88066649D01*
X144542086Y-88066645D01*
X144407379Y-88016403D01*
X144407372Y-88016401D01*
X144347844Y-88010000D01*
X144250000Y-88010000D01*
X144250000Y-88540000D01*
X143750000Y-88540000D01*
X143750000Y-88010000D01*
X143652155Y-88010000D01*
X143592627Y-88016401D01*
X143592620Y-88016403D01*
X143457913Y-88066645D01*
X143457906Y-88066649D01*
X143400710Y-88109466D01*
X143335246Y-88133883D01*
X143266973Y-88119031D01*
X143263279Y-88116931D01*
X143189336Y-88073201D01*
X143189331Y-88073199D01*
X143033307Y-88027870D01*
X143033302Y-88027869D01*
X143025000Y-88027215D01*
X142524999Y-88027215D01*
X142516697Y-88027869D01*
X142516692Y-88027870D01*
X142360668Y-88073199D01*
X142360663Y-88073201D01*
X142220810Y-88155910D01*
X142220801Y-88155917D01*
X142105917Y-88270801D01*
X142105910Y-88270810D01*
X142023200Y-88410664D01*
X141984174Y-88545000D01*
X130200500Y-88545000D01*
X130200500Y-87724500D01*
X130220185Y-87657461D01*
X130272989Y-87611706D01*
X130324500Y-87600500D01*
X145860040Y-87600500D01*
X145927079Y-87620185D01*
G37*
%TD.AperFunction*%
%TA.AperFunction,Conductor*%
G36*
X180845899Y-103131444D02*
G01*
X180901077Y-103174306D01*
X180924322Y-103240196D01*
X180924500Y-103246834D01*
X180924500Y-111500500D01*
X180904815Y-111567539D01*
X180852011Y-111613294D01*
X180800500Y-111624500D01*
X170674500Y-111624500D01*
X170607461Y-111604815D01*
X170561706Y-111552011D01*
X170550500Y-111500500D01*
X170550500Y-110185832D01*
X170570185Y-110118793D01*
X170586814Y-110098156D01*
X171244969Y-109440001D01*
X171954358Y-109440001D01*
X171973274Y-109619978D01*
X171973275Y-109619981D01*
X172029194Y-109792082D01*
X172029196Y-109792086D01*
X172029197Y-109792089D01*
X172094374Y-109904980D01*
X172119681Y-109948813D01*
X172240766Y-110083293D01*
X172240769Y-110083295D01*
X172240772Y-110083298D01*
X172346280Y-110159954D01*
X172387180Y-110189670D01*
X172446293Y-110215988D01*
X172552502Y-110263275D01*
X172729516Y-110300901D01*
X172910484Y-110300901D01*
X173087498Y-110263275D01*
X173252821Y-110189669D01*
X173399228Y-110083298D01*
X173404823Y-110077085D01*
X173447588Y-110029589D01*
X173520319Y-109948813D01*
X173610803Y-109792089D01*
X173666726Y-109619978D01*
X173685642Y-109440001D01*
X173666726Y-109260024D01*
X173610803Y-109087913D01*
X173520319Y-108931189D01*
X173512106Y-108922068D01*
X173399233Y-108796708D01*
X173399230Y-108796706D01*
X173399229Y-108796705D01*
X173399228Y-108796704D01*
X173292640Y-108719263D01*
X173252819Y-108690331D01*
X173117869Y-108630249D01*
X173087498Y-108616727D01*
X173087496Y-108616726D01*
X173087495Y-108616726D01*
X172910484Y-108579101D01*
X172729516Y-108579101D01*
X172552504Y-108616726D01*
X172387180Y-108690331D01*
X172240769Y-108796706D01*
X172240766Y-108796708D01*
X172119681Y-108931188D01*
X172029196Y-109087915D01*
X172029194Y-109087919D01*
X171987517Y-109216188D01*
X171973274Y-109260024D01*
X171954358Y-109440001D01*
X171244969Y-109440001D01*
X172401733Y-108283236D01*
X172463054Y-108249753D01*
X172532746Y-108254737D01*
X172539838Y-108257636D01*
X172552502Y-108263274D01*
X172729516Y-108300900D01*
X172910484Y-108300900D01*
X173087498Y-108263274D01*
X173252821Y-108189668D01*
X173399228Y-108083297D01*
X173402316Y-108079868D01*
X173439485Y-108038586D01*
X173520319Y-107948812D01*
X173610803Y-107792088D01*
X173666726Y-107619977D01*
X173685642Y-107440000D01*
X173666726Y-107260023D01*
X173610803Y-107087912D01*
X173520319Y-106931188D01*
X173500826Y-106909539D01*
X173399233Y-106796707D01*
X173399230Y-106796705D01*
X173399229Y-106796704D01*
X173399228Y-106796703D01*
X173285838Y-106714320D01*
X173252819Y-106690330D01*
X173125894Y-106633820D01*
X173087498Y-106616726D01*
X173087496Y-106616725D01*
X173087495Y-106616725D01*
X172910484Y-106579100D01*
X172729516Y-106579100D01*
X172552504Y-106616725D01*
X172387180Y-106690330D01*
X172240769Y-106796705D01*
X172240766Y-106796707D01*
X172119681Y-106931187D01*
X172029196Y-107087914D01*
X172029194Y-107087918D01*
X171973275Y-107260019D01*
X171973274Y-107260023D01*
X171954358Y-107440000D01*
X171973274Y-107619977D01*
X171973275Y-107619980D01*
X172009085Y-107730193D01*
X172011080Y-107800034D01*
X171978835Y-107856192D01*
X170065489Y-109769540D01*
X170009541Y-109825487D01*
X170009535Y-109825495D01*
X169969982Y-109894004D01*
X169969979Y-109894009D01*
X169961613Y-109925233D01*
X169950603Y-109966324D01*
X169949500Y-109970439D01*
X169949500Y-111100500D01*
X169929815Y-111167539D01*
X169877011Y-111213294D01*
X169825500Y-111224500D01*
X158985971Y-111224500D01*
X158918932Y-111204815D01*
X158873177Y-111152011D01*
X158863233Y-111082853D01*
X158892256Y-111019299D01*
X158975377Y-110923373D01*
X159035165Y-110792457D01*
X159055647Y-110650000D01*
X159035165Y-110507543D01*
X159020151Y-110474668D01*
X158986706Y-110401432D01*
X158975500Y-110349921D01*
X158975500Y-110033363D01*
X158995185Y-109966324D01*
X159041873Y-109923567D01*
X159075852Y-109905734D01*
X159203183Y-109792929D01*
X159299818Y-109652930D01*
X159360140Y-109493872D01*
X159380645Y-109325000D01*
X159360140Y-109156128D01*
X159341178Y-109106130D01*
X159299817Y-108997068D01*
X159234006Y-108901726D01*
X159203183Y-108857071D01*
X159075852Y-108744266D01*
X159075849Y-108744263D01*
X158925226Y-108665210D01*
X158760056Y-108624500D01*
X158589944Y-108624500D01*
X158424773Y-108665210D01*
X158274150Y-108744263D01*
X158146816Y-108857072D01*
X158050182Y-108997068D01*
X157989860Y-109156125D01*
X157989859Y-109156130D01*
X157969355Y-109325000D01*
X157989859Y-109493869D01*
X157989860Y-109493874D01*
X158050182Y-109652931D01*
X158082672Y-109700000D01*
X158146817Y-109792929D01*
X158274148Y-109905734D01*
X158308126Y-109923567D01*
X158358338Y-109972150D01*
X158374500Y-110033363D01*
X158374500Y-110100131D01*
X158354815Y-110167170D01*
X158317540Y-110204446D01*
X158218874Y-110267855D01*
X158218872Y-110267856D01*
X158218872Y-110267857D01*
X158196672Y-110293476D01*
X158124623Y-110376626D01*
X158124622Y-110376628D01*
X158064834Y-110507543D01*
X158044353Y-110650000D01*
X158064834Y-110792456D01*
X158124622Y-110923371D01*
X158124623Y-110923373D01*
X158207743Y-111019299D01*
X158236767Y-111082853D01*
X158226823Y-111152011D01*
X158181069Y-111204815D01*
X158114029Y-111224500D01*
X156548517Y-111224500D01*
X156481478Y-111204815D01*
X156435723Y-111152011D01*
X156425779Y-111082853D01*
X156454804Y-111019297D01*
X156481478Y-110996185D01*
X156581123Y-110932146D01*
X156581122Y-110932146D01*
X156581128Y-110932143D01*
X156675377Y-110823373D01*
X156735165Y-110692457D01*
X156755647Y-110550000D01*
X156742456Y-110458258D01*
X156745419Y-110408521D01*
X156750500Y-110389562D01*
X156750500Y-110310438D01*
X156750500Y-110033363D01*
X156770185Y-109966324D01*
X156816873Y-109923567D01*
X156850852Y-109905734D01*
X156978183Y-109792929D01*
X157074818Y-109652930D01*
X157135140Y-109493872D01*
X157155645Y-109325000D01*
X157135140Y-109156128D01*
X157116178Y-109106130D01*
X157074817Y-108997068D01*
X157009006Y-108901726D01*
X156978183Y-108857071D01*
X156850852Y-108744266D01*
X156850849Y-108744263D01*
X156700226Y-108665210D01*
X156535056Y-108624500D01*
X156364944Y-108624500D01*
X156199773Y-108665210D01*
X156049150Y-108744263D01*
X155921816Y-108857072D01*
X155825182Y-108997068D01*
X155764860Y-109156125D01*
X155764859Y-109156130D01*
X155744355Y-109325000D01*
X155764859Y-109493869D01*
X155764860Y-109493874D01*
X155825182Y-109652931D01*
X155857672Y-109700000D01*
X155921817Y-109792929D01*
X156043279Y-109900535D01*
X156080406Y-109959724D01*
X156079638Y-110029589D01*
X156041221Y-110087949D01*
X156028092Y-110097665D01*
X155918874Y-110167855D01*
X155824623Y-110276626D01*
X155824622Y-110276628D01*
X155764834Y-110407543D01*
X155744353Y-110550000D01*
X155764834Y-110692456D01*
X155810504Y-110792457D01*
X155824623Y-110823373D01*
X155918872Y-110932143D01*
X155918874Y-110932144D01*
X155918876Y-110932146D01*
X156018522Y-110996185D01*
X156064277Y-111048988D01*
X156074221Y-111118147D01*
X156045196Y-111181703D01*
X155986418Y-111219477D01*
X155951483Y-111224500D01*
X154226319Y-111224500D01*
X154159280Y-111204815D01*
X154113525Y-111152011D01*
X154103581Y-111082853D01*
X154132606Y-111019297D01*
X154159279Y-110996185D01*
X154167243Y-110991066D01*
X154181128Y-110982143D01*
X154275377Y-110873373D01*
X154335165Y-110742457D01*
X154355647Y-110600000D01*
X154354339Y-110590905D01*
X154364279Y-110521749D01*
X154389390Y-110485580D01*
X154590460Y-110284511D01*
X154630022Y-110215988D01*
X154650500Y-110139562D01*
X154650500Y-110060438D01*
X154650500Y-110008363D01*
X154670185Y-109941324D01*
X154716873Y-109898567D01*
X154750852Y-109880734D01*
X154878183Y-109767929D01*
X154974818Y-109627930D01*
X155035140Y-109468872D01*
X155055645Y-109300000D01*
X155035140Y-109131128D01*
X155023634Y-109100790D01*
X154976054Y-108975330D01*
X154974818Y-108972070D01*
X154878183Y-108832071D01*
X154750852Y-108719266D01*
X154750849Y-108719263D01*
X154600226Y-108640210D01*
X154435056Y-108599500D01*
X154264944Y-108599500D01*
X154099773Y-108640210D01*
X153949150Y-108719263D01*
X153821816Y-108832072D01*
X153725182Y-108972068D01*
X153664860Y-109131125D01*
X153664859Y-109131130D01*
X153644355Y-109300000D01*
X153664859Y-109468869D01*
X153664860Y-109468874D01*
X153725182Y-109627931D01*
X153725961Y-109629059D01*
X153821817Y-109767929D01*
X153949148Y-109880734D01*
X153949150Y-109880735D01*
X153951350Y-109882684D01*
X153988477Y-109941874D01*
X153987709Y-110011739D01*
X153949292Y-110070099D01*
X153885421Y-110098424D01*
X153869123Y-110099500D01*
X153778036Y-110099500D01*
X153639949Y-110140045D01*
X153518873Y-110217856D01*
X153424623Y-110326626D01*
X153424622Y-110326628D01*
X153364834Y-110457543D01*
X153344353Y-110600000D01*
X153364834Y-110742456D01*
X153424622Y-110873371D01*
X153424623Y-110873373D01*
X153518872Y-110982143D01*
X153518874Y-110982144D01*
X153540721Y-110996185D01*
X153586476Y-111048989D01*
X153596419Y-111118148D01*
X153567393Y-111181703D01*
X153508615Y-111219477D01*
X153473681Y-111224500D01*
X142250834Y-111224500D01*
X142183795Y-111204815D01*
X142163153Y-111188181D01*
X141087153Y-110112181D01*
X141053668Y-110050858D01*
X141058652Y-109981166D01*
X141100524Y-109925233D01*
X141165988Y-109900816D01*
X141174834Y-109900500D01*
X145874560Y-109900500D01*
X145874562Y-109900500D01*
X145950989Y-109880021D01*
X146019511Y-109840460D01*
X146075460Y-109784511D01*
X146393152Y-109466819D01*
X146454475Y-109433334D01*
X146480833Y-109430500D01*
X146494749Y-109430500D01*
X146514219Y-109426627D01*
X146530109Y-109423466D01*
X146599701Y-109429693D01*
X146654879Y-109472555D01*
X146663134Y-109485657D01*
X146666646Y-109492089D01*
X146752809Y-109607187D01*
X146752812Y-109607190D01*
X146867906Y-109693350D01*
X146867913Y-109693354D01*
X147002620Y-109743596D01*
X147002627Y-109743598D01*
X147062155Y-109749999D01*
X147062172Y-109750000D01*
X147140000Y-109750000D01*
X147140000Y-109074000D01*
X147159685Y-109006961D01*
X147212489Y-108961206D01*
X147264000Y-108950000D01*
X147516000Y-108950000D01*
X147583039Y-108969685D01*
X147628794Y-109022489D01*
X147640000Y-109074000D01*
X147640000Y-109750000D01*
X147644862Y-109750000D01*
X147711901Y-109769685D01*
X147757656Y-109822489D01*
X147763838Y-109839063D01*
X147764833Y-109842454D01*
X147818419Y-109959789D01*
X147824623Y-109973373D01*
X147918872Y-110082143D01*
X148039947Y-110159953D01*
X148039950Y-110159954D01*
X148039949Y-110159954D01*
X148178036Y-110200499D01*
X148178038Y-110200500D01*
X148178039Y-110200500D01*
X148321962Y-110200500D01*
X148321962Y-110200499D01*
X148460053Y-110159953D01*
X148581128Y-110082143D01*
X148675377Y-109973373D01*
X148735165Y-109842457D01*
X148755647Y-109700000D01*
X148735165Y-109557543D01*
X148699127Y-109478633D01*
X148689184Y-109409477D01*
X148708819Y-109358233D01*
X148728867Y-109328231D01*
X148731908Y-109312946D01*
X148736883Y-109287933D01*
X148740500Y-109269748D01*
X148740500Y-108630252D01*
X148740500Y-108630249D01*
X148740499Y-108630247D01*
X148728868Y-108571770D01*
X148728867Y-108571769D01*
X148684552Y-108505447D01*
X148617609Y-108460717D01*
X148572804Y-108407104D01*
X148562500Y-108357615D01*
X148562500Y-108273675D01*
X148582185Y-108206636D01*
X148617610Y-108170573D01*
X148656551Y-108144553D01*
X148656552Y-108144552D01*
X148700867Y-108078231D01*
X148700867Y-108078229D01*
X148700868Y-108078229D01*
X148712499Y-108019752D01*
X148712500Y-108019750D01*
X148712500Y-107824833D01*
X148732185Y-107757794D01*
X148784989Y-107712039D01*
X148854147Y-107702095D01*
X148917703Y-107731120D01*
X148924181Y-107737152D01*
X149741492Y-108554463D01*
X149774977Y-108615786D01*
X149769993Y-108685478D01*
X149729731Y-108739259D01*
X149729762Y-108739293D01*
X149729597Y-108739438D01*
X149728121Y-108741411D01*
X149724262Y-108744186D01*
X149724157Y-108744258D01*
X149596816Y-108857072D01*
X149500182Y-108997068D01*
X149439860Y-109156125D01*
X149439859Y-109156130D01*
X149419355Y-109325000D01*
X149439859Y-109493869D01*
X149439860Y-109493874D01*
X149500182Y-109652931D01*
X149532672Y-109700000D01*
X149596817Y-109792929D01*
X149667712Y-109855736D01*
X149724150Y-109905736D01*
X149857130Y-109975529D01*
X149874775Y-109984790D01*
X150039944Y-110025500D01*
X150210056Y-110025500D01*
X150375225Y-109984790D01*
X150473134Y-109933403D01*
X150525849Y-109905736D01*
X150525850Y-109905734D01*
X150525852Y-109905734D01*
X150653183Y-109792929D01*
X150749818Y-109652930D01*
X150810140Y-109493872D01*
X150830645Y-109325000D01*
X150810140Y-109156128D01*
X150791178Y-109106130D01*
X150749817Y-108997068D01*
X150684006Y-108901726D01*
X150653183Y-108857071D01*
X150525852Y-108744266D01*
X150516312Y-108739259D01*
X150491872Y-108726431D01*
X150441661Y-108677846D01*
X150425500Y-108616636D01*
X150425500Y-108473439D01*
X150419232Y-108450047D01*
X150405021Y-108397011D01*
X150405017Y-108397004D01*
X150365464Y-108328495D01*
X150365458Y-108328487D01*
X148946510Y-106909539D01*
X148924402Y-106896775D01*
X148902293Y-106884011D01*
X148897155Y-106881044D01*
X148877990Y-106869979D01*
X148877991Y-106869979D01*
X148839775Y-106859739D01*
X148801562Y-106849500D01*
X147953999Y-106849500D01*
X147886960Y-106829815D01*
X147841205Y-106777011D01*
X147831773Y-106720412D01*
X147830500Y-106720412D01*
X147830500Y-106079500D01*
X147850185Y-106012461D01*
X147902989Y-105966706D01*
X147954500Y-105955500D01*
X148589322Y-105955500D01*
X148657650Y-105941908D01*
X148735135Y-105890135D01*
X148786908Y-105812650D01*
X148788102Y-105806649D01*
X148800500Y-105744322D01*
X148800500Y-105495677D01*
X148795051Y-105468284D01*
X148801278Y-105398692D01*
X148828986Y-105356412D01*
X148880888Y-105304511D01*
X149211383Y-104974015D01*
X149272704Y-104940532D01*
X149342395Y-104945516D01*
X149398329Y-104987387D01*
X149404819Y-104998783D01*
X149436442Y-105046109D01*
X149457320Y-105112787D01*
X149438835Y-105180167D01*
X149436442Y-105183891D01*
X149411132Y-105221769D01*
X149411131Y-105221770D01*
X149399500Y-105280247D01*
X149399500Y-106219752D01*
X149411131Y-106278229D01*
X149411132Y-106278230D01*
X149455447Y-106344552D01*
X149521769Y-106388867D01*
X149521770Y-106388868D01*
X149580247Y-106400499D01*
X149580250Y-106400500D01*
X149580252Y-106400500D01*
X151119750Y-106400500D01*
X151119751Y-106400499D01*
X151134568Y-106397552D01*
X151178229Y-106388868D01*
X151178229Y-106388867D01*
X151178231Y-106388867D01*
X151244552Y-106344552D01*
X151288867Y-106278231D01*
X151288867Y-106278229D01*
X151288868Y-106278229D01*
X151300499Y-106219752D01*
X151300500Y-106219750D01*
X151300500Y-106111426D01*
X151320185Y-106044387D01*
X151372989Y-105998632D01*
X151442147Y-105988688D01*
X151505703Y-106017713D01*
X151518213Y-106030224D01*
X151562559Y-106081403D01*
X151565750Y-106085085D01*
X151686825Y-106162895D01*
X151686828Y-106162896D01*
X151686827Y-106162896D01*
X151793985Y-106194359D01*
X151824917Y-106203442D01*
X151824921Y-106203442D01*
X151833694Y-106204704D01*
X151833301Y-106207434D01*
X151886744Y-106223127D01*
X151932499Y-106275931D01*
X151942443Y-106345089D01*
X151939479Y-106359537D01*
X151924500Y-106415435D01*
X151924500Y-108591636D01*
X151904815Y-108658675D01*
X151858128Y-108701431D01*
X151824151Y-108719264D01*
X151824148Y-108719266D01*
X151725038Y-108807070D01*
X151696816Y-108832072D01*
X151600182Y-108972068D01*
X151539860Y-109131125D01*
X151539859Y-109131130D01*
X151519355Y-109300000D01*
X151539859Y-109468869D01*
X151539860Y-109468874D01*
X151600182Y-109627931D01*
X151600961Y-109629059D01*
X151696817Y-109767929D01*
X151780939Y-109842454D01*
X151824150Y-109880736D01*
X151972132Y-109958403D01*
X151974775Y-109959790D01*
X152139944Y-110000500D01*
X152310056Y-110000500D01*
X152475225Y-109959790D01*
X152579656Y-109904980D01*
X152625849Y-109880736D01*
X152625850Y-109880734D01*
X152625852Y-109880734D01*
X152753183Y-109767929D01*
X152849818Y-109627930D01*
X152910140Y-109468872D01*
X152930645Y-109300000D01*
X152910140Y-109131128D01*
X152898634Y-109100790D01*
X152851054Y-108975330D01*
X152849818Y-108972070D01*
X152753183Y-108832071D01*
X152625852Y-108719266D01*
X152620318Y-108716361D01*
X152591872Y-108701431D01*
X152541661Y-108652846D01*
X152525500Y-108591636D01*
X152525500Y-108311371D01*
X152545185Y-108244332D01*
X152597989Y-108198577D01*
X152667147Y-108188633D01*
X152692833Y-108195189D01*
X152822620Y-108243596D01*
X152822627Y-108243598D01*
X152882155Y-108249999D01*
X152882172Y-108250000D01*
X153130000Y-108250000D01*
X153130000Y-107124000D01*
X153149685Y-107056961D01*
X153202489Y-107011206D01*
X153254000Y-107000000D01*
X153506000Y-107000000D01*
X153573039Y-107019685D01*
X153618794Y-107072489D01*
X153630000Y-107124000D01*
X153630000Y-108250000D01*
X153877828Y-108250000D01*
X153877844Y-108249999D01*
X153937372Y-108243598D01*
X153937379Y-108243596D01*
X154072086Y-108193354D01*
X154072093Y-108193350D01*
X154187187Y-108107190D01*
X154187190Y-108107187D01*
X154267290Y-108000189D01*
X154323223Y-107958318D01*
X154366556Y-107950500D01*
X155119750Y-107950500D01*
X155119751Y-107950499D01*
X155134568Y-107947552D01*
X155178229Y-107938868D01*
X155178231Y-107938867D01*
X155216108Y-107913558D01*
X155282785Y-107892679D01*
X155350165Y-107911163D01*
X155353892Y-107913558D01*
X155391768Y-107938867D01*
X155391770Y-107938868D01*
X155450247Y-107950499D01*
X155450250Y-107950500D01*
X155450252Y-107950500D01*
X156389750Y-107950500D01*
X156389751Y-107950499D01*
X156404568Y-107947552D01*
X156448229Y-107938868D01*
X156448231Y-107938867D01*
X156486108Y-107913558D01*
X156552785Y-107892679D01*
X156620165Y-107911163D01*
X156623892Y-107913558D01*
X156661768Y-107938867D01*
X156661770Y-107938868D01*
X156720247Y-107950499D01*
X156720250Y-107950500D01*
X156720252Y-107950500D01*
X157659750Y-107950500D01*
X157659751Y-107950499D01*
X157674568Y-107947552D01*
X157718229Y-107938868D01*
X157718231Y-107938867D01*
X157756108Y-107913558D01*
X157822785Y-107892679D01*
X157890165Y-107911163D01*
X157893892Y-107913558D01*
X157931768Y-107938867D01*
X157931770Y-107938868D01*
X157990247Y-107950499D01*
X157990250Y-107950500D01*
X157990252Y-107950500D01*
X158929750Y-107950500D01*
X158929751Y-107950499D01*
X158944568Y-107947552D01*
X158988229Y-107938868D01*
X158988231Y-107938867D01*
X159026108Y-107913558D01*
X159092785Y-107892679D01*
X159160165Y-107911163D01*
X159163892Y-107913558D01*
X159201768Y-107938867D01*
X159201770Y-107938868D01*
X159260247Y-107950499D01*
X159260250Y-107950500D01*
X159260252Y-107950500D01*
X160199750Y-107950500D01*
X160199751Y-107950499D01*
X160214568Y-107947552D01*
X160258229Y-107938868D01*
X160258231Y-107938867D01*
X160296108Y-107913558D01*
X160362785Y-107892679D01*
X160430165Y-107911163D01*
X160433892Y-107913558D01*
X160471768Y-107938867D01*
X160471770Y-107938868D01*
X160530247Y-107950499D01*
X160530250Y-107950500D01*
X160530252Y-107950500D01*
X161469750Y-107950500D01*
X161469751Y-107950499D01*
X161484568Y-107947552D01*
X161528229Y-107938868D01*
X161528231Y-107938867D01*
X161566108Y-107913558D01*
X161632785Y-107892679D01*
X161700165Y-107911163D01*
X161703892Y-107913558D01*
X161741768Y-107938867D01*
X161741770Y-107938868D01*
X161800247Y-107950499D01*
X161800250Y-107950500D01*
X161800252Y-107950500D01*
X162295167Y-107950500D01*
X162362206Y-107970185D01*
X162407961Y-108022989D01*
X162417905Y-108092147D01*
X162388880Y-108155703D01*
X162382848Y-108162181D01*
X161645105Y-108899923D01*
X161583782Y-108933408D01*
X161514090Y-108928424D01*
X161458157Y-108886552D01*
X161455387Y-108882702D01*
X161403183Y-108807071D01*
X161275852Y-108694266D01*
X161275849Y-108694263D01*
X161125226Y-108615210D01*
X160960056Y-108574500D01*
X160789944Y-108574500D01*
X160624773Y-108615210D01*
X160474150Y-108694263D01*
X160358519Y-108796704D01*
X160350284Y-108804000D01*
X160346816Y-108807072D01*
X160250182Y-108947068D01*
X160189860Y-109106125D01*
X160189859Y-109106130D01*
X160169355Y-109275000D01*
X160189859Y-109443869D01*
X160189860Y-109443874D01*
X160250182Y-109602931D01*
X160284695Y-109652931D01*
X160346817Y-109742929D01*
X160403256Y-109792929D01*
X160474150Y-109855736D01*
X160606566Y-109925233D01*
X160624775Y-109934790D01*
X160789944Y-109975500D01*
X160960056Y-109975500D01*
X161125225Y-109934790D01*
X161228219Y-109880734D01*
X161275849Y-109855736D01*
X161275850Y-109855734D01*
X161275852Y-109855734D01*
X161403183Y-109742929D01*
X161481782Y-109629058D01*
X161536065Y-109585069D01*
X161583832Y-109575500D01*
X161734560Y-109575500D01*
X161734562Y-109575500D01*
X161810989Y-109555021D01*
X161879511Y-109515460D01*
X161935460Y-109459511D01*
X162095397Y-109299572D01*
X162156715Y-109266091D01*
X162226407Y-109271075D01*
X162282341Y-109312946D01*
X162306170Y-109372309D01*
X162314859Y-109443869D01*
X162314860Y-109443874D01*
X162375182Y-109602931D01*
X162409695Y-109652931D01*
X162471817Y-109742929D01*
X162528256Y-109792929D01*
X162599150Y-109855736D01*
X162731566Y-109925233D01*
X162749775Y-109934790D01*
X162914944Y-109975500D01*
X163085056Y-109975500D01*
X163250225Y-109934790D01*
X163353219Y-109880734D01*
X163400849Y-109855736D01*
X163400850Y-109855734D01*
X163400852Y-109855734D01*
X163528183Y-109742929D01*
X163624818Y-109602930D01*
X163685140Y-109443872D01*
X163705645Y-109275000D01*
X163685140Y-109106128D01*
X163685139Y-109106125D01*
X163683824Y-109100790D01*
X163686891Y-109030988D01*
X163716537Y-108983432D01*
X164363152Y-108336819D01*
X164424475Y-108303334D01*
X164450833Y-108300500D01*
X165350166Y-108300500D01*
X165417205Y-108320185D01*
X165462960Y-108372989D01*
X165472904Y-108442147D01*
X165443879Y-108505703D01*
X165437855Y-108512172D01*
X165420213Y-108529815D01*
X165412316Y-108537712D01*
X165350992Y-108571196D01*
X165294962Y-108570426D01*
X165210057Y-108549500D01*
X165210056Y-108549500D01*
X165039944Y-108549500D01*
X164874773Y-108590210D01*
X164724150Y-108669263D01*
X164596816Y-108782072D01*
X164500182Y-108922068D01*
X164439860Y-109081125D01*
X164439859Y-109081130D01*
X164419355Y-109250000D01*
X164439859Y-109418869D01*
X164439860Y-109418874D01*
X164500182Y-109577931D01*
X164534695Y-109627931D01*
X164596817Y-109717929D01*
X164680527Y-109792089D01*
X164724150Y-109830736D01*
X164865610Y-109904980D01*
X164874775Y-109909790D01*
X165039944Y-109950500D01*
X165210056Y-109950500D01*
X165375225Y-109909790D01*
X165503522Y-109842454D01*
X165525849Y-109830736D01*
X165525850Y-109830734D01*
X165525852Y-109830734D01*
X165653183Y-109717929D01*
X165749818Y-109577930D01*
X165810140Y-109418872D01*
X165830645Y-109250000D01*
X165810140Y-109081128D01*
X165810139Y-109081125D01*
X165808824Y-109075790D01*
X165811891Y-109005988D01*
X165841537Y-108958432D01*
X166212821Y-108587149D01*
X166274143Y-108553665D01*
X166343835Y-108558649D01*
X166399768Y-108600521D01*
X166424185Y-108665985D01*
X166424501Y-108674831D01*
X166424501Y-108789563D01*
X166429193Y-108807072D01*
X166444980Y-108865991D01*
X166444983Y-108865996D01*
X166484536Y-108934505D01*
X166484542Y-108934513D01*
X166508460Y-108958431D01*
X166541945Y-109019754D01*
X166541177Y-109075782D01*
X166539860Y-109081124D01*
X166519355Y-109250000D01*
X166539859Y-109418869D01*
X166539860Y-109418874D01*
X166600182Y-109577931D01*
X166634695Y-109627931D01*
X166696817Y-109717929D01*
X166780527Y-109792089D01*
X166824150Y-109830736D01*
X166965610Y-109904980D01*
X166974775Y-109909790D01*
X167139944Y-109950500D01*
X167310056Y-109950500D01*
X167475225Y-109909790D01*
X167603522Y-109842454D01*
X167625849Y-109830736D01*
X167625850Y-109830734D01*
X167625852Y-109830734D01*
X167753183Y-109717929D01*
X167849818Y-109577930D01*
X167910140Y-109418872D01*
X167930645Y-109250000D01*
X167910140Y-109081128D01*
X167910138Y-109081124D01*
X167885036Y-109014934D01*
X167849818Y-108922070D01*
X167835775Y-108901726D01*
X167811109Y-108865991D01*
X167753183Y-108782071D01*
X167654068Y-108694263D01*
X167625849Y-108669263D01*
X167475226Y-108590210D01*
X167310056Y-108549500D01*
X167149501Y-108549500D01*
X167082462Y-108529815D01*
X167036707Y-108477011D01*
X167025501Y-108425500D01*
X167025501Y-106524500D01*
X167045186Y-106457461D01*
X167097990Y-106411706D01*
X167149501Y-106400500D01*
X168619750Y-106400500D01*
X168619751Y-106400499D01*
X168634568Y-106397552D01*
X168678229Y-106388868D01*
X168678229Y-106388867D01*
X168678231Y-106388867D01*
X168744552Y-106344552D01*
X168788867Y-106278231D01*
X168788867Y-106278229D01*
X168788868Y-106278229D01*
X168800499Y-106219752D01*
X168800500Y-106219750D01*
X168800500Y-106014500D01*
X168820185Y-105947461D01*
X168872989Y-105901706D01*
X168924500Y-105890500D01*
X176484560Y-105890500D01*
X176484562Y-105890500D01*
X176560989Y-105870021D01*
X176629511Y-105830460D01*
X176685460Y-105774511D01*
X179293152Y-103166819D01*
X179354475Y-103133334D01*
X179380833Y-103130500D01*
X180749749Y-103130500D01*
X180776307Y-103125217D01*
X180845899Y-103131444D01*
G37*
%TD.AperFunction*%
%TA.AperFunction,Conductor*%
G36*
X150043039Y-87620185D02*
G01*
X150088794Y-87672989D01*
X150093188Y-87693188D01*
X150100000Y-87700000D01*
X168100000Y-87700000D01*
X168110184Y-87689815D01*
X168119685Y-87657461D01*
X168172489Y-87611706D01*
X168224000Y-87600500D01*
X180800500Y-87600500D01*
X180867539Y-87620185D01*
X180913294Y-87672989D01*
X180924500Y-87724500D01*
X180924500Y-97908006D01*
X180904815Y-97975045D01*
X180852011Y-98020800D01*
X180782853Y-98030744D01*
X180765567Y-98026984D01*
X180671961Y-97999500D01*
X180528039Y-97999500D01*
X180528036Y-97999500D01*
X180389949Y-98040045D01*
X180268873Y-98117856D01*
X180174623Y-98226626D01*
X180174622Y-98226628D01*
X180114834Y-98357543D01*
X180094353Y-98500000D01*
X180114834Y-98642457D01*
X180114835Y-98642458D01*
X180153602Y-98727346D01*
X180163546Y-98796504D01*
X180134521Y-98860060D01*
X180128489Y-98866538D01*
X179641848Y-99353181D01*
X179580525Y-99386666D01*
X179554167Y-99389500D01*
X178110247Y-99389500D01*
X178051770Y-99401131D01*
X178051769Y-99401132D01*
X177985447Y-99445447D01*
X177941132Y-99511769D01*
X177941131Y-99511770D01*
X177929500Y-99570247D01*
X177929500Y-100323443D01*
X177909815Y-100390482D01*
X177879812Y-100422709D01*
X177772809Y-100502812D01*
X177766540Y-100509082D01*
X177765526Y-100508068D01*
X177717208Y-100544234D01*
X177647516Y-100549215D01*
X177586195Y-100515726D01*
X177552713Y-100454401D01*
X177549882Y-100428404D01*
X177548944Y-100100167D01*
X177525506Y-91901702D01*
X177525511Y-91900195D01*
X177525867Y-91863339D01*
X177525866Y-91863336D01*
X177525868Y-91863174D01*
X177525731Y-91862149D01*
X177525537Y-91860637D01*
X177525426Y-91859729D01*
X177525386Y-91859581D01*
X177525386Y-91859579D01*
X177515702Y-91823849D01*
X177515367Y-91822582D01*
X177506127Y-91786717D01*
X177506125Y-91786715D01*
X177506087Y-91786564D01*
X177505732Y-91785713D01*
X177505155Y-91784306D01*
X177504773Y-91783358D01*
X177502689Y-91779772D01*
X177486078Y-91751189D01*
X177485388Y-91749983D01*
X177467145Y-91717670D01*
X177466545Y-91716893D01*
X177465591Y-91715641D01*
X177465042Y-91714912D01*
X177464932Y-91714803D01*
X177464932Y-91714802D01*
X177453101Y-91703038D01*
X177438757Y-91688776D01*
X177437664Y-91687677D01*
X177411822Y-91661331D01*
X177411819Y-91661329D01*
X177411706Y-91661214D01*
X177410997Y-91660673D01*
X177409740Y-91659701D01*
X177408967Y-91659095D01*
X177376788Y-91640639D01*
X177375449Y-91639860D01*
X174585162Y-89992798D01*
X174537436Y-89941768D01*
X174524876Y-89873037D01*
X174551468Y-89808426D01*
X174608771Y-89768448D01*
X174678590Y-89765797D01*
X174685626Y-89768131D01*
X174685676Y-89767969D01*
X174691492Y-89769732D01*
X174691503Y-89769737D01*
X174830433Y-89797372D01*
X174846153Y-89800499D01*
X174846156Y-89800500D01*
X174846158Y-89800500D01*
X175003844Y-89800500D01*
X175003845Y-89800499D01*
X175158497Y-89769737D01*
X175304179Y-89709394D01*
X175435289Y-89621789D01*
X175546789Y-89510289D01*
X175634394Y-89379179D01*
X175694737Y-89233497D01*
X175725500Y-89078842D01*
X175725500Y-88921158D01*
X175725500Y-88921155D01*
X175725499Y-88921153D01*
X175711987Y-88853224D01*
X175694737Y-88766503D01*
X175659992Y-88682620D01*
X175634397Y-88620827D01*
X175634390Y-88620814D01*
X175546789Y-88489711D01*
X175546786Y-88489707D01*
X175435292Y-88378213D01*
X175435288Y-88378210D01*
X175304185Y-88290609D01*
X175304172Y-88290602D01*
X175158501Y-88230264D01*
X175158489Y-88230261D01*
X175003845Y-88199500D01*
X175003842Y-88199500D01*
X174846158Y-88199500D01*
X174846155Y-88199500D01*
X174691510Y-88230261D01*
X174691498Y-88230264D01*
X174545827Y-88290602D01*
X174545814Y-88290609D01*
X174414711Y-88378210D01*
X174414707Y-88378213D01*
X174303213Y-88489707D01*
X174303210Y-88489711D01*
X174215609Y-88620814D01*
X174215602Y-88620827D01*
X174155264Y-88766498D01*
X174155261Y-88766510D01*
X174124500Y-88921153D01*
X174124500Y-89078846D01*
X174155261Y-89233489D01*
X174155264Y-89233501D01*
X174215602Y-89379172D01*
X174215609Y-89379185D01*
X174303210Y-89510288D01*
X174303213Y-89510292D01*
X174382896Y-89589975D01*
X174416381Y-89651298D01*
X174411397Y-89720990D01*
X174369525Y-89776923D01*
X174304061Y-89801340D01*
X174235788Y-89786488D01*
X174232182Y-89784440D01*
X173352561Y-89265214D01*
X173347029Y-89261479D01*
X173311195Y-89240789D01*
X173310166Y-89240188D01*
X173277764Y-89221062D01*
X173277089Y-89220783D01*
X173275972Y-89220314D01*
X173275248Y-89220006D01*
X173275150Y-89219979D01*
X173275149Y-89219979D01*
X173238892Y-89210263D01*
X173237829Y-89209973D01*
X173201618Y-89199896D01*
X173201617Y-89199895D01*
X173201510Y-89199866D01*
X173200778Y-89199770D01*
X173199549Y-89199602D01*
X173198829Y-89199500D01*
X173198722Y-89199500D01*
X173161185Y-89199500D01*
X173159989Y-89199494D01*
X173158971Y-89199484D01*
X173118629Y-89199094D01*
X173111948Y-89199500D01*
X171730438Y-89199500D01*
X171692224Y-89209739D01*
X171654009Y-89219979D01*
X171632902Y-89232166D01*
X171615355Y-89242297D01*
X171606481Y-89247420D01*
X171585489Y-89259539D01*
X171585487Y-89259541D01*
X169012181Y-91832848D01*
X168950858Y-91866333D01*
X168881166Y-91861349D01*
X168825233Y-91819477D01*
X168800816Y-91754013D01*
X168800500Y-91745167D01*
X168800500Y-91310249D01*
X168800499Y-91310247D01*
X168788868Y-91251770D01*
X168788867Y-91251768D01*
X168763558Y-91213892D01*
X168742679Y-91147215D01*
X168761163Y-91079835D01*
X168763558Y-91076108D01*
X168788867Y-91038231D01*
X168788868Y-91038229D01*
X168798800Y-90988294D01*
X168800500Y-90979748D01*
X168800500Y-90226556D01*
X168820185Y-90159517D01*
X168850189Y-90127290D01*
X168957187Y-90047190D01*
X168957190Y-90047187D01*
X169043350Y-89932093D01*
X169043354Y-89932086D01*
X169093596Y-89797379D01*
X169093598Y-89797372D01*
X169099999Y-89737844D01*
X169100000Y-89737827D01*
X169100000Y-89490000D01*
X166600000Y-89490000D01*
X166600000Y-89737844D01*
X166606401Y-89797372D01*
X166606403Y-89797379D01*
X166656645Y-89932086D01*
X166656649Y-89932093D01*
X166742809Y-90047187D01*
X166742812Y-90047190D01*
X166849811Y-90127290D01*
X166891682Y-90183223D01*
X166899500Y-90226556D01*
X166899500Y-90979752D01*
X166911131Y-91038229D01*
X166911132Y-91038230D01*
X166936442Y-91076109D01*
X166957320Y-91142787D01*
X166938835Y-91210167D01*
X166936442Y-91213891D01*
X166911132Y-91251769D01*
X166911131Y-91251770D01*
X166899500Y-91310247D01*
X166899500Y-91400500D01*
X166879815Y-91467539D01*
X166827011Y-91513294D01*
X166775500Y-91524500D01*
X166164562Y-91524500D01*
X166085438Y-91524500D01*
X166047224Y-91534739D01*
X166009009Y-91544979D01*
X166009004Y-91544982D01*
X165940495Y-91584535D01*
X165940487Y-91584541D01*
X165884541Y-91640487D01*
X165884535Y-91640495D01*
X165844982Y-91709004D01*
X165844979Y-91709009D01*
X165832413Y-91755906D01*
X165824804Y-91784306D01*
X165824500Y-91785439D01*
X165824500Y-92349167D01*
X165804815Y-92416206D01*
X165788181Y-92436848D01*
X160161681Y-98063348D01*
X160100358Y-98096833D01*
X160030666Y-98091849D01*
X159974733Y-98049977D01*
X159950316Y-97984513D01*
X159950000Y-97975667D01*
X159950000Y-97862172D01*
X159949999Y-97862155D01*
X159943598Y-97802627D01*
X159943597Y-97802623D01*
X159906564Y-97703334D01*
X159901580Y-97633642D01*
X159906564Y-97616666D01*
X159943597Y-97517376D01*
X159943598Y-97517372D01*
X159949999Y-97457844D01*
X159950000Y-97457827D01*
X159950000Y-97210000D01*
X159250000Y-97210000D01*
X159250000Y-98236000D01*
X159230315Y-98303039D01*
X159177511Y-98348794D01*
X159126000Y-98360000D01*
X159000000Y-98360000D01*
X159000000Y-98486000D01*
X158980315Y-98553039D01*
X158927511Y-98598794D01*
X158876000Y-98610000D01*
X157850000Y-98610000D01*
X157850000Y-99310000D01*
X158097828Y-99310000D01*
X158097844Y-99309999D01*
X158157372Y-99303598D01*
X158157373Y-99303598D01*
X158159532Y-99302793D01*
X158161325Y-99302664D01*
X158164930Y-99301813D01*
X158165067Y-99302396D01*
X158229224Y-99297803D01*
X158290550Y-99331282D01*
X158324040Y-99392602D01*
X158319062Y-99462295D01*
X158290557Y-99506652D01*
X155209030Y-102588181D01*
X155147707Y-102621666D01*
X155121349Y-102624500D01*
X153858501Y-102624500D01*
X153791462Y-102604815D01*
X153764788Y-102581703D01*
X153743165Y-102556749D01*
X153731128Y-102542857D01*
X153610053Y-102465047D01*
X153610051Y-102465046D01*
X153610049Y-102465045D01*
X153610050Y-102465045D01*
X153471963Y-102424500D01*
X153471961Y-102424500D01*
X153328039Y-102424500D01*
X153328036Y-102424500D01*
X153189949Y-102465045D01*
X153068873Y-102542856D01*
X152974623Y-102651626D01*
X152974622Y-102651628D01*
X152914834Y-102782543D01*
X152894353Y-102925000D01*
X152914834Y-103067456D01*
X152973600Y-103196133D01*
X152974623Y-103198373D01*
X153068872Y-103307143D01*
X153068875Y-103307144D01*
X153069213Y-103307535D01*
X153098238Y-103371091D01*
X153099500Y-103388738D01*
X153099500Y-105104166D01*
X153079815Y-105171205D01*
X153063181Y-105191847D01*
X152596490Y-105658537D01*
X152535167Y-105692022D01*
X152465475Y-105687038D01*
X152409542Y-105645166D01*
X152386071Y-105588502D01*
X152382043Y-105560485D01*
X152361705Y-105515951D01*
X152350500Y-105464441D01*
X152350500Y-98857844D01*
X155250000Y-98857844D01*
X155256401Y-98917372D01*
X155256403Y-98917379D01*
X155306645Y-99052086D01*
X155306649Y-99052093D01*
X155392809Y-99167187D01*
X155392812Y-99167190D01*
X155507906Y-99253350D01*
X155507913Y-99253354D01*
X155642620Y-99303596D01*
X155642627Y-99303598D01*
X155702155Y-99309999D01*
X155702172Y-99310000D01*
X155950000Y-99310000D01*
X156450000Y-99310000D01*
X156697828Y-99310000D01*
X156697844Y-99309999D01*
X156757372Y-99303598D01*
X156757376Y-99303597D01*
X156856666Y-99266564D01*
X156926358Y-99261580D01*
X156943334Y-99266564D01*
X157042623Y-99303597D01*
X157042627Y-99303598D01*
X157102155Y-99309999D01*
X157102172Y-99310000D01*
X157350000Y-99310000D01*
X157350000Y-98610000D01*
X156450000Y-98610000D01*
X156450000Y-99310000D01*
X155950000Y-99310000D01*
X155950000Y-98610000D01*
X155250000Y-98610000D01*
X155250000Y-98857844D01*
X152350500Y-98857844D01*
X152350500Y-98506035D01*
X152370185Y-98438996D01*
X152380782Y-98424837D01*
X152425377Y-98373373D01*
X152485165Y-98242457D01*
X152505647Y-98100000D01*
X152485165Y-97957543D01*
X152425377Y-97826627D01*
X152331128Y-97717857D01*
X152210053Y-97640047D01*
X152210051Y-97640046D01*
X152210049Y-97640045D01*
X152210050Y-97640045D01*
X152071963Y-97599500D01*
X152071961Y-97599500D01*
X151928039Y-97599500D01*
X151928036Y-97599500D01*
X151789949Y-97640045D01*
X151668873Y-97717856D01*
X151668872Y-97717856D01*
X151668872Y-97717857D01*
X151663766Y-97723750D01*
X151574623Y-97826626D01*
X151574622Y-97826628D01*
X151537294Y-97908365D01*
X151491539Y-97961169D01*
X151424500Y-97980853D01*
X151357460Y-97961168D01*
X151311705Y-97908364D01*
X151300500Y-97856853D01*
X151300500Y-97660249D01*
X151300499Y-97660247D01*
X151288868Y-97601770D01*
X151288867Y-97601768D01*
X151263558Y-97563892D01*
X151242679Y-97497215D01*
X151253479Y-97457844D01*
X155250000Y-97457844D01*
X155256401Y-97517372D01*
X155256403Y-97517383D01*
X155293434Y-97616668D01*
X155298418Y-97686360D01*
X155293434Y-97703332D01*
X155256403Y-97802616D01*
X155256401Y-97802627D01*
X155250000Y-97862155D01*
X155250000Y-98110000D01*
X155950000Y-98110000D01*
X156450000Y-98110000D01*
X157350000Y-98110000D01*
X157850000Y-98110000D01*
X158750000Y-98110000D01*
X158750000Y-97210000D01*
X157850000Y-97210000D01*
X157850000Y-98110000D01*
X157350000Y-98110000D01*
X157350000Y-97210000D01*
X156450000Y-97210000D01*
X156450000Y-98110000D01*
X155950000Y-98110000D01*
X155950000Y-97210000D01*
X155250000Y-97210000D01*
X155250000Y-97457844D01*
X151253479Y-97457844D01*
X151261163Y-97429835D01*
X151263558Y-97426108D01*
X151288867Y-97388231D01*
X151288868Y-97388229D01*
X151300499Y-97329752D01*
X151300500Y-97329750D01*
X151300500Y-96390249D01*
X151300499Y-96390247D01*
X151288868Y-96331770D01*
X151288867Y-96331768D01*
X151263558Y-96293892D01*
X151242679Y-96227215D01*
X151261163Y-96159835D01*
X151263558Y-96156108D01*
X151288867Y-96118231D01*
X151288868Y-96118229D01*
X151300392Y-96060289D01*
X151300500Y-96059748D01*
X151300500Y-96057844D01*
X155250000Y-96057844D01*
X155256401Y-96117372D01*
X155256403Y-96117383D01*
X155293434Y-96216668D01*
X155298418Y-96286360D01*
X155293434Y-96303332D01*
X155256403Y-96402616D01*
X155256401Y-96402627D01*
X155250000Y-96462155D01*
X155250000Y-96710000D01*
X155950000Y-96710000D01*
X156450000Y-96710000D01*
X157350000Y-96710000D01*
X157850000Y-96710000D01*
X158750000Y-96710000D01*
X159250000Y-96710000D01*
X159950000Y-96710000D01*
X159950000Y-96462172D01*
X159949999Y-96462155D01*
X159943598Y-96402627D01*
X159943597Y-96402623D01*
X159906564Y-96303334D01*
X159901580Y-96233642D01*
X159906564Y-96216666D01*
X159943597Y-96117376D01*
X159943598Y-96117372D01*
X159949999Y-96057844D01*
X159950000Y-96057827D01*
X159950000Y-95810000D01*
X159250000Y-95810000D01*
X159250000Y-96710000D01*
X158750000Y-96710000D01*
X158750000Y-95810000D01*
X157850000Y-95810000D01*
X157850000Y-96710000D01*
X157350000Y-96710000D01*
X157350000Y-95810000D01*
X156450000Y-95810000D01*
X156450000Y-96710000D01*
X155950000Y-96710000D01*
X155950000Y-95810000D01*
X155250000Y-95810000D01*
X155250000Y-96057844D01*
X151300500Y-96057844D01*
X151300500Y-95120252D01*
X151300500Y-95120249D01*
X151300499Y-95120247D01*
X151288945Y-95062155D01*
X155250000Y-95062155D01*
X155250000Y-95310000D01*
X155950000Y-95310000D01*
X156450000Y-95310000D01*
X157350000Y-95310000D01*
X157850000Y-95310000D01*
X158750000Y-95310000D01*
X159250000Y-95310000D01*
X159950000Y-95310000D01*
X159950000Y-95062172D01*
X159949999Y-95062155D01*
X159943598Y-95002627D01*
X159943596Y-95002620D01*
X159893354Y-94867913D01*
X159893350Y-94867906D01*
X159807190Y-94752812D01*
X159807187Y-94752809D01*
X159692093Y-94666649D01*
X159692086Y-94666645D01*
X159557379Y-94616403D01*
X159557372Y-94616401D01*
X159497844Y-94610000D01*
X159250000Y-94610000D01*
X159250000Y-95310000D01*
X158750000Y-95310000D01*
X158750000Y-94610000D01*
X158502155Y-94610000D01*
X158442627Y-94616401D01*
X158442616Y-94616403D01*
X158343332Y-94653434D01*
X158273640Y-94658418D01*
X158256668Y-94653434D01*
X158157383Y-94616403D01*
X158157372Y-94616401D01*
X158097844Y-94610000D01*
X157850000Y-94610000D01*
X157850000Y-95310000D01*
X157350000Y-95310000D01*
X157350000Y-94610000D01*
X157102155Y-94610000D01*
X157042627Y-94616401D01*
X157042616Y-94616403D01*
X156943332Y-94653434D01*
X156873640Y-94658418D01*
X156856668Y-94653434D01*
X156757383Y-94616403D01*
X156757372Y-94616401D01*
X156697844Y-94610000D01*
X156450000Y-94610000D01*
X156450000Y-95310000D01*
X155950000Y-95310000D01*
X155950000Y-94610000D01*
X155702155Y-94610000D01*
X155642627Y-94616401D01*
X155642620Y-94616403D01*
X155507913Y-94666645D01*
X155507906Y-94666649D01*
X155392812Y-94752809D01*
X155392809Y-94752812D01*
X155306649Y-94867906D01*
X155306645Y-94867913D01*
X155256403Y-95002620D01*
X155256401Y-95002627D01*
X155250000Y-95062155D01*
X151288945Y-95062155D01*
X151288868Y-95061770D01*
X151288867Y-95061768D01*
X151263558Y-95023892D01*
X151242679Y-94957215D01*
X151261163Y-94889835D01*
X151263558Y-94886108D01*
X151288867Y-94848231D01*
X151288868Y-94848229D01*
X151300499Y-94789752D01*
X151300500Y-94789750D01*
X151300500Y-93850249D01*
X151300499Y-93850247D01*
X151288868Y-93791770D01*
X151288867Y-93791768D01*
X151263558Y-93753892D01*
X151242679Y-93687215D01*
X151261163Y-93619835D01*
X151263558Y-93616108D01*
X151288867Y-93578231D01*
X151288868Y-93578229D01*
X151300499Y-93519752D01*
X151300500Y-93519750D01*
X151300500Y-92971249D01*
X151320185Y-92904210D01*
X151372989Y-92858455D01*
X151442147Y-92848511D01*
X151505703Y-92877536D01*
X151537294Y-92919738D01*
X151584620Y-93023369D01*
X151584623Y-93023373D01*
X151678872Y-93132143D01*
X151799947Y-93209953D01*
X151799950Y-93209954D01*
X151799949Y-93209954D01*
X151938036Y-93250499D01*
X151938038Y-93250500D01*
X151938039Y-93250500D01*
X152081962Y-93250500D01*
X152081962Y-93250499D01*
X152220053Y-93209953D01*
X152341128Y-93132143D01*
X152435377Y-93023373D01*
X152495165Y-92892457D01*
X152515647Y-92750000D01*
X152495165Y-92607543D01*
X152435377Y-92476627D01*
X152341128Y-92367857D01*
X152220053Y-92290047D01*
X152220051Y-92290046D01*
X152220049Y-92290045D01*
X152220050Y-92290045D01*
X152081963Y-92249500D01*
X152081961Y-92249500D01*
X151985833Y-92249500D01*
X151918794Y-92229815D01*
X151898152Y-92213181D01*
X151336819Y-91651848D01*
X151303334Y-91590525D01*
X151300500Y-91564167D01*
X151300500Y-91310249D01*
X151300499Y-91310247D01*
X151288868Y-91251770D01*
X151288867Y-91251768D01*
X151263558Y-91213892D01*
X151242679Y-91147215D01*
X151261163Y-91079835D01*
X151263558Y-91076108D01*
X151288867Y-91038231D01*
X151288868Y-91038229D01*
X151298800Y-90988294D01*
X151300500Y-90979748D01*
X151300500Y-90226556D01*
X151320185Y-90159517D01*
X151350189Y-90127290D01*
X151457187Y-90047190D01*
X151457190Y-90047187D01*
X151543350Y-89932093D01*
X151543354Y-89932086D01*
X151593596Y-89797379D01*
X151593598Y-89797372D01*
X151599999Y-89737844D01*
X151600000Y-89737827D01*
X151600000Y-89490000D01*
X149100000Y-89490000D01*
X149100000Y-89737828D01*
X149102625Y-89762245D01*
X149090219Y-89831005D01*
X149042608Y-89882142D01*
X148979335Y-89899500D01*
X148134828Y-89899500D01*
X148067789Y-89879815D01*
X148022034Y-89827011D01*
X148012090Y-89757853D01*
X148022444Y-89723100D01*
X148034068Y-89698173D01*
X148040500Y-89649316D01*
X148040500Y-89200684D01*
X148034068Y-89151827D01*
X147984065Y-89044596D01*
X147920685Y-88981216D01*
X147887200Y-88919893D01*
X147892184Y-88850201D01*
X147920684Y-88805855D01*
X147958224Y-88768316D01*
X147958226Y-88768310D01*
X147964447Y-88759429D01*
X147966405Y-88760800D01*
X148002640Y-88719652D01*
X148068844Y-88700500D01*
X148976000Y-88700500D01*
X149043039Y-88720185D01*
X149088794Y-88772989D01*
X149100000Y-88824500D01*
X149100000Y-88990000D01*
X151600000Y-88990000D01*
X151612270Y-88977729D01*
X151619685Y-88952479D01*
X151672489Y-88906724D01*
X151741647Y-88896780D01*
X151763323Y-88901919D01*
X153582347Y-89510288D01*
X153670292Y-89539701D01*
X153727627Y-89579632D01*
X153743756Y-89605785D01*
X153774622Y-89673371D01*
X153774623Y-89673373D01*
X153868872Y-89782143D01*
X153989947Y-89859953D01*
X153989950Y-89859954D01*
X153989949Y-89859954D01*
X154097107Y-89891417D01*
X154124633Y-89899500D01*
X154128036Y-89900499D01*
X154128038Y-89900500D01*
X154128039Y-89900500D01*
X154271962Y-89900500D01*
X154271962Y-89900499D01*
X154379121Y-89869035D01*
X154410050Y-89859954D01*
X154410050Y-89859953D01*
X154410053Y-89859953D01*
X154531128Y-89782143D01*
X154625377Y-89673373D01*
X154685165Y-89542457D01*
X154705647Y-89400000D01*
X154685165Y-89257543D01*
X154625377Y-89126627D01*
X154531128Y-89017857D01*
X154410053Y-88940047D01*
X154410051Y-88940046D01*
X154410049Y-88940045D01*
X154410050Y-88940045D01*
X154271963Y-88899500D01*
X154271961Y-88899500D01*
X154128039Y-88899500D01*
X154128036Y-88899500D01*
X153989950Y-88940045D01*
X153965398Y-88955823D01*
X153898357Y-88975505D01*
X153859032Y-88969102D01*
X153180461Y-88742155D01*
X166600000Y-88742155D01*
X166600000Y-88990000D01*
X167600000Y-88990000D01*
X168100000Y-88990000D01*
X169100000Y-88990000D01*
X169100000Y-88742172D01*
X169099999Y-88742155D01*
X169093598Y-88682627D01*
X169093596Y-88682620D01*
X169043354Y-88547913D01*
X169043350Y-88547906D01*
X168957190Y-88432812D01*
X168957187Y-88432809D01*
X168842093Y-88346649D01*
X168842086Y-88346645D01*
X168707379Y-88296403D01*
X168707372Y-88296401D01*
X168647844Y-88290000D01*
X168100000Y-88290000D01*
X168100000Y-88990000D01*
X167600000Y-88990000D01*
X167600000Y-88290000D01*
X167052155Y-88290000D01*
X166992627Y-88296401D01*
X166992620Y-88296403D01*
X166857913Y-88346645D01*
X166857906Y-88346649D01*
X166742812Y-88432809D01*
X166742809Y-88432812D01*
X166656649Y-88547906D01*
X166656645Y-88547913D01*
X166606403Y-88682620D01*
X166606401Y-88682627D01*
X166600000Y-88742155D01*
X153180461Y-88742155D01*
X151345872Y-88128580D01*
X151333521Y-88123018D01*
X151333493Y-88123088D01*
X151325994Y-88119982D01*
X151325989Y-88119979D01*
X151322451Y-88119031D01*
X151300274Y-88113088D01*
X151293049Y-88110914D01*
X151281665Y-88107107D01*
X151267788Y-88102466D01*
X151259817Y-88100918D01*
X151259831Y-88100845D01*
X151257627Y-88100487D01*
X151257618Y-88100560D01*
X151249565Y-88099500D01*
X151249562Y-88099500D01*
X151222947Y-88099500D01*
X151215393Y-88099270D01*
X151188817Y-88097648D01*
X151188816Y-88097648D01*
X151180710Y-88098216D01*
X151180704Y-88098141D01*
X151167225Y-88099500D01*
X148068844Y-88099500D01*
X148001805Y-88079815D01*
X147966356Y-88039234D01*
X147964447Y-88040571D01*
X147958224Y-88031684D01*
X147873316Y-87946776D01*
X147764487Y-87896028D01*
X147764485Y-87896027D01*
X147764486Y-87896027D01*
X147714902Y-87889500D01*
X147355102Y-87889500D01*
X147346746Y-87890600D01*
X147345459Y-87890769D01*
X147276425Y-87880001D01*
X147230964Y-87839648D01*
X147229499Y-87840785D01*
X147224714Y-87834616D01*
X147202279Y-87812181D01*
X147168794Y-87750858D01*
X147173778Y-87681166D01*
X147215650Y-87625233D01*
X147281114Y-87600816D01*
X147289960Y-87600500D01*
X149976000Y-87600500D01*
X150043039Y-87620185D01*
G37*
%TD.AperFunction*%
%TA.AperFunction,Conductor*%
G36*
X172094854Y-89820185D02*
G01*
X172140609Y-89872989D01*
X172150553Y-89942147D01*
X172131725Y-89988528D01*
X172133136Y-89989343D01*
X172040074Y-90150530D01*
X171984569Y-90321359D01*
X171965793Y-90500000D01*
X171984569Y-90678640D01*
X171995018Y-90710800D01*
X172040075Y-90849471D01*
X172129887Y-91005029D01*
X172250078Y-91138515D01*
X172395396Y-91244095D01*
X172559490Y-91317154D01*
X172735188Y-91354500D01*
X172914812Y-91354500D01*
X173090510Y-91317154D01*
X173090512Y-91317152D01*
X173096694Y-91315145D01*
X173097118Y-91316450D01*
X173159173Y-91308129D01*
X173222450Y-91337757D01*
X173228042Y-91343013D01*
X173553272Y-91668243D01*
X173574524Y-91707163D01*
X173592298Y-91712017D01*
X173614938Y-91729909D01*
X175663181Y-93778152D01*
X175696666Y-93839475D01*
X175699500Y-93865833D01*
X175699500Y-97343059D01*
X175679815Y-97410098D01*
X175627011Y-97455853D01*
X175557853Y-97465797D01*
X175494297Y-97436772D01*
X175487819Y-97430740D01*
X175435292Y-97378213D01*
X175435288Y-97378210D01*
X175304185Y-97290609D01*
X175304172Y-97290602D01*
X175158501Y-97230264D01*
X175158489Y-97230261D01*
X175003845Y-97199500D01*
X175003842Y-97199500D01*
X174846158Y-97199500D01*
X174846155Y-97199500D01*
X174691510Y-97230261D01*
X174691498Y-97230264D01*
X174545827Y-97290602D01*
X174545814Y-97290609D01*
X174493391Y-97325638D01*
X174426713Y-97346516D01*
X174359333Y-97328031D01*
X174312643Y-97276053D01*
X174300500Y-97222536D01*
X174300500Y-95650439D01*
X174294714Y-95628846D01*
X174280021Y-95574011D01*
X174274723Y-95564834D01*
X174240464Y-95505495D01*
X174240458Y-95505487D01*
X173657406Y-94922435D01*
X173623921Y-94861112D01*
X173627155Y-94796439D01*
X173665431Y-94678639D01*
X173684207Y-94500000D01*
X173665431Y-94321361D01*
X173609925Y-94150529D01*
X173520113Y-93994971D01*
X173405659Y-93867857D01*
X173399923Y-93861486D01*
X173303968Y-93791770D01*
X173254604Y-93755905D01*
X173090510Y-93682846D01*
X173090508Y-93682845D01*
X172914812Y-93645500D01*
X172735188Y-93645500D01*
X172559490Y-93682845D01*
X172559485Y-93682847D01*
X172395397Y-93755905D01*
X172395392Y-93755907D01*
X172250079Y-93861483D01*
X172250072Y-93861489D01*
X172129886Y-93994972D01*
X172040074Y-94150530D01*
X171984569Y-94321359D01*
X171965793Y-94500000D01*
X171984569Y-94678640D01*
X172039671Y-94848230D01*
X172040075Y-94849471D01*
X172129887Y-95005029D01*
X172250078Y-95138515D01*
X172395396Y-95244095D01*
X172559490Y-95317154D01*
X172735188Y-95354500D01*
X172914812Y-95354500D01*
X173090510Y-95317154D01*
X173090512Y-95317152D01*
X173096694Y-95315145D01*
X173097118Y-95316450D01*
X173159173Y-95308129D01*
X173222450Y-95337757D01*
X173228042Y-95343013D01*
X173318848Y-95433819D01*
X173352333Y-95495142D01*
X173347349Y-95564834D01*
X173305477Y-95620767D01*
X173240013Y-95645184D01*
X173231167Y-95645500D01*
X172151247Y-95645500D01*
X172092770Y-95657131D01*
X172092769Y-95657132D01*
X172026447Y-95701447D01*
X171982132Y-95767769D01*
X171982131Y-95767770D01*
X171970500Y-95826247D01*
X171970500Y-97173752D01*
X171982131Y-97232229D01*
X171982132Y-97232230D01*
X172026447Y-97298552D01*
X172092769Y-97342867D01*
X172092770Y-97342868D01*
X172151247Y-97354499D01*
X172151250Y-97354500D01*
X172151252Y-97354500D01*
X173498749Y-97354500D01*
X173517532Y-97350763D01*
X173551308Y-97344045D01*
X173620899Y-97350272D01*
X173676077Y-97393134D01*
X173699322Y-97459024D01*
X173699500Y-97465662D01*
X173699500Y-97501375D01*
X173679815Y-97568414D01*
X173663181Y-97589056D01*
X172656941Y-98595295D01*
X172656935Y-98595303D01*
X172617382Y-98663812D01*
X172617379Y-98663817D01*
X172596900Y-98740247D01*
X172596900Y-99554236D01*
X172577215Y-99621275D01*
X172524411Y-99667030D01*
X172455253Y-99676974D01*
X172440895Y-99673309D01*
X172440830Y-99673587D01*
X172433272Y-99671801D01*
X172373744Y-99665400D01*
X171725000Y-99665400D01*
X171725000Y-103154600D01*
X172373728Y-103154600D01*
X172373744Y-103154599D01*
X172433272Y-103148198D01*
X172433279Y-103148196D01*
X172567986Y-103097954D01*
X172567993Y-103097950D01*
X172683087Y-103011790D01*
X172683090Y-103011787D01*
X172769250Y-102896693D01*
X172769254Y-102896686D01*
X172798540Y-102818168D01*
X172840411Y-102762234D01*
X172905876Y-102737817D01*
X172914722Y-102737501D01*
X173366550Y-102737501D01*
X173436126Y-102723661D01*
X173505718Y-102729888D01*
X173527357Y-102740962D01*
X173619149Y-102799953D01*
X173619152Y-102799954D01*
X173619151Y-102799954D01*
X173681184Y-102818168D01*
X173757200Y-102840488D01*
X173757238Y-102840499D01*
X173757240Y-102840500D01*
X173757241Y-102840500D01*
X173901163Y-102840500D01*
X173971907Y-102819728D01*
X174041776Y-102819728D01*
X174100554Y-102857502D01*
X174128458Y-102914514D01*
X174141131Y-102978229D01*
X174141132Y-102978230D01*
X174185447Y-103044552D01*
X174251769Y-103088867D01*
X174251770Y-103088868D01*
X174310247Y-103100499D01*
X174310250Y-103100500D01*
X174310252Y-103100500D01*
X175205500Y-103100500D01*
X175272539Y-103120185D01*
X175318294Y-103172989D01*
X175329500Y-103224500D01*
X175329500Y-103696918D01*
X175309815Y-103763957D01*
X175272540Y-103801233D01*
X175168874Y-103867855D01*
X175168872Y-103867856D01*
X175168872Y-103867857D01*
X175146672Y-103893476D01*
X175074623Y-103976626D01*
X175074622Y-103976628D01*
X175014834Y-104107543D01*
X174994353Y-104250000D01*
X175014834Y-104392456D01*
X175061976Y-104495680D01*
X175074623Y-104523373D01*
X175168872Y-104632143D01*
X175289947Y-104709953D01*
X175289950Y-104709954D01*
X175289949Y-104709954D01*
X175367427Y-104732703D01*
X175406998Y-104744322D01*
X175428036Y-104750499D01*
X175428038Y-104750500D01*
X175428039Y-104750500D01*
X175571962Y-104750500D01*
X175571962Y-104750499D01*
X175710053Y-104709953D01*
X175831128Y-104632143D01*
X175925377Y-104523373D01*
X175985165Y-104392457D01*
X176005647Y-104250000D01*
X175985165Y-104107543D01*
X175941704Y-104012378D01*
X175930500Y-103960869D01*
X175930500Y-103224500D01*
X175950185Y-103157461D01*
X176002989Y-103111706D01*
X176054500Y-103100500D01*
X176949750Y-103100500D01*
X176949751Y-103100499D01*
X176964568Y-103097552D01*
X177008229Y-103088868D01*
X177008229Y-103088867D01*
X177008231Y-103088867D01*
X177074552Y-103044552D01*
X177118867Y-102978231D01*
X177118867Y-102978229D01*
X177118868Y-102978229D01*
X177128087Y-102931881D01*
X177130500Y-102919748D01*
X177130500Y-102140252D01*
X177130500Y-102140249D01*
X177130499Y-102140247D01*
X177118868Y-102081770D01*
X177118867Y-102081769D01*
X177074552Y-102015448D01*
X177058854Y-102004959D01*
X177048591Y-101998101D01*
X177003787Y-101944491D01*
X176995080Y-101875166D01*
X177025234Y-101812138D01*
X177048590Y-101791899D01*
X177074552Y-101774552D01*
X177118867Y-101708231D01*
X177118867Y-101708229D01*
X177118868Y-101708229D01*
X177130499Y-101649752D01*
X177130500Y-101649750D01*
X177130500Y-101240832D01*
X177150185Y-101173793D01*
X177166815Y-101153155D01*
X177418319Y-100901650D01*
X177479642Y-100868166D01*
X177549334Y-100873150D01*
X177605267Y-100915022D01*
X177629684Y-100980486D01*
X177630000Y-100989332D01*
X177630000Y-101010000D01*
X179306000Y-101010000D01*
X179373039Y-101029685D01*
X179418794Y-101082489D01*
X179430000Y-101134000D01*
X179430000Y-101386000D01*
X179410315Y-101453039D01*
X179357511Y-101498794D01*
X179306000Y-101510000D01*
X177630000Y-101510000D01*
X177630000Y-101707844D01*
X177636401Y-101767372D01*
X177636403Y-101767379D01*
X177686645Y-101902086D01*
X177686649Y-101902093D01*
X177772809Y-102017187D01*
X177772812Y-102017190D01*
X177879811Y-102097290D01*
X177921682Y-102153223D01*
X177929500Y-102196556D01*
X177929500Y-102949752D01*
X177941131Y-103008229D01*
X177941132Y-103008230D01*
X177985447Y-103074552D01*
X178051769Y-103118867D01*
X178051770Y-103118868D01*
X178110247Y-103130499D01*
X178110250Y-103130500D01*
X178110252Y-103130500D01*
X178180167Y-103130500D01*
X178247206Y-103150185D01*
X178292961Y-103202989D01*
X178302905Y-103272147D01*
X178273880Y-103335703D01*
X178267848Y-103342181D01*
X176356848Y-105253181D01*
X176295525Y-105286666D01*
X176269167Y-105289500D01*
X172468012Y-105289500D01*
X172400973Y-105269815D01*
X172355218Y-105217011D01*
X172345274Y-105147853D01*
X172374299Y-105084297D01*
X172433077Y-105046523D01*
X172433418Y-105046423D01*
X172449336Y-105041798D01*
X172589189Y-104959089D01*
X172589198Y-104959082D01*
X172704084Y-104844196D01*
X172708496Y-104838508D01*
X172765135Y-104797596D01*
X172806477Y-104790499D01*
X173092162Y-104790499D01*
X173092164Y-104790499D01*
X173106459Y-104788617D01*
X173142202Y-104783912D01*
X173142207Y-104783909D01*
X173142209Y-104783909D01*
X173252015Y-104732706D01*
X173252016Y-104732705D01*
X173252021Y-104732703D01*
X173337703Y-104647021D01*
X173337706Y-104647014D01*
X173340253Y-104643378D01*
X173394829Y-104599752D01*
X173441829Y-104590500D01*
X173645467Y-104590500D01*
X173712506Y-104610185D01*
X173741544Y-104628846D01*
X173789948Y-104659954D01*
X173928036Y-104700499D01*
X173928038Y-104700500D01*
X173928039Y-104700500D01*
X174071962Y-104700500D01*
X174071962Y-104700499D01*
X174210053Y-104659953D01*
X174331128Y-104582143D01*
X174425377Y-104473373D01*
X174485165Y-104342457D01*
X174505647Y-104200000D01*
X174485165Y-104057543D01*
X174425377Y-103926627D01*
X174331128Y-103817857D01*
X174210053Y-103740047D01*
X174210051Y-103740046D01*
X174210049Y-103740045D01*
X174210050Y-103740045D01*
X174071963Y-103699500D01*
X174071961Y-103699500D01*
X173928039Y-103699500D01*
X173928036Y-103699500D01*
X173789949Y-103740045D01*
X173668873Y-103817856D01*
X173574624Y-103926624D01*
X173570825Y-103932538D01*
X173518021Y-103978294D01*
X173466508Y-103989500D01*
X173441829Y-103989500D01*
X173374790Y-103969815D01*
X173340253Y-103936622D01*
X173337704Y-103932982D01*
X173337703Y-103932979D01*
X173252021Y-103847297D01*
X173252015Y-103847293D01*
X173142208Y-103796090D01*
X173142203Y-103796088D01*
X173142202Y-103796088D01*
X173142200Y-103796087D01*
X173142198Y-103796087D01*
X173092170Y-103789500D01*
X172806483Y-103789500D01*
X172739444Y-103769815D01*
X172708504Y-103741500D01*
X172704088Y-103735807D01*
X172589198Y-103620917D01*
X172589189Y-103620910D01*
X172449335Y-103538200D01*
X172315000Y-103499173D01*
X172315000Y-104166000D01*
X172295315Y-104233039D01*
X172242511Y-104278794D01*
X172191000Y-104290000D01*
X172065000Y-104290000D01*
X172065000Y-104416000D01*
X172045315Y-104483039D01*
X171992511Y-104528794D01*
X171941000Y-104540000D01*
X171297217Y-104540000D01*
X171297870Y-104548307D01*
X171343199Y-104704331D01*
X171343201Y-104704336D01*
X171425910Y-104844189D01*
X171425917Y-104844198D01*
X171540801Y-104959082D01*
X171540810Y-104959089D01*
X171680663Y-105041798D01*
X171696582Y-105046423D01*
X171755468Y-105084029D01*
X171784675Y-105147501D01*
X171774929Y-105216688D01*
X171729326Y-105269623D01*
X171662343Y-105289499D01*
X171661988Y-105289500D01*
X168899776Y-105289500D01*
X168832737Y-105269815D01*
X168798345Y-105230124D01*
X168795653Y-105231924D01*
X168763558Y-105183892D01*
X168742679Y-105117215D01*
X168761163Y-105049835D01*
X168763558Y-105046108D01*
X168788867Y-105008231D01*
X168788868Y-105008229D01*
X168800499Y-104949752D01*
X168800500Y-104949750D01*
X168800500Y-104040000D01*
X171297217Y-104040000D01*
X171815000Y-104040000D01*
X171815000Y-103499173D01*
X171680664Y-103538200D01*
X171540810Y-103620910D01*
X171540801Y-103620917D01*
X171425917Y-103735801D01*
X171425910Y-103735810D01*
X171343201Y-103875663D01*
X171343199Y-103875668D01*
X171297870Y-104031692D01*
X171297217Y-104040000D01*
X168800500Y-104040000D01*
X168800500Y-104010249D01*
X168800499Y-104010247D01*
X168788868Y-103951770D01*
X168788867Y-103951768D01*
X168763558Y-103913892D01*
X168742679Y-103847215D01*
X168761163Y-103779835D01*
X168763558Y-103776108D01*
X168788867Y-103738231D01*
X168788868Y-103738229D01*
X168798756Y-103688515D01*
X168800500Y-103679748D01*
X168800500Y-103265833D01*
X168820185Y-103198794D01*
X168836819Y-103178152D01*
X168964971Y-103050000D01*
X169098419Y-102916551D01*
X169159740Y-102883068D01*
X169229431Y-102888052D01*
X169260409Y-102904968D01*
X169361106Y-102980350D01*
X169361113Y-102980354D01*
X169495820Y-103030596D01*
X169495827Y-103030598D01*
X169555355Y-103036999D01*
X169555372Y-103037000D01*
X169908000Y-103037000D01*
X169908000Y-102534000D01*
X169927685Y-102466961D01*
X169980489Y-102421206D01*
X170032000Y-102410000D01*
X170038000Y-102410000D01*
X170105039Y-102429685D01*
X170150794Y-102482489D01*
X170162000Y-102534000D01*
X170162000Y-103037000D01*
X170259316Y-103037000D01*
X170326355Y-103056685D01*
X170333627Y-103061733D01*
X170382010Y-103097952D01*
X170382013Y-103097954D01*
X170516720Y-103148196D01*
X170516727Y-103148198D01*
X170576255Y-103154599D01*
X170576272Y-103154600D01*
X171225000Y-103154600D01*
X171225000Y-99665400D01*
X170576255Y-99665400D01*
X170516727Y-99671801D01*
X170509170Y-99673587D01*
X170508621Y-99671264D01*
X170450729Y-99675399D01*
X170389409Y-99641908D01*
X170355931Y-99580581D01*
X170353100Y-99554236D01*
X170353100Y-99183039D01*
X170353099Y-99183035D01*
X170349910Y-99171132D01*
X170349910Y-99171133D01*
X170332622Y-99106612D01*
X170293060Y-99038089D01*
X169723706Y-98468735D01*
X169144513Y-97889541D01*
X169142179Y-97888194D01*
X169135800Y-97884511D01*
X169075989Y-97849979D01*
X168999562Y-97829500D01*
X168999560Y-97829500D01*
X168924500Y-97829500D01*
X168857461Y-97809815D01*
X168811706Y-97757011D01*
X168800500Y-97705500D01*
X168800500Y-97660249D01*
X168800499Y-97660247D01*
X168788868Y-97601770D01*
X168788867Y-97601768D01*
X168763558Y-97563892D01*
X168742679Y-97497215D01*
X168761163Y-97429835D01*
X168763558Y-97426108D01*
X168788867Y-97388231D01*
X168788868Y-97388229D01*
X168800499Y-97329752D01*
X168800500Y-97329750D01*
X168800500Y-96390249D01*
X168800499Y-96390247D01*
X168788868Y-96331770D01*
X168788867Y-96331768D01*
X168763558Y-96293892D01*
X168742679Y-96227215D01*
X168761163Y-96159835D01*
X168763558Y-96156108D01*
X168788867Y-96118231D01*
X168788868Y-96118229D01*
X168800392Y-96060289D01*
X168800500Y-96059748D01*
X168800500Y-95120252D01*
X168800500Y-95120249D01*
X168800499Y-95120247D01*
X168788868Y-95061770D01*
X168788867Y-95061768D01*
X168763558Y-95023892D01*
X168742679Y-94957215D01*
X168761163Y-94889835D01*
X168763558Y-94886108D01*
X168788867Y-94848231D01*
X168788868Y-94848229D01*
X168800499Y-94789752D01*
X168800500Y-94789750D01*
X168800500Y-94674500D01*
X168820185Y-94607461D01*
X168872989Y-94561706D01*
X168924500Y-94550500D01*
X169041499Y-94550500D01*
X169108538Y-94570185D01*
X169135211Y-94593296D01*
X169168872Y-94632143D01*
X169289947Y-94709953D01*
X169289950Y-94709954D01*
X169289949Y-94709954D01*
X169397107Y-94741417D01*
X169424633Y-94749500D01*
X169428036Y-94750499D01*
X169428038Y-94750500D01*
X169428039Y-94750500D01*
X169571962Y-94750500D01*
X169571962Y-94750499D01*
X169710053Y-94709953D01*
X169831128Y-94632143D01*
X169925377Y-94523373D01*
X169985165Y-94392457D01*
X170005647Y-94250000D01*
X169985165Y-94107543D01*
X169925377Y-93976627D01*
X169831128Y-93867857D01*
X169710053Y-93790047D01*
X169710051Y-93790046D01*
X169710049Y-93790045D01*
X169710050Y-93790045D01*
X169571963Y-93749500D01*
X169571961Y-93749500D01*
X169428039Y-93749500D01*
X169428036Y-93749500D01*
X169289949Y-93790045D01*
X169168873Y-93867856D01*
X169135212Y-93906703D01*
X169076433Y-93944477D01*
X169041499Y-93949500D01*
X168922006Y-93949500D01*
X168854967Y-93929815D01*
X168809212Y-93877011D01*
X168800389Y-93849691D01*
X168788868Y-93791770D01*
X168788867Y-93791768D01*
X168763558Y-93753892D01*
X168742679Y-93687215D01*
X168761163Y-93619835D01*
X168763558Y-93616108D01*
X168788867Y-93578231D01*
X168788868Y-93578229D01*
X168800499Y-93519752D01*
X168800500Y-93519750D01*
X168800500Y-92945833D01*
X168820185Y-92878794D01*
X168836819Y-92858152D01*
X169194971Y-92500000D01*
X171965793Y-92500000D01*
X171984569Y-92678640D01*
X172009834Y-92756400D01*
X172040075Y-92849471D01*
X172129887Y-93005029D01*
X172226134Y-93111923D01*
X172244340Y-93132143D01*
X172250078Y-93138515D01*
X172395396Y-93244095D01*
X172559490Y-93317154D01*
X172735188Y-93354500D01*
X172914812Y-93354500D01*
X173090510Y-93317154D01*
X173254604Y-93244095D01*
X173399922Y-93138515D01*
X173520113Y-93005029D01*
X173609925Y-92849471D01*
X173665431Y-92678639D01*
X173684207Y-92500000D01*
X173665431Y-92321361D01*
X173609925Y-92150529D01*
X173520113Y-91994971D01*
X173435107Y-91900562D01*
X173419294Y-91867612D01*
X173406164Y-91864756D01*
X173392710Y-91856245D01*
X173254604Y-91755905D01*
X173090510Y-91682846D01*
X173090508Y-91682845D01*
X172914812Y-91645500D01*
X172735188Y-91645500D01*
X172559490Y-91682845D01*
X172559485Y-91682847D01*
X172395397Y-91755905D01*
X172395392Y-91755907D01*
X172250079Y-91861483D01*
X172250072Y-91861489D01*
X172129886Y-91994972D01*
X172040074Y-92150530D01*
X171984569Y-92321359D01*
X171965793Y-92500000D01*
X169194971Y-92500000D01*
X171858152Y-89836819D01*
X171919475Y-89803334D01*
X171945833Y-89800500D01*
X172027815Y-89800500D01*
X172094854Y-89820185D01*
G37*
%TD.AperFunction*%
%TA.AperFunction,Conductor*%
G36*
X146973935Y-90520185D02*
G01*
X147019690Y-90572989D01*
X147029835Y-90640686D01*
X147025000Y-90677409D01*
X147025000Y-91050000D01*
X148954999Y-91050000D01*
X148954999Y-90677414D01*
X148950164Y-90640682D01*
X148960932Y-90571647D01*
X149007313Y-90519393D01*
X149073104Y-90500500D01*
X149275500Y-90500500D01*
X149342539Y-90520185D01*
X149388294Y-90572989D01*
X149399500Y-90624500D01*
X149399500Y-90979752D01*
X149411131Y-91038229D01*
X149411132Y-91038230D01*
X149436442Y-91076109D01*
X149457320Y-91142787D01*
X149438835Y-91210167D01*
X149436442Y-91213891D01*
X149411132Y-91251769D01*
X149411131Y-91251770D01*
X149399500Y-91310247D01*
X149399500Y-92249752D01*
X149411131Y-92308229D01*
X149411132Y-92308230D01*
X149436442Y-92346109D01*
X149457320Y-92412787D01*
X149438835Y-92480167D01*
X149436442Y-92483891D01*
X149411132Y-92521769D01*
X149411131Y-92521770D01*
X149399500Y-92580247D01*
X149399500Y-93519752D01*
X149411131Y-93578229D01*
X149411132Y-93578230D01*
X149436442Y-93616109D01*
X149457320Y-93682787D01*
X149438835Y-93750167D01*
X149436442Y-93753891D01*
X149411132Y-93791769D01*
X149411131Y-93791770D01*
X149399500Y-93850247D01*
X149399500Y-94789752D01*
X149411131Y-94848229D01*
X149411132Y-94848230D01*
X149436442Y-94886109D01*
X149457320Y-94952787D01*
X149438835Y-95020167D01*
X149436442Y-95023891D01*
X149411132Y-95061769D01*
X149411131Y-95061770D01*
X149399500Y-95120247D01*
X149399500Y-96059752D01*
X149411131Y-96118229D01*
X149411132Y-96118230D01*
X149436442Y-96156109D01*
X149457320Y-96222787D01*
X149438835Y-96290167D01*
X149436442Y-96293891D01*
X149411132Y-96331769D01*
X149411131Y-96331770D01*
X149399500Y-96390247D01*
X149399500Y-97329752D01*
X149411131Y-97388229D01*
X149411132Y-97388230D01*
X149436442Y-97426109D01*
X149457320Y-97492787D01*
X149438835Y-97560167D01*
X149436442Y-97563891D01*
X149411132Y-97601769D01*
X149411131Y-97601770D01*
X149399500Y-97660247D01*
X149399500Y-98599752D01*
X149411131Y-98658229D01*
X149411132Y-98658230D01*
X149436442Y-98696109D01*
X149457320Y-98762787D01*
X149438835Y-98830167D01*
X149436442Y-98833891D01*
X149411132Y-98871769D01*
X149411131Y-98871770D01*
X149399500Y-98930247D01*
X149399500Y-99869752D01*
X149411131Y-99928229D01*
X149411132Y-99928230D01*
X149436442Y-99966109D01*
X149457320Y-100032787D01*
X149438835Y-100100167D01*
X149436442Y-100103891D01*
X149411132Y-100141769D01*
X149411131Y-100141770D01*
X149399500Y-100200247D01*
X149399500Y-101139752D01*
X149411131Y-101198229D01*
X149411132Y-101198230D01*
X149436442Y-101236109D01*
X149457320Y-101302787D01*
X149438835Y-101370167D01*
X149436442Y-101373891D01*
X149411132Y-101411769D01*
X149411131Y-101411770D01*
X149399500Y-101470247D01*
X149399500Y-102409752D01*
X149411131Y-102468229D01*
X149411132Y-102468230D01*
X149436442Y-102506109D01*
X149457320Y-102572787D01*
X149438835Y-102640167D01*
X149436442Y-102643891D01*
X149411132Y-102681769D01*
X149411131Y-102681770D01*
X149399500Y-102740247D01*
X149399500Y-103283697D01*
X149379815Y-103350736D01*
X149327011Y-103396491D01*
X149257853Y-103406435D01*
X149240566Y-103402674D01*
X149118555Y-103366849D01*
X149118552Y-103366849D01*
X149066384Y-103366849D01*
X148999345Y-103347164D01*
X148953590Y-103294360D01*
X148943646Y-103225202D01*
X148953590Y-103191337D01*
X149010165Y-103067457D01*
X149030647Y-102925000D01*
X149010165Y-102782543D01*
X148950377Y-102651627D01*
X148856128Y-102542857D01*
X148735053Y-102465047D01*
X148735051Y-102465046D01*
X148735049Y-102465045D01*
X148735050Y-102465045D01*
X148596963Y-102424500D01*
X148596961Y-102424500D01*
X148453039Y-102424500D01*
X148453036Y-102424500D01*
X148314949Y-102465045D01*
X148193873Y-102542856D01*
X148099623Y-102651626D01*
X148099622Y-102651628D01*
X148039834Y-102782543D01*
X148025731Y-102880637D01*
X147996706Y-102944193D01*
X147937928Y-102981967D01*
X147868058Y-102981967D01*
X147809280Y-102944193D01*
X147799891Y-102931881D01*
X147781908Y-102904968D01*
X147765135Y-102879865D01*
X147731666Y-102857502D01*
X147687650Y-102828091D01*
X147629163Y-102816457D01*
X147567253Y-102784071D01*
X147554552Y-102769765D01*
X147477217Y-102667782D01*
X147360308Y-102579128D01*
X147360306Y-102579127D01*
X147223811Y-102525301D01*
X147223809Y-102525300D01*
X147138035Y-102515000D01*
X147130000Y-102515000D01*
X147130000Y-103311000D01*
X147110315Y-103378039D01*
X147057511Y-103423794D01*
X147006000Y-103435000D01*
X146984000Y-103435000D01*
X146916961Y-103415315D01*
X146871206Y-103362511D01*
X146860000Y-103311000D01*
X146860000Y-102515000D01*
X146859999Y-102514999D01*
X146851971Y-102515000D01*
X146759784Y-102526070D01*
X146730217Y-102526070D01*
X146638029Y-102515000D01*
X146630000Y-102515000D01*
X146630000Y-103311000D01*
X146610315Y-103378039D01*
X146557511Y-103423794D01*
X146506000Y-103435000D01*
X146484000Y-103435000D01*
X146416961Y-103415315D01*
X146371206Y-103362511D01*
X146360000Y-103311000D01*
X146360000Y-102515000D01*
X146359999Y-102514999D01*
X146351971Y-102515000D01*
X146266190Y-102525300D01*
X146219989Y-102543520D01*
X146150402Y-102549801D01*
X146088466Y-102517463D01*
X146053845Y-102456774D01*
X146050500Y-102428165D01*
X146050500Y-102204500D01*
X146070185Y-102137461D01*
X146122989Y-102091706D01*
X146174500Y-102080500D01*
X148139560Y-102080500D01*
X148139562Y-102080500D01*
X148215989Y-102060021D01*
X148284511Y-102020460D01*
X148340460Y-101964511D01*
X148390460Y-101914511D01*
X148430022Y-101845988D01*
X148450500Y-101769562D01*
X148450500Y-101754500D01*
X148470185Y-101687461D01*
X148522989Y-101641706D01*
X148574500Y-101630500D01*
X148739750Y-101630500D01*
X148739751Y-101630499D01*
X148754568Y-101627552D01*
X148798229Y-101618868D01*
X148798229Y-101618867D01*
X148798231Y-101618867D01*
X148864552Y-101574552D01*
X148908867Y-101508231D01*
X148908867Y-101508229D01*
X148908868Y-101508229D01*
X148920499Y-101449752D01*
X148920500Y-101449750D01*
X148920500Y-100810249D01*
X148920499Y-100810247D01*
X148908868Y-100751770D01*
X148908867Y-100751769D01*
X148864551Y-100685446D01*
X148820608Y-100656084D01*
X148775804Y-100602472D01*
X148765500Y-100552983D01*
X148765500Y-100373720D01*
X148785185Y-100306681D01*
X148820610Y-100270617D01*
X148823228Y-100268867D01*
X148823231Y-100268867D01*
X148889552Y-100224552D01*
X148933867Y-100158231D01*
X148933867Y-100158229D01*
X148933868Y-100158229D01*
X148945350Y-100100500D01*
X148945500Y-100099748D01*
X148945500Y-99460252D01*
X148945500Y-99460249D01*
X148945499Y-99460247D01*
X148933868Y-99401770D01*
X148933867Y-99401769D01*
X148889551Y-99335446D01*
X148820608Y-99289379D01*
X148775804Y-99235767D01*
X148765500Y-99186278D01*
X148765500Y-99095437D01*
X148760083Y-99075223D01*
X148760082Y-99075218D01*
X148745023Y-99019015D01*
X148745022Y-99019013D01*
X148745022Y-99019012D01*
X148705460Y-98950489D01*
X148240468Y-98485497D01*
X148206983Y-98424174D01*
X148211967Y-98354482D01*
X148253839Y-98298549D01*
X148296052Y-98278042D01*
X148325989Y-98270021D01*
X148394511Y-98230460D01*
X148394517Y-98230453D01*
X148400157Y-98226127D01*
X148465326Y-98200930D01*
X148475647Y-98200500D01*
X148571962Y-98200500D01*
X148571962Y-98200499D01*
X148710053Y-98159953D01*
X148831128Y-98082143D01*
X148925377Y-97973373D01*
X148985165Y-97842457D01*
X149005647Y-97700000D01*
X148985165Y-97557543D01*
X148925377Y-97426627D01*
X148831128Y-97317857D01*
X148710053Y-97240047D01*
X148710051Y-97240046D01*
X148710049Y-97240045D01*
X148710050Y-97240045D01*
X148571963Y-97199500D01*
X148571961Y-97199500D01*
X148428039Y-97199500D01*
X148428036Y-97199500D01*
X148289949Y-97240045D01*
X148168873Y-97317856D01*
X148074623Y-97426626D01*
X148074622Y-97426628D01*
X148014834Y-97557543D01*
X148011154Y-97583146D01*
X147982130Y-97646702D01*
X147923352Y-97684477D01*
X147888416Y-97689500D01*
X147644499Y-97689500D01*
X147577460Y-97669815D01*
X147531705Y-97617011D01*
X147520499Y-97565500D01*
X147520499Y-97388652D01*
X147520499Y-97388646D01*
X147517602Y-97363666D01*
X147478917Y-97276053D01*
X147472490Y-97261496D01*
X147472488Y-97261493D01*
X147472487Y-97261491D01*
X147393509Y-97182513D01*
X147360815Y-97168077D01*
X147291335Y-97137398D01*
X147266357Y-97134500D01*
X147266355Y-97134500D01*
X146124500Y-97134500D01*
X146057461Y-97114815D01*
X146011706Y-97062011D01*
X146000500Y-97010500D01*
X146000500Y-92279499D01*
X146020185Y-92212460D01*
X146072989Y-92166705D01*
X146115930Y-92157363D01*
X146115806Y-92156096D01*
X146121863Y-92155499D01*
X146121868Y-92155499D01*
X146200697Y-92139820D01*
X146290090Y-92080090D01*
X146349820Y-91990697D01*
X146363367Y-91922592D01*
X147025001Y-91922592D01*
X147039663Y-92033976D01*
X147039665Y-92033985D01*
X147097073Y-92172579D01*
X147188400Y-92291599D01*
X147307420Y-92382926D01*
X147446014Y-92440334D01*
X147446016Y-92440335D01*
X147557408Y-92454999D01*
X147739999Y-92454999D01*
X148240000Y-92454999D01*
X148422592Y-92454999D01*
X148533976Y-92440336D01*
X148533985Y-92440334D01*
X148672579Y-92382926D01*
X148791599Y-92291599D01*
X148882926Y-92172579D01*
X148940334Y-92033985D01*
X148940335Y-92033983D01*
X148955000Y-91922591D01*
X148955000Y-91550000D01*
X148240000Y-91550000D01*
X148240000Y-92454999D01*
X147739999Y-92454999D01*
X147740000Y-92454998D01*
X147740000Y-91550000D01*
X147025001Y-91550000D01*
X147025001Y-91922592D01*
X146363367Y-91922592D01*
X146365500Y-91911869D01*
X146365499Y-90688132D01*
X146357654Y-90648689D01*
X146363883Y-90579097D01*
X146406747Y-90523921D01*
X146472638Y-90500678D01*
X146479272Y-90500500D01*
X146535438Y-90500500D01*
X146614562Y-90500500D01*
X146906896Y-90500500D01*
X146973935Y-90520185D01*
G37*
%TD.AperFunction*%
%TA.AperFunction,Conductor*%
G36*
X147591345Y-98702163D02*
G01*
X147635693Y-98730664D01*
X147808681Y-98903652D01*
X147842166Y-98964975D01*
X147845000Y-98991333D01*
X147845000Y-99656000D01*
X147825315Y-99723039D01*
X147772511Y-99768794D01*
X147721000Y-99780000D01*
X147595000Y-99780000D01*
X147595000Y-99906000D01*
X147575315Y-99973039D01*
X147522511Y-100018794D01*
X147471000Y-100030000D01*
X146815000Y-100030000D01*
X146815000Y-100127844D01*
X146821401Y-100187372D01*
X146821403Y-100187379D01*
X146871645Y-100322086D01*
X146871649Y-100322093D01*
X146957809Y-100437187D01*
X146957812Y-100437190D01*
X147072906Y-100523350D01*
X147080696Y-100527604D01*
X147079783Y-100529275D01*
X147126774Y-100564452D01*
X147151191Y-100629916D01*
X147136339Y-100698189D01*
X147130610Y-100707652D01*
X147119427Y-100724389D01*
X147065815Y-100769195D01*
X147016324Y-100779500D01*
X146389500Y-100779500D01*
X146322461Y-100759815D01*
X146276706Y-100707011D01*
X146267815Y-100666142D01*
X146266097Y-100666312D01*
X146265500Y-100660257D01*
X146265500Y-100660252D01*
X146261697Y-100641133D01*
X146253868Y-100601770D01*
X146253867Y-100601769D01*
X146209552Y-100535447D01*
X146143230Y-100491132D01*
X146143229Y-100491131D01*
X146084752Y-100479500D01*
X146084748Y-100479500D01*
X145368405Y-100479500D01*
X145301366Y-100459815D01*
X145255611Y-100407011D01*
X145245667Y-100337853D01*
X145269139Y-100281188D01*
X145328352Y-100202089D01*
X145328354Y-100202086D01*
X145378596Y-100067379D01*
X145378598Y-100067372D01*
X145384999Y-100007844D01*
X145385000Y-100007827D01*
X145385000Y-99910000D01*
X144729000Y-99910000D01*
X144661961Y-99890315D01*
X144616206Y-99837511D01*
X144605000Y-99786000D01*
X144605000Y-99534000D01*
X144624685Y-99466961D01*
X144677489Y-99421206D01*
X144729000Y-99410000D01*
X145385000Y-99410000D01*
X145385000Y-99312172D01*
X145384999Y-99312155D01*
X145378598Y-99252627D01*
X145378596Y-99252620D01*
X145328354Y-99117913D01*
X145328352Y-99117910D01*
X145272881Y-99043811D01*
X145248463Y-98978347D01*
X145263314Y-98910074D01*
X145312719Y-98860668D01*
X145372144Y-98845499D01*
X146955694Y-98845499D01*
X147022733Y-98865184D01*
X147068488Y-98917988D01*
X147078432Y-98987146D01*
X147049407Y-99050702D01*
X147030006Y-99068765D01*
X146957809Y-99122812D01*
X146871649Y-99237906D01*
X146871645Y-99237913D01*
X146821403Y-99372620D01*
X146821401Y-99372627D01*
X146815000Y-99432155D01*
X146815000Y-99530000D01*
X147345000Y-99530000D01*
X147345000Y-98966492D01*
X147327762Y-98934924D01*
X147332746Y-98865232D01*
X147374618Y-98809299D01*
X147385871Y-98802718D01*
X147393502Y-98797490D01*
X147393509Y-98797487D01*
X147460334Y-98730661D01*
X147521653Y-98697179D01*
X147591345Y-98702163D01*
G37*
%TD.AperFunction*%
%TD*%
M02*
